<svg width="151" height="142" viewBox="0 0 151 142" fill="none" xmlns="http://www.w3.org/2000/svg">
<path d="M137.085 57.9268H91.2475C90.5308 57.9268 89.8434 57.659 89.3366 57.1824C88.8298 56.7059 88.5451 56.0595 88.5451 55.3855V12.2917C88.4371 8.9973 86.9696 5.87187 84.4534 3.57749C81.9372 1.2831 78.5701 0 75.0652 0C71.5604 0 68.1933 1.2831 65.6771 3.57749C63.1609 5.87187 61.6934 8.9973 61.5854 12.2917V55.3855C61.5854 55.7192 61.5155 56.0497 61.3797 56.358C61.2439 56.6663 61.0448 56.9465 60.7939 57.1824C60.5429 57.4184 60.245 57.6056 59.9172 57.7333C59.5893 57.861 59.2379 57.9268 58.883 57.9268H13.0707C9.56755 58.0283 6.24403 59.4084 3.80423 61.7746C1.36443 64.1408 0 67.3073 0 70.6032C0 73.8991 1.36443 77.0656 3.80423 79.4318C6.24403 81.798 9.56755 83.1781 13.0707 83.2796H58.8958C59.2507 83.2796 59.6021 83.3453 59.93 83.4731C60.2578 83.6008 60.5557 83.788 60.8067 84.0239C61.0576 84.2599 61.2567 84.5401 61.3925 84.8484C61.5283 85.1567 61.5982 85.4872 61.5982 85.8209V128.927C61.5425 130.624 61.85 132.315 62.5024 133.899C63.1548 135.483 64.1388 136.927 65.396 138.146C66.6532 139.365 68.1581 140.335 69.8212 140.997C71.4844 141.659 73.272 142 75.078 142C76.8841 142 78.6717 141.659 80.3349 140.997C81.998 140.335 83.5029 139.365 84.7601 138.146C86.0173 136.927 87.0013 135.483 87.6537 133.899C88.3061 132.315 88.6135 130.624 88.5579 128.927V85.8089C88.5579 85.1349 88.8426 84.4885 89.3494 84.0119C89.8562 83.5353 90.5436 83.2676 91.2603 83.2676H137.098C138.903 83.3199 140.701 83.0307 142.385 82.4172C144.069 81.8037 145.605 80.8784 146.902 79.6961C148.198 78.5138 149.229 77.0987 149.933 75.5346C150.637 73.9706 151 72.2895 151 70.5912C151 68.8928 150.637 67.2117 149.933 65.6477C149.229 64.0836 148.198 62.6685 146.902 61.4862C145.605 60.3039 144.069 59.3786 142.385 58.7651C140.701 58.1516 138.903 57.8624 137.098 57.9147L137.085 57.9268Z" fill="#D9D9D9" fill-opacity="0.9"/>
</svg>
