<svg id="apple-icon" xmlns="http://www.w3.org/2000/svg" width="50" height="50" viewBox="0 0 50 50">
  <g id="shadow" fill="none" stroke="#690f71" stroke-width="2">
    <rect width="50" height="50" rx="25" stroke="none"/>
    <rect x="1" y="1" width="48" height="48" rx="24" fill="none"/>
  </g>
  <path id="apple" d="M22,19.188a15.259,15.259,0,0,1-1.942,3.948q-2.037,3.1-4.059,3.1a7.3,7.3,0,0,1-2.211-.505,6.985,6.985,0,0,0-2.385-.505,6.078,6.078,0,0,0-2.242.521,5.705,5.705,0,0,1-2.085.537q-2.4,0-4.754-4.09A16.2,16.2,0,0,1,0,14.245,9.367,9.367,0,0,1,1.785,8.339,5.48,5.48,0,0,1,6.27,6.065a10.5,10.5,0,0,1,2.8.474,10.17,10.17,0,0,0,2.18.474A7.9,7.9,0,0,0,13.5,6.475a8.918,8.918,0,0,1,2.732-.537A5.773,5.773,0,0,1,19.6,6.964a8.155,8.155,0,0,1,1.642,1.579,10.236,10.236,0,0,0-1.8,1.864,5.625,5.625,0,0,0-1.026,3.269A6.014,6.014,0,0,0,19.5,17.2a4.8,4.8,0,0,0,2.5,1.99ZM16.061.664A6.022,6.022,0,0,1,15.6,2.811a6.48,6.48,0,0,1-1.469,2.18,4.478,4.478,0,0,1-1.706,1.137,8.822,8.822,0,0,1-1.642.269,7.2,7.2,0,0,1,1.232-4.059A6.292,6.292,0,0,1,15.967,0a1.464,1.464,0,0,1,.039.174,1.463,1.463,0,0,0,.039.174q0,.064.008.158t.008.158Z" transform="translate(13 11)" fill="#fff"/>
</svg>
