<svg width="25" height="31" viewBox="0 0 25 31" fill="none" xmlns="http://www.w3.org/2000/svg">
<path d="M23.8866 0H1.63783C1.02251 0 0.525391 0.494754 0.525391 1.10714V8.85714H24.9991V1.10714C24.9991 0.494754 24.502 0 23.8866 0ZM4.97515 5.8125C4.20687 5.8125 3.5846 5.19319 3.5846 4.42857C3.5846 3.66395 4.20687 3.04464 4.97515 3.04464C5.74343 3.04464 6.3657 3.66395 6.3657 4.42857C6.3657 5.19319 5.74343 5.8125 4.97515 5.8125ZM0.525391 29.8929C0.525391 30.5052 1.02251 31 1.63783 31H23.8866C24.502 31 24.9991 30.5052 24.9991 29.8929V22.1429H0.525391V29.8929ZM4.97515 25.1875C5.74343 25.1875 6.3657 25.8068 6.3657 26.5714C6.3657 27.336 5.74343 27.9554 4.97515 27.9554C4.20687 27.9554 3.5846 27.336 3.5846 26.5714C3.5846 25.8068 4.20687 25.1875 4.97515 25.1875ZM0.525391 19.9286H24.9991V11.0714H0.525391V19.9286ZM4.97515 14.1161C5.74343 14.1161 6.3657 14.7354 6.3657 15.5C6.3657 16.2646 5.74343 16.8839 4.97515 16.8839C4.20687 16.8839 3.5846 16.2646 3.5846 15.5C3.5846 14.7354 4.20687 14.1161 4.97515 14.1161Z" fill="#00B594"/>
</svg>
