<svg width="25" height="31" viewBox="0 0 25 31" fill="none" xmlns="http://www.w3.org/2000/svg">
<path d="M23.8876 0H1.63881C1.02349 0 0.526367 0.494754 0.526367 1.10714V8.85714H25.0001V1.10714C25.0001 0.494754 24.5029 0 23.8876 0ZM4.97613 5.8125C4.20785 5.8125 3.58558 5.19319 3.58558 4.42857C3.58558 3.66395 4.20785 3.04464 4.97613 3.04464C5.74441 3.04464 6.36668 3.66395 6.36668 4.42857C6.36668 5.19319 5.74441 5.8125 4.97613 5.8125ZM0.526367 29.8929C0.526367 30.5052 1.02349 31 1.63881 31H23.8876C24.5029 31 25.0001 30.5052 25.0001 29.8929V22.1429H0.526367V29.8929ZM4.97613 25.1875C5.74441 25.1875 6.36668 25.8068 6.36668 26.5714C6.36668 27.336 5.74441 27.9554 4.97613 27.9554C4.20785 27.9554 3.58558 27.336 3.58558 26.5714C3.58558 25.8068 4.20785 25.1875 4.97613 25.1875ZM0.526367 19.9286H25.0001V11.0714H0.526367V19.9286ZM4.97613 14.1161C5.74441 14.1161 6.36668 14.7354 6.36668 15.5C6.36668 16.2646 5.74441 16.8839 4.97613 16.8839C4.20785 16.8839 3.58558 16.2646 3.58558 15.5C3.58558 14.7354 4.20785 14.1161 4.97613 14.1161Z" fill="#00B594"/>
</svg>
