<svg xmlns="http://www.w3.org/2000/svg" width="40" height="45.714" viewBox="0 0 40 45.714">
  <path id="Icon_awesome-discord" data-name="Icon awesome-discord" d="M26.537,21.714a2.34,2.34,0,1,1-2.331-2.537A2.435,2.435,0,0,1,26.537,21.714ZM15.863,19.177a2.546,2.546,0,0,0,0,5.074,2.435,2.435,0,0,0,2.331-2.537A2.42,2.42,0,0,0,15.863,19.177ZM40,4.709V45.714c-5.758-5.089-3.917-3.4-10.606-9.623l1.211,4.229H4.686A4.7,4.7,0,0,1,0,35.611V4.709A4.7,4.7,0,0,1,4.686,0H35.314A4.7,4.7,0,0,1,40,4.709ZM33.486,26.377a30.609,30.609,0,0,0-3.291-13.326,11.3,11.3,0,0,0-6.423-2.4l-.32.366a15.212,15.212,0,0,1,5.691,2.9,19.422,19.422,0,0,0-17.074-.663c-.846.389-1.349.663-1.349.663a15.42,15.42,0,0,1,6.011-2.994l-.229-.274a11.3,11.3,0,0,0-6.423,2.4A30.609,30.609,0,0,0,6.789,26.377s1.92,3.314,6.971,3.474c0,0,.846-1.029,1.531-1.9a7.109,7.109,0,0,1-4-2.7c.336.235.891.54.937.571a16.661,16.661,0,0,0,14.263.8A13.079,13.079,0,0,0,29.12,25.28,7.213,7.213,0,0,1,24.983,28c.686.869,1.509,1.851,1.509,1.851C31.543,29.691,33.486,26.377,33.486,26.377Z" fill="#ff00e5"/>
</svg>
