<svg width="22" height="22" viewBox="0 0 22 22" fill="none" xmlns="http://www.w3.org/2000/svg">
<path d="M10.9914 20.0158V11.0158M10.9914 20.0158L8.49142 18.0158M10.9914 20.0158L13.4914 18.0158M4.02542 7.13281C3.07963 7.3708 2.25329 7.94597 1.70167 8.75025C1.15005 9.55453 0.911099 10.5326 1.02972 11.5006C1.14835 12.4686 1.61638 13.36 2.34588 14.0073C3.07538 14.6546 4.01615 15.0132 4.99142 15.0158H5.99142" stroke="#00B594" stroke-width="2" stroke-linecap="round" stroke-linejoin="round"/>
<path d="M14.8219 5.15334C14.4801 3.79992 13.6364 2.62708 12.462 1.8726C11.2875 1.11812 9.87013 0.838434 8.49711 1.09025C7.1241 1.34206 5.8982 2.10653 5.06792 3.22868C4.23764 4.35084 3.86512 5.74671 4.02586 7.13334C4.02586 7.13334 4.17886 8.01534 4.49186 8.51534" stroke="#00B594" stroke-width="2" stroke-linecap="round" stroke-linejoin="round"/>
<path d="M15.9912 15.0156C16.6972 15.0151 17.3952 14.8651 18.0391 14.5755C18.683 14.2858 19.2582 13.8631 19.7269 13.3351C20.1957 12.8071 20.5473 12.1858 20.7586 11.5122C20.9699 10.8385 21.0362 10.1277 20.953 9.42657C20.8698 8.72545 20.6391 8.04989 20.276 7.44436C19.9129 6.83884 19.4257 6.31707 18.8464 5.91341C18.2672 5.50975 17.609 5.23334 16.9152 5.10239C16.2214 4.97143 15.5078 4.98889 14.8212 5.15362L13.4912 5.51562" stroke="#00B594" stroke-width="2" stroke-linecap="round" stroke-linejoin="round"/>
</svg>
