<svg xmlns="http://www.w3.org/2000/svg" width="22" height="13.2" viewBox="0 0 22 13.2">
  <path fill="#FF00E5" id="_5e2ecdfd-3490-44c0-a4ad-2be159d008ed" data-name="5e2ecdfd-3490-44c0-a4ad-2be159d008ed" d="M13.75,91.93A2.623,2.623,0,0,1,11,94.4a2.489,2.489,0,1,1,0-4.95,2.626,2.626,0,0,1,2.75,2.475Zm8.156.364A12.319,12.319,0,0,1,11,98.53,12.319,12.319,0,0,1,.094,92.294a.751.751,0,0,1,0-.728A12.318,12.318,0,0,1,11,85.33a12.319,12.319,0,0,1,10.906,6.236A.751.751,0,0,1,21.905,92.294Zm-6.322-.364A4.372,4.372,0,0,0,11,87.8a4.148,4.148,0,1,0,0,8.25A4.377,4.377,0,0,0,15.583,91.93Z" transform="translate(0 -85.33)" fill="#776592" opacity="0.6"/>
</svg>
