<svg xmlns="http://www.w3.org/2000/svg" width="28" height="31.867" viewBox="0 0 28 31.867">
  <g id="file" transform="translate(0)" style="isolation: isolate">
    <path id="Path_17561" data-name="Path 17561" d="M2.923,31.867h15.1a2.968,2.968,0,0,0,2.933-2.974V26.762h4.116A2.917,2.917,0,0,0,28,23.837V6.78a.611.611,0,0,0-.187-.451L21.284.185A.626.626,0,0,0,20.865,0H9.972A2.968,2.968,0,0,0,7.038,2.974V5.1H2.923A2.917,2.917,0,0,0,0,8.031V28.893A2.959,2.959,0,0,0,2.923,31.867ZM14.464,7.139l4.32,4.077H15.362a.9.9,0,0,1-.9-.925ZM21.5,2.082l4.331,4.105H22.412a.936.936,0,0,1-.909-.954ZM8.276,2.974a1.729,1.729,0,0,1,1.7-1.736H20.265v4a2.174,2.174,0,0,0,2.147,2.192h4.351V23.837a1.678,1.678,0,0,1-1.685,1.688H20.961V11.837a.615.615,0,0,0-.193-.451l-6.531-6.12a.61.61,0,0,0-.422-.16H8.276ZM1.237,17.484V8.031A1.678,1.678,0,0,1,2.923,6.343h10.3V10.29a2.141,2.141,0,0,0,2.136,2.163h4.361v16.44a1.729,1.729,0,0,1-1.7,1.736H2.923a1.72,1.72,0,0,1-1.685-1.736Zm0,0" transform="translate(0)" fill="#9c88b9"/>
    <path id="Path_17562" data-name="Path 17562" d="M70.571,348H60.052a.619.619,0,1,0,0,1.238H70.571a.619.619,0,1,0,0-1.238Zm0,0" transform="translate(-54.837 -321.083)" fill="#9c88b9"/>
    <path id="Path_17563" data-name="Path 17563" d="M52.277,209.667l-2.644-2.644,2.644-2.644L51.4,203.5l-3.519,3.519,3.519,3.519Zm0,0" transform="translate(-44.179 -187.763)" fill="#9c88b9"/>
    <path id="Path_17564" data-name="Path 17564" d="M166.184,210.542l3.519-3.519-3.519-3.519-.875.875,2.644,2.644-2.644,2.644Zm0,0" transform="translate(-152.523 -187.763)" fill="#9c88b9"/>
    <path id="Path_17565" data-name="Path 17565" d="M110.309,194.085l2.626-9.667,1.194.324-2.626,9.666Zm0,0" transform="translate(-101.777 -170.154)" fill="#9c88b9"/>
  </g>
</svg>
