<svg id="Group_2393" data-name="Group 2393" xmlns="http://www.w3.org/2000/svg" width="10" height="7.5" viewBox="0 0 10 7.5">
  <path id="Path_14446" data-name="Path 14446" d="M65.667,64.833A.833.833,0,1,1,64.833,64,.833.833,0,0,1,65.667,64.833Zm0,0" transform="translate(-62.75 -62.75)" fill="#fff"/>
  <path id="Path_14447" data-name="Path 14447" d="M8.75,0H1.25A1.252,1.252,0,0,0,0,1.25v5c0,.023.006.045.007.069a.308.308,0,0,0,.015.148A1.249,1.249,0,0,0,1.25,7.5h7.5A1.252,1.252,0,0,0,10,6.25v-5A1.252,1.252,0,0,0,8.75,0ZM1.25.833h7.5a.417.417,0,0,1,.417.417V4.558L6.975,2.366a.731.731,0,0,0-1.033,0L3.958,4.35l-.525-.525a.731.731,0,0,0-1.033,0L.833,5.391V1.25A.417.417,0,0,1,1.25.833Zm0,0" fill="#fff"/>
</svg>
