<svg xmlns="http://www.w3.org/2000/svg" width="40" height="39.001" viewBox="0 0 40 39.001">
  <path id="Icon_awesome-github" data-name="Icon awesome-github" d="M13.379,31.966c0,.161-.185.29-.419.29-.266.024-.452-.1-.452-.29,0-.161.185-.29.419-.29C13.169,31.651,13.379,31.78,13.379,31.966ZM10.871,31.6c-.056.161.1.347.347.4a.378.378,0,0,0,.5-.161c.048-.161-.1-.347-.347-.419A.414.414,0,0,0,10.871,31.6Zm3.565-.137c-.234.056-.4.21-.371.4.024.161.234.266.476.21s.4-.21.371-.371S14.669,31.442,14.435,31.466ZM19.742.563A19.338,19.338,0,0,0,0,20.24,20.219,20.219,0,0,0,13.669,39.53c1.032.185,1.4-.452,1.4-.976,0-.5-.024-3.258-.024-4.952,0,0-5.645,1.21-6.831-2.4,0,0-.919-2.347-2.242-2.952,0,0-1.847-1.266.129-1.242A4.257,4.257,0,0,1,9.21,29.087c1.766,3.113,4.726,2.218,5.879,1.685a4.482,4.482,0,0,1,1.29-2.718c-4.508-.5-9.056-1.153-9.056-8.911a6.112,6.112,0,0,1,1.9-4.75,7.619,7.619,0,0,1,.21-5.476C11.121,8.393,15,11.095,15,11.095a19.052,19.052,0,0,1,10.129,0s3.879-2.71,5.565-2.177a7.616,7.616,0,0,1,.21,5.476,6.269,6.269,0,0,1,2.081,4.75c0,7.782-4.75,8.4-9.258,8.911A4.769,4.769,0,0,1,25.1,31.8c0,2.718-.024,6.081-.024,6.742,0,.524.371,1.161,1.4.976A20.032,20.032,0,0,0,40,20.24C40,9.054,30.927.563,19.742.563ZM7.839,28.377c-.1.081-.081.266.056.419.129.129.315.185.419.081.1-.081.081-.266-.056-.419C8.129,28.329,7.944,28.272,7.839,28.377Zm-.871-.653c-.056.1.024.234.185.315a.24.24,0,0,0,.347-.056c.056-.1-.024-.234-.185-.315C7.153,27.619,7.024,27.643,6.968,27.724Zm2.613,2.871c-.129.1-.081.347.1.5.185.185.419.21.524.081.1-.1.056-.347-.1-.5C9.927,30.49,9.685,30.466,9.581,30.595Zm-.919-1.185c-.129.081-.129.29,0,.476s.347.266.452.185a.368.368,0,0,0,0-.5C9,29.385,8.79,29.3,8.661,29.409Z" transform="translate(0 -0.563)" fill="#ff00e5"/>
</svg>
