<svg id="github-icon" xmlns="http://www.w3.org/2000/svg" width="50" height="50" viewBox="0 0 50 50">
  <g id="shadow" fill="none" stroke="#690f71" stroke-width="2">
    <rect width="50" height="50" rx="25" stroke="none"/>
    <rect x="1" y="1" width="48" height="48" rx="24" fill="none"/>
  </g>
  <path id="github" d="M16,3a13,13,0,0,0-4.111,25.334c.65.114.893-.277.893-.619,0-.308-.016-1.331-.016-2.421-3.266.6-4.111-.8-4.371-1.528a4.736,4.736,0,0,0-1.332-1.836c-.455-.243-1.105-.845-.016-.861a2.6,2.6,0,0,1,2,1.332,2.778,2.778,0,0,0,3.786,1.072,2.734,2.734,0,0,1,.829-1.739c-2.893-.325-5.915-1.446-5.915-6.419a5.062,5.062,0,0,1,1.332-3.494,4.671,4.671,0,0,1,.13-3.445s1.089-.341,3.575,1.334a12.251,12.251,0,0,1,6.5,0c2.486-1.69,3.575-1.331,3.575-1.331a4.671,4.671,0,0,1,.13,3.445,5.029,5.029,0,0,1,1.332,3.493c0,4.989-3.039,6.094-5.931,6.419a3.079,3.079,0,0,1,.878,2.4c0,1.739-.016,3.136-.016,3.575,0,.341.244.746.894.616A13.006,13.006,0,0,0,16,3Z" transform="translate(9 8.461)" fill="#fff" fill-rule="evenodd"/>
</svg>
