<svg width="10" height="10" viewBox="0 0 10 10" fill="none" xmlns="http://www.w3.org/2000/svg">
<path d="M1.03138 0.257947C1.1966 0.0927836 1.42065 0 1.65426 0C1.88787 0 2.11192 0.0927836 2.27713 0.257947L5.39237 3.37319L8.50762 0.257947C8.67378 0.0974644 8.89632 0.00866379 9.12732 0.0106711C9.35832 0.0126784 9.57928 0.105333 9.74263 0.268679C9.90598 0.432025 9.99863 0.652993 10.0006 0.88399C10.0026 1.11499 9.91384 1.33753 9.75336 1.50369L6.63812 4.61894L9.75336 7.73418C9.91384 7.90034 10.0026 8.12288 10.0006 8.35388C9.99863 8.58488 9.90598 8.80585 9.74263 8.96919C9.57928 9.13254 9.35832 9.22519 9.12732 9.2272C8.89632 9.22921 8.67378 9.14041 8.50762 8.97992L5.39237 5.86468L2.27713 8.97992C2.11097 9.14041 1.88843 9.22921 1.65743 9.2272C1.42643 9.22519 1.20546 9.13254 1.04212 8.96919C0.878771 8.80585 0.786116 8.58488 0.784109 8.35388C0.782101 8.12288 0.870902 7.90034 1.03138 7.73418L4.14663 4.61894L1.03138 1.50369C0.866221 1.33848 0.773438 1.11443 0.773438 0.88082C0.773438 0.647208 0.866221 0.42316 1.03138 0.257947Z" fill="#888888"/>
</svg>