<svg id="Group_2394" data-name="Group 2394" xmlns="http://www.w3.org/2000/svg" width="26" height="26" viewBox="0 0 26 26">
  <circle id="Ellipse_5" data-name="Ellipse 5" cx="1.016" cy="1.016" r="1.016" transform="translate(11.984 4.063)" fill="#fff"/>
  <circle id="Ellipse_6" data-name="Ellipse 6" cx="1.016" cy="1.016" r="1.016" transform="translate(19.906 11.984)" fill="#fff"/>
  <circle id="Ellipse_7" data-name="Ellipse 7" cx="1.016" cy="1.016" r="1.016" transform="translate(4.063 11.984)" fill="#fff"/>
  <circle id="Ellipse_8" data-name="Ellipse 8" cx="1.016" cy="1.016" r="1.016" transform="translate(11.984 19.906)" fill="#fff"/>
  <path id="Path_883" data-name="Path 883" d="M13,0A12.862,12.862,0,0,0,0,13,12.862,12.862,0,0,0,13,26,12.862,12.862,0,0,0,26,13,12.862,12.862,0,0,0,13,0Zm0,23.969A10.852,10.852,0,0,1,2.031,13,10.852,10.852,0,0,1,13,2.031,10.852,10.852,0,0,1,23.969,13,10.852,10.852,0,0,1,13,23.969Z" fill="#fff"/>
  <path id="Path_884" data-name="Path 884" d="M241.078,160.063h-3.047v-3.047a1.016,1.016,0,0,0-2.031,0v4.063a1.016,1.016,0,0,0,1.016,1.016h4.063a1.016,1.016,0,0,0,0-2.031Z" transform="translate(-224.016 -148.078)" fill="#fff"/>
</svg>
