<svg xmlns="http://www.w3.org/2000/svg" width="22.5" height="22.5" viewBox="0 0 22.5 22.5">
  <g id="Group_2394" data-name="Group 2394" transform="translate(0.25 0.25)">
    <g id="Group_74" data-name="Group 74">
      <path id="Path_538" data-name="Path 538" d="M8.708,7.333H1.375A1.377,1.377,0,0,1,0,5.958V1.375A1.377,1.377,0,0,1,1.375,0H8.708a1.377,1.377,0,0,1,1.375,1.375V5.958A1.377,1.377,0,0,1,8.708,7.333ZM1.375.917a.459.459,0,0,0-.458.458V5.958a.459.459,0,0,0,.458.458H8.708a.459.459,0,0,0,.458-.458V1.375A.459.459,0,0,0,8.708.917Z" fill="#bbade3" stroke="#bbade3" stroke-width="0.5"/>
    </g>
    <g id="Group_75" data-name="Group 75" transform="translate(0 9.167)">
      <path id="Path_539" data-name="Path 539" d="M8.708,22.833H1.375A1.377,1.377,0,0,1,0,21.458V11.375A1.377,1.377,0,0,1,1.375,10H8.708a1.377,1.377,0,0,1,1.375,1.375V21.458A1.377,1.377,0,0,1,8.708,22.833ZM1.375,10.917a.459.459,0,0,0-.458.458V21.458a.459.459,0,0,0,.458.458H8.708a.459.459,0,0,0,.458-.458V11.375a.459.459,0,0,0-.458-.458Z" transform="translate(0 -10)" fill="#bbade3" stroke="#bbade3" stroke-width="0.5"/>
    </g>
    <g id="Group_76" data-name="Group 76" transform="translate(11.917 14.667)">
      <path id="Path_540" data-name="Path 540" d="M21.708,23.333H14.375A1.377,1.377,0,0,1,13,21.958V17.375A1.377,1.377,0,0,1,14.375,16h7.333a1.377,1.377,0,0,1,1.375,1.375v4.583A1.377,1.377,0,0,1,21.708,23.333Zm-7.333-6.417a.459.459,0,0,0-.458.458v4.583a.459.459,0,0,0,.458.458h7.333a.459.459,0,0,0,.458-.458V17.375a.459.459,0,0,0-.458-.458Z" transform="translate(-13 -16)" fill="#bbade3" stroke="#bbade3" stroke-width="0.5"/>
    </g>
    <g id="Group_77" data-name="Group 77" transform="translate(11.917)">
      <path id="Path_541" data-name="Path 541" d="M21.708,12.833H14.375A1.377,1.377,0,0,1,13,11.458V1.375A1.377,1.377,0,0,1,14.375,0h7.333a1.377,1.377,0,0,1,1.375,1.375V11.458A1.377,1.377,0,0,1,21.708,12.833ZM14.375.917a.459.459,0,0,0-.458.458V11.458a.459.459,0,0,0,.458.458h7.333a.459.459,0,0,0,.458-.458V1.375a.459.459,0,0,0-.458-.458Z" transform="translate(-13)" fill="#bbade3" stroke="#bbade3" stroke-width="0.5"/>
    </g>
  </g>
</svg>
