<svg xmlns="http://www.w3.org/2000/svg" width="14" height="14" viewBox="0 0 14 14"><g transform="translate(-1 -1)"><path d="M14.865,3.935l-2.8-2.8A.467.467,0,0,0,11.733,1H10.8V4.733a.933.933,0,0,1-.933.933H6.133A.933.933,0,0,1,5.2,4.733V1H2.4A1.4,1.4,0,0,0,1,2.4V13.6A1.4,1.4,0,0,0,2.4,15h.933V10.8a1.4,1.4,0,0,1,1.4-1.4h6.533a1.4,1.4,0,0,1,1.4,1.4V15H13.6A1.4,1.4,0,0,0,15,13.6V4.267a.467.467,0,0,0-.135-.331Z" transform="translate(0 0)" fill="#fff"/><path d="M12,1h3.733V4.733H12Z" transform="translate(-5.867 0)" fill="#fff"/><path d="M15,21H8.467A.467.467,0,0,0,8,21.467v4.2h7.467v-4.2A.467.467,0,0,0,15,21Z" transform="translate(-3.733 -10.667)" fill="#fff"/></g></svg>