<svg fill="#ffffff" version="1.1" xmlns="http://www.w3.org/2000/svg" xmlns:xlink="http://www.w3.org/1999/xlink" x="0px" y="0px" viewBox="0 0 1000 1000" enable-background="new 0 0 1000 1000" xml:space="preserve">
<metadata> Svg Vector Icons : http://www.onlinewebfonts.com/icon </metadata>
<g><path d="M513.8,960.9h-81.1c0,0.8-0.2,1.6-0.2,2.4c0,14.7,25.1,26.6,48.3,26.6h38.5c23.2,0,48.2-11.9,48.2-26.6c0-0.8-0.1-1.6-0.1-2.4H513.8z"/><path d="M174,440.3c0-13.5,1.2-26.7,2.9-39.7H67c-17,0-30.9,12.5-30.9,27.9c0,15.4,13.9,27.9,30.9,27.9h107.4C174.2,451.1,174,445.8,174,440.3z"/><path d="M172,685L172,685c-12.1,10.9-12.1,28.5,0,39.5c12.1,10.9,31.7,10.9,43.8,0l56.6-51.1c-12.8-13-26.1-27.4-38.7-44L172,685z"/><path d="M500,130.9L500,130.9h0.9c10.1,0,20.2,0.6,30,1.5V37.9c0-15.4-13.9-27.9-30.9-27.9c-17.1,0-30.9,12.5-30.9,27.9v94.5c9.9-0.9,19.9-1.5,30-1.5H500z"/><path d="M172,172l78.1,70.4v0c12.9-14.7,27.1-28.3,42.6-40.5l-76.9-69.4c-12.1-10.9-31.7-10.9-43.8,0C159.9,143.5,159.9,161.1,172,172z"/><path d="M750.1,242.4L750.1,242.4l78-70.4c12.1-10.9,12.1-28.6,0-39.4c-12-10.9-31.7-10.9-43.8,0L707.4,202C722.9,214.2,737.1,227.8,750.1,242.4z"/><path d="M578.8,893.2H421.3c-16.3,0-29.5,11.9-29.5,26.6c0,14.8,13.3,26.7,29.5,26.7h157.5c16.3,0,29.5-11.9,29.5-26.7C608.3,905.1,595.1,893.2,578.8,893.2z"/><path d="M783.1,440.3L783.1,440.3c0-57.9-21.3-111.4-57.3-154.2c-31.6-37.6-74.4-67.2-124.1-84.5l0.3-1.2l-21.2-5.6c-16.5-4.3-33.5-7.3-50.8-8.9l-2.5-0.3h-0.1l-0.1,0c-8.5-0.7-17.3-1.3-26.6-1.3h-1.4c-9.2,0-18.1,0.6-26.6,1.3l-0.1,0l-2.5,0.3c-17.3,1.6-34.3,4.6-50.8,8.9l-20.5,5.4l0.2,1.2c-49.9,17.3-93.1,46.9-124.8,84.7c-35.9,42.9-57.3,96.4-57.3,154.2c0,41.5,8,75.6,20.3,103.8c18.6,42.3,46.9,70.9,69.7,92.6c11.4,10.8,21.4,20,28.2,27.9c7,7.9,10.3,14.1,11.3,18.9c5,23.7,5.5,53.6,5.5,61.2v2.2c0,34.3,30.8,61.9,68.7,62h158.8c38,0,68.7-27.8,68.7-62v-2.1c0-7.5,0.5-37.5,5.5-61.2c0.7-3.3,2.3-7.1,5.5-11.7c5.4-8,15.7-18,28.5-30c19-18,43.3-40.8,62.5-73.2C769.4,536.5,783.2,494.8,783.1,440.3z M718.2,528.2L718.2,528.2c-15.2,34.5-38,57.9-59.9,78.8c-11,10.5-21.7,20.2-31.1,31c-9.3,10.6-17.5,22.8-20.7,37.7c-6,29.1-6.2,60.3-6.3,69.2v2.1c0,10.4-9.3,18.7-20.7,18.7H420.6c-5.8,0-10.9-2.1-14.7-5.5c-3.8-3.5-6-8-6-13.2v-2.2c0-9-0.3-40.1-6.3-69.1c-2-9.8-6.5-18.7-11.9-26.5c-9.6-13.7-21.8-25-34.4-37c-19.1-17.9-39.3-37.3-55-63.7c-15.7-26.5-27.3-60.1-27.4-108.1c0-48.2,17.7-92.4,47.6-128.1c29.9-35.6,72-62.5,120.6-75.6l6-1.6c11.7-2.7,23.8-4.9,36.1-6.1h0.1l2.3-0.2c7.3-0.6,14.3-1,21.3-1.1l1.2,0.1l1.2-0.1c6.9,0,14,0.4,21.2,1h-0.1l2.4,0.2h0c12.4,1.2,24.4,3.3,36.1,6.1l6.1,1.6c48.6,13.1,90.6,40,120.5,75.6c29.9,35.7,47.5,79.9,47.5,128.1C735.1,476.9,728.3,505.2,718.2,528.2z"/><path d="M828,685l-61.7-55.6c-12.6,16.6-25.9,31-38.7,44l56.6,51.1c12.1,10.9,31.7,10.9,43.8,0C840.2,713.5,840.2,695.9,828,685z"/><path d="M933,400.6H823.1c1.8,13,2.9,26.2,2.9,39.7c0,5.5-0.1,10.8-0.3,16.1H933c17.1,0,30.9-12.5,30.9-27.9C963.9,413.1,950.1,400.6,933,400.6z"/><path d="M578.8,825.9H421.3c-16.3,0-29.5,11.9-29.5,26.7c0,14.6,13.3,26.6,29.5,26.6h157.5c16.3,0,29.5-12,29.5-26.6C608.3,837.8,595.1,825.9,578.8,825.9z"/><path d="M524.4,328.4c-7.1-1.3-14.3-1.9-21.5-1.9c-64.6,0-119.2,50.6-119.2,110.6v23.9h0.1c0.6,10.2,9.1,18.2,19.4,18.2c10.7,0,19.4-8.7,19.4-19.4c0-0.4,0-0.8-0.1-1.2V437c0-38.3,37.5-71.8,80.3-71.8c4.9,0,9.7,0.4,14.4,1.3c29.5,5.8,55,29.1,60.6,55.4c6.4,30.4-6.4,60.3-32.6,76.1c-41.3,23.5-62.2,40.4-62.2,68c0,0,0,2.8,0,7.2c0,21.9,38.8,22.8,38.8,0c0-5.5,0-7.2,0-7.2c0-6.7,14.4-18.3,42.9-34.5l0.1-0.1c40.8-24.5,60.8-70.6,50.9-117.6C606.9,372.3,569.4,337.1,524.4,328.4z"/><path d="M480.8,651c0,12.2,9.9,22.1,22.1,22.1c12.2,0,22.1-9.9,22.1-22.1c0-12.2-9.9-22.1-22.1-22.1C490.7,628.8,480.8,638.8,480.8,651z"/></g>
</svg>