<svg xmlns="http://www.w3.org/2000/svg" width="17" height="18.918" viewBox="0 0 17 18.918"><g transform="translate(-946 -6.093)"><g transform="translate(946 6.093)"><path d="M5.926.854a.6.6,0,0,1,.6-.6h4.139a.6.6,0,0,1,.6.6V8.1a.6.6,0,0,1-1.208,0V1.458H7.133V8.9a4.629,4.629,0,0,1-.917,2.765l-4.17,5.6a.439.439,0,0,0,.344.7H9.4a.6.6,0,1,1,0,1.208H2.39a1.646,1.646,0,0,1-1.312-2.631l4.17-5.6A3.422,3.422,0,0,0,5.926,8.9Z" transform="translate(-0.75 -0.25)" fill="#fff" fill-rule="evenodd"/><path d="M5.75.854a.6.6,0,0,1,.6-.6h6.44a.6.6,0,0,1,0,1.208H6.354A.6.6,0,0,1,5.75.854Z" transform="translate(-1.724 -0.25)" fill="#fff" fill-rule="evenodd"/><path d="M10.25,3.854a.6.6,0,0,1,.6-.6h1.61a.6.6,0,0,1,0,1.208h-1.61A.6.6,0,0,1,10.25,3.854Z" transform="translate(-2.602 -0.835)" fill="#fff" fill-rule="evenodd"/><path d="M10.25,6.854a.6.6,0,0,1,.6-.6h1.61a.6.6,0,1,1,0,1.208h-1.61A.6.6,0,0,1,10.25,6.854Z" transform="translate(-2.602 -1.42)" fill="#fff" fill-rule="evenodd"/></g><path d="M20.107,3.161,18.243,2.074l-1.513-.882L14.8.1c-.416-.243-.825-.048-.825.434V6.667c0,.481.409.677.825.434l1.9-1.087c.417-.242,1.114-.639,1.53-.882L20.1,4.044A.468.468,0,0,0,20.107,3.161Z" transform="translate(942.585 15.842)" fill="#fff"/></g></svg>