<svg fill='#fff' viewBox="0 0 512 512" xmlns="http://www.w3.org/2000/svg"><path d="m404.1 235.4-3.3-5.7c.1-40.8-18.8-57.4-40.9-70 6.7-1.8 13.5-3.2 15.5-11.6 11.5-2.9 13.9-8.3 15-13.9 3-2 13-7.6 11.9-17.3 5.6-3.9 8.8-8.9 7.1-15.9 6.1-6.6 7.6-12 5.1-17 7.3-9.1 4-13.7 1-18.4 5.4-9.8.6-20.4-14.6-18.6-6.1-8.9-19.2-6.9-21.3-6.9-2.3-2.8-5.3-5.3-14.5-4.1-6-5.4-12.7-4.4-19.6-1.8-8.2-6.4-13.6-1.2-19.9.7-9.9-3.2-12.2 1.1-17 3-10.8-2.3-14.1 2.6-19.3 7.8l-6.1-.1c-16.2 9.4-24.3 28.8-27.2 38.7-2.9-9.9-11-29.3-27.3-38.7l-6.1.1c-5.2-5.2-8.5-10.1-19.3-7.8-4.9-1.8-7.1-6.2-17-3-4-1.2-7.8-3.9-12.2-3.8-2.3.1-4.8.9-7.6 3.1-6.9-2.6-13.6-3.5-19.6 1.8-9.2-1.1-12.3 1.2-14.5 4.1-2 0-15.2-2-21.3 6.9-15.2-1.8-19.9 8.8-14.5 18.6-3.1 4.7-6.3 9.4 1 18.4-2.5 5-1 10.5 5.1 17-1.6 7 1.6 12 7.1 15.9-1.1 9.7 9 15.3 11.9 17.3 1.1 5.6 3.5 10.9 15 13.9 1.9 8.3 8.8 9.8 15.5 11.6-22.1 12.7-40.9 29.3-40.9 70l-3.3 5.7c-25.3 15.1-48 63.9-12.4 103.4 2.3 12.4 6.2 21.3 9.7 31.1 5.2 39.7 39.1 58.3 48 60.5 13.1 9.8 27.1 19.2 45.9 25.7 17.8 18.1 37.2 25 56.5 25h.9c19.4 0 38.7-6.9 56.4-25 18.9-6.5 32.8-15.8 45.9-25.7 9-2.2 42.8-20.7 48-60.5 3.4-9.8 7.4-18.7 9.7-31.1 35.4-39.6 12.7-88.3-12.5-103.4zm-19.5-7c-1.3 16.4-86.9-57.2-72.1-59.7 40.1-6.6 73.4 16.9 72.1 59.7zm-37.8 81.8c-21.5 13.9-52.5 4.9-69.2-20-16.7-25-12.8-56.4 8.7-70.3s52.5-4.9 69.2 20 12.8 56.4-8.7 70.3zm-59.7-253.3c.7 3.7 1.6 6 2.5 6.7 4.7-5.1 8.6-10.3 14.8-15.2 0 2.9-1.5 6 2.2 8.3 3.3-4.4 7.7-8.3 13.6-11.7-2.8 4.9-.5 6.4 1.1 8.4 4.5-3.9 8.8-7.7 17-10.8-2.3 2.7-5.4 5.4-2.1 8.6 4.7-2.9 9.3-5.8 20.3-7.8-2.5 2.7-7.6 5.5-4.5 8.3 5.8-2.2 12.3-3.9 19.4-4.7-3.4 2.8-6.2 5.5-3.4 7.7 6.2-1.9 14.8-4.5 23.2-2.3l-5.3 5.4c-.6.7 12.4.5 21 .7-3.2 4.4-6.3 8.5-8.2 16 .9.9 5.1.4 9.1 0-4.1 8.7-11.2 10.8-12.9 14.6 2.5 1.9 6 1.4 9.8.1-3 6.1-9.1 10.3-14.1 15.2 1.2.9 3.4 1.4 8.5.8-4.6 4.8-10 9.2-16.5 13.2 1.1 1.3 5.1 1.3 8.8 1.4-5.9 5.7-13.4 8.7-20.6 12.5 3.5 2.4 6.1 1.8 8.8 1.8-5 4.1-13.5 6.2-21.4 8.8 1.5 2.4 3 3 6.2 3.6-8.3 4.7-20.4 2.5-23.7 4.9.8 2.4 3.2 3.9 5.9 5.1-13.5.8-50.3-.5-57.5-28.4 13.8-15.2 39-32.9 82.3-55-33.7 11.2-64.1 26.4-89.6 47-29.9-14.1-9.3-49.3 5.3-63.2zm-30.2 100.7c21.3-.3 47.5 15.6 47.4 30.5-.1 13.2-18.5 23.8-47.3 23.6-28.2-.4-47.2-13.4-47.1-26.2.1-10.5 23.1-28.6 47-27.9zm-108.1-11.3c3.3-.6 4.7-1.3 6.2-3.6-7.9-2.5-16.4-4.7-21.4-8.8 2.7 0 5.3.6 8.8-1.8-7.1-3.8-14.7-6.8-20.6-12.5 3.7-.1 7.6 0 8.8-1.4-6.5-4-11.9-8.3-16.5-13.2 5.1.6 7.3.1 8.5-.8-4.9-4.9-11.2-9.1-14.1-15.2 3.8 1.3 7.3 1.8 9.8-.1-1.7-3.7-8.8-5.9-12.9-14.6 4 .4 8.3.9 9.1 0-1.8-7.5-5.1-11.7-8.2-16 8.6-.1 21.6 0 21-.7l-5.3-5.4c8.3-2.2 17 .4 23.2 2.3 2.8-2.2-.1-4.9-3.4-7.7 7.1 1 13.5 2.5 19.4 4.7 3.1-2.7-2-5.5-4.5-8.3 11 2 15.6 4.9 20.3 7.8 3.3-3.2.2-5.9-2.1-8.6 8.3 3 12.6 6.9 17 10.8 1.5-2 3.9-3.5 1.1-8.4 5.9 3.3 10.4 7.3 13.6 11.7 3.6-2.3 2.2-5.4 2.2-8.3 6.2 4.9 10 10.1 14.8 15.2 1-.7 1.8-3 2.5-6.7 14.6 14 35.2 49.1 5.3 63.1-25.5-20.6-55.9-35.8-89.6-47 43.3 22 68.5 39.8 82.3 55-7 27.9-43.9 29.2-57.5 28.4 2.7-1.2 5.1-2.8 5.9-5.1-3.3-2.3-15.3-.2-23.7-4.8zm52.8 21.2c14.8 2.5-70.8 76-72.1 59.7-1.3-42.8 32.1-66.4 72.1-59.7zm-90.8 164.1c-20.8-16.5-27.5-64.8 11.1-86.4 23.2-6.1 7.8 94.8-11.1 86.4zm79.9 86.3c-11.7 6.9-40.2 4.1-60.5-24.5-13.6-24.1-11.9-48.5-2.3-55.7 14.3-8.6 36.5 3 53.5 22.5 14.9 17.6 21.7 48.6 9.3 57.7zm-23.2-105.2c-21.5-13.9-25.4-45.3-8.7-70.3s47.7-33.9 69.2-20 25.4 45.3 8.7 70.3-47.7 33.9-69.2 20zm89.8 154.2c-25.8 1.1-51.1-20.8-50.8-28.4-.4-11.2 31.5-19.9 52.1-19.3 20.8-.9 48.9 6.6 48.9 16.6.5 9.7-25.2 31.6-50.2 31.1zm51.8-109.7c.2 26.1-23 47.3-51.7 47.4-28.6.2-52-20.9-52.2-46.9v-.5c-.2-26.1 23-47.3 51.7-47.4 28.6-.2 52 20.9 52.2 46.9zm72.2 37.5c-22.2 30.4-52.4 31.5-63.5 23.1-11.7-10.9-2.8-44.7 13.3-63.3 18.4-20.5 38-33.8 51.8-23.4 9.1 9.1 14.6 43.2-1.6 63.6zm20.1-64.3c-18.9 8.3-34.3-92.5-11.1-86.4 38.6 21.7 32 70 11.1 86.4z"/></svg>