<svg xmlns="http://www.w3.org/2000/svg" width="25" height="25" viewBox="0 0 25 25">
  <g id="device" transform="translate(-2 -2)">
    <path id="Path_18754" data-name="Path 18754" d="M46.761,7.154A.417.417,0,0,0,46.441,7h-.367V2.417A.417.417,0,0,0,45.657,2H37.324a.417.417,0,0,0-.417.417V7h-.367a.417.417,0,0,0-.321.154.412.412,0,0,0-.083.35L36.5,9.171a.417.417,0,0,0,.408.329h9.167a.417.417,0,0,0,.408-.329L46.845,7.5A.412.412,0,0,0,46.761,7.154ZM37.741,2.833h7.5V7H42.324a.417.417,0,0,0-.417.417h-.833A.417.417,0,0,0,40.657,7H37.741Zm8,5.833h-8.5l-.179-.833h3.179a.417.417,0,0,0,.417.417h1.667a.417.417,0,0,0,.417-.417H45.92Z" transform="translate(-19.907 0)" fill="#fff"/>
    <path id="Path_18755" data-name="Path 18755" d="M9.917,42H3.25A1.254,1.254,0,0,0,2,43.25v4.167a1.254,1.254,0,0,0,1.25,1.25H4.829l-.279,1.15a.409.409,0,0,0,.075.358.417.417,0,0,0,.329.158H8.213a.417.417,0,0,0,.329-.158.409.409,0,0,0,.075-.358l-.279-1.15H9.917a1.254,1.254,0,0,0,1.25-1.25V43.25A1.254,1.254,0,0,0,9.917,42ZM5.483,49.5l.2-.833H7.479l.2.833Zm4.85-2.083a.417.417,0,0,1-.417.417H3.25a.417.417,0,0,1-.417-.417V47h7.5Zm0-1.25h-7.5V43.25a.417.417,0,0,1,.417-.417H9.917a.417.417,0,0,1,.417.417Z" transform="translate(0 -23.333)" fill="#fff"/>
    <path id="Path_18756" data-name="Path 18756" d="M52.583,40H49.25A1.254,1.254,0,0,0,48,41.25v6.667a1.254,1.254,0,0,0,1.25,1.25h3.333a1.254,1.254,0,0,0,1.25-1.25V41.25A1.254,1.254,0,0,0,52.583,40Zm-.833.833a.417.417,0,0,1-.417.417H50.5a.417.417,0,0,1-.417-.417ZM53,47.917a.417.417,0,0,1-.417.417H49.25a.417.417,0,0,1-.417-.417V41.25a.417.417,0,0,1,.417-.417,1.254,1.254,0,0,0,1.25,1.25h.833a1.254,1.254,0,0,0,1.25-1.25A.417.417,0,0,1,53,41.25Z" transform="translate(-26.833 -22.167)" fill="#fff"/>
    <path id="Path_18757" data-name="Path 18757" d="M8.25,2h-5A1.254,1.254,0,0,0,2,3.25V9.917a1.254,1.254,0,0,0,1.25,1.25h5A1.254,1.254,0,0,0,9.5,9.917V3.25A1.254,1.254,0,0,0,8.25,2Zm.417,7.917a.417.417,0,0,1-.417.417h-5a.417.417,0,0,1-.417-.417V3.25a.417.417,0,0,1,.417-.417h5a.417.417,0,0,1,.417.417Z" transform="translate(0 0)" fill="#fff"/>
    <rect id="Rectangle_679" data-name="Rectangle 679" width="0.833" height="0.833" transform="translate(5.333 8.667)" fill="#fff"/>
    <path id="Path_18758" data-name="Path 18758" d="M29.8,24.375l-1-.125.621-.8a.414.414,0,0,0-.037-.55l-1.121-1.121a.417.417,0,0,0-.55-.038l-.8.621-.125-1A.422.422,0,0,0,26.375,21H24.792a.422.422,0,0,0-.417.367l-.125,1-.8-.621a.417.417,0,0,0-.55.038L21.783,22.9a.414.414,0,0,0-.038.55l.621.8-1,.125a.422.422,0,0,0-.367.417v1.583a.422.422,0,0,0,.367.417l1,.125-.621.8a.414.414,0,0,0,.037.55L22.9,29.383a.417.417,0,0,0,.55.037l.8-.621.125,1a.422.422,0,0,0,.417.367h1.583a.422.422,0,0,0,.417-.367l.125-1,.8.621a.417.417,0,0,0,.55-.037l1.121-1.121a.414.414,0,0,0,.037-.55l-.621-.8,1-.125a.422.422,0,0,0,.367-.417V24.792a.422.422,0,0,0-.367-.417Zm-.467,1.633-.987.125a.41.41,0,0,0-.342.279c-.037.1-.079.2-.125.3a.408.408,0,0,0,.046.438l.612.787-.6.6-.787-.613a.408.408,0,0,0-.437-.046,3.232,3.232,0,0,1-.3.125.412.412,0,0,0-.275.342l-.125.988h-.85l-.125-.987A.412.412,0,0,0,24.758,28a3.232,3.232,0,0,1-.3-.125.408.408,0,0,0-.437.046l-.788.612-.6-.6.612-.787a.408.408,0,0,0,.046-.437c-.046-.1-.087-.2-.125-.3a.41.41,0,0,0-.342-.279l-.988-.125v-.85l.987-.125a.41.41,0,0,0,.342-.279c.037-.1.079-.2.125-.3a.408.408,0,0,0-.046-.437l-.613-.788.6-.6.787.612a.408.408,0,0,0,.438.046c.1-.046.2-.087.3-.125a.41.41,0,0,0,.279-.342l.125-.987h.85l.125.987a.41.41,0,0,0,.279.342c.1.038.2.079.3.125a.408.408,0,0,0,.438-.046l.788-.612.6.6-.612.788a.408.408,0,0,0-.046.438c.046.1.087.2.125.3a.41.41,0,0,0,.342.279l.988.125Z" transform="translate(-11.083 -11.083)" fill="#fff"/>
    <path id="Path_18759" data-name="Path 18759" d="M31.167,29.083a2.083,2.083,0,1,0-2.083,2.083,2.083,2.083,0,0,0,2.083-2.083Zm-2.083,1.25a1.25,1.25,0,1,1,1.25-1.25A1.25,1.25,0,0,1,29.083,30.333Z" transform="translate(-14.583 -14.583)" fill="#fff"/>
    <path id="Path_18760" data-name="Path 18760" d="M45,25.333v.833h1.667a.417.417,0,0,0,.417-.417V22H46.25v3.333Z" transform="translate(-25.083 -11.667)" fill="#fff"/>
    <path id="Path_18761" data-name="Path 18761" d="M11,31.417V34.75h.833V31.833h2.5V31H11.417A.417.417,0,0,0,11,31.417Z" transform="translate(-5.25 -16.917)" fill="#fff"/>
    <path id="Path_18762" data-name="Path 18762" d="M25.75,14.917h.833v-2.5A.417.417,0,0,0,26.167,12H22v.833h3.75Z" transform="translate(-11.667 -5.833)" fill="#fff"/>
    <path id="Path_18763" data-name="Path 18763" d="M31.833,45H31v3.333a.417.417,0,0,0,.417.417H37.25v-.833H31.833Z" transform="translate(-16.917 -25.083)" fill="#fff"/>
  </g>
</svg>
