<svg id="analytics_1_" data-name="analytics (1)" xmlns="http://www.w3.org/2000/svg" width="25" height="25" viewBox="0 0 25 25">
  <g id="Group_2484" data-name="Group 2484" transform="translate(0 23.958)">
    <g id="Group_2483" data-name="Group 2483">
      <path id="Path_18730" data-name="Path 18730" d="M24.479,490.667H.521a.521.521,0,1,0,0,1.042H24.479a.521.521,0,1,0,0-1.042Z" transform="translate(0 -490.667)" fill="#fff"/>
    </g>
  </g>
  <g id="Group_2486" data-name="Group 2486" transform="translate(1.042 17.708)">
    <g id="Group_2485" data-name="Group 2485">
      <path id="Path_18731" data-name="Path 18731" d="M24.979,362.667H21.854a.521.521,0,0,0-.521.521v6.25a.521.521,0,0,0,.521.521h3.125a.521.521,0,0,0,.521-.521v-6.25A.521.521,0,0,0,24.979,362.667Zm-.521,6.25H22.375v-5.208h2.083v5.208Z" transform="translate(-21.333 -362.667)" fill="#fff"/>
    </g>
  </g>
  <g id="Group_2488" data-name="Group 2488" transform="translate(7.292 12.5)">
    <g id="Group_2487" data-name="Group 2487">
      <path id="Path_18732" data-name="Path 18732" d="M152.979,256h-3.125a.521.521,0,0,0-.521.521v11.458a.521.521,0,0,0,.521.521h3.125a.521.521,0,0,0,.521-.521V256.521A.521.521,0,0,0,152.979,256Zm-.521,11.458h-2.083V257.042h2.083Z" transform="translate(-149.333 -256)" fill="#fff"/>
    </g>
  </g>
  <g id="Group_2490" data-name="Group 2490" transform="translate(13.542 14.583)">
    <g id="Group_2489" data-name="Group 2489">
      <path id="Path_18733" data-name="Path 18733" d="M280.979,298.667h-3.125a.521.521,0,0,0-.521.521v9.375a.521.521,0,0,0,.521.521h3.125a.521.521,0,0,0,.521-.521v-9.375A.521.521,0,0,0,280.979,298.667Zm-.521,9.375h-2.083v-8.333h2.083Z" transform="translate(-277.333 -298.667)" fill="#fff"/>
    </g>
  </g>
  <g id="Group_2492" data-name="Group 2492" transform="translate(19.792 8.333)">
    <g id="Group_2491" data-name="Group 2491">
      <path id="Path_18734" data-name="Path 18734" d="M408.979,170.667h-3.125a.521.521,0,0,0-.521.521v15.625a.521.521,0,0,0,.521.521h3.125a.521.521,0,0,0,.521-.521V171.188A.521.521,0,0,0,408.979,170.667Zm-.521,15.625h-2.083V171.709h2.083Z" transform="translate(-405.333 -170.667)" fill="#fff"/>
    </g>
  </g>
  <g id="Group_2494" data-name="Group 2494" transform="translate(1.042 9.375)">
    <g id="Group_2493" data-name="Group 2493">
      <path id="Path_18735" data-name="Path 18735" d="M23.416,192a2.083,2.083,0,1,0,2.083,2.083A2.085,2.085,0,0,0,23.416,192Zm0,3.125a1.042,1.042,0,1,1,1.042-1.042A1.043,1.043,0,0,1,23.416,195.125Z" transform="translate(-21.333 -192)" fill="#fff"/>
    </g>
  </g>
  <g id="Group_2496" data-name="Group 2496" transform="translate(7.292 4.167)">
    <g id="Group_2495" data-name="Group 2495">
      <path id="Path_18736" data-name="Path 18736" d="M151.416,85.333a2.083,2.083,0,1,0,2.083,2.083A2.085,2.085,0,0,0,151.416,85.333Zm0,3.125a1.042,1.042,0,1,1,1.042-1.042A1.043,1.043,0,0,1,151.416,88.458Z" transform="translate(-149.333 -85.333)" fill="#fff"/>
    </g>
  </g>
  <g id="Group_2498" data-name="Group 2498" transform="translate(13.542 6.25)">
    <g id="Group_2497" data-name="Group 2497">
      <path id="Path_18737" data-name="Path 18737" d="M279.416,128a2.083,2.083,0,1,0,2.083,2.083A2.085,2.085,0,0,0,279.416,128Zm0,3.125a1.042,1.042,0,1,1,1.042-1.042A1.043,1.043,0,0,1,279.416,131.125Z" transform="translate(-277.333 -128)" fill="#fff"/>
    </g>
  </g>
  <g id="Group_2500" data-name="Group 2500" transform="translate(19.792)">
    <g id="Group_2499" data-name="Group 2499">
      <path id="Path_18738" data-name="Path 18738" d="M407.416,0A2.083,2.083,0,1,0,409.5,2.083,2.085,2.085,0,0,0,407.416,0Zm0,3.125a1.042,1.042,0,1,1,1.042-1.042A1.043,1.043,0,0,1,407.416,3.125Z" transform="translate(-405.333)" fill="#fff"/>
    </g>
  </g>
  <g id="Group_2502" data-name="Group 2502" transform="translate(16.209 2.666)">
    <g id="Group_2501" data-name="Group 2501">
      <path id="Path_18739" data-name="Path 18739" d="M336.893,54.76a.521.521,0,0,0-.736,0L332.115,58.8a.521.521,0,0,0,.736.736l4.042-4.042A.521.521,0,0,0,336.893,54.76Z" transform="translate(-331.963 -54.608)" fill="#fff"/>
    </g>
  </g>
  <g id="Group_2504" data-name="Group 2504" transform="translate(10.357 6.156)">
    <g id="Group_2503" data-name="Group 2503">
      <path id="Path_18740" data-name="Path 18740" d="M216.117,127.053l-3.346-.954a.521.521,0,0,0-.285,1l3.346.954a.521.521,0,0,0,.285-1Z" transform="translate(-212.108 -126.078)" fill="#fff"/>
    </g>
  </g>
  <g id="Group_2506" data-name="Group 2506" transform="translate(3.708 6.703)">
    <g id="Group_2505" data-name="Group 2505">
      <path id="Path_18741" data-name="Path 18741" d="M80.789,137.469a.521.521,0,0,0-.731-.083l-3.927,3.131a.521.521,0,0,0,.325.928.526.526,0,0,0,.324-.112l3.927-3.131A.52.52,0,0,0,80.789,137.469Z" transform="translate(-75.935 -137.273)" fill="#fff"/>
    </g>
  </g>
</svg>
