<svg xmlns="http://www.w3.org/2000/svg" width="16.2" height="16.2" viewBox="0 0 16.2 16.2">
  <g id="analytics" transform="translate(0.1 0.1)">
    <g id="Group_2458" data-name="Group 2458" transform="translate(6.5 12.75)">
      <g id="Group_2457" data-name="Group 2457">
        <rect id="Rectangle_675" data-name="Rectangle 675" width="0.75" height="0.5" fill="#fff" stroke="#fff" stroke-width="0.2"/>
      </g>
    </g>
    <g id="Group_2460" data-name="Group 2460">
      <g id="Group_2459" data-name="Group 2459">
        <path id="Path_18724" data-name="Path 18724" d="M14.75,0H1.25A1.251,1.251,0,0,0,0,1.25V12a1.251,1.251,0,0,0,1.25,1.25H2.5v-.5H1.25A.751.751,0,0,1,.5,12V2.5h15V12a.751.751,0,0,1-.75.75v.5A1.251,1.251,0,0,0,16,12V1.25A1.251,1.251,0,0,0,14.75,0Zm.75,2H.5V1.25A.751.751,0,0,1,1.25.5h13.5a.751.751,0,0,1,.75.75Z" fill="#fff" stroke="#fff" stroke-width="0.2"/>
      </g>
    </g>
    <g id="Group_2462" data-name="Group 2462" transform="translate(1 1)">
      <g id="Group_2461" data-name="Group 2461">
        <circle id="Ellipse_545" data-name="Ellipse 545" cx="0.25" cy="0.25" r="0.25" fill="#fff" stroke="#fff" stroke-width="0.2"/>
      </g>
    </g>
    <g id="Group_2464" data-name="Group 2464" transform="translate(2 1)">
      <g id="Group_2463" data-name="Group 2463">
        <circle id="Ellipse_546" data-name="Ellipse 546" cx="0.25" cy="0.25" r="0.25" fill="#fff" stroke="#fff" stroke-width="0.2"/>
      </g>
    </g>
    <g id="Group_2466" data-name="Group 2466" transform="translate(3 1)">
      <g id="Group_2465" data-name="Group 2465">
        <circle id="Ellipse_547" data-name="Ellipse 547" cx="0.25" cy="0.25" r="0.25" fill="#fff" stroke="#fff" stroke-width="0.2"/>
      </g>
    </g>
    <g id="Group_2468" data-name="Group 2468" transform="translate(1.25 4)">
      <g id="Group_2467" data-name="Group 2467">
        <path id="Path_18725" data-name="Path 18725" d="M51.75,134h-1.5v-1a.25.25,0,0,0-.25-.25H46.765A3.473,3.473,0,0,0,47,131.5a.25.25,0,0,0-.25-.25h-3v-3a.25.25,0,0,0-.25-.25,3.5,3.5,0,1,0,3.027,5.25H49.75V134h-2a1.251,1.251,0,0,0-1.25,1.25v2.5A1.251,1.251,0,0,0,47.75,139h4A1.251,1.251,0,0,0,53,137.75v-2.5A1.251,1.251,0,0,0,51.75,134ZM40.5,131.5a3,3,0,0,1,2.75-2.99v2.939l-1.13,2.711A3,3,0,0,1,40.5,131.5Zm5.724,1.25H45.2a.75.75,0,1,0,0,.5h.729a2.989,2.989,0,0,1-3.352,1.1l1.085-2.6H46.49A2.974,2.974,0,0,1,46.224,132.75ZM44.75,133a.25.25,0,1,1-.25-.25A.25.25,0,0,1,44.75,133Zm7.75,4.75a.751.751,0,0,1-.75.75h-4a.751.751,0,0,1-.75-.75v-2.5a.751.751,0,0,1,.75-.75h4a.751.751,0,0,1,.75.75Z" transform="translate(-40 -128)" fill="#fff" stroke="#fff" stroke-width="0.2"/>
      </g>
    </g>
    <g id="Group_2470" data-name="Group 2470" transform="translate(5.5 3)">
      <g id="Group_2469" data-name="Group 2469">
        <path id="Path_18726" data-name="Path 18726" d="M179.75,96a.249.249,0,0,0-.177.073l-.9.9A3.485,3.485,0,0,0,176.25,96a.25.25,0,0,0-.25.25V99.5a.25.25,0,0,0,.25.25h3.25a.25.25,0,0,0,.25-.25,3.48,3.48,0,0,0-.745-2.152l.848-.848H181V96Zm-.51,3.25H176.5V96.51a2.99,2.99,0,0,1,1.816.82l-.493.493.354.353.472-.472A2.978,2.978,0,0,1,179.24,99.25Z" transform="translate(-176 -96)" fill="#fff" stroke="#fff" stroke-width="0.2"/>
      </g>
    </g>
    <g id="Group_2472" data-name="Group 2472" transform="translate(11 3)">
      <g id="Group_2471" data-name="Group 2471">
        <rect id="Rectangle_676" data-name="Rectangle 676" width="4" height="0.5" fill="#fff" stroke="#fff" stroke-width="0.2"/>
      </g>
    </g>
    <g id="Group_2474" data-name="Group 2474" transform="translate(11 4)">
      <g id="Group_2473" data-name="Group 2473">
        <rect id="Rectangle_677" data-name="Rectangle 677" width="4" height="0.5" fill="#fff" stroke="#fff" stroke-width="0.2"/>
      </g>
    </g>
    <g id="Group_2476" data-name="Group 2476" transform="translate(11 5)">
      <g id="Group_2475" data-name="Group 2475">
        <rect id="Rectangle_678" data-name="Rectangle 678" width="4" height="0.5" fill="#fff" stroke="#fff" stroke-width="0.2"/>
      </g>
    </g>
    <g id="Group_2478" data-name="Group 2478" transform="translate(0.5 11.75)">
      <g id="Group_2477" data-name="Group 2477">
        <path id="Path_18727" data-name="Path 18727" d="M21.5,379.75v-2.5a.25.25,0,0,0-.25-.25h-1v-.75A.25.25,0,0,0,20,376H18.75a.25.25,0,0,0-.25.25v2h-1a.25.25,0,0,0-.25.25v1.25H16v.5h6.5v-.5Zm-3,0h-.75v-1h.75Zm1.25-2.5v2.5H19V376.5h.75Zm1.25,2.5h-.75V377.5H21Z" transform="translate(-16 -376)" fill="#fff" stroke="#fff" stroke-width="0.2"/>
      </g>
    </g>
    <g id="Group_2480" data-name="Group 2480" transform="translate(8.518 11)">
      <g id="Group_2479" data-name="Group 2479">
        <path id="Path_18728" data-name="Path 18728" d="M276.829,352.418l-.578,1.734-1.22-2.034a.25.25,0,0,0-.444.03l-.6,1.411-.489-.489a.25.25,0,0,0-.409.084l-.5,1.25.464.186.359-.9.482.482a.25.25,0,0,0,.406-.078l.557-1.3,1.249,2.081a.249.249,0,0,0,.214.121h.027a.25.25,0,0,0,.21-.17l.75-2.25Z" transform="translate(-272.584 -351.997)" fill="#fff" stroke="#fff" stroke-width="0.2"/>
      </g>
    </g>
    <g id="Group_2482" data-name="Group 2482" transform="translate(12 6.5)">
      <g id="Group_2481" data-name="Group 2481">
        <path id="Path_18729" data-name="Path 18729" d="M386.75,208h-2.5a.25.25,0,0,0-.25.25v2a.25.25,0,0,0,.25.25h2.5a.25.25,0,0,0,.25-.25v-2A.25.25,0,0,0,386.75,208Zm-.713.5-.537.43-.537-.43Zm-1.537.27.6.48-.6.48Zm.463,1.23.537-.43.538.43Zm1.537-.27-.6-.48.6-.48Z" transform="translate(-384 -208)" fill="#fff" stroke="#fff" stroke-width="0.2"/>
      </g>
    </g>
  </g>
</svg>
