<svg xmlns="http://www.w3.org/2000/svg" width="29" height="29" viewBox="0 0 29 29"><g transform="translate(9.436)"><circle cx="0.85" cy="0.85" r="0.85" transform="translate(9.436 8.429)" fill="#fff"/><path d="M176.128,44.546a14.6,14.6,0,0,0-4.4,3.592,26.612,26.612,0,0,0-3.88,6.61,14.788,14.788,0,0,0-1.258,4.292l2.547,2.547a13.469,13.469,0,0,0,4.289-1.258,26.544,26.544,0,0,0,6.6-3.867,14.584,14.584,0,0,0,3.609-4.412ZM175.074,53.1a2.549,2.549,0,1,1,3.6,0A2.552,2.552,0,0,1,175.074,53.1Z" transform="translate(-166.591 -42.023)" fill="#fff"/><path d="M370.117,8.415A22.215,22.215,0,0,0,371.85,0a22.214,22.214,0,0,0-8.415,1.732Z" transform="translate(-352.286)" fill="#fff"/></g><g transform="translate(0 18.238)"><path d="M0,332.753c.621-1.9,1.956-7.964,3.512-9.52A4.248,4.248,0,0,1,9.52,329.24C7.962,330.8,1.744,332.183,0,332.753Z" transform="translate(0 -321.99)" fill="#fff"/></g><path d="M91.408,84.073l-2.046-.515-6.349,6.349,1.2,1.2a2.548,2.548,0,0,1,3.254-.286A28.622,28.622,0,0,1,91.408,84.073Z" transform="translate(-78.311 -78.825)" fill="#fff"/><path d="M302.181,280.784a28.331,28.331,0,0,1-6.75,3.938,2.549,2.549,0,0,1-.286,3.255l1.2,1.2,6.349-6.349Z" transform="translate(-278.428 -264.88)" fill="#fff"/></svg>