<svg xmlns="http://www.w3.org/2000/svg" viewBox="0 0 44 53.97">
  <g id="apple-logo" transform="translate(-2.104)">
    <g id="Group_893" data-name="Group 893" transform="translate(2.104)">
      <path id="Path_17204" data-name="Path 17204" d="M21.837,0h.384a11.557,11.557,0,0,1-2.91,8.709c-1.732,2.045-4.1,4.029-7.942,3.728A11.21,11.21,0,0,1,14.331,4,12.8,12.8,0,0,1,21.837,0Z" transform="translate(10.548)" fill="#fff"/>
      <path id="Path_17205" data-name="Path 17205" d="M46.1,32.093V32.2a31.4,31.4,0,0,1-4.493,8.662C39.9,43.22,37.8,46.393,34.048,46.393c-3.24,0-5.392-2.083-8.712-2.14-3.512-.057-5.444,1.742-8.655,2.195H15.586c-2.358-.341-4.261-2.209-5.648-3.891A34.093,34.093,0,0,1,2.1,22.942V20.527C2.353,14.645,5.211,9.863,9.01,7.545a11.663,11.663,0,0,1,7.83-1.813,19.7,19.7,0,0,1,3.837,1.1,10.6,10.6,0,0,0,3.835,1.149,9.2,9.2,0,0,0,2.69-.822c2.645-.955,5.238-2.05,8.655-1.536,4.107.621,7.022,2.446,8.823,5.261-3.474,2.211-6.221,5.543-5.752,11.233C39.345,27.287,42.35,30.311,46.1,32.093Z" transform="translate(-2.104 7.523)" fill="#fff"/>
    </g>
  </g>
</svg>
