<svg xmlns="http://www.w3.org/2000/svg" width="16.206" height="16.2" viewBox="0 0 16.206 16.2">
  <g id="software-development" transform="translate(0.103 0.1)">
    <path id="Path_18686" data-name="Path 18686" d="M14.5,6.667,15.773,5.34a.783.783,0,0,0-.249-1.271L13.6,3.258V1.067A1.067,1.067,0,0,0,12.533,0H3.466A1.067,1.067,0,0,0,2.4,1.067V3.258L.474,4.069A.783.783,0,0,0,.223,5.336L1.5,6.667.225,7.993a.783.783,0,0,0,.25,1.271L1.6,9.738V12.88a.778.778,0,0,0,.48.716l5.613,2.337A.74.74,0,0,0,8,16a.706.706,0,0,0,.293-.063l5.624-2.34a.778.778,0,0,0,.48-.716V9.738l1.125-.474A.784.784,0,0,0,15.776,8ZM8,9.042,2.535,6.667l1.84-.8h7.249l1.84.8ZM15.316,4.56a.242.242,0,0,1,.145.179.251.251,0,0,1-.07.228L14.069,6.348l-1.227-.533A1.064,1.064,0,0,0,13.6,4.8V3.836ZM3.466.533h9.067a.533.533,0,0,1,.533.533V4.8a.533.533,0,0,1-.533.533H3.466A.533.533,0,0,1,2.933,4.8V1.067A.533.533,0,0,1,3.466.533ZM.538,4.739A.242.242,0,0,1,.682,4.56L2.4,3.836V4.8a1.064,1.064,0,0,0,.756,1.015l-1.227.533L.605,4.964a.248.248,0,0,1-.067-.225Zm0,3.854a.25.25,0,0,1,.069-.229L1.93,6.987l5.6,2.433L6.02,10.863a.236.236,0,0,1-.26.053L.683,8.773a.242.242,0,0,1-.145-.18ZM2.287,13.1a.242.242,0,0,1-.154-.225V9.963l3.419,1.443a.769.769,0,0,0,.3.062.759.759,0,0,0,.541-.226L7.733,9.958v5.413Zm11.58-.225a.242.242,0,0,1-.153.224L8.266,15.372V9.959L9.6,11.239a.766.766,0,0,0,.847.169l3.419-1.445Zm1.595-4.287a.242.242,0,0,1-.145.179l-5.077,2.143a.24.24,0,0,1-.265-.058l-1.5-1.44,5.6-2.43,1.325,1.382a.247.247,0,0,1,.067.225Z" transform="translate(0)" fill="#fff" stroke="#fff" stroke-width="0.2"/>
    <path id="Path_18687" data-name="Path 18687" d="M18.067,7.2a.533.533,0,0,1-.533-.533.267.267,0,1,0-.533,0A1.067,1.067,0,1,0,18.067,5.6a.533.533,0,1,1,.533-.533.267.267,0,1,0,.533,0,1.067,1.067,0,1,0-1.067,1.067.533.533,0,0,1,0,1.067Z" transform="translate(-12.467 -2.933)" fill="#fff" stroke="#fff" stroke-width="0.2"/>
    <path id="Path_18688" data-name="Path 18688" d="M27.267,7.733H27.8a1.067,1.067,0,0,0,1.067-1.067v-1.6A1.067,1.067,0,0,0,27.8,4h-.533A.267.267,0,0,0,27,4.267v3.2A.267.267,0,0,0,27.267,7.733Zm.267-3.2H27.8a.533.533,0,0,1,.533.533v1.6A.533.533,0,0,1,27.8,7.2h-.267Z" transform="translate(-19.801 -2.933)" fill="#fff" stroke="#fff" stroke-width="0.2"/>
    <path id="Path_18689" data-name="Path 18689" d="M36.267,7.732a.267.267,0,0,0,.267-.267V6.6l.862,1.034a.267.267,0,0,0,.41-.342L36.613,5.866,37.8,4.437a.267.267,0,1,0-.41-.342l-.861,1.034V4.266a.267.267,0,1,0-.533,0v3.2A.267.267,0,0,0,36.267,7.732Z" transform="translate(-26.401 -2.933)" fill="#fff" stroke="#fff" stroke-width="0.2"/>
  </g>
</svg>
