<svg xmlns="http://www.w3.org/2000/svg" width="25" height="28.85" viewBox="0 0 25 28.85">
  <g id="error-message" transform="translate(-4 0)">
    <path id="Path_18764" data-name="Path 18764" d="M28.442,24a1.442,1.442,0,1,0,1.442,1.442A1.442,1.442,0,0,0,28.442,24Zm0,1.923a.481.481,0,1,1,.481-.481A.481.481,0,0,1,28.442,25.923Z" transform="translate(-11.942 -12.461)" fill="#fff"/>
    <path id="Path_18765" data-name="Path 18765" d="M28.046,14.731h0a1.533,1.533,0,0,0,1.519-1.4l.281-3.375a1.808,1.808,0,1,0-3.6,0l.281,3.375a1.533,1.533,0,0,0,1.522,1.4Zm-.625-5.5a.847.847,0,0,1,1.467.643l-.281,3.375a.567.567,0,0,1-.561.516h0a.567.567,0,0,1-.561-.516L27.2,9.878A.839.839,0,0,1,27.421,9.234Z" transform="translate(-11.546 -4.153)" fill="#fff"/>
    <path id="Path_18766" data-name="Path 18766" d="M8.856,28.75a.945.945,0,0,0,1-.1l5.366-4.135H26.115A2.887,2.887,0,0,0,29,21.635V10.1a2.888,2.888,0,0,0-2.885-2.885H22.59L18.843,1.29a2.774,2.774,0,0,0-4.687,0L10.41,7.212H6.885A2.888,2.888,0,0,0,4,10.1V21.635a2.888,2.888,0,0,0,2.885,2.885H8.327V27.9a.942.942,0,0,0,.529.851ZM14.969,1.8a1.813,1.813,0,0,1,3.063,0l6.839,10.811a1.806,1.806,0,0,1-1.53,2.77H9.66a1.806,1.806,0,0,1-1.53-2.771ZM6.885,23.558a1.923,1.923,0,0,1-1.923-1.923V10.1A1.923,1.923,0,0,1,6.885,8.173H9.8L7.317,12.1A2.768,2.768,0,0,0,9.66,16.346H23.34A2.767,2.767,0,0,0,25.683,12.1L23.2,8.173h2.917A1.923,1.923,0,0,1,28.038,10.1V21.635a1.923,1.923,0,0,1-1.923,1.923H15.222a.962.962,0,0,0-.587.2L9.288,27.9v-3.38a.962.962,0,0,0-.962-.962Z" fill="#fff"/>
    <path id="Path_18767" data-name="Path 18767" d="M11.481,37.962h1.442a.481.481,0,0,0,0-.962H11.481a.481.481,0,0,0,0,.962Z" transform="translate(-3.635 -19.211)" fill="#fff"/>
    <path id="Path_18768" data-name="Path 18768" d="M36.923,42H35.481a.481.481,0,0,0,0,.962h1.442a.481.481,0,1,0,0-.962Z" transform="translate(-16.096 -21.808)" fill="#fff"/>
    <path id="Path_18769" data-name="Path 18769" d="M18.481,37.962H30.019a.481.481,0,1,0,0-.962H18.481a.481.481,0,1,0,0,.962Z" transform="translate(-7.269 -19.211)" fill="#fff"/>
    <path id="Path_18770" data-name="Path 18770" d="M21.577,42.481A.481.481,0,0,0,21.1,42H11.481a.481.481,0,1,0,0,.962H21.1A.481.481,0,0,0,21.577,42.481Z" transform="translate(-3.635 -21.808)" fill="#fff"/>
    <path id="Path_18771" data-name="Path 18771" d="M46.481,37.962h.481a.481.481,0,0,0,0-.962h-.481a.481.481,0,0,0,0,.962Z" transform="translate(-21.808 -19.211)" fill="#fff"/>
  </g>
</svg>
