<svg id="lock" xmlns="http://www.w3.org/2000/svg" width="14" height="19.455" viewBox="0 0 14 19.455">
  <g id="lock_1_" data-name="lock (1)">
    <g id="Group_2442" data-name="Group 2442">
      <g id="Group_2441" data-name="Group 2441">
        <path id="Path_18675" data-name="Path 18675" d="M90.216,8.05v-3.2a4.55,4.55,0,1,0-9.081,0v3.2A1.7,1.7,0,0,0,80,9.649v5.676a1.7,1.7,0,0,0,1.7,1.7h7.946a1.7,1.7,0,0,0,1.7-1.7V9.649A1.7,1.7,0,0,0,90.216,8.05Zm-7.946-3.2a3.418,3.418,0,1,1,6.811,0v3.1H82.27Zm7.946,10.478a.568.568,0,0,1-.568.568H81.7a.568.568,0,0,1-.568-.568V9.649a.568.568,0,0,1,.568-.568h7.946a.568.568,0,0,1,.568.568Z" transform="translate(-80)" fill="#fff"/>
        <path id="Path_18676" data-name="Path 18676" d="M209.135,304a1.132,1.132,0,0,0-.568,2.113v1.293a.568.568,0,1,0,1.135,0v-1.293a1.132,1.132,0,0,0-.568-2.113Z" transform="translate(-203.459 -293.216)" fill="#fff"/>
      </g>
    </g>
  </g>
  <g id="Group_2447" data-name="Group 2447" transform="translate(8.703 12.444)">
    <path id="Path_18673" data-name="Path 18673" d="M66.094,1.118A4.22,4.22,0,0,1,63.786.054a.2.2,0,0,0-.274,0A4.207,4.207,0,0,1,61.2,1.118a.2.2,0,0,0-.2.205v2.46A3.392,3.392,0,0,0,63.576,7a.2.2,0,0,0,.145,0C65.272,6.4,66.3,5.47,66.3,3.783V1.323A.2.2,0,0,0,66.094,1.118Z" transform="translate(-61 0)" fill="#fff"/>
    <g id="correct" transform="translate(1.324 2.503)">
      <path id="Path_18674" data-name="Path 18674" d="M13.359,19.308a.125.125,0,0,0-.087.038l-1.649,1.645-.566-.567a.126.126,0,1,0-.178.178l.653.655.008.007a.126.126,0,0,0,.194-.026l1.717-1.713A.126.126,0,0,0,13.359,19.308Z" transform="translate(-10.84 -19.308)" fill="#fff" stroke="#776592" stroke-width="0.5"/>
    </g>
  </g>
</svg>
