<svg xmlns="http://www.w3.org/2000/svg" width="25" height="25" viewBox="0 0 25 25">
  <g id="knowledge" transform="translate(-2 -2)">
    <path id="Path_18742" data-name="Path 18742" d="M30.461,6.878l-.589-.589-.955.955V5.333h1.667A.417.417,0,0,0,31,4.917v-2.5A.417.417,0,0,0,30.583,2H26.417A.417.417,0,0,0,26,2.417v2.5a.417.417,0,0,0,.417.417h1.667V7.244l-.955-.955-.589.589,1.667,1.667a.416.416,0,0,0,.589,0ZM26.833,2.833h3.333V4.5H26.833Z" transform="translate(-14)" fill="#fff"/>
    <path id="Path_18749" data-name="Path 18749" d="M22.417,23a.415.415,0,0,0,.295-.122l1.545-1.545h.321a1.25,1.25,0,1,0,0-.833h-.493a.415.415,0,0,0-.295.122l-1.545,1.545h-.661V20.083A2.086,2.086,0,0,0,19.5,18H9.5a2.086,2.086,0,0,0-2.083,2.083v2.083H6.756L5.211,20.622a.415.415,0,0,0-.295-.122H4.423a1.25,1.25,0,1,0,0,.833h.321l1.545,1.545A.415.415,0,0,0,6.583,23h.833v1.25H4.423a1.25,1.25,0,1,0,0,.833H7.417v1.25H6.583a.415.415,0,0,0-.295.122L4.744,28H4.423a1.25,1.25,0,1,0,0,.833h.493a.415.415,0,0,0,.295-.122l1.545-1.545h.661V29.25A2.086,2.086,0,0,0,9.5,31.333h2.917v1.25h-1.25a.416.416,0,0,0-.275.73l3.333,2.917a.416.416,0,0,0,.549,0l3.333-2.917a.416.416,0,0,0-.274-.73h-1.25v-1.25H19.5a2.086,2.086,0,0,0,2.083-2.083V27.167h.661l1.545,1.545a.415.415,0,0,0,.295.122h.493a1.25,1.25,0,1,0,0-.833h-.321l-1.545-1.545a.415.415,0,0,0-.295-.122h-.833v-1.25h2.993a1.25,1.25,0,1,0,0-.833H21.583V23Zm3.333-2.5a.417.417,0,1,1-.417.417A.417.417,0,0,1,25.75,20.5Zm-22.5.833a.417.417,0,1,1,.417-.417A.417.417,0,0,1,3.25,21.333Zm0,3.75a.417.417,0,1,1,.417-.417A.417.417,0,0,1,3.25,25.083Zm0,3.75a.417.417,0,1,1,.417-.417A.417.417,0,0,1,3.25,28.833Zm12.917,4.583h.558L14.5,35.363l-2.225-1.946h.558A.417.417,0,0,0,13.25,33V31.333h2.5V33A.417.417,0,0,0,16.167,33.417ZM20.75,29.25A1.252,1.252,0,0,1,19.5,30.5H9.5a1.252,1.252,0,0,1-1.25-1.25V20.083a1.252,1.252,0,0,1,1.25-1.25h10a1.252,1.252,0,0,1,1.25,1.25Zm5-1.25a.417.417,0,1,1-.417.417A.417.417,0,0,1,25.75,28Zm0-3.75a.417.417,0,1,1-.417.417A.417.417,0,0,1,25.75,24.25Z" transform="translate(0 -9.333)" fill="#fff"/>
    <g id="_60-minutes_1_" data-name="60-minutes (1)" transform="translate(9 10)">
      <path id="Path_18751" data-name="Path 18751" d="M48.7,44.2a4.5,4.5,0,0,0-4.493,4.358.2.2,0,0,0-.007.036.179.179,0,0,0,0,.021c0,.029,0,.056,0,.085a4.5,4.5,0,1,0,4.5-4.5Zm2.963,7.284-.517-.5a.214.214,0,1,0-.3.308l.506.489a4.05,4.05,0,0,1-2.432.98V52.1a.214.214,0,1,0-.428,0v.654a4.049,4.049,0,0,1-2.445-.976l.409-.422a.214.214,0,1,0-.307-.3l-.41.424A4.052,4.052,0,0,1,44.633,48.8h.757a.214.214,0,0,0,0-.428h-.746a4.05,4.05,0,0,1,.889-2.234l.547.529a.214.214,0,0,0,.3-.308l-.559-.541a4.057,4.057,0,0,1,2.676-1.187v.637a.214.214,0,1,0,.428,0v-.636a4.05,4.05,0,0,1,2.468,1.013l-.488.5a.214.214,0,0,0,.308.3l.485-.5a4.05,4.05,0,0,1,1.059,2.427h-.728a.214.214,0,1,0,0,.428h.739A4.052,4.052,0,0,1,51.663,51.479Zm0,0" transform="translate(-43.375 -43.371)" fill="#fff"/>
      <path id="Path_18752" data-name="Path 18752" d="M188.175,152.582a.8.8,0,0,0-.8.8v.781a.8.8,0,0,0,1.6,0v-.781A.8.8,0,0,0,188.175,152.582Zm.372,1.581a.372.372,0,1,1-.743,0v-.781a.372.372,0,1,1,.743,0Zm0,0" transform="translate(-182.061 -148.359)" fill="#fff"/>
      <path id="Path_18753" data-name="Path 18753" d="M132.147,137.49h-.372v-.16a.707.707,0,0,1,.706-.706.214.214,0,0,0,0-.428,1.136,1.136,0,0,0-1.134,1.134v.96a.8.8,0,0,0,.8.8.822.822,0,0,0,.142-.012.8.8,0,0,0,.469-1.3A.8.8,0,0,0,132.147,137.49Zm.366.869a.376.376,0,0,1-.3.3.372.372,0,0,1-.441-.366v-.372h.372a.372.372,0,0,1,.366.441Zm0,0" transform="translate(-127.791 -132.486)" fill="#fff"/>
    </g>
  </g>
</svg>
