<svg xmlns="http://www.w3.org/2000/svg" viewBox="0 0 857.7 263.37"><title>Coral</title><g><g fill="#fff"><path d="M327,78.73a92.32,92.32,0,1,0,92.32,92.32A92.32,92.32,0,0,0,327,78.73Zm0,141.38A49.06,49.06,0,1,1,376,171.05,49.06,49.06,0,0,1,327,220.12Z"></path><circle cx="548.65" cy="112.19" r="33.46"></circle><rect x="451.02" y="83.14" width="46.89" height="178.12"></rect><rect x="810.81" y="1.03" width="46.89" height="260.65"></rect><path d="M684.38,78.73a92.32,92.32,0,0,0-92.32,92.32c0,51,32.57,92.32,83.56,92.32,20,0,45.56-11,56.23-29.24v27.55h44V171.05C775.85,120.07,735.37,78.73,684.38,78.73Zm-.75,141.38a49.06,49.06,0,1,1,49.06-49.06A49.06,49.06,0,0,1,683.63,220.12Z"></path><path d="M131.36,216.09A84.73,84.73,0,1,1,195.41,75.91l35.74-30a131.11,131.11,0,0,0-99.8-46C58.93,0,0,58.93,0,131.36S58.93,262.71,131.36,262.71A131.34,131.34,0,0,0,216,231.8l-30.43-35.36A84.71,84.71,0,0,1,131.36,216.09Z"></path></g></g></svg>