<svg xmlns="http://www.w3.org/2000/svg" width="12" height="14.693" viewBox="0 0 12 14.693">
  <g id="delete" style="isolation: isolate">
    <path id="Path_17613" data-name="Path 17613" d="M11.962,3.284l-.324-.972a.9.9,0,0,0-.859-.619H8.052V.8a.805.805,0,0,0-.8-.8h-2.5a.805.805,0,0,0-.8.8v.888H1.22a.9.9,0,0,0-.859.619l-.324.972a.728.728,0,0,0,.691.958h.339l.746,9.229a1.335,1.335,0,0,0,1.323,1.221H9.015a1.335,1.335,0,0,0,1.323-1.221l.746-9.229h.188a.728.728,0,0,0,.691-.958ZM4.808.861H7.191v.832H4.808ZM9.48,13.4a.469.469,0,0,1-.465.43H3.136a.469.469,0,0,1-.465-.43L1.93,4.242h8.29ZM.912,3.381l.266-.8a.045.045,0,0,1,.043-.031h9.558a.045.045,0,0,1,.043.031l.266.8Zm0,0" transform="translate(0.001 0)" fill="#fff"/>
    <path id="Path_17614" data-name="Path 17614" d="M268.7,174.2h.023a.43.43,0,0,0,.429-.408l.4-7.759a.43.43,0,1,0-.86-.045l-.4,7.759A.43.43,0,0,0,268.7,174.2Zm0,0" transform="translate(-260.597 -160.825)" fill="#fff"/>
    <path id="Path_17615" data-name="Path 17615" d="M106.218,173.792a.43.43,0,0,0,.429.407h.024a.43.43,0,0,0,.406-.453l-.423-7.759a.43.43,0,0,0-.86.047Zm0,0" transform="translate(-102.758 -160.827)" fill="#fff"/>
    <path id="Path_17616" data-name="Path 17616" d="M194.684,174.2a.43.43,0,0,0,.43-.43v-7.759a.43.43,0,1,0-.861,0v7.759A.43.43,0,0,0,194.684,174.2Zm0,0" transform="translate(-188.68 -160.827)" fill="#fff"/>
  </g>
</svg>
