<svg id="cookie" width="100%" xmlns="http://www.w3.org/2000/svg" xmlns:xlink="http://www.w3.org/1999/xlink" viewBox="0 0 100 100">  
   <path id="Path_18902" data-name="Path 18902" d="M37.385,81.039A1.671,1.671,0,0,0,36,79.447c-6.043-1.169-7.917-7.42-6.332-12.638a1.507,1.507,0,0,0-1.4-1.941q-1.02-.037-2.078,0C11.764,65.436-.841,76.745.044,91.025c.894,14.416,11.394,24.952,26.153,26.153,14.4,1.171,27.179-11.919,26.153-26.153q-.063-.873-.168-1.736a1.508,1.508,0,0,0-1.957-1.258c-7.228,2.3-12.786-2.665-12.84-6.993Z" transform="translate(0 -57.251)" fill="#e1b89a"/>
    <path id="Path_18903" data-name="Path 18903" d="M320.186.922c-1.995,5.346-.237,12.136,6.088,13.36a1.671,1.671,0,0,1,1.381,1.592c.055,4.434,5.89,9.542,13.379,6.808a1.412,1.412,0,0,0,.911-1.611C339.7,10.461,332.6,1.791,321.743.018a1.417,1.417,0,0,0-1.557.9Z" transform="translate(-281.975)" fill="#e1b89a"/>
    <path id="Path_18904" data-name="Path 18904" d="M374.615,26.128l3.114.139a2.044,2.044,0,0,1,1.534.8L380.2,28.3a2.045,2.045,0,0,1-.492,2.942L376.764,33.2a2.045,2.045,0,0,1-2.4-.1l-2.138-1.688a2.045,2.045,0,0,1-.464-2.693l1.032-1.642A2.045,2.045,0,0,1,374.615,26.128Z" transform="translate(-327.918 -23.064)" fill="#d2896f"/>
    <path id="Path_18905" data-name="Path 18905" d="M378.438,174.091l-.93.711a2.015,2.015,0,0,0-.329,2.887l.275.332a2.016,2.016,0,0,0,1.619.729l2.466-.082a2.015,2.015,0,0,0,1.9-1.6l.114-.535a2.015,2.015,0,0,0-1.536-2.386l-1.924-.425A2.015,2.015,0,0,0,378.438,174.091Z" transform="translate(-332.569 -153.325)" fill="#d2996f"/>
    <path id="Path_18906" data-name="Path 18906" d="M21.886,122.2c-5.952-1.766-7.659-11.483-5.434-16.443a2,2,0,0,0-.13-1.9c-2.945-4.613-4.066-13.125-.284-19.55C6.373,88.362-.623,97.436.044,108.2.938,122.614,11.438,133.15,26.2,134.351a22.309,22.309,0,0,0,6.23-.374,12.294,12.294,0,0,1-9.12-10.174,1.973,1.973,0,0,0-1.421-1.6Z" transform="translate(0 -74.424)" fill="#d2996f"/>
    <ellipse id="Ellipse_554" data-name="Ellipse 554" cx="4.549" cy="3.622" rx="4.549" ry="3.622" transform="translate(6.335 34.33)" fill="#fff"/>
    <ellipse id="Ellipse_555" data-name="Ellipse 555" cx="4.549" cy="3.622" rx="4.549" ry="3.622" transform="translate(30.989 34.33)" fill="#fff"/>
    <ellipse id="Ellipse_556" data-name="Ellipse 556" cx="2.414" cy="2.702" rx="2.414" ry="2.702" transform="translate(20.796 32.468)" fill="#4e5660"/>
    <path id="Path_18907" data-name="Path 18907" d="M92.736,267.531a.879.879,0,0,1-.879-.879v-1.764a.879.879,0,1,1,1.758,0v1.764A.879.879,0,0,1,92.736,267.531Z" transform="translate(-81.092 -233.071)" fill="#4e5660"/>
    <path id="Path_18908" data-name="Path 18908" d="M290.145,267.531a.879.879,0,0,1-.879-.879v-1.764a.879.879,0,1,1,1.758,0v1.764A.879.879,0,0,1,290.145,267.531Z" transform="translate(-255.367 -233.071)" fill="#4e5660"/>
    <g id="Group_2534" data-name="Group 2534" transform="translate(11.644 14.972)">
      <path id="Path_18909" data-name="Path 18909" d="M100.973,129.476l-.779,1.05a4.243,4.243,0,0,0,.781,5.862l1.132.892a4.243,4.243,0,0,0,4.993.189l1.842-1.238a4.243,4.243,0,0,0-1.072-7.562l-2.195-.7a4.242,4.242,0,0,0-4.7,1.511Z" transform="translate(-99.357 -127.763)" fill="#d2896f"/>
      <path id="Path_18910" data-name="Path 18910" d="M128.218,372.42l3.059-.43a4.1,4.1,0,0,0,2.548-1.4l.489-.573a4.1,4.1,0,0,0,.229-5.03l-1.583-2.238a4.1,4.1,0,0,0-4.35-1.609l-2.332.587a4.1,4.1,0,0,0-2.666,2.142l-.791,1.581a4.1,4.1,0,0,0,.881,4.843l1.158,1.072a4.1,4.1,0,0,0,3.357,1.052Z" transform="translate(-119.69 -333.683)" fill="#d2896f"/>
      <path id="Path_18911" data-name="Path 18911" d="M300.978,327.986l-1.665,1.527a2.978,2.978,0,0,0-.88,2.906l.528,2.151a2.978,2.978,0,0,0,2.706,2.262l2.9.182a2.978,2.978,0,0,0,2.6-1.227l1.022-1.413a2.978,2.978,0,0,0-.449-3.984l-2.789-2.446A2.979,2.979,0,0,0,300.978,327.986Z" transform="translate(-275.027 -303.831)" fill="#d2896f"/>
    </g>
    <path id="Path_18912" data-name="Path 18912" d="M256.44,436.62a.879.879,0,0,1-.242-1.724,2.773,2.773,0,0,0,1.9-1.9.879.879,0,1,1,1.69.485,4.53,4.53,0,0,1-3.1,3.1A.88.88,0,0,1,256.44,436.62Z" transform="translate(-225.613 -381.694)" fill="#d2996f"/>
    <path id="Path_18913" data-name="Path 18913" d="M59.562,363.573a.879.879,0,0,1-.427-1.648,4.531,4.531,0,0,1,4.388,0,.879.879,0,0,1-.851,1.538,2.774,2.774,0,0,0-2.685,0A.874.874,0,0,1,59.562,363.573Z" transform="translate(-51.805 -319.013)" fill="#e1b89a"/>
    <path id="Path_18914" data-name="Path 18914" d="M215.238,207.151a.879.879,0,0,1-.845-1.122,4.531,4.531,0,0,1,3.1-3.1.879.879,0,1,1,.485,1.689,2.773,2.773,0,0,0-1.9,1.9A.879.879,0,0,1,215.238,207.151Z" transform="translate(-189.238 -179.116)" fill="#d2996f"/>
    <path id="Path_18915" data-name="Path 18915" d="M432.138,123.991a.879.879,0,0,1-.845-1.122,4.157,4.157,0,0,1,2.847-2.847.879.879,0,1,1,.485,1.689,2.4,2.4,0,0,0-1.033.609,2.37,2.37,0,0,0-.609,1.033A.879.879,0,0,1,432.138,123.991Z" transform="translate(-380.72 -105.928)" fill="#d2996f"/>
    <path id="Path_18916" data-name="Path 18916" d="M49.394,215.443a.877.877,0,0,1-.243-.034,4.531,4.531,0,0,1-3.1-3.1.879.879,0,0,1,1.689-.485,2.773,2.773,0,0,0,1.9,1.9.879.879,0,0,1-.242,1.724Z" transform="translate(-40.622 -186.437)" fill="#e1b89a"/>
    <path id="Path_18917" data-name="Path 18917" d="M230.7,23.982l-.974.88a2.423,2.423,0,0,0-.2,3.394l.3.342a2.424,2.424,0,0,0,1.824.827h1.459a2.424,2.424,0,0,0,2.415-2.216l.09-1.05a2.423,2.423,0,0,0-1.948-2.585l-.874-.171A2.423,2.423,0,0,0,230.7,23.982Z" transform="translate(-202.098 -20.62)" fill="#d2996f"/>
</svg>
