<svg xmlns="http://www.w3.org/2000/svg" width="20" height="20" viewBox="0 0 20 20"><g transform="translate(0)"><path d="M412.781,126.391a.391.391,0,1,1-.391-.391A.391.391,0,0,1,412.781,126.391Zm0,0" transform="translate(-408.875 -121.078)" fill="#bbade3"/><path d="M433.451,163.978a7.441,7.441,0,0,0,.149,1.484.391.391,0,0,1-.3.461.385.385,0,0,1-.079.008.391.391,0,0,1-.382-.313,8.218,8.218,0,0,1-.165-1.641,8.115,8.115,0,0,1,.793-3.518.391.391,0,1,1,.705.336A7.34,7.34,0,0,0,433.451,163.978Zm0,0" transform="translate(-431.108 -153.978)" fill="#bbade3"/><path d="M196.391,211.469h.391v-5.078a.391.391,0,0,1,.391-.391H200.3a.391.391,0,0,1,.391.391v1.562a.391.391,0,0,1-.391.391h-.391v3.125h.391a.391.391,0,0,1,.391.391v1.563a.391.391,0,0,1-.391.391h-3.906a.391.391,0,0,1-.391-.391v-1.562A.391.391,0,0,1,196.391,211.469Zm.391,1.563h3.125v-.781h-.391a.391.391,0,0,1-.391-.391v-3.906a.391.391,0,0,1,.391-.391h.391v-.781h-2.344v5.078a.391.391,0,0,1-.391.391h-.391Zm0,0" transform="translate(-188.344 -197.953)" fill="#bbade3"/><path d="M217.562,109.125a1.562,1.562,0,1,1,1.563-1.562A1.564,1.564,0,0,1,217.562,109.125Zm0-2.344a.781.781,0,1,0,.781.781A.782.782,0,0,0,217.562,106.781Zm0,0" transform="translate(-207.563 -101.859)" fill="#bbade3"/><path d="M10,0A10.17,10.17,0,0,1,20,10a10.652,10.652,0,0,1-1.419,5.288l1.4,4.2a.391.391,0,0,1-.494.494l-4.2-1.4A10.649,10.649,0,0,1,10,20,10.169,10.169,0,0,1,0,10,10.169,10.169,0,0,1,10,0Zm0,19.219a9.77,9.77,0,0,0,5.03-1.4.39.39,0,0,1,.333-.041l3.629,1.21-1.21-3.629a.39.39,0,0,1,.041-.333,9.77,9.77,0,0,0,1.4-5.03A9.342,9.342,0,0,0,10,.781,9.342,9.342,0,0,0,.781,10,9.342,9.342,0,0,0,10,19.219Zm0,0" transform="translate(0)" fill="#bbade3"/></g></svg>