<svg xmlns="http://www.w3.org/2000/svg" width="33" height="30.367" viewBox="0 0 33 30.367"><g transform="translate(0 0)"><path d="M262.71,31.878l-2.323-2.293a.657.657,0,0,0-.463-.19h-1.738A8.42,8.42,0,0,0,255.744,25c-1.82-1.819-5.605-5.606-9.546-4.31a.66.66,0,0,0,0,1.254,7.158,7.158,0,0,1,4.074,3.8l-2.008,1.98a.66.66,0,0,0,0,.941l4.224,4.15a.661.661,0,0,0,.462.189h1.665v1.633a.656.656,0,0,0,.2.47l2.322,2.294a.662.662,0,0,0,.465.19.652.652,0,0,0,.462-.19l4.648-4.587a.663.663,0,0,0,0-.94Z" transform="translate(-229.905 -20.427)" fill="#fff"/><path d="M.8,186.943A2.592,2.592,0,0,0,0,188.777a2.652,2.652,0,0,0,.751,1.9,2.6,2.6,0,0,0,1.886.8,2.652,2.652,0,0,0,1.856-.764l16.627-16.8-3.17-3.114Z" transform="translate(0 -161.104)" fill="#fff"/></g></svg>