<svg xmlns="http://www.w3.org/2000/svg" width="26" height="25.999" viewBox="0 0 26 25.999">
  <g id="logout" transform="translate(0 -0.008)">
    <path id="Path_887" data-name="Path 887" d="M288.436,209.633H278.145a.812.812,0,0,1,0-1.625h10.291a.812.812,0,1,1,0,1.625Zm0,0" transform="translate(-263.249 -197.438)" fill="#bbade3"/>
    <path id="Path_888" data-name="Path 888" d="M400.816,137.721a.813.813,0,0,1-.574-1.388l3.488-3.488-3.488-3.488a.813.813,0,0,1,1.149-1.149l4.062,4.062a.813.813,0,0,1,0,1.149l-4.062,4.062A.807.807,0,0,1,400.816,137.721Zm0,0" transform="translate(-379.692 -121.464)" fill="#bbade3"/>
    <path id="Path_889" data-name="Path 889" d="M8.666,26.007a2.232,2.232,0,0,1-.672-.1L1.475,23.734A2.187,2.187,0,0,1,0,21.674V2.174A2.169,2.169,0,0,1,2.167.008a2.234,2.234,0,0,1,.672.1L9.358,2.281a2.186,2.186,0,0,1,1.475,2.06v19.5A2.169,2.169,0,0,1,8.666,26.007ZM2.167,1.633a.543.543,0,0,0-.542.542v19.5A.563.563,0,0,0,2,22.2L8.49,24.358a.588.588,0,0,0,.177.024.543.543,0,0,0,.542-.542V4.341a.563.563,0,0,0-.376-.522L2.343,1.657A.588.588,0,0,0,2.167,1.633Zm0,0" fill="#bbade3"/>
    <path id="Path_890" data-name="Path 890" d="M41.834,8.674a.813.813,0,0,1-.812-.812V2.987a1.356,1.356,0,0,0-1.354-1.354H27.48a.812.812,0,1,1,0-1.625H39.668a2.981,2.981,0,0,1,2.979,2.979V7.862A.813.813,0,0,1,41.834,8.674Zm0,0" transform="translate(-25.314 0)" fill="#bbade3"/>
    <path id="Path_891" data-name="Path 891" d="M186.478,286.006h-4.333a.812.812,0,1,1,0-1.625h4.333a1.356,1.356,0,0,0,1.354-1.354v-4.875a.812.812,0,0,1,1.625,0v4.875A2.981,2.981,0,0,1,186.478,286.006Zm0,0" transform="translate(-172.124 -263.249)" fill="#bbade3"/>
  </g>
</svg>
