<svg xmlns="http://www.w3.org/2000/svg" width="22" height="22" viewBox="0 0 22 22">
  <g id="maximize-icon" transform="translate(0)">
    <path id="Path_17593" data-name="Path 17593" d="M23.224,12.014v7.6A2.394,2.394,0,0,1,20.826,22H3.651a2.394,2.394,0,0,1-2.4-2.384V2.548A2.394,2.394,0,0,1,3.651.164h7.662a2.642,2.642,0,0,0-.747,1.594H3.65a.794.794,0,0,0-.8.791V19.616a.794.794,0,0,0,.8.791H20.826a.794.794,0,0,0,.8-.791v-6.86A2.654,2.654,0,0,0,23.224,12.014ZM13.913,2.391h5.238l-8.478,8.434a1.191,1.191,0,0,0,0,1.69,1.206,1.206,0,0,0,1.7,0L20.85,4.082V9.292a1.2,1.2,0,0,0,2.4,0V1.2a1.2,1.2,0,0,0-1.2-1.2H13.913a1.2,1.2,0,1,0,0,2.391Z" transform="translate(-1.253)" fill="#9c88b9"/>
  </g>
</svg>
