<svg id="notification" xmlns="http://www.w3.org/2000/svg" width="30" height="32" viewBox="0 0 30 32">
  <path id="Path_437" data-name="Path 437" d="M19.75,29.5H28.5v1.25a1.25,1.25,0,0,0,2.5,0V29.5h8.75a3.75,3.75,0,0,0,1.745-7.07,1.122,1.122,0,0,1-.495-1V20.75a1.25,1.25,0,1,0-2.5,0v.682a3.571,3.571,0,0,0,1.83,3.21A1.25,1.25,0,0,1,39.75,27h-20a1.25,1.25,0,0,1-.58-2.358A3.571,3.571,0,0,0,21,21.432V13.75A8.758,8.758,0,0,1,32.313,5.381a1.25,1.25,0,0,0,.731-2.391A11.206,11.206,0,0,0,31,2.569V1.25a1.25,1.25,0,0,0-2.5,0V2.57a11.266,11.266,0,0,0-10,11.18v7.682a1.122,1.122,0,0,1-.495,1A3.75,3.75,0,0,0,19.75,29.5Z" transform="translate(-16 0)" fill="#fff"/>
  <path id="Path_438" data-name="Path 438" d="M302.25,92.5A6.25,6.25,0,1,0,296,86.25,6.257,6.257,0,0,0,302.25,92.5Zm0-10a3.75,3.75,0,1,1-3.75,3.75A3.754,3.754,0,0,1,302.25,82.5Z" transform="translate(-278.5 -75)" fill="#fff"/>
  <circle id="Ellipse_1" data-name="Ellipse 1" cx="1.25" cy="1.25" r="1.25" transform="translate(22.5 10)" fill="#fff"/>
</svg>
