<svg xmlns="http://www.w3.org/2000/svg" width="26.4" height="27.334" viewBox="0 0 26.4 27.334">
  <g id="Group_1115" data-name="Group 1115" transform="translate(-1889.505 -1288.045)">
    <path id="Path_17753" data-name="Path 17753" d="M1915.7,1307a5.653,5.653,0,0,0-5.278-5.633v-9.08a.447.447,0,0,0-.131-.316l-3.6-3.6a.447.447,0,0,0-.316-.131h-16.233a.447.447,0,0,0-.447.447v26.041a.447.447,0,0,0,.447.447h19.829a.447.447,0,0,0,.447-.447v-2.1A5.653,5.653,0,0,0,1915.7,1307Zm-8.873-17.23,2.07,2.07h-2.07Zm-16.233,24.516v-25.147h15.34v3.149a.447.447,0,0,0,.447.447h3.149v8.646a5.646,5.646,0,0,0,0,11.242v1.664Zm19.46-2.532a4.753,4.753,0,1,1,4.753-4.753A4.758,4.758,0,0,1,1910.058,1311.754Z" fill="#fff" stroke="#fff" stroke-width="0.4"/>
    <path id="Path_17754" data-name="Path 17754" d="M2183.514,1519.422a.447.447,0,0,0,.894,0,1.848,1.848,0,0,0-1.4-1.791v-.6a.447.447,0,0,0-.894,0v.6a1.843,1.843,0,0,0,0,3.576v1.847a.95.95,0,0,1-.506-.836.447.447,0,1,0-.894,0,1.847,1.847,0,0,0,1.4,1.789v.6a.447.447,0,0,0,.894,0v-.6a1.843,1.843,0,0,0,0-3.578v-1.848A.951.951,0,0,1,2183.514,1519.422Zm-1.905,0a.949.949,0,0,1,.5-.834v1.668A.949.949,0,0,1,2181.608,1519.422Zm1.9,2.8a.95.95,0,0,1-.506.836v-1.672A.95.95,0,0,1,2183.51,1522.221Z" transform="translate(-272.499 -213.821)" fill="#fff"/>
    <path id="Path_17755" data-name="Path 17755" d="M1956.71,1525.787h-9.339a.447.447,0,0,0,0,.894h9.339a.447.447,0,0,0,0-.894Z" transform="translate(-53.58 -222.435)" fill="#fff" stroke="#fff" stroke-width="0.4"/>
    <path id="Path_17756" data-name="Path 17756" d="M1947.371,1568.8h5.595a.447.447,0,1,0,0-.893h-5.595a.447.447,0,1,0,0,.893Z" transform="translate(-53.58 -261.877)" fill="#fff" stroke="#fff" stroke-width="0.4"/>
    <path id="Path_17757" data-name="Path 17757" d="M1956.71,1610.031h-9.339a.447.447,0,0,0,0,.894h9.339a.447.447,0,0,0,0-.894Z" transform="translate(-53.58 -301.321)" fill="#fff" stroke="#fff" stroke-width="0.4"/>
    <path id="Path_17758" data-name="Path 17758" d="M1952.966,1652.154h-5.595a.447.447,0,0,0,0,.894h5.595a.447.447,0,0,0,0-.894Z" transform="translate(-53.58 -340.765)" fill="#fff" stroke="#fff" stroke-width="0.4"/>
    <path id="Path_17759" data-name="Path 17759" d="M1947.371,1386.025h12.594a.447.447,0,0,0,.447-.447v-6.37a.447.447,0,0,0-.447-.447h-12.594a.447.447,0,0,0-.447.447v6.37A.447.447,0,0,0,1947.371,1386.025Zm.447-6.37h11.7v5.477h-11.7Z" transform="translate(-53.58 -84.759)" fill="#fff" stroke="#fff" stroke-width="0.4"/>
  </g>
</svg>
