<svg xmlns="http://www.w3.org/2000/svg" width="29" height="24.857" viewBox="0 0 29 24.857">
  <g id="Group_2395" data-name="Group 2395" transform="translate(-2.25 -4.5)">
    <path id="Path_17623" data-name="Path 17623" d="M9,15.75H20.393v2.071H9Zm0,5.179H22.464V23H9Z" transform="translate(-0.536 -0.893)" fill="#fff"/>
    <path id="Path_17624" data-name="Path 17624" d="M29.179,4.5H4.321A2.071,2.071,0,0,0,2.25,6.571V27.286a2.071,2.071,0,0,0,2.071,2.071H29.179a2.071,2.071,0,0,0,2.071-2.071V6.571A2.071,2.071,0,0,0,29.179,4.5Zm0,2.071V8.643H4.321V6.571ZM4.321,27.286V10.714H29.179V27.286Z" fill="#fff"/>
  </g>
</svg>
