<svg xmlns="http://www.w3.org/2000/svg" width="5" height="7.712" viewBox="0 0 5 7.712">
  <g id="microphone" transform="translate(-0.5)">
    <path id="Path_14456" data-name="Path 14456" d="M5.5,260.046a.23.23,0,0,0-.46,0,2.04,2.04,0,1,1-4.08,0,.23.23,0,0,0-.46,0,2.5,2.5,0,0,0,2.27,2.489v.619H1.917a.23.23,0,1,0,0,.46H4.083a.23.23,0,0,0,0-.46H3.23v-.619A2.5,2.5,0,0,0,5.5,260.046Zm0,0" transform="translate(0 -255.903)" fill="#fff"/>
    <path id="Path_14457" data-name="Path 14457" d="M70.187,5.616A1.474,1.474,0,0,0,71.66,4.143V1.473a1.473,1.473,0,0,0-2.945,0V4.143A1.474,1.474,0,0,0,70.187,5.616Zm0,0" transform="translate(-67.187)" fill="#fff"/>
  </g>
</svg>
