<svg xmlns="http://www.w3.org/2000/svg" width="36.18" height="36" viewBox="0 0 36.18 36">
  <path id="python" d="M21.465.27l1.35.3L23.91.96l.885.45.675.48.51.51.375.51.24.5.15.45.06.39.03.3-.015.2v8.01l-.075.945-.195.825-.315.69-.39.57-.45.465-.5.375-.525.285-.525.21-.5.15-.45.1-.39.06-.315.03H13.245l-1.035.075-.885.21-.75.33-.615.405-.495.48-.4.525-.3.54-.225.555-.15.525-.1.48-.06.405-.03.315v4.59H4.845L4.53,26.85l-.42-.1-.48-.18-.525-.27-.54-.39-.54-.54-.525-.69-.48-.885L.6,22.695l-.315-1.32L.075,19.8,0,17.955l.09-1.83.24-1.56L.69,13.26l.48-1.065.54-.855.6-.66.63-.495.63-.36.6-.24.54-.15.48-.075.36-.015h.24l.09.015H18.12V8.115H9.36L9.345,3.99l-.03-.555.075-.51.165-.465.255-.42.375-.39.465-.345.57-.3.66-.27L12.645.51l.87-.18.96-.15L15.54.09,16.695.03,17.955,0,19.86.075l1.6.2Zm-9.45,2.97-.345.5-.12.615.12.615.345.51.495.33.615.135.615-.135.495-.33.345-.51.12-.615-.12-.615-.345-.5-.495-.33-.615-.135-.615.135-.495.33ZM31.65,9.165l.42.09.48.18.525.27.54.4.54.525.525.7.48.885.42,1.1.315,1.32.21,1.56.075,1.845-.09,1.845-.24,1.56-.36,1.29L35.01,23.8l-.54.855-.6.675-.63.5-.63.36-.6.24-.54.135-.48.075-.36.03-.24-.015H18.06v1.23h8.76l.015,4.14.03.54-.075.51-.165.465-.255.435-.375.375-.465.36-.57.3-.66.255-.765.225-.87.195-.96.135-1.065.1-1.155.06L18.225,36l-1.905-.06-1.6-.21-1.35-.3-1.1-.375-.885-.45-.675-.495-.51-.51-.375-.51-.24-.495-.15-.45-.06-.375-.03-.3.015-.195v-8.01l.075-.96.195-.81.315-.69.39-.57.45-.48.495-.36.525-.3.525-.21.495-.15.45-.09.39-.06.315-.03.195-.015h8.76l1.035-.075.885-.21.75-.315.615-.42.5-.48.405-.525.3-.54.225-.54.15-.525.1-.48.06-.42.03-.315V9.1h3.135l.21.015.315.045Zm-9.7,21.375-.345.5-.12.615.12.615.345.495.5.345.615.12.615-.12.5-.345.345-.495.12-.615-.12-.615-.345-.5-.5-.345-.615-.12-.615.12-.5.345Z" fill="#fff"/>
</svg>
