<svg xmlns="http://www.w3.org/2000/svg" width="36.002" height="32.033" viewBox="0 0 36.002 32.033">
  <path id="react" d="M18,14.792A3.208,3.208,0,1,0,21.208,18,3.209,3.209,0,0,0,18,14.792ZM9.012,24.383,8.3,24.2C3.027,22.869,0,20.6,0,17.994s3.027-4.875,8.3-6.209l.708-.178.2.7a35.3,35.3,0,0,0,2.045,5.367l.152.32-.152.32a34.96,34.96,0,0,0-2.045,5.367l-.2.7ZM7.976,13.425C3.965,14.552,1.5,16.275,1.5,17.994s2.462,3.441,6.473,4.569a37.425,37.425,0,0,1,1.773-4.569,37.127,37.127,0,0,1-1.773-4.569ZM26.989,24.382l-.2-.7a35.035,35.035,0,0,0-2.046-5.365l-.152-.32.152-.32a35.13,35.13,0,0,0,2.046-5.367l.2-.7.71.178c5.276,1.333,8.3,3.6,8.3,6.21s-3.027,4.875-8.3,6.209l-.71.18Zm-.736-6.389a36.979,36.979,0,0,1,1.773,4.569c4.012-1.128,6.473-2.852,6.473-4.569s-2.462-3.441-6.473-4.569A37.181,37.181,0,0,1,26.253,17.993ZM7.965,13.418l-.2-.7C6.282,7.488,6.732,3.741,9,2.433c2.224-1.284,5.8.232,9.538,4.074l.51.523-.51.523A35.328,35.328,0,0,0,14.905,12l-.2.289-.352.03a35.486,35.486,0,0,0-5.678.915l-.708.178Zm2.844-9.945a2.093,2.093,0,0,0-1.057.259C8.261,4.591,8,7.58,9.024,11.612a37.683,37.683,0,0,1,4.849-.752,37.27,37.27,0,0,1,3.078-3.816c-2.34-2.278-4.556-3.571-6.143-3.571ZM25.193,34.016h0c-2.138,0-4.883-1.609-7.731-4.535l-.51-.523.51-.523a35.3,35.3,0,0,0,3.631-4.452l.2-.289.351-.03a35.445,35.445,0,0,0,5.681-.913l.708-.178.2.7C29.717,28.5,29.269,32.249,27,33.556a3.57,3.57,0,0,1-1.808.462Zm-6.144-5.071c2.34,2.278,4.556,3.571,6.143,3.571h0a2.09,2.09,0,0,0,1.056-.259c1.491-.859,1.756-3.849.728-7.881a37.529,37.529,0,0,1-4.851.752,37.011,37.011,0,0,1-3.077,3.817Zm8.986-15.527-.708-.178a35.218,35.218,0,0,0-5.681-.915L21.3,12.3l-.2-.289a35.121,35.121,0,0,0-3.631-4.45l-.51-.523.51-.523C21.2,2.667,24.773,1.151,27,2.433c2.268,1.308,2.718,5.055,1.236,10.283l-.2.7Zm-5.91-2.558a37.419,37.419,0,0,1,4.851.752c1.029-4.032.764-7.02-.728-7.88s-4.268.456-7.2,3.312a37.273,37.273,0,0,1,3.077,3.816ZM10.809,34.016A3.57,3.57,0,0,1,9,33.553C6.732,32.247,6.282,28.5,7.766,23.272l.2-.7.708.178a35.386,35.386,0,0,0,5.678.913l.352.03.2.289a35.394,35.394,0,0,0,3.633,4.452l.51.523-.51.523c-2.847,2.925-5.592,4.535-7.726,4.535Zm-1.785-9.64c-1.029,4.032-.764,7.021.728,7.881,1.48.844,4.264-.458,7.2-3.312a37.5,37.5,0,0,1-3.078-3.817,37.464,37.464,0,0,1-4.849-.752ZM18,25.318c-1.234,0-2.5-.054-3.774-.159l-.352-.03-.2-.289q-1.078-1.549-2.025-3.183T9.9,18.315l-.15-.32.15-.32q.8-1.707,1.749-3.342c.621-1.074,1.3-2.145,2.025-3.183l.2-.289.352-.03a44.679,44.679,0,0,1,7.55,0l.351.03.2.289A45.009,45.009,0,0,1,26.1,17.675l.152.32-.152.32a44.4,44.4,0,0,1-3.776,6.525l-.2.289-.351.03C20.506,25.264,19.235,25.318,18,25.318Zm-3.3-1.626a43.43,43.43,0,0,0,6.592,0,43.509,43.509,0,0,0,3.294-5.7,42.877,42.877,0,0,0-3.3-5.7,43.547,43.547,0,0,0-6.591,0,42.715,42.715,0,0,0-3.3,5.7,43.672,43.672,0,0,0,3.3,5.7Z" transform="translate(0 -1.986)" fill="#fff"/>
</svg>
