<svg xmlns="http://www.w3.org/2000/svg" width="24" height="23.992" viewBox="0 0 24 23.992">
  <path id="rust" d="M24.051,11.928,23.044,11.3q-.013-.147-.028-.294l.865-.807a.348.348,0,0,0-.115-.578l-1.106-.414q-.041-.144-.087-.285l.69-.958a.346.346,0,0,0-.226-.545L21.87,7.235q-.068-.132-.141-.263l.49-1.077a.344.344,0,0,0-.028-.336.349.349,0,0,0-.3-.154l-1.184.041q-.091-.115-.187-.227l.273-1.153a.348.348,0,0,0-.417-.417l-1.153.273q-.113-.095-.228-.187l.041-1.184a.344.344,0,0,0-.49-.328l-1.077.491c-.087-.048-.174-.1-.263-.141l-.19-1.168a.348.348,0,0,0-.545-.226l-.96.69q-.142-.046-.285-.086L14.813.678a.348.348,0,0,0-.578-.115l-.807.867q-.147-.017-.294-.028L12.51.394a.346.346,0,0,0-.589,0L11.3,1.4c-.1.008-.2.018-.294.028L10.2.563a.346.346,0,0,0-.578.115L9.2,1.784c-.1.028-.19.057-.285.086l-.958-.69a.348.348,0,0,0-.545.226l-.19,1.168q-.132.068-.263.141L5.887,2.224a.346.346,0,0,0-.49.328l.041,1.184c-.077.061-.153.124-.228.187L4.057,3.65a.348.348,0,0,0-.417.417L3.911,5.22c-.063.075-.126.151-.186.227L2.54,5.406a.346.346,0,0,0-.328.49L2.7,6.972q-.073.13-.141.263L1.4,7.424a.348.348,0,0,0-.226.545l.69.958c-.03.1-.059.189-.087.285L.667,9.626a.348.348,0,0,0-.115.578l.865.807q-.017.147-.028.294l-1.007.624a.344.344,0,0,0,0,.589l1.007.624c.008.1.018.2.028.294l-.865.808a.346.346,0,0,0,.115.578l1.106.414c.028.1.057.191.087.285l-.69.958a.346.346,0,0,0,.227.545l1.166.189c.046.088.092.175.141.263l-.491,1.077a.346.346,0,0,0,.328.49L3.725,19c.061.077.124.153.187.228L3.64,20.382a.346.346,0,0,0,.417.416l1.153-.271c.075.064.151.126.228.186L5.4,21.9a.344.344,0,0,0,.49.327l1.077-.49c.087.049.174.1.263.141l.19,1.166a.348.348,0,0,0,.545.227l.958-.69c.1.03.189.059.285.087l.414,1.106a.346.346,0,0,0,.578.115L11,23.021c.1.011.2.02.294.03l.624,1.007a.348.348,0,0,0,.589,0l.624-1.007c.1-.009.2-.018.294-.03l.807.865a.348.348,0,0,0,.578-.115l.414-1.106c.1-.028.191-.057.285-.087l.958.69a.346.346,0,0,0,.545-.227l.19-1.166c.088-.046.175-.093.263-.141l1.077.49a.348.348,0,0,0,.49-.327l-.041-1.184c.077-.061.153-.122.227-.186l1.153.271a.348.348,0,0,0,.417-.416l-.271-1.154c.063-.075.126-.151.186-.228l1.184.041a.344.344,0,0,0,.328-.49l-.49-1.077c.048-.087.1-.174.141-.263l1.166-.189a.348.348,0,0,0,.226-.545l-.69-.958.087-.285,1.106-.414a.346.346,0,0,0,.115-.578l-.865-.808c.01-.1.02-.2.028-.294l1.007-.624a.344.344,0,0,0,0-.589Zm-6.742,8.356a.714.714,0,1,1,.847-.548.714.714,0,0,1-.847.548Zm-.342-2.314a.649.649,0,0,0-.771.5l-.357,1.668A8.794,8.794,0,0,1,8.524,20.1l-.357-1.668a.648.648,0,0,0-.771-.5l-1.473.316a8.721,8.721,0,0,1-.761-.9h7.168c.081,0,.136-.014.136-.088V14.729c0-.074-.054-.088-.136-.088h-2.1V13.033H12.5a1.425,1.425,0,0,1,1.394,1.209c.09.353.288,1.5.423,1.873.135.413.684,1.238,1.268,1.238h3.572a.749.749,0,0,0,.13-.013,8.787,8.787,0,0,1-.812.952l-1.508-.324Zm-9.914,2.28A.714.714,0,1,1,7.6,19.4a.714.714,0,0,1-.548.848ZM4.334,9.223a.713.713,0,1,1-.942-.362.713.713,0,0,1,.942.362ZM3.5,11.2l1.535-.682a.65.65,0,0,0,.33-.859l-.316-.715H6.291v5.6H3.782A8.775,8.775,0,0,1,3.5,11.2Zm6.734-.544V9.009h2.96c.153,0,1.079.177,1.079.869,0,.575-.711.782-1.295.782H10.234Zm10.758,1.486q0,.328-.024.651h-.9c-.09,0-.127.059-.127.148v.413c0,.973-.549,1.184-1.029,1.238-.458.051-.964-.191-1.027-.472a3.1,3.1,0,0,0-1.43-2.4,3.238,3.238,0,0,0,1.8-2.491,2.822,2.822,0,0,0-1.377-2.315,3.9,3.9,0,0,0-1.883-.62H5.683a8.765,8.765,0,0,1,4.907-2.77l1.1,1.151a.648.648,0,0,0,.919.022l1.227-1.174a8.775,8.775,0,0,1,6,4.276L19,9.7a.652.652,0,0,0,.33.859l1.618.719c.028.288.043.577.043.872Zm-9.3-9.6a.713.713,0,1,1,0,.987.713.713,0,0,1,0-.987Zm8.339,6.71a.713.713,0,1,1,.362.942.711.711,0,0,1-.362-.942Z" transform="translate(-0.216 -0.23)" fill="#fff"/>
</svg>
