<svg xmlns="http://www.w3.org/2000/svg" width="24" height="25.147" viewBox="0 0 24 25.147">
  <g id="cogwheel" transform="translate(1 66)">
    <path id="Path_885" data-name="Path 885" d="M142.888,159.81a5.239,5.239,0,1,1,5.239-5.239A5.245,5.245,0,0,1,142.888,159.81Zm0-8.907a3.667,3.667,0,1,0,3.667,3.667A3.671,3.671,0,0,0,142.888,150.9Zm0,0" transform="translate(-131.888 -207.997)" fill="#bbade3"/>
    <path id="Path_886" data-name="Path 886" d="M13.742,25.147H10.257A1.817,1.817,0,0,1,8.5,23.732L8.055,21.77a9.632,9.632,0,0,1-2.048-1.189l-1.91.6a1.816,1.816,0,0,1-2.121-.827l-1.737-3a1.832,1.832,0,0,1,.336-2.236l1.48-1.361a10.6,10.6,0,0,1-.067-1.183,10.833,10.833,0,0,1,.066-1.183L.583,10.036A1.829,1.829,0,0,1,.234,7.8L1.981,4.78a1.816,1.816,0,0,1,2.112-.819l1.913.6A9.641,9.641,0,0,1,8.055,3.376L8.5,1.412A1.816,1.816,0,0,1,10.257,0h3.485A1.817,1.817,0,0,1,15.5,1.416l.441,1.962a9.632,9.632,0,0,1,2.048,1.189l1.91-.6a1.818,1.818,0,0,1,2.121.827l1.737,3a1.832,1.832,0,0,1-.337,2.236l-1.48,1.361a10.636,10.636,0,0,1,0,2.366l1.473,1.354.007.006a1.827,1.827,0,0,1,.342,2.227l-1.748,3.023a1.812,1.812,0,0,1-2.113.818l-1.913-.6a9.644,9.644,0,0,1-2.047,1.189L15.5,23.733A1.813,1.813,0,0,1,13.742,25.147ZM6.167,18.922a.786.786,0,0,1,.5.179A8.071,8.071,0,0,0,9,20.456a.785.785,0,0,1,.495.565l.533,2.368a.235.235,0,0,0,.227.186h3.485a.234.234,0,0,0,.226-.184l.534-2.37A.785.785,0,0,1,15,20.456,8.086,8.086,0,0,0,17.334,19.1a.783.783,0,0,1,.737-.144l2.306.728a.235.235,0,0,0,.278-.1L22.4,16.567a.256.256,0,0,0-.05-.3l-1.769-1.626a.786.786,0,0,1-.245-.695,9.1,9.1,0,0,0,0-2.741.786.786,0,0,1,.245-.695l1.773-1.63a.256.256,0,0,0,.041-.308l-1.737-3a.24.24,0,0,0-.285-.1l-2.3.727a.784.784,0,0,1-.737-.144A8.072,8.072,0,0,0,15,4.689a.785.785,0,0,1-.494-.565l-.533-2.368a.24.24,0,0,0-.229-.184H10.257a.234.234,0,0,0-.226.184L9.5,4.126A.787.787,0,0,1,9,4.691,8.064,8.064,0,0,0,6.667,6.046a.788.788,0,0,1-.737.144L3.624,5.461a.238.238,0,0,0-.278.1L1.6,8.579a.257.257,0,0,0,.054.306l1.767,1.623a.786.786,0,0,1,.245.695,9.1,9.1,0,0,0,0,2.741.787.787,0,0,1-.245.695l-1.773,1.63a.256.256,0,0,0-.041.308l1.737,3a.241.241,0,0,0,.285.1l2.3-.727A.765.765,0,0,1,6.167,18.922Zm0,0" transform="translate(-1 -66)" fill="#bbade3"/>
  </g>
</svg>
