<svg xmlns="http://www.w3.org/2000/svg" width="18" height="19.636" viewBox="0 0 18 19.636">
  <g id="Group_2393" data-name="Group 2393" transform="translate(-117 -397)">
    <g id="sharing" transform="translate(116 397)">
      <g id="Group_1021" data-name="Group 1021" transform="translate(12.455)">
        <circle id="Ellipse_480" data-name="Ellipse 480" cx="2.659" cy="2.659" r="2.659" transform="translate(0.614 0.614)" fill="#bbade3"/>
        <path id="Path_17524" data-name="Path 17524" d="M18.273,6.545a3.273,3.273,0,1,1,3.273-3.273A3.276,3.276,0,0,1,18.273,6.545Zm0-5.318a2.045,2.045,0,1,0,2.045,2.045A2.048,2.048,0,0,0,18.273,1.227Z" transform="translate(-15)" fill="#bbade3"/>
      </g>
      <g id="Group_1022" data-name="Group 1022" transform="translate(12.455 13.091)">
        <circle id="Ellipse_481" data-name="Ellipse 481" cx="2.659" cy="2.659" r="2.659" transform="translate(0.614 0.614)" fill="#bbade3"/>
        <path id="Path_17525" data-name="Path 17525" d="M18.273,22.545a3.273,3.273,0,1,1,3.273-3.273A3.276,3.276,0,0,1,18.273,22.545Zm0-5.318a2.045,2.045,0,1,0,2.045,2.045A2.048,2.048,0,0,0,18.273,17.227Z" transform="translate(-15 -16)" fill="#bbade3"/>
      </g>
      <g id="Group_1023" data-name="Group 1023" transform="translate(1 6.545)">
        <circle id="Ellipse_482" data-name="Ellipse 482" cx="2.659" cy="2.659" r="2.659" transform="translate(0.614 0.614)" fill="#bbade3"/>
        <path id="Path_17526" data-name="Path 17526" d="M4.273,14.545a3.273,3.273,0,1,1,3.273-3.273A3.276,3.276,0,0,1,4.273,14.545Zm0-5.318a2.045,2.045,0,1,0,2.045,2.045A2.048,2.048,0,0,0,4.273,9.227Z" transform="translate(-1 -8)" fill="#bbade3"/>
      </g>
      <g id="Group_1024" data-name="Group 1024" transform="translate(5.386 3.46)">
        <path id="Path_17527" data-name="Path 17527" d="M7.179,10.194a.818.818,0,0,1-.406-1.529l7.592-4.328a.818.818,0,0,1,.81,1.422L7.583,10.087a.813.813,0,0,1-.4.107Z" transform="translate(-6.36 -4.229)" fill="#bbade3"/>
      </g>
      <g id="Group_1025" data-name="Group 1025" transform="translate(5.386 10.21)">
        <path id="Path_17528" data-name="Path 17528" d="M14.77,18.444a.813.813,0,0,1-.4-.107L6.774,14.009a.818.818,0,1,1,.81-1.422l7.592,4.328a.818.818,0,0,1-.406,1.529Z" transform="translate(-6.361 -12.479)" fill="#bbade3"/>
      </g>
    </g>
  </g>
</svg>
