<svg xmlns="http://www.w3.org/2000/svg" width="20.667" height="18.264" viewBox="0 0 20.667 18.264">
  <path id="Icon_awesome-sort-amount-down-alt" data-name="Icon awesome-sort-amount-down-alt" d="M9.212,4.707h2.457a.614.614,0,0,0,.614-.614V2.864a.614.614,0,0,0-.614-.614H9.212a.614.614,0,0,0-.614.614V4.092A.614.614,0,0,0,9.212,4.707Zm0,4.913h4.913a.614.614,0,0,0,.614-.614V7.777a.614.614,0,0,0-.614-.614H9.212a.614.614,0,0,0-.614.614V9.006A.614.614,0,0,0,9.212,9.62Zm9.827,7.37H9.212A.614.614,0,0,0,8.6,17.6v1.228a.614.614,0,0,0,.614.614h9.827a.614.614,0,0,0,.614-.614V17.6A.614.614,0,0,0,19.039,16.99ZM9.212,14.533h7.37a.614.614,0,0,0,.614-.614V12.691a.614.614,0,0,0-.614-.614H9.212a.614.614,0,0,0-.614.614v1.228A.614.614,0,0,0,9.212,14.533Zm-2.457,0H4.913V2.864A.614.614,0,0,0,4.3,2.25H3.071a.614.614,0,0,0-.614.614V14.533H.614a.614.614,0,0,0-.433,1.048l3.071,3.685a.614.614,0,0,0,.868,0l3.071-3.685A.615.615,0,0,0,6.756,14.533Z" transform="translate(20.153 20.014) rotate(180)" fill="none" stroke="#fff" stroke-width="1"/>
</svg>
