<svg width="21" height="23" viewBox="0 0 21 23" fill="none" xmlns="http://www.w3.org/2000/svg">
<path d="M16.1891 1.02051H1.75854C1.29255 1.02181 0.846009 1.2075 0.5165 1.53701C0.186992 1.86652 0.00130045 2.31305 0 2.77905V18.6938C0.00130045 19.1598 0.186992 19.6063 0.5165 19.9358C0.846009 20.2653 1.29255 20.451 1.75854 20.4523H11.2634C11.1549 15.7229 12.7706 6.545 16.1891 1.02051Z" fill="#0F80CC"/>
<path d="M15.6654 1.53369H1.75886C1.42875 1.53413 1.11228 1.66545 0.878859 1.89888C0.645435 2.1323 0.514107 2.44877 0.513672 2.77888V17.5322C4.08137 16.1866 7.84744 15.4417 11.6588 15.3277C12.6668 10.6408 14.0057 6.03128 15.6654 1.53369Z" fill="url(#paint0_linear_124233_16342)"/>
<path d="M19.5551 0.499575C18.5695 -0.381748 17.3703 -0.0277407 16.1876 1.02032C16.0126 1.17638 15.8377 1.34886 15.6635 1.53367C13.4385 4.16513 11.9 7.30677 11.1855 10.6779C11.406 11.1591 11.5804 11.6602 11.7062 12.1744C11.7358 12.2894 11.7629 12.3978 11.7883 12.4898C11.8393 12.7075 11.8705 12.8488 11.8705 12.8488C11.8705 12.8488 11.8524 12.7806 11.7777 12.5646L11.7292 12.4249C11.7194 12.399 11.709 12.3732 11.698 12.3477C11.5666 12.0414 11.2052 11.395 11.0409 11.1157C10.9037 11.5206 10.7822 11.8993 10.6811 12.2418C11.0222 12.9753 11.2726 13.7476 11.4269 14.5416C11.4269 14.5416 11.4023 14.4471 11.2865 14.1186C11.064 13.6388 10.8172 13.1705 10.5473 12.7157C10.3727 13.1663 10.2987 13.6496 10.3304 14.1317C10.5113 14.4924 10.6473 14.8739 10.7353 15.2677C11.0097 16.3215 11.2002 17.6053 11.2002 17.6053L11.2167 17.8213C11.1806 18.6991 11.1984 19.5782 11.2701 20.4538C11.3108 21.3207 11.4722 22.1777 11.7497 23L11.8976 22.9179C11.5534 21.682 11.4207 20.3968 11.505 19.1166C11.6596 16.4026 12.1954 13.7239 13.0968 11.1592C14.7477 6.79943 17.0393 3.30042 19.1338 1.63141C17.2233 3.35628 14.6376 8.94155 13.8631 11.0097C13.0475 13.1392 12.4278 15.3386 12.0117 17.5806C12.5069 16.3294 13.4764 15.3245 14.7091 14.7847C14.7091 14.7847 15.7218 13.5354 16.9054 11.7514C16.1408 11.9109 15.3854 12.1119 14.6426 12.3535C14.0676 12.595 13.9124 12.6771 13.9124 12.6771C15.0099 12.0161 16.1695 11.464 17.3744 11.0286C19.5724 7.56658 21.9675 2.65072 19.556 0.495468" fill="#003B57"/>
<defs>
<linearGradient id="paint0_linear_124233_16342" x1="8.07191" y1="1.89464" x2="8.07191" y2="16.678" gradientUnits="userSpaceOnUse">
<stop stop-color="#97D9F6"/>
<stop offset="0.92" stop-color="#0F80CC"/>
<stop offset="1" stop-color="#0F80CC"/>
</linearGradient>
</defs>
</svg>
