<svg xmlns="http://www.w3.org/2000/svg" width="235.767" height="116.577" viewBox="0 0 235.767 116.577">
  <g id="Group_2400" data-name="Group 2400" transform="translate(-346.399 -101.782)">
    <path id="Path_18618" data-name="Path 18618" d="M141.7,343.98H111.588c-9.31,0-16.884-8.581-16.884-19.129V307.333c0-10.547,7.574-19.129,16.884-19.129h202c8.464,0,15.349-7.8,15.349-17.39V251.884c0-9.589-6.886-17.39-15.349-17.39H270.122v-1.739h43.464c9.31,0,16.884,8.581,16.884,19.129v18.929c0,10.548-7.574,19.129-16.884,19.129h-202c-8.463,0-15.349,7.8-15.349,17.39v17.518c0,9.589,6.886,17.39,15.349,17.39H141.7Z" transform="translate(251.695 -130.973)" fill="#343473"/>
    <path id="Path_18619" data-name="Path 18619" d="M331.417,188.241a1.25,1.25,0,0,0-.7,2.284l5.989,4.067-5.989,4.067a1.25,1.25,0,1,0,1.4,2.068l7.512-5.1a1.25,1.25,0,0,0,0-2.068l-7.512-5.1A1.243,1.243,0,0,0,331.417,188.241Z" transform="translate(54.236 17.416)" fill="#343473"/>
  </g>
</svg>
