<svg xmlns="http://www.w3.org/2000/svg" width="29" height="25.324" viewBox="0 0 29 25.324">
  <path id="tinyVerse_icon" d="M139.013,342.556l-6.858-11.877a.783.783,0,0,0-.679-.393H117.758a.781.781,0,0,0-.677.393l-6.858,11.877a.781.781,0,0,0,0,.783l6.858,11.881a.785.785,0,0,0,.677.39h13.718a.787.787,0,0,0,.679-.39l6.858-11.881A.789.789,0,0,0,139.013,342.556Zm-7.987-10.7,5.953,10.313H125.07l-3.869-6.706-2.085-3.607Zm-13.268.783,5.956,10.312-5.956,10.315L111.8,342.948Zm13.268,21.41h-11.91l2.085-3.611,3.869-6.7h11.908Z" transform="translate(-110.117 -330.286)" fill="#fff"/>
</svg>
