<svg id="twitter-icon" xmlns="http://www.w3.org/2000/svg" width="50" height="50" viewBox="0 0 50 50">
  <g id="shadow" fill="none" stroke="#690f71" stroke-width="2">
    <rect width="50" height="50" rx="25" stroke="none"/>
    <rect x="1" y="1" width="48" height="48" rx="24" fill="none"/>
  </g>
  <path id="twitter-bird" d="M26,2.5a10.8,10.8,0,0,1-2.665,2.754q.016.305.016.69a15.322,15.322,0,0,1-2.529,8.388,16.2,16.2,0,0,1-3.053,3.474,13.612,13.612,0,0,1-4.26,2.413,15.558,15.558,0,0,1-5.332.9A14.847,14.847,0,0,1,0,18.724a11.534,11.534,0,0,0,1.273.074A10.458,10.458,0,0,0,7.9,16.512a5.175,5.175,0,0,1-3.1-1.065,5.243,5.243,0,0,1-1.883-2.64,5.332,5.332,0,0,0,2.409-.09,5.2,5.2,0,0,1-3.062-1.838,5.161,5.161,0,0,1-1.216-3.39V7.425a5.264,5.264,0,0,0,2.416.667,5.3,5.3,0,0,1-1.733-1.9,5.2,5.2,0,0,1-.641-2.536A5.241,5.241,0,0,1,1.812.975,15.187,15.187,0,0,0,6.675,4.912,14.823,14.823,0,0,0,12.8,6.549a5.216,5.216,0,0,1-.14-1.214,5.138,5.138,0,0,1,1.563-3.771,5.336,5.336,0,0,1,7.665.119,10.624,10.624,0,0,0,3.386-1.3,5.157,5.157,0,0,1-2.343,2.952A10.66,10.66,0,0,0,26,2.5Z" transform="translate(12 14.815)" fill="#fff"/>
</svg>
