<svg xmlns="http://www.w3.org/2000/svg" width="28" height="32" viewBox="0 0 28 32">
  <path id="Icon_awesome-user-astronaut" data-name="Icon awesome-user-astronaut" d="M4,14h.844a9.986,9.986,0,0,0,18.313,0H24a1,1,0,0,0,1-1V7a1,1,0,0,0-1-1h-.844A9.986,9.986,0,0,0,4.844,6H4A1,1,0,0,0,3,7v6A1,1,0,0,0,4,14ZM6.5,8.5A2.784,2.784,0,0,1,9.5,6h9a2.784,2.784,0,0,1,3,2.5V10a6,6,0,0,1-6,6h-3a6,6,0,0,1-6-6ZM11,13l.75-2.25L14,10l-2.25-.75L11,7l-.75,2.25L8,10l2.25.75Zm9.475,7.087a11.917,11.917,0,0,1-12.95,0A8.376,8.376,0,0,0,0,28.4V29a3,3,0,0,0,3,3H8V28a2,2,0,0,1,2-2h8a2,2,0,0,1,2,2v4h5a3,3,0,0,0,3-3v-.6A8.376,8.376,0,0,0,20.475,20.087ZM17,28a1,1,0,1,0,1,1A1,1,0,0,0,17,28Zm-6,0a1,1,0,0,0-1,1v3h2V29A1,1,0,0,0,11,28Z" fill="#fff"/>
</svg>
