<svg xmlns="http://www.w3.org/2000/svg" width="10" height="6.37" viewBox="0 0 10 6.37">
  <g id="Live_1_" transform="translate(-5.341 0)">
    <g id="Group_775" data-name="Group 775" transform="translate(5.341 0)">
      <path id="Path_16362" data-name="Path 16362" d="M92.156,6.188a5.027,5.027,0,0,1,0-6.006.455.455,0,1,1,.728.547,4.111,4.111,0,0,0,0,4.913.455.455,0,1,1-.728.547Z" transform="translate(-91.16 0)" fill="#fff"/>
    </g>
    <g id="Group_776" data-name="Group 776" transform="translate(13.527 0)">
      <path id="Path_16363" data-name="Path 16363" d="M361.2,6.285a.456.456,0,0,1-.091-.637,4.111,4.111,0,0,0,0-4.913.455.455,0,0,1,.728-.547,5.027,5.027,0,0,1,0,6.006.455.455,0,0,1-.637.091Z" transform="translate(-361.017 -0.006)" fill="#fff"/>
    </g>
    <g id="Group_777" data-name="Group 777" transform="translate(7.154 0.91)">
      <path id="Path_16364" data-name="Path 16364" d="M151.741,34.412a3.179,3.179,0,0,1,0-4.247.455.455,0,0,1,.678.607,2.271,2.271,0,0,0,0,3.033.455.455,0,0,1-.678.607Z" transform="translate(-150.927 -30.014)" fill="#fff"/>
    </g>
    <g id="Group_778" data-name="Group 778" transform="translate(11.922 0.91)">
      <path id="Path_16365" data-name="Path 16365" d="M308.244,34.437a.455.455,0,0,1-.036-.643,2.271,2.271,0,0,0,0-3.033.455.455,0,0,1,.678-.607,3.179,3.179,0,0,1,0,4.247A.455.455,0,0,1,308.244,34.437Z" transform="translate(-308.092 -30.003)" fill="#fff"/>
    </g>
    <g id="Group_779" data-name="Group 779" transform="translate(8.976 1.82)">
      <path id="Path_16366" data-name="Path 16366" d="M212.365,62.73a1.365,1.365,0,1,1,1.365-1.365A1.366,1.366,0,0,1,212.365,62.73Z" transform="translate(-211 -60)" fill="#fff"/>
    </g>
  </g>
</svg>
