<svg width="21" height="28" viewBox="0 0 21 28" fill="none" xmlns="http://www.w3.org/2000/svg">
<path d="M12.7628 0H3.5C2.57174 0 1.6815 0.368749 1.02513 1.02513C0.368749 1.6815 0 2.57174 0 3.5V24.5C0 25.4283 0.368749 26.3185 1.02513 26.9749C1.6815 27.6313 2.57174 28 3.5 28H17.5C18.4283 28 19.3185 27.6313 19.9749 26.9749C20.6313 26.3185 21 25.4283 21 24.5V8.23725C20.9999 7.77316 20.8155 7.32811 20.4872 7L14 0.51275C13.6719 0.184539 13.2268 9.91155e-05 12.7628 0V0ZM13.125 6.125V2.625L18.375 7.875H14.875C14.4109 7.875 13.9658 7.69063 13.6376 7.36244C13.3094 7.03425 13.125 6.58913 13.125 6.125ZM8.1305 13.3805C8.21185 13.2991 8.30843 13.2346 8.41473 13.1906C8.52102 13.1466 8.63495 13.1239 8.75 13.1239C8.86505 13.1239 8.97898 13.1466 9.08527 13.1906C9.19157 13.2346 9.28815 13.2991 9.3695 13.3805C9.45085 13.4619 9.51539 13.5584 9.55942 13.6647C9.60344 13.771 9.62611 13.8849 9.62611 14C9.62611 14.1151 9.60344 14.229 9.55942 14.3353C9.51539 14.4416 9.45085 14.5381 9.3695 14.6195L6.48725 17.5L9.3695 20.3805C9.5338 20.5448 9.62611 20.7676 9.62611 21C9.62611 21.2324 9.5338 21.4552 9.3695 21.6195C9.2052 21.7838 8.98236 21.8761 8.75 21.8761C8.51764 21.8761 8.2948 21.7838 8.1305 21.6195L4.6305 18.1195C4.54901 18.0382 4.48436 17.9417 4.44025 17.8354C4.39614 17.7291 4.37344 17.6151 4.37344 17.5C4.37344 17.3849 4.39614 17.2709 4.44025 17.1646C4.48436 17.0583 4.54901 16.9618 4.6305 16.8805L8.1305 13.3805ZM12.8695 13.3805L16.3695 16.8805C16.451 16.9618 16.5156 17.0583 16.5597 17.1646C16.6039 17.2709 16.6266 17.3849 16.6266 17.5C16.6266 17.6151 16.6039 17.7291 16.5597 17.8354C16.5156 17.9417 16.451 18.0382 16.3695 18.1195L12.8695 21.6195C12.7052 21.7838 12.4824 21.8761 12.25 21.8761C12.0176 21.8761 11.7948 21.7838 11.6305 21.6195C11.4662 21.4552 11.3739 21.2324 11.3739 21C11.3739 20.7676 11.4662 20.5448 11.6305 20.3805L14.5128 17.5L11.6305 14.6195C11.5491 14.5381 11.4846 14.4416 11.4406 14.3353C11.3966 14.229 11.3739 14.1151 11.3739 14C11.3739 13.8849 11.3966 13.771 11.4406 13.6647C11.4846 13.5584 11.5491 13.4619 11.6305 13.3805C11.7119 13.2991 11.8084 13.2346 11.9147 13.1906C12.021 13.1466 12.1349 13.1239 12.25 13.1239C12.3651 13.1239 12.479 13.1466 12.5853 13.1906C12.6916 13.2346 12.7881 13.2991 12.8695 13.3805Z" fill="#00B594"/>
</svg>
