<svg width="18" height="18" viewBox="0 0 18 18" fill="none" xmlns="http://www.w3.org/2000/svg">
<path d="M11.5714 1.92857C11.5714 1.41708 11.3682 0.926543 11.0066 0.564866C10.6449 0.203188 10.1543 0 9.64286 0H8.35714C7.84565 0 7.35511 0.203188 6.99344 0.564866C6.63176 0.926543 6.42857 1.41708 6.42857 1.92857V18H11.5714V1.92857ZM12.8571 3.85714V18H17.3571C17.5276 18 17.6912 17.9323 17.8117 17.8117C17.9323 17.6912 18 17.5276 18 17.3571V6.42857C18 5.74659 17.7291 5.09253 17.2468 4.6103C16.7646 4.12806 16.1106 3.85714 15.4286 3.85714H12.8571ZM2.57143 7.71429H5.14286V18H0.642857C0.472361 18 0.308848 17.9323 0.188289 17.8117C0.0677295 17.6912 0 17.5276 0 17.3571V10.2857C0 9.60373 0.270917 8.94968 0.753154 8.46744C1.23539 7.9852 1.88944 7.71429 2.57143 7.71429Z" fill="#00B594"/>
</svg>
