<?xml version="1.0" encoding="UTF-8"?>
<svg width="2451px" height="514px" viewBox="0 0 2451 514" version="1.1" xmlns="http://www.w3.org/2000/svg" xmlns:xlink="http://www.w3.org/1999/xlink">
    <!-- Generator: Sketch 64 (93537) - https://sketch.com -->
    <title>Group</title>
    <desc>Created with Sketch.</desc>
    <defs>
        <linearGradient x1="50%" y1="-3.93294014%" x2="50%" y2="100%" id="linearGradient-1">
            <stop stop-color="#D66EC8" offset="0%"></stop>
            <stop stop-color="#C743B8" offset="43.0155175%"></stop>
            <stop stop-color="#C02DAF" offset="100%"></stop>
        </linearGradient>
        <linearGradient x1="50%" y1="-100.376058%" x2="50%" y2="154.151013%" id="linearGradient-2">
            <stop stop-color="#D66EC8" offset="0%"></stop>
            <stop stop-color="#C743B8" offset="41.3459573%"></stop>
            <stop stop-color="#C02DAF" offset="100%"></stop>
        </linearGradient>
    </defs>
    <g id="Page-1" stroke="none" stroke-width="1" fill="none" fill-rule="evenodd">
        <g id="Group">
            <rect id="Rectangle" fill="url(#linearGradient-1)" x="0" y="0" width="551" height="514" rx="80"></rect>
            <rect id="Rectangle" fill="#F6F6F7" x="101" y="87" width="225" height="225" rx="9"></rect>
            <rect id="Rectangle" stroke="#F6F6F7" stroke-width="16" fill="url(#linearGradient-2)" x="227" y="205" width="225" height="225" rx="10"></rect>
            <g id="Group-2" transform="translate(701.000000, 52.000000)" fill="#C130B0" fill-rule="nonzero">
                <path d="M236.7,305.4 C242.1,305.4 246.4,304.1 249.6,301.5 C252.8,298.9 255.4,294.9 257.4,289.5 L257.4,289.5 L320.7,111.9 C322.9,105.5 322.5,100.1 319.5,95.7 C316.5,91.3 311.8,89.1 305.4,89.1 C300.2,89.1 296.1,90.4 293.1,93 C290.1,95.6 287.7,99.5 285.9,104.7 L285.9,104.7 L236.255,249.567 L186.9,105.3 C184.968966,99.8931034 182.665042,95.8845422 179.988228,93.2743163 L179.7,93 C176.9,90.4 173.1,89.1 168.3,89.1 C163.5,89.1 159.6,90.4 156.6,93 C153.6,95.6 151.1,99.6 149.1,105 L149.1,105 L98.836,247.504 L50.7,104.7 C48.96,99.48 46.6593333,95.6149444 43.798,93.1048333 L43.5,92.85 C40.5,90.35 36.3,89.1 30.9,89.1 C23.5,89.1 18.25,91.3 15.15,95.7 C12.05,100.1 11.6,105.5 13.8,111.9 L13.8,111.9 L76.5,289.2 C78.5,294.8 81.15,298.9 84.45,301.5 C87.75,304.1 92.1,305.4 97.5,305.4 C102.9,305.4 107.15,304.1 110.25,301.5 C113.35,298.9 115.9,294.9 117.9,289.5 L117.9,289.5 L167.234,150.188 L216,289.2 C217.933333,294.613333 220.427333,298.625 223.482,301.235 L223.8,301.5 C227,304.1 231.3,305.4 236.7,305.4 Z M425.7,306 C433.5,306 441.95,304.95 451.05,302.85 C460.15,300.75 468.2,297.5 475.2,293.1 C478.8,290.9 481.35,288.3 482.85,285.3 C484.35,282.3 484.9,279.35 484.5,276.45 C484.1,273.55 482.95,271.1 481.05,269.1 C479.15,267.1 476.6,265.95 473.4,265.65 C470.2,265.35 466.5,266.4 462.3,268.8 C456.5,272 450.35,274.25 443.85,275.55 C437.35,276.85 431.5,277.5 426.3,277.5 C411.3,277.5 399.95,273.45 392.25,265.35 C386.208462,258.994615 382.537065,250.084402 381.235811,238.619361 L381.19,238.2 L471.9,238.2 C476.335714,238.2 479.795089,237.316645 482.278125,235.549936 L482.55,235.35 C485.05,233.45 486.3,230.7 486.3,227.1 C486.3,215.7 484.75,205.45 481.65,196.35 C478.55,187.25 474.05,179.5 468.15,173.1 C462.25,166.7 455.15,161.8 446.85,158.4 C438.55,155 429.2,153.3 418.8,153.3 C404.6,153.3 391.95,156.55 380.85,163.05 C369.75,169.55 361.05,178.5 354.75,189.9 C348.45,201.3 345.3,214.6 345.3,229.8 C345.3,245.4 348.55,258.9 355.05,270.3 C361.55,281.7 370.8,290.5 382.8,296.7 C394.8,302.9 409.1,306 425.7,306 Z M454.985,216.601 L381.283,216.601 L381.379801,215.850908 C382.077033,210.693469 383.310597,206.003157 385.080493,201.779974 L385.35,201.15 C388.45,194.05 392.95,188.55 398.85,184.65 C404.75,180.75 411.9,178.8 420.3,178.8 C427.9,178.8 434.25,180.45 439.35,183.75 C444.45,187.05 448.35,191.8 451.05,198 C453.273529,203.105882 454.581488,209.229066 454.973875,216.36955 L454.985,216.601 Z M566.1,306 C568.3,306 570.5,305.9 572.7,305.7 C574.9,305.5 577,305.3 579,305.1 C583.6,304.5 586.9,302.8 588.9,300 C590.9,297.2 591.9,293.3 591.9,288.3 C591.9,282.5 591.4,278.65 590.4,276.75 C589.4,274.85 587.5,274.1 584.7,274.5 C583.3,274.7 581.9,274.85 580.5,274.95 C579.1,275.05 577.6,275.1 576,275.1 C568.8,275.1 563.25,272.9 559.35,268.5 C555.45,264.1 553.5,257.3 553.5,248.1 L553.5,248.1 L553.5,108 C553.5,101.8 551.85,97.1 548.55,93.9 C545.25,90.7 540.6,89.1 534.6,89.1 C528.6,89.1 524,90.7 520.8,93.9 C517.6,97.1 516,101.8 516,108 L516,108 L516,249.9 C516,268.3 520.2,282.25 528.6,291.75 C537,301.25 549.5,306 566.1,306 Z M668.1,306 C680.5,306 691.3,302.9 700.5,296.7 C706.922642,292.371698 711.834461,287.019936 715.235457,280.644713 L715.5,280.139 L715.5,286.2 C715.5,292.222857 717.009878,296.877388 720.029633,300.163592 L720.3,300.45 C723.5,303.75 728.1,305.4 734.1,305.4 C740.1,305.4 744.7,303.75 747.9,300.45 C751.1,297.15 752.7,292.4 752.7,286.2 L752.7,286.2 L752.7,108 C752.7,101.8 751.05,97.1 747.75,93.9 C744.45,90.7 739.8,89.1 733.8,89.1 C727.8,89.1 723.2,90.7 720,93.9 C716.8,97.1 715.2,101.8 715.2,108 L715.2,108 L715.2,178.366 L715.11816,178.21488 C711.72176,172.09968 706.87986,166.91548 700.59246,162.66228 L700.05,162.3 C690.95,156.3 680.3,153.3 668.1,153.3 C655.3,153.3 644.05,156.4 634.35,162.6 C624.65,168.8 617.1,177.55 611.7,188.85 C606.3,200.15 603.6,213.7 603.6,229.5 C603.6,245.1 606.3,258.65 611.7,270.15 C617.1,281.65 624.65,290.5 634.35,296.7 C644.05,302.9 655.3,306 668.1,306 Z M678.6,277.5 C667.4,277.5 658.4,273.45 651.6,265.35 C644.8,257.25 641.4,245.3 641.4,229.5 C641.4,218.9 642.95,210.05 646.05,202.95 C649.15,195.85 653.5,190.55 659.1,187.05 C664.7,183.55 671.2,181.8 678.6,181.8 C689.8,181.8 698.8,185.75 705.6,193.65 C712.4,201.55 715.8,213.5 715.8,229.5 C715.8,240.1 714.25,248.95 711.15,256.05 C708.05,263.15 703.7,268.5 698.1,272.1 C692.5,275.7 686,277.5 678.6,277.5 Z M949.5,306 C962.3,306 973.8,304.5 984,301.5 C994.2,298.5 1002.95,294.2 1010.25,288.6 C1017.55,283 1023.15,276.3 1027.05,268.5 C1030.95,260.7 1032.9,252 1032.9,242.4 C1032.9,227.4 1028.05,215.4 1018.35,206.4 C1008.65,197.4 993.9,190.8 974.1,186.6 L974.1,186.6 L941.4,179.7 C929.8,177.3 921.6,173.95 916.8,169.65 C912,165.35 909.6,159.6 909.6,152.4 C909.6,146 911.35,140.45 914.85,135.75 C918.35,131.05 923.4,127.4 930,124.8 C936.6,122.2 944.5,120.9 953.7,120.9 C962.5,120.9 970.7,121.8 978.3,123.6 C985.9,125.4 993.4,128.4 1000.8,132.6 C1005,135 1008.75,136 1012.05,135.6 C1015.35,135.2 1018.1,133.9 1020.3,131.7 C1022.5,129.5 1023.9,126.85 1024.5,123.75 C1025.1,120.65 1024.85,117.5 1023.75,114.3 C1022.65,111.1 1020.5,108.4 1017.3,106.2 C1008.7,100.4 999,96 988.2,93 C977.4,90 966,88.5 954,88.5 C941.8,88.5 930.65,90.05 920.55,93.15 C910.45,96.25 901.75,100.7 894.45,106.5 C887.15,112.3 881.5,119.2 877.5,127.2 C873.5,135.2 871.5,144.1 871.5,153.9 C871.5,169.5 876.15,182.05 885.45,191.55 C894.75,201.05 908.9,207.8 927.9,211.8 L927.9,211.8 L960.9,218.7 C973.3,221.3 982.05,224.6 987.15,228.6 C992.25,232.6 994.8,238.1 994.8,245.1 C994.8,253.5 991.2,260.35 984,265.65 C976.8,270.95 965.3,273.6 949.5,273.6 C938.7,273.6 928.4,272.4 918.6,270 C908.8,267.6 899.5,263.8 890.7,258.6 C886.9,256.2 883.4,255.3 880.2,255.9 C877,256.5 874.35,258.05 872.25,260.55 C870.15,263.05 868.85,265.95 868.35,269.25 C867.85,272.55 868.3,275.9 869.7,279.3 C871.1,282.7 873.6,285.6 877.2,288 C883.4,292 890.4,295.35 898.2,298.05 C906,300.75 914.3,302.75 923.1,304.05 C931.9,305.35 940.7,306 949.5,306 Z M1129.5,306 C1132.7,306 1136.4,305.65 1140.6,304.95 C1144.8,304.25 1148.2,303.5 1150.8,302.7 C1154.2,301.5 1156.55,299.35 1157.85,296.25 C1159.15,293.15 1159.8,289.6 1159.8,285.6 C1159.8,280.4 1159,276.95 1157.4,275.25 C1155.8,273.55 1153.8,272.8 1151.4,273 C1149.4,273.2 1147.1,273.6 1144.5,274.2 C1141.9,274.8 1138.9,275.1 1135.5,275.1 C1126.1,275.1 1119.3,272.7 1115.1,267.9 C1110.9,263.1 1108.8,255.9 1108.8,246.3 L1108.8,246.3 L1108.8,184.5 L1140.6,184.5 C1145.4,184.5 1149.1,183.25 1151.7,180.75 C1154.3,178.25 1155.6,174.8 1155.6,170.4 C1155.6,165.8 1154.3,162.3 1151.7,159.9 C1149.1,157.5 1145.4,156.3 1140.6,156.3 L1140.6,156.3 L1108.8,156.3 L1108.8,129 C1108.8,122.8 1107.2,118.1 1104,114.9 C1100.8,111.7 1096.2,110.1 1090.2,110.1 C1084.2,110.1 1079.55,111.7 1076.25,114.9 C1072.95,118.1 1071.3,122.8 1071.3,129 L1071.3,129 L1071.3,156.3 L1055.7,156.3 C1050.9,156.3 1047.2,157.5 1044.6,159.9 C1042,162.3 1040.7,165.8 1040.7,170.4 C1040.7,174.8 1042,178.25 1044.6,180.75 C1047.2,183.25 1050.9,184.5 1055.7,184.5 L1055.7,184.5 L1071.3,184.5 L1071.3,248.4 C1071.3,261 1073.4,271.55 1077.6,280.05 C1081.8,288.55 1088.25,295 1096.95,299.4 C1105.65,303.8 1116.5,306 1129.5,306 Z M1230.6,306 C1242.2,306 1252.25,303.1 1260.75,297.3 C1266.77083,293.191667 1271.71293,287.828993 1275.5763,281.211979 L1275.6,281.17 L1275.6,286.2 C1275.6,292.222857 1277.10988,296.877388 1280.12963,300.163592 L1280.4,300.45 C1283.6,303.75 1288.1,305.4 1293.9,305.4 C1306.1,305.4 1312.2,299 1312.2,286.2 L1312.2,286.2 L1312.2,172.8 C1312.2,166.4 1310.55,161.65 1307.25,158.55 C1303.95,155.45 1299.3,153.9 1293.3,153.9 C1287.3,153.9 1282.7,155.45 1279.5,158.55 C1276.3,161.65 1274.7,166.4 1274.7,172.8 L1274.7,172.8 L1274.7,238.8 C1274.7,250.2 1271.5,259.35 1265.1,266.25 C1258.7,273.15 1250.5,276.6 1240.5,276.6 C1231.3,276.6 1224.6,274.1 1220.4,269.1 C1216.2,264.1 1214.1,256.4 1214.1,246 L1214.1,246 L1214.1,172.8 C1214.1,166.4 1212.45,161.65 1209.15,158.55 C1205.85,155.45 1201.2,153.9 1195.2,153.9 C1189.2,153.9 1184.6,155.45 1181.4,158.55 C1178.2,161.65 1176.6,166.4 1176.6,172.8 L1176.6,172.8 L1176.6,245.4 C1176.6,258.8 1178.55,270 1182.45,279 C1186.35,288 1192.3,294.75 1200.3,299.25 C1208.3,303.75 1218.4,306 1230.6,306 Z M1407.6,306 C1420,306 1430.8,302.9 1440,296.7 C1446.42264,292.371698 1451.33446,287.019936 1454.73546,280.644713 L1455,280.139 L1455,286.2 C1455,292.222857 1456.50988,296.877388 1459.52963,300.163592 L1459.8,300.45 C1463,303.75 1467.6,305.4 1473.6,305.4 C1479.6,305.4 1484.2,303.75 1487.4,300.45 C1490.6,297.15 1492.2,292.4 1492.2,286.2 L1492.2,286.2 L1492.2,108 C1492.2,101.8 1490.55,97.1 1487.25,93.9 C1483.95,90.7 1479.3,89.1 1473.3,89.1 C1467.3,89.1 1462.7,90.7 1459.5,93.9 C1456.3,97.1 1454.7,101.8 1454.7,108 L1454.7,108 L1454.7,178.366 L1454.61816,178.21488 C1451.22176,172.09968 1446.37986,166.91548 1440.09246,162.66228 L1439.55,162.3 C1430.45,156.3 1419.8,153.3 1407.6,153.3 C1394.8,153.3 1383.55,156.4 1373.85,162.6 C1364.15,168.8 1356.6,177.55 1351.2,188.85 C1345.8,200.15 1343.1,213.7 1343.1,229.5 C1343.1,245.1 1345.8,258.65 1351.2,270.15 C1356.6,281.65 1364.15,290.5 1373.85,296.7 C1383.55,302.9 1394.8,306 1407.6,306 Z M1418.1,277.5 C1406.9,277.5 1397.9,273.45 1391.1,265.35 C1384.3,257.25 1380.9,245.3 1380.9,229.5 C1380.9,218.9 1382.45,210.05 1385.55,202.95 C1388.65,195.85 1393,190.55 1398.6,187.05 C1404.2,183.55 1410.7,181.8 1418.1,181.8 C1429.3,181.8 1438.3,185.75 1445.1,193.65 C1451.9,201.55 1455.3,213.5 1455.3,229.5 C1455.3,240.1 1453.75,248.95 1450.65,256.05 C1447.55,263.15 1443.2,268.5 1437.6,272.1 C1432,275.7 1425.5,277.5 1418.1,277.5 Z M1549.8,126.3 C1557,126.3 1562.5,124.55 1566.3,121.05 C1570.1,117.55 1572,112.7 1572,106.5 C1572,100.1 1570.1,95.2 1566.3,91.8 C1562.5,88.4 1557,86.7 1549.8,86.7 C1542.8,86.7 1537.35,88.4 1533.45,91.8 C1529.55,95.2 1527.6,100.1 1527.6,106.5 C1527.6,112.7 1529.55,117.55 1533.45,121.05 C1537.35,124.55 1542.8,126.3 1549.8,126.3 Z M1549.8,305.1 C1556,305.1 1560.7,303.3 1563.9,299.7 C1567.1,296.1 1568.7,291.1 1568.7,284.7 L1568.7,284.7 L1568.7,174.6 C1568.7,168 1567.05,162.95 1563.75,159.45 C1560.45,155.95 1555.8,154.2 1549.8,154.2 C1543.8,154.2 1539.2,155.95 1536,159.45 C1532.8,162.95 1531.2,168 1531.2,174.6 L1531.2,174.6 L1531.2,284.7 C1531.2,291.1 1532.8,296.1 1536,299.7 C1539.2,303.3 1543.8,305.1 1549.8,305.1 Z M1674.6,306 C1686,306 1696.3,304.25 1705.5,300.75 C1714.7,297.25 1722.6,292.15 1729.2,285.45 C1735.8,278.75 1740.85,270.7 1744.35,261.3 C1747.85,251.9 1749.6,241.3 1749.6,229.5 C1749.6,213.9 1746.5,200.4 1740.3,189 C1734.1,177.6 1725.4,168.8 1714.2,162.6 C1703,156.4 1689.8,153.3 1674.6,153.3 C1663.2,153.3 1652.9,155.05 1643.7,158.55 C1634.5,162.05 1626.6,167.15 1620,173.85 C1613.4,180.55 1608.35,188.55 1604.85,197.85 C1601.35,207.15 1599.6,217.7 1599.6,229.5 C1599.6,245.1 1602.7,258.65 1608.9,270.15 C1615.1,281.65 1623.8,290.5 1635,296.7 C1646.2,302.9 1659.4,306 1674.6,306 Z M1674.6,277.5 C1663.4,277.5 1654.4,273.45 1647.6,265.35 C1640.8,257.25 1637.4,245.3 1637.4,229.5 C1637.4,218.9 1638.95,210.05 1642.05,202.95 C1645.15,195.85 1649.5,190.55 1655.1,187.05 C1660.7,183.55 1667.2,181.8 1674.6,181.8 C1685.8,181.8 1694.8,185.75 1701.6,193.65 C1708.4,201.55 1711.8,213.5 1711.8,229.5 C1711.8,240.1 1710.25,248.95 1707.15,256.05 C1704.05,263.15 1699.7,268.5 1694.1,272.1 C1688.5,275.7 1682,277.5 1674.6,277.5 Z" id="WeldStudio"></path>
            </g>
        </g>
    </g>
</svg>