<svg width="79" height="20" viewBox="0 0 79 20" fill="none" xmlns="http://www.w3.org/2000/svg">
<path d="M3 19C2.21667 19 1.61667 18.8 1.2 18.4C0.8 17.9833 0.6 17.3917 0.6 16.625V3.75C0.6 2.98333 0.8 2.4 1.2 2C1.61667 1.58333 2.21667 1.375 3 1.375H7.9C10.9667 1.375 13.3333 2.14167 15 3.675C16.6833 5.20833 17.525 7.375 17.525 10.175C17.525 11.575 17.3083 12.825 16.875 13.925C16.4417 15.0083 15.8167 15.9333 15 16.7C14.1833 17.45 13.175 18.025 11.975 18.425C10.7917 18.8083 9.43333 19 7.9 19H3ZM5.2 15.275H7.6C8.48333 15.275 9.24167 15.1667 9.875 14.95C10.525 14.7333 11.0583 14.4167 11.475 14C11.9083 13.5833 12.225 13.0583 12.425 12.425C12.6417 11.7917 12.75 11.0417 12.75 10.175C12.75 8.44167 12.325 7.16667 11.475 6.35C10.625 5.51667 9.33333 5.1 7.6 5.1H5.2V15.275ZM26.6533 19.275C25.1533 19.275 23.8533 19.0167 22.7533 18.5C21.67 17.9667 20.8367 17.2167 20.2533 16.25C19.67 15.2833 19.3783 14.1417 19.3783 12.825C19.3783 11.5583 19.6533 10.45 20.2033 9.5C20.77 8.53333 21.5367 7.78333 22.5033 7.25C23.4867 6.7 24.6033 6.425 25.8533 6.425C26.77 6.425 27.6033 6.575 28.3533 6.875C29.1033 7.15833 29.745 7.58333 30.2783 8.15C30.8117 8.7 31.2117 9.36667 31.4783 10.15C31.7617 10.9333 31.9033 11.8083 31.9033 12.775C31.9033 13.1083 31.8117 13.3583 31.6283 13.525C31.445 13.675 31.1533 13.75 30.7533 13.75H23.1033V11.65H28.6533L28.2533 11.975C28.2533 11.3583 28.17 10.8583 28.0033 10.475C27.8367 10.0917 27.5867 9.8 27.2533 9.6C26.9367 9.4 26.5367 9.3 26.0533 9.3C25.5367 9.3 25.0867 9.425 24.7033 9.675C24.3367 9.90833 24.0533 10.2583 23.8533 10.725C23.6533 11.1917 23.5533 11.775 23.5533 12.475V12.7C23.5533 13.8833 23.8117 14.7333 24.3283 15.25C24.8617 15.75 25.6783 16 26.7783 16C27.145 16 27.5617 15.9583 28.0283 15.875C28.5117 15.775 28.97 15.6417 29.4033 15.475C29.8367 15.3083 30.2117 15.2833 30.5283 15.4C30.845 15.5 31.0867 15.6833 31.2533 15.95C31.4367 16.2 31.5367 16.4917 31.5533 16.825C31.57 17.1417 31.495 17.4583 31.3283 17.775C31.1617 18.075 30.8867 18.3083 30.5033 18.475C29.92 18.7417 29.295 18.9417 28.6283 19.075C27.9783 19.2083 27.32 19.275 26.6533 19.275ZM40.6705 19.275C40.0038 19.275 39.3038 19.225 38.5705 19.125C37.8538 19.0417 37.1705 18.9083 36.5205 18.725C35.8705 18.5417 35.2872 18.325 34.7705 18.075C34.3205 17.8583 34.0038 17.575 33.8205 17.225C33.6372 16.8583 33.5705 16.475 33.6205 16.075C33.6705 15.675 33.8122 15.325 34.0455 15.025C34.2788 14.7083 34.5872 14.5 34.9705 14.4C35.3538 14.2833 35.7872 14.3333 36.2705 14.55C36.9038 14.85 37.6205 15.0833 38.4205 15.25C39.2205 15.4167 39.9705 15.5 40.6705 15.5C41.7705 15.5 42.5372 15.3583 42.9705 15.075C43.4205 14.775 43.6455 14.4083 43.6455 13.975C43.6455 13.5917 43.4872 13.2833 43.1705 13.05C42.8705 12.8167 42.3288 12.6167 41.5455 12.45L38.6205 11.825C37.0205 11.4917 35.8288 10.9083 35.0455 10.075C34.2622 9.24167 33.8705 8.16667 33.8705 6.85C33.8705 5.98333 34.0455 5.2 34.3955 4.5C34.7622 3.78333 35.2705 3.175 35.9205 2.675C36.5872 2.175 37.3705 1.79167 38.2705 1.525C39.1872 1.24167 40.2038 1.1 41.3205 1.1C42.1872 1.1 43.0622 1.2 43.9455 1.4C44.8455 1.58333 45.6205 1.86667 46.2705 2.25C46.6538 2.45 46.9288 2.725 47.0955 3.075C47.2622 3.425 47.3288 3.79167 47.2955 4.175C47.2622 4.54167 47.1288 4.86667 46.8955 5.15C46.6788 5.43333 46.3788 5.625 45.9955 5.725C45.6288 5.80833 45.1872 5.74167 44.6705 5.525C44.1872 5.30833 43.6372 5.15 43.0205 5.05C42.4205 4.93333 41.8372 4.875 41.2705 4.875C40.6538 4.875 40.1288 4.95 39.6955 5.1C39.2622 5.23333 38.9288 5.43333 38.6955 5.7C38.4788 5.96667 38.3705 6.275 38.3705 6.625C38.3705 6.975 38.5122 7.275 38.7955 7.525C39.0955 7.75833 39.6372 7.95833 40.4205 8.125L43.3205 8.75C44.9372 9.1 46.1455 9.675 46.9455 10.475C47.7455 11.275 48.1455 12.3167 48.1455 13.6C48.1455 14.4667 47.9705 15.25 47.6205 15.95C47.2705 16.65 46.7705 17.25 46.1205 17.75C45.4705 18.2333 44.6872 18.6083 43.7705 18.875C42.8538 19.1417 41.8205 19.275 40.6705 19.275ZM52.3047 19.225C51.6047 19.225 51.063 19.0167 50.6797 18.6C50.2964 18.1833 50.1047 17.5833 50.1047 16.8V8.9C50.1047 8.11667 50.2964 7.51667 50.6797 7.1C51.063 6.68333 51.6047 6.475 52.3047 6.475C53.0214 6.475 53.5714 6.68333 53.9547 7.1C54.3547 7.51667 54.5547 8.11667 54.5547 8.9V16.8C54.5547 17.5833 54.363 18.1833 53.9797 18.6C53.5964 19.0167 53.038 19.225 52.3047 19.225ZM52.3047 4.7C51.5214 4.7 50.913 4.51667 50.4797 4.15C50.063 3.78333 49.8547 3.25 49.8547 2.55C49.8547 1.86667 50.063 1.34167 50.4797 0.975C50.913 0.608333 51.5214 0.424999 52.3047 0.424999C53.1214 0.424999 53.738 0.608333 54.1547 0.975C54.5714 1.34167 54.7797 1.86667 54.7797 2.55C54.7797 3.25 54.5714 3.78333 54.1547 4.15C53.738 4.51667 53.1214 4.7 52.3047 4.7ZM61.8109 19.275C60.2109 19.275 59.0276 18.85 58.2609 18C57.5109 17.1333 57.1359 15.8333 57.1359 14.1V3.4C57.1359 2.66667 57.3276 2.10833 57.7109 1.725C58.0943 1.34167 58.6359 1.15 59.3359 1.15C60.0526 1.15 60.6026 1.34167 60.9859 1.725C61.3859 2.10833 61.5859 2.66667 61.5859 3.4V13.95C61.5859 14.5667 61.7026 15.0167 61.9359 15.3C62.1859 15.5833 62.5026 15.725 62.8859 15.725C63.0026 15.725 63.1193 15.7167 63.2359 15.7C63.3693 15.6667 63.5109 15.6417 63.6609 15.625C63.9443 15.625 64.1526 15.7333 64.2859 15.95C64.4359 16.1667 64.5109 16.6083 64.5109 17.275C64.5109 17.8583 64.3943 18.3 64.1609 18.6C63.9276 18.8833 63.5693 19.0667 63.0859 19.15C62.9526 19.1667 62.7609 19.1917 62.5109 19.225C62.2609 19.2583 62.0276 19.275 61.8109 19.275ZM71.9303 19.275C70.5636 19.275 69.3719 19.0167 68.3553 18.5C67.3386 17.9833 66.5469 17.2417 65.9803 16.275C65.4136 15.3083 65.1303 14.1667 65.1303 12.85C65.1303 11.85 65.2886 10.9583 65.6053 10.175C65.9219 9.375 66.3803 8.7 66.9803 8.15C67.5803 7.58333 68.2969 7.15833 69.1303 6.875C69.9636 6.575 70.8969 6.425 71.9303 6.425C73.2969 6.425 74.4886 6.68333 75.5053 7.2C76.5219 7.71667 77.3053 8.45833 77.8553 9.425C78.4219 10.375 78.7053 11.5167 78.7053 12.85C78.7053 13.8333 78.5469 14.725 78.2303 15.525C77.9136 16.325 77.4553 17.0083 76.8553 17.575C76.2719 18.125 75.5553 18.55 74.7053 18.85C73.8719 19.1333 72.9469 19.275 71.9303 19.275ZM71.9303 16C72.3803 16 72.7803 15.8917 73.1303 15.675C73.4803 15.4417 73.7469 15.1 73.9303 14.65C74.1303 14.1833 74.2303 13.5833 74.2303 12.85C74.2303 11.7333 74.0136 10.9333 73.5803 10.45C73.1469 9.95 72.5969 9.7 71.9303 9.7C71.4803 9.7 71.0803 9.80833 70.7303 10.025C70.3803 10.2417 70.1053 10.5833 69.9053 11.05C69.7053 11.5 69.6053 12.1 69.6053 12.85C69.6053 13.95 69.8219 14.75 70.2553 15.25C70.6886 15.75 71.2469 16 71.9303 16Z" fill="#6034B6"/>
</svg>
