<svg width="10" height="12" viewBox="0 0 10 12" fill="none" xmlns="http://www.w3.org/2000/svg">
<path d="M0.714099 10.6667H9.2859C9.46688 10.6667 9.6411 10.7309 9.77334 10.8462C9.90559 10.9615 9.986 11.1194 9.99834 11.2879C10.0107 11.4564 9.95401 11.623 9.8398 11.754C9.72559 11.8851 9.56234 11.9708 9.38305 11.9938L9.2859 12H0.714099C0.533116 11.9999 0.358902 11.9358 0.226657 11.8205C0.0944125 11.7052 0.0139981 11.5473 0.00166234 11.3788C-0.0106734 11.2103 0.0459892 11.0437 0.160201 10.9126C0.274413 10.7816 0.437658 10.6959 0.616952 10.6729L0.714099 10.6667H9.2859H0.714099ZM4.90285 0.00622219L5 0C5.17262 6.79369e-06 5.33939 0.0583491 5.46948 0.164237C5.59957 0.270126 5.68417 0.416397 5.70765 0.576L5.71432 0.666667V7.50044L7.86203 5.49689C7.98315 5.38388 8.14374 5.31526 8.31455 5.30351C8.48535 5.29176 8.65498 5.33768 8.79255 5.43289L8.87255 5.49689C8.99363 5.60993 9.06717 5.75981 9.07975 5.91922C9.09234 6.07863 9.04314 6.23695 8.94112 6.36533L8.87255 6.44L5.50478 9.58222C5.38384 9.69513 5.22349 9.76377 5.05291 9.77568C4.88232 9.78759 4.71282 9.74197 4.57522 9.64711L4.49522 9.58222L1.12745 6.44C0.999642 6.32104 0.924825 6.16134 0.918043 5.993C0.91126 5.82466 0.973014 5.66016 1.09089 5.53259C1.20876 5.40501 1.37402 5.32381 1.55343 5.30531C1.73284 5.28682 1.9131 5.3324 2.05797 5.43289L2.13797 5.49689L4.28568 7.50222V0.666667C4.28569 0.505567 4.3482 0.349918 4.46166 0.228506C4.57512 0.107094 4.73184 0.0281318 4.90285 0.00622219L5 0L4.90285 0.00622219Z" fill="#777777"/>
</svg>
