<svg width="92" height="26" viewBox="0 0 92 26" fill="none" xmlns="http://www.w3.org/2000/svg">
<g filter="url(#filter0_i_14_396)">
<path d="M21.4929 0H5.89287C3.02099 0 0.692871 2.32812 0.692871 5.2V20.8C0.692871 23.6719 3.02099 26 5.89287 26H21.4929C24.3648 26 26.6929 23.6719 26.6929 20.8V5.2C26.6929 2.32812 24.3648 0 21.4929 0Z" fill="url(#paint0_linear_14_396)"/>
<path fill-rule="evenodd" clip-rule="evenodd" d="M18.8924 13.0701L17.8524 13.7148V7.41025H17.9102L18.8924 8.08944V13.0701ZM17.333 7.40999V13.7072H10.053V7.40999H17.333ZM9.5317 13.7231V7.40999H9.47391L8.4917 8.08918V13.0699L9.5317 13.7231ZM14.9928 14.5419H12.3928V19.1752L13.0428 19.8904H14.3428L14.9928 19.1752V14.5419ZM14.9924 6.64839H12.3924V6.30532L13.0424 5.59006H14.3424L14.9924 6.30532V6.64839Z" fill="#F6F6F7"/>
</g>
<path d="M47.2018 7.31121V18.2H45.0178V13.5668H40.3534V18.2H38.1694V7.31121H40.3534V11.7884H45.0178V7.31121H47.2018ZM52.877 18.3404C52.045 18.3404 51.2962 18.1584 50.6306 17.7944C49.965 17.42 49.4398 16.8948 49.055 16.2188C48.6806 15.5428 48.4934 14.7628 48.4934 13.8788C48.4934 12.9948 48.6858 12.2148 49.0706 11.5388C49.4658 10.8628 50.0014 10.3428 50.6774 9.97881C51.3534 9.60441 52.1074 9.4172 52.9394 9.4172C53.7714 9.4172 54.5254 9.60441 55.2014 9.97881C55.8774 10.3428 56.4078 10.8628 56.7926 11.5388C57.1878 12.2148 57.3854 12.9948 57.3854 13.8788C57.3854 14.7628 57.1826 15.5428 56.777 16.2188C56.3818 16.8948 55.841 17.42 55.1546 17.7944C54.4786 18.1584 53.7194 18.3404 52.877 18.3404ZM52.877 16.4372C53.2722 16.4372 53.6414 16.3436 53.9846 16.1564C54.3382 15.9588 54.619 15.6676 54.827 15.2828C55.035 14.898 55.139 14.43 55.139 13.8788C55.139 13.0572 54.9206 12.428 54.4838 11.9912C54.0574 11.544 53.5322 11.3204 52.9082 11.3204C52.2842 11.3204 51.759 11.544 51.3326 11.9912C50.9166 12.428 50.7086 13.0572 50.7086 13.8788C50.7086 14.7004 50.9114 15.3348 51.317 15.782C51.733 16.2188 52.253 16.4372 52.877 16.4372ZM61.2184 11.3516V15.5324C61.2184 15.8236 61.286 16.0368 61.4212 16.172C61.5668 16.2968 61.806 16.3592 62.1388 16.3592H63.1528V18.2H61.78C59.9392 18.2 59.0188 17.3056 59.0188 15.5168V11.3516H57.9892V9.5576H59.0188V7.42041H61.2184V9.5576H63.1528V11.3516H61.2184ZM67.7971 9.4172C68.4419 9.4172 69.0087 9.54721 69.4975 9.80721C69.9863 10.0568 70.3711 10.3844 70.6519 10.79V9.5576H72.8515V18.2624C72.8515 19.0632 72.6903 19.7756 72.3679 20.3996C72.0455 21.034 71.5619 21.5332 70.9171 21.8972C70.2723 22.2716 69.4923 22.4588 68.5771 22.4588C67.3499 22.4588 66.3411 22.1728 65.5507 21.6008C64.7707 21.0288 64.3287 20.2488 64.2247 19.2608H66.3931C66.5075 19.656 66.7519 19.968 67.1263 20.1968C67.5111 20.436 67.9739 20.5556 68.5147 20.5556C69.1491 20.5556 69.6639 20.3632 70.0591 19.9784C70.4543 19.604 70.6519 19.032 70.6519 18.2624V16.9208C70.3711 17.3264 69.9811 17.6644 69.4819 17.9348C68.9931 18.2052 68.4315 18.3404 67.7971 18.3404C67.0691 18.3404 66.4035 18.1532 65.8003 17.7788C65.1971 17.4044 64.7187 16.8792 64.3651 16.2032C64.0219 15.5168 63.8503 14.7316 63.8503 13.8476C63.8503 12.974 64.0219 12.1992 64.3651 11.5232C64.7187 10.8472 65.1919 10.3272 65.7847 9.96321C66.3879 9.59921 67.0587 9.4172 67.7971 9.4172ZM70.6519 13.8788C70.6519 13.3484 70.5479 12.896 70.3399 12.5216C70.1319 12.1368 69.8511 11.8456 69.4975 11.648C69.1439 11.44 68.7643 11.336 68.3587 11.336C67.9531 11.336 67.5787 11.4348 67.2355 11.6324C66.8923 11.83 66.6115 12.1212 66.3931 12.506C66.1851 12.8804 66.0811 13.3276 66.0811 13.8476C66.0811 14.3676 66.1851 14.8252 66.3931 15.2204C66.6115 15.6052 66.8923 15.9016 67.2355 16.1096C67.5891 16.3176 67.9635 16.4216 68.3587 16.4216C68.7643 16.4216 69.1439 16.3228 69.4975 16.1252C69.8511 15.9172 70.1319 15.626 70.3399 15.2516C70.5479 14.8668 70.6519 14.4092 70.6519 13.8788ZM75.6393 18.3092C75.2441 18.3092 74.9165 18.1896 74.6565 17.9504C74.4069 17.7008 74.2821 17.394 74.2821 17.03C74.2821 16.666 74.4069 16.3644 74.6565 16.1252C74.9165 15.8756 75.2441 15.7508 75.6393 15.7508C76.0241 15.7508 76.3413 15.8756 76.5909 16.1252C76.8405 16.3644 76.9653 16.666 76.9653 17.03C76.9653 17.394 76.8405 17.7008 76.5909 17.9504C76.3413 18.1896 76.0241 18.3092 75.6393 18.3092ZM77.8506 13.8476C77.8506 12.974 78.0222 12.1992 78.3654 11.5232C78.719 10.8472 79.1922 10.3272 79.785 9.96321C80.3882 9.59921 81.059 9.4172 81.7974 9.4172C82.4422 9.4172 83.0038 9.54721 83.4822 9.80721C83.971 10.0672 84.361 10.3948 84.6522 10.79V9.5576H86.8518V18.2H84.6522V16.9364C84.3714 17.342 83.9814 17.68 83.4822 17.9504C82.9934 18.2104 82.4266 18.3404 81.7818 18.3404C81.0538 18.3404 80.3882 18.1532 79.785 17.7788C79.1922 17.4044 78.719 16.8792 78.3654 16.2032C78.0222 15.5168 77.8506 14.7316 77.8506 13.8476ZM84.6522 13.8788C84.6522 13.3484 84.5482 12.896 84.3402 12.5216C84.1322 12.1368 83.8514 11.8456 83.4978 11.648C83.1442 11.44 82.7646 11.336 82.359 11.336C81.9534 11.336 81.579 11.4348 81.2358 11.6324C80.8926 11.83 80.6118 12.1212 80.3934 12.506C80.1854 12.8804 80.0814 13.3276 80.0814 13.8476C80.0814 14.3676 80.1854 14.8252 80.3934 15.2204C80.6118 15.6052 80.8926 15.9016 81.2358 16.1096C81.5894 16.3176 81.9638 16.4216 82.359 16.4216C82.7646 16.4216 83.1442 16.3228 83.4978 16.1252C83.8514 15.9172 84.1322 15.626 84.3402 15.2516C84.5482 14.8668 84.6522 14.4092 84.6522 13.8788ZM89.7807 8.528C89.3959 8.528 89.0735 8.40841 88.8135 8.16921C88.5639 7.91961 88.4391 7.61281 88.4391 7.24881C88.4391 6.88481 88.5639 6.5832 88.8135 6.344C89.0735 6.0944 89.3959 5.9696 89.7807 5.9696C90.1655 5.9696 90.4827 6.0944 90.7323 6.344C90.9923 6.5832 91.1223 6.88481 91.1223 7.24881C91.1223 7.61281 90.9923 7.91961 90.7323 8.16921C90.4827 8.40841 90.1655 8.528 89.7807 8.528ZM90.8571 9.5576V18.2H88.6731V9.5576H90.8571Z" fill="#B946B1"/>
<defs>
<filter id="filter0_i_14_396" x="0.692871" y="0" width="26" height="28.6" filterUnits="userSpaceOnUse" color-interpolation-filters="sRGB">
<feFlood flood-opacity="0" result="BackgroundImageFix"/>
<feBlend mode="normal" in="SourceGraphic" in2="BackgroundImageFix" result="shape"/>
<feColorMatrix in="SourceAlpha" type="matrix" values="0 0 0 0 0 0 0 0 0 0 0 0 0 0 0 0 0 0 127 0" result="hardAlpha"/>
<feOffset dy="2.6"/>
<feGaussianBlur stdDeviation="10.4"/>
<feComposite in2="hardAlpha" operator="arithmetic" k2="-1" k3="1"/>
<feColorMatrix type="matrix" values="0 0 0 0 0.691667 0 0 0 0 0.242083 0 0 0 0 0.662186 0 0 0 0.6 0"/>
<feBlend mode="normal" in2="shape" result="effect1_innerShadow_14_396"/>
</filter>
<linearGradient id="paint0_linear_14_396" x1="13.6929" y1="0" x2="13.6929" y2="26" gradientUnits="userSpaceOnUse">
<stop stop-color="#CC58C4"/>
<stop offset="1" stop-color="#B03EA9"/>
</linearGradient>
</defs>
</svg>
