<svg width="18" height="16" viewBox="0 0 18 16" fill="none" xmlns="http://www.w3.org/2000/svg">
<path d="M17.4083 3.33906C17.1325 2.70045 16.7349 2.12176 16.2376 1.63536C15.7399 1.14752 15.1531 0.759832 14.5092 0.493391C13.8414 0.216012 13.1252 0.0740338 12.4022 0.0756981C11.3878 0.0756981 10.3981 0.353474 9.538 0.878163C9.33224 1.00368 9.13677 1.14154 8.95159 1.29174C8.7664 1.14154 8.57093 1.00368 8.36517 0.878163C7.50509 0.353474 6.51539 0.0756981 5.50099 0.0756981C4.77054 0.0756981 4.06272 0.215615 3.394 0.493391C2.74792 0.76088 2.16561 1.14565 1.66562 1.63536C1.16767 2.12121 0.769897 2.70004 0.494841 3.33906C0.208834 4.00366 0.0627441 4.70942 0.0627441 5.43575C0.0627441 6.12093 0.202661 6.83492 0.480438 7.56126C0.712947 8.16825 1.04628 8.79788 1.4722 9.43367C2.1471 10.4398 3.07507 11.4892 4.22733 12.553C6.13679 14.3164 8.02772 15.5345 8.10797 15.5838L8.59562 15.8966C8.81167 16.0345 9.08945 16.0345 9.3055 15.8966L9.79315 15.5838C9.87339 15.5324 11.7623 14.3164 13.6738 12.553C14.826 11.4892 15.754 10.4398 16.4289 9.43367C16.8548 8.79788 17.1902 8.16825 17.4207 7.56126C17.6985 6.83492 17.8384 6.12093 17.8384 5.43575C17.8404 4.70942 17.6943 4.00366 17.4083 3.33906Z" fill="#FF0000"/>
</svg>
