<svg width="20" height="18" viewBox="0 0 20 18" fill="none" xmlns="http://www.w3.org/2000/svg">
<path d="M13.0974 1.05887C13.1215 0.980401 13.13 0.897952 13.1222 0.816226C13.1145 0.7345 13.0907 0.655097 13.0523 0.582551C13.0139 0.510005 12.9616 0.445737 12.8983 0.393416C12.8351 0.341096 12.7621 0.301747 12.6836 0.277616C12.6052 0.253486 12.5227 0.245047 12.441 0.25278C12.3593 0.260514 12.2799 0.284269 12.2073 0.322689C12.1348 0.361109 12.0705 0.413442 12.0182 0.4767C11.9659 0.539958 11.9265 0.612902 11.9024 0.691366L6.9024 16.9414C6.85366 17.0998 6.86988 17.2712 6.94747 17.4177C7.02506 17.5642 7.15768 17.6739 7.31615 17.7226C7.47461 17.7714 7.64595 17.7551 7.79246 17.6775C7.93897 17.6 8.04866 17.4673 8.0974 17.3089L13.0974 1.05887ZM6.0674 4.18262C6.1256 4.24067 6.17178 4.30964 6.20329 4.38557C6.2348 4.46151 6.25101 4.54291 6.25101 4.62512C6.25101 4.70733 6.2348 4.78873 6.20329 4.86466C6.17178 4.94059 6.1256 5.00956 6.0674 5.06762L2.13365 9.00012L6.0674 12.9326C6.18475 13.05 6.25069 13.2091 6.25069 13.3751C6.25069 13.5411 6.18475 13.7003 6.0674 13.8176C5.95004 13.935 5.79087 14.0009 5.6249 14.0009C5.45893 14.0009 5.29975 13.935 5.1824 13.8176L0.807397 9.44262C0.749192 9.38456 0.703014 9.31559 0.671506 9.23966C0.639998 9.16373 0.623779 9.08232 0.623779 9.00012C0.623779 8.91791 0.639998 8.83651 0.671506 8.76057C0.703014 8.68464 0.749192 8.61567 0.807397 8.55762L5.1824 4.18262C5.24045 4.12441 5.30942 4.07823 5.38535 4.04673C5.46129 4.01522 5.54269 3.999 5.6249 3.999C5.70711 3.999 5.78851 4.01522 5.86444 4.04673C5.94037 4.07823 6.00934 4.12441 6.0674 4.18262ZM13.9324 4.18262C13.8742 4.24067 13.828 4.30964 13.7965 4.38557C13.765 4.46151 13.7488 4.54291 13.7488 4.62512C13.7488 4.70733 13.765 4.78873 13.7965 4.86466C13.828 4.94059 13.8742 5.00956 13.9324 5.06762L17.8661 9.00012L13.9324 12.9326C13.8743 12.9907 13.8282 13.0597 13.7967 13.1356C13.7653 13.2116 13.7491 13.2929 13.7491 13.3751C13.7491 13.4573 13.7653 13.5387 13.7967 13.6146C13.8282 13.6905 13.8743 13.7595 13.9324 13.8176C13.9905 13.8757 14.0595 13.9218 14.1354 13.9533C14.2113 13.9847 14.2927 14.0009 14.3749 14.0009C14.4571 14.0009 14.5385 13.9847 14.6144 13.9533C14.6903 13.9218 14.7593 13.8757 14.8174 13.8176L19.1924 9.44262C19.2506 9.38456 19.2968 9.31559 19.3283 9.23966C19.3598 9.16373 19.376 9.08232 19.376 9.00012C19.376 8.91791 19.3598 8.83651 19.3283 8.76057C19.2968 8.68464 19.2506 8.61567 19.1924 8.55762L14.8174 4.18262C14.7593 4.12441 14.6904 4.07823 14.6144 4.04673C14.5385 4.01522 14.4571 3.999 14.3749 3.999C14.2927 3.999 14.2113 4.01522 14.1354 4.04673C14.0594 4.07823 13.9905 4.12441 13.9324 4.18262Z" fill="black"/>
</svg>
