<svg width="14" height="11" viewBox="0 0 14 11" fill="none" xmlns="http://www.w3.org/2000/svg">
<path d="M12.5686 5.02268C12.8592 5.40278 12.8592 5.91593 12.5686 6.29542C11.6533 7.49031 9.45726 9.95058 6.89337 9.95058C4.32949 9.95058 2.13346 7.49031 1.21813 6.29542C1.07675 6.11342 1 5.88952 1 5.65905C1 5.42858 1.07675 5.20468 1.21813 5.02268C2.13346 3.82779 4.32949 1.36752 6.89337 1.36752C9.45726 1.36752 11.6533 3.82779 12.5686 5.02268V5.02268Z" stroke="#777777" stroke-width="1.22615" stroke-linecap="round" stroke-linejoin="round"/>
<path d="M6.89343 7.49829C7.9092 7.49829 8.73265 6.67484 8.73265 5.65906C8.73265 4.64328 7.9092 3.81983 6.89343 3.81983C5.87765 3.81983 5.0542 4.64328 5.0542 5.65906C5.0542 6.67484 5.87765 7.49829 6.89343 7.49829Z" stroke="#777777" stroke-width="1.22615" stroke-linecap="round" stroke-linejoin="round"/>
</svg>
