<svg width="20" height="21" viewBox="0 0 20 21" fill="none" xmlns="http://www.w3.org/2000/svg">
<path d="M19.707 16.4866L19.227 16.2095C19.2726 15.8483 19.2726 15.4828 19.227 15.1216L19.707 14.8446C19.8414 14.7668 19.9394 14.6388 19.9795 14.4888C20.0196 14.3388 19.9986 14.179 19.921 14.0446L18.749 12.0146C18.6712 11.8802 18.5433 11.7822 18.3933 11.742C18.2433 11.7019 18.0835 11.723 17.949 11.8006L17.466 12.0796C17.1763 11.8593 16.8606 11.6756 16.526 11.5326V10.9796C16.526 10.9026 16.5108 10.8264 16.4814 10.7553C16.4519 10.6842 16.4088 10.6196 16.3543 10.5652C16.2999 10.5108 16.2353 10.4676 16.1642 10.4382C16.0931 10.4087 16.0169 10.3936 15.94 10.3936H13.596C13.519 10.3936 13.4428 10.4087 13.3717 10.4382C13.3006 10.4676 13.236 10.5108 13.1816 10.5652C13.1272 10.6196 13.084 10.6842 13.0546 10.7553C13.0251 10.8264 13.01 10.9026 13.01 10.9796V11.5326C12.6754 11.6756 12.3597 11.8593 12.07 12.0796L11.587 11.8006C11.4524 11.723 11.2925 11.7021 11.1425 11.7425C10.9925 11.7828 10.8646 11.881 10.787 12.0155L9.61498 14.0456C9.53739 14.1801 9.51634 14.3398 9.55646 14.4898C9.59659 14.6398 9.69461 14.7678 9.82899 14.8456L10.309 15.1226C10.2633 15.4838 10.2633 15.8493 10.309 16.2106L9.82899 16.4875C9.69461 16.5653 9.59659 16.6933 9.55646 16.8433C9.51634 16.9933 9.53739 17.1531 9.61498 17.2876L10.787 19.3176C10.8648 19.4519 10.9927 19.5499 11.1427 19.5901C11.2927 19.6302 11.4525 19.6091 11.587 19.5316L12.07 19.2525C12.3597 19.4728 12.6754 19.6565 13.01 19.7996V20.3526C13.01 20.508 13.0717 20.657 13.1816 20.7669C13.2915 20.8768 13.4406 20.9386 13.596 20.9386H15.94C16.0954 20.9386 16.2445 20.8768 16.3543 20.7669C16.4642 20.657 16.526 20.508 16.526 20.3526V19.7996C16.8606 19.6565 17.1763 19.4728 17.466 19.2525L17.949 19.5316C18.0835 19.6091 18.2433 19.6302 18.3933 19.5901C18.5433 19.5499 18.6712 19.4519 18.749 19.3176L19.921 17.2876C19.9986 17.1531 20.0196 16.9933 19.9795 16.8433C19.9394 16.6933 19.8414 16.5653 19.707 16.4875V16.4866ZM18.007 14.9445C18.1149 15.4188 18.1149 15.9113 18.007 16.3856C17.9801 16.5072 17.9926 16.6342 18.0428 16.7482C18.0929 16.8622 18.1781 16.9573 18.286 17.0196L18.613 17.2086L18.027 18.2236L17.698 18.0336C17.59 17.9713 17.4649 17.9451 17.341 17.9588C17.2171 17.9724 17.1008 18.0253 17.009 18.1096C16.6525 18.4399 16.2274 18.6871 15.764 18.8336C15.6451 18.871 15.5412 18.9454 15.4675 19.0459C15.3937 19.1465 15.354 19.2679 15.354 19.3926V19.7676H14.182V19.3916C14.182 19.2669 14.1422 19.1455 14.0685 19.0449C13.9948 18.9444 13.8909 18.87 13.772 18.8326C13.3086 18.6861 12.8834 18.4389 12.527 18.1086C12.4352 18.0242 12.3188 17.9714 12.1949 17.9578C12.071 17.9441 11.946 17.9703 11.838 18.0326L11.509 18.2225L10.923 17.2076L11.25 17.0186C11.3578 16.9562 11.443 16.8612 11.4932 16.7472C11.5434 16.6332 11.5559 16.5062 11.529 16.3846C11.4211 15.9103 11.4211 15.4178 11.529 14.9436C11.5559 14.8219 11.5434 14.6949 11.4932 14.5809C11.443 14.4669 11.3578 14.3719 11.25 14.3096L10.923 14.1206L11.509 13.1056L11.838 13.2956C11.946 13.3578 12.071 13.384 12.1949 13.3704C12.3188 13.3567 12.4352 13.3039 12.527 13.2196C12.8834 12.8892 13.3086 12.642 13.772 12.4956C13.8909 12.4581 13.9948 12.3837 14.0685 12.2832C14.1422 12.1827 14.182 12.0612 14.182 11.9366V11.5616H15.354V11.9366C15.354 12.0612 15.3937 12.1827 15.4675 12.2832C15.5412 12.3837 15.6451 12.4581 15.764 12.4956C16.2273 12.642 16.6525 12.8893 17.009 13.2196C17.1008 13.3039 17.2171 13.3567 17.341 13.3704C17.4649 13.384 17.59 13.3578 17.698 13.2956L18.027 13.1056L18.613 14.1206L18.286 14.3096C18.1781 14.3721 18.093 14.4673 18.043 14.5815C17.993 14.6957 17.9808 14.8229 18.008 14.9445H18.007Z" fill="#6034B6"/>
<path d="M14.768 13.5166C14.3432 13.5166 13.9279 13.6426 13.5746 13.8786C13.2214 14.1146 12.9461 14.4501 12.7835 14.8426C12.6209 15.2351 12.5784 15.667 12.6613 16.0836C12.7442 16.5003 12.9487 16.8831 13.2491 17.1835C13.5495 17.4839 13.9323 17.6885 14.3489 17.7713C14.7656 17.8542 15.1975 17.8117 15.59 17.6491C15.9825 17.4865 16.3179 17.2112 16.554 16.858C16.79 16.5047 16.916 16.0894 16.916 15.6646C16.9152 15.0952 16.6886 14.5493 16.286 14.1466C15.8833 13.744 15.3374 13.5174 14.768 13.5166ZM14.768 16.6416C14.5748 16.6416 14.3859 16.5843 14.2252 16.477C14.0645 16.3696 13.9393 16.217 13.8653 16.0385C13.7914 15.86 13.7721 15.6635 13.8098 15.474C13.8475 15.2845 13.9405 15.1104 14.0771 14.9738C14.2138 14.8371 14.3879 14.7441 14.5774 14.7064C14.7669 14.6687 14.9633 14.688 15.1419 14.762C15.3204 14.8359 15.473 14.9611 15.5803 15.1218C15.6877 15.2825 15.745 15.4714 15.745 15.6646C15.7447 15.9236 15.6417 16.172 15.4585 16.3552C15.2754 16.5383 15.027 16.6413 14.768 16.6416Z" fill="#6034B6"/>
<path d="M1.758 9.13848H7.374L9.546 11.3105C9.62795 11.3923 9.7323 11.448 9.84588 11.4705C9.95945 11.4931 10.0772 11.4815 10.1842 11.4372C10.2911 11.3929 10.3826 11.3179 10.447 11.2217C10.5114 11.1254 10.5459 11.0123 10.546 10.8965V9.13848H11.913C12.3791 9.13795 12.8259 8.95256 13.1555 8.62299C13.4851 8.29341 13.6705 7.84656 13.671 7.38048V2.69648C13.6705 2.23056 13.4852 1.78387 13.1559 1.45432C12.8265 1.12477 12.3799 0.93927 11.914 0.938477H1.758C1.29191 0.939006 0.845065 1.12439 0.515491 1.45397C0.185917 1.78354 0.000529345 2.23039 0 2.69648L0 7.38348C0.00132234 7.84904 0.18706 8.29512 0.516548 8.62405C0.846037 8.95297 1.29243 9.13795 1.758 9.13848ZM1.172 2.69648C1.17226 2.54114 1.23409 2.39224 1.34393 2.2824C1.45377 2.17256 1.60266 2.11074 1.758 2.11048H11.914C12.0693 2.11074 12.2182 2.17256 12.3281 2.2824C12.4379 2.39224 12.4997 2.54114 12.5 2.69648V7.38348C12.4997 7.53881 12.4379 7.68771 12.3281 7.79755C12.2182 7.90739 12.0693 7.96921 11.914 7.96948H9.961C9.88405 7.96948 9.80784 7.98463 9.73675 8.01408C9.66565 8.04353 9.60105 8.0867 9.54664 8.14111C9.49222 8.19553 9.44906 8.26013 9.41961 8.33122C9.39016 8.40232 9.375 8.47852 9.375 8.55548V9.48448L8.031 8.13848C7.92125 8.02854 7.77234 7.96667 7.617 7.96648H1.758C1.60266 7.96621 1.45377 7.90439 1.34393 7.79455C1.23409 7.68471 1.17226 7.53581 1.172 7.38048V2.69648Z" fill="#6034B6"/>
<path d="M2.92999 4.45423H10.744C10.8994 4.45423 11.0485 4.39249 11.1584 4.28259C11.2683 4.1727 11.33 4.02364 11.33 3.86823C11.33 3.71281 11.2683 3.56376 11.1584 3.45386C11.0485 3.34396 10.8994 3.28223 10.744 3.28223H2.92999C2.77458 3.28223 2.62553 3.34396 2.51563 3.45386C2.40573 3.56376 2.34399 3.71281 2.34399 3.86823C2.34399 4.02364 2.40573 4.1727 2.51563 4.28259C2.62553 4.39249 2.77458 4.45423 2.92999 4.45423Z" fill="#6034B6"/>
<path d="M2.92999 6.79895H10.744C10.8994 6.79895 11.0485 6.73722 11.1584 6.62732C11.2683 6.51742 11.33 6.36837 11.33 6.21295C11.33 6.05753 11.2683 5.90849 11.1584 5.79859C11.0485 5.6887 10.8994 5.62695 10.744 5.62695H2.92999C2.77458 5.62695 2.62553 5.6887 2.51563 5.79859C2.40573 5.90849 2.34399 6.05753 2.34399 6.21295C2.34399 6.36837 2.40573 6.51742 2.51563 6.62732C2.62553 6.73722 2.77458 6.79895 2.92999 6.79895Z" fill="#6034B6"/>
<path d="M4.49201 14.3917C4.81564 14.3917 5.07801 14.1294 5.07801 13.8057C5.07801 13.4821 4.81564 13.2197 4.49201 13.2197C4.16837 13.2197 3.90601 13.4821 3.90601 13.8057C3.90601 14.1294 4.16837 14.3917 4.49201 14.3917Z" fill="#6034B6"/>
<path d="M8.00798 14.2201H7.36298C7.28784 13.8528 7.14252 13.5034 6.93498 13.1911L7.39098 12.7341C7.50091 12.6242 7.56267 12.4751 7.56267 12.3196C7.56267 12.1642 7.50091 12.0151 7.39098 11.9051C7.28104 11.7952 7.13195 11.7334 6.97648 11.7334C6.82101 11.7334 6.67191 11.7952 6.56198 11.9051L6.10498 12.3621C5.79304 12.1546 5.44399 12.0093 5.07698 11.9341V11.2891C5.07698 11.1337 5.01524 10.9847 4.90534 10.8748C4.79544 10.7649 4.64639 10.7031 4.49098 10.7031C4.33556 10.7031 4.18651 10.7649 4.07661 10.8748C3.96672 10.9847 3.90498 11.1337 3.90498 11.2891V11.9341C3.53798 12.0094 3.18893 12.1547 2.87698 12.3621L2.41998 11.9051C2.31005 11.7952 2.16094 11.7334 2.00548 11.7334C1.85001 11.7334 1.70091 11.7952 1.59098 11.9051C1.48104 12.0151 1.41929 12.1642 1.41929 12.3196C1.41929 12.4751 1.48104 12.6242 1.59098 12.7341L2.04798 13.1911C1.84051 13.5031 1.69519 13.8521 1.61998 14.2191H0.974977C0.81956 14.2191 0.670509 14.2809 0.560613 14.3908C0.450716 14.5007 0.388977 14.6497 0.388977 14.8051C0.388977 14.9605 0.450716 15.1096 0.560613 15.2195C0.670509 15.3294 0.81956 15.3911 0.974977 15.3911H1.61998C1.69511 15.7585 1.84044 16.1079 2.04798 16.4201L1.59098 16.8771C1.48104 16.9871 1.41929 17.1362 1.41929 17.2916C1.41929 17.4471 1.48104 17.5962 1.59098 17.7061C1.70091 17.8161 1.85001 17.8778 2.00548 17.8778C2.16094 17.8778 2.31005 17.8161 2.41998 17.7061L2.87698 17.2491C3.18892 17.4566 3.53797 17.6019 3.90498 17.6771V18.3221C3.90498 18.4776 3.96672 18.6266 4.07661 18.7365C4.18651 18.8464 4.33556 18.9081 4.49098 18.9081C4.64639 18.9081 4.79544 18.8464 4.90534 18.7365C5.01524 18.6266 5.07698 18.4776 5.07698 18.3221V17.6771C5.44398 17.6019 5.79302 17.4566 6.10498 17.2491L6.56198 17.7061C6.67191 17.8161 6.82101 17.8778 6.97648 17.8778C7.13195 17.8778 7.28104 17.8161 7.39098 17.7061C7.50091 17.5962 7.56267 17.4471 7.56267 17.2916C7.56267 17.1362 7.50091 16.9871 7.39098 16.8771L6.93398 16.4201C7.14156 16.1079 7.28689 15.7585 7.36198 15.3911H8.00698C8.16239 15.3911 8.31145 15.3294 8.42134 15.2195C8.53124 15.1096 8.59298 14.9605 8.59298 14.8051C8.59298 14.6497 8.53124 14.5007 8.42134 14.3908C8.31145 14.2809 8.16239 14.2191 8.00698 14.2191L8.00798 14.2201ZM4.49098 16.5631C4.14328 16.5631 3.80339 16.46 3.51428 16.2669C3.22518 16.0737 2.99986 15.7991 2.8668 15.4779C2.73374 15.1567 2.69892 14.8032 2.76676 14.4622C2.83459 14.1211 3.00202 13.8079 3.24788 13.562C3.49374 13.3162 3.80699 13.1488 4.14801 13.0809C4.48903 13.0131 4.8425 13.0479 5.16373 13.181C5.48497 13.314 5.75953 13.5393 5.9527 13.8284C6.14587 14.1175 6.24898 14.4574 6.24898 14.8051C6.24845 15.2712 6.06306 15.7181 5.73349 16.0476C5.40391 16.3772 4.95707 16.5626 4.49098 16.5631Z" fill="#6034B6"/>
</svg>
