<svg width="13" height="13" viewBox="0 0 13 13" fill="none" xmlns="http://www.w3.org/2000/svg">
<path d="M6.78538 3.45954H6.10561C6.04343 3.45954 5.99256 3.50888 5.99256 3.56918V7.34218C5.99256 7.37781 6.00951 7.4107 6.03919 7.43126L8.37528 9.08546C8.42615 9.12109 8.49682 9.1115 8.53356 9.06216L8.93775 8.52766C8.9759 8.47695 8.9646 8.40843 8.91372 8.37416L6.89844 6.96118V3.56918C6.89844 3.50888 6.84756 3.45954 6.78538 3.45954ZM9.89168 4.49016L12.1076 5.01506C12.1783 5.03151 12.2476 4.97943 12.2476 4.90953L12.2589 2.69617C12.2589 2.60435 12.15 2.55227 12.0766 2.60983L9.84929 4.29692C9.83245 4.30955 9.81964 4.32653 9.81231 4.3459C9.80499 4.36528 9.80345 4.38627 9.80788 4.40646C9.81231 4.42664 9.82252 4.44521 9.83735 4.46002C9.85217 4.47482 9.87101 4.48527 9.89168 4.49016ZM12.2617 8.61674L11.4604 8.3495C11.4324 8.34021 11.4019 8.34189 11.3752 8.35419C11.3485 8.36648 11.3279 8.38841 11.3176 8.41528C11.2908 8.48518 11.2625 8.5537 11.2328 8.62223C10.9813 9.19921 10.6209 9.71863 10.1602 10.164C9.7046 10.6072 9.16466 10.9605 8.5703 11.2043C7.95459 11.4567 7.29275 11.5863 6.62427 11.5853C5.94874 11.5853 5.29441 11.4578 4.67824 11.2043C4.08389 10.9605 3.54395 10.6072 3.08835 10.164C2.62905 9.71863 2.26867 9.19921 2.0157 8.62223C1.75682 8.0248 1.62418 7.38307 1.62565 6.73504C1.62565 6.07994 1.75708 5.44403 2.01853 4.84649C2.27008 4.26951 2.63046 3.75009 3.09117 3.30468C3.54678 2.86148 4.08672 2.50822 4.68107 2.26446C5.29441 2.01092 5.95016 1.88346 6.62569 1.88346C7.30121 1.88346 7.95554 2.01092 8.57172 2.26446C9.16607 2.50822 9.70601 2.86148 10.1616 3.30468C10.3058 3.44584 10.4414 3.59248 10.5658 3.74735L11.4109 3.10595C10.2987 1.72723 8.56748 0.840512 6.62286 0.841882C3.23674 0.843253 0.517666 3.51025 0.551583 6.79535C0.585501 10.0229 3.29185 12.6282 6.62569 12.6282C9.24724 12.6282 11.4802 11.0165 12.3309 8.75928C12.3521 8.70172 12.321 8.6373 12.2617 8.61674Z" fill="#777777"/>
</svg>
