<svg width="44" height="41" viewBox="0 0 44 41" fill="none" xmlns="http://www.w3.org/2000/svg">
<path d="M8.14558 14.4268C6.26575 14.8998 4.62335 16.043 3.52695 17.6416C2.43055 19.2401 1.95563 21.184 2.1914 23.1081C2.42718 25.0321 3.35743 26.8038 4.80737 28.0904C6.25732 29.3769 8.12716 30.0897 10.0656 30.0948H12.0532M21.9911 20.157V38.0452V20.157ZM21.9911 20.157L17.0221 24.1321L21.9911 20.157ZM21.9911 20.157L26.96 24.1321L21.9911 20.157Z" stroke="white" stroke-width="3.97516" stroke-linecap="round" stroke-linejoin="round"/>
<path d="M29.6034 10.4934C28.9241 7.80333 27.2473 5.47224 24.913 3.97264C22.5787 2.47305 19.7615 1.91716 17.0325 2.41765C14.3035 2.91815 11.8669 4.43759 10.2167 6.66796C8.56644 8.89833 7.82602 11.6727 8.1455 14.4288C8.1455 14.4288 8.4496 16.1818 9.07171 17.1756" stroke="white" stroke-width="3.97516" stroke-linecap="round" stroke-linejoin="round"/>
<path d="M31.9285 30.0945C33.3319 30.0936 34.719 29.7954 35.9988 29.2197C37.2786 28.644 38.4219 27.8038 39.3536 26.7544C40.2852 25.7049 40.9841 24.4701 41.4041 23.1311C41.8241 21.7921 41.9558 20.3794 41.7905 18.9859C41.6251 17.5923 41.1666 16.2496 40.4449 15.0461C39.7232 13.8425 38.7549 12.8055 37.6036 12.0032C36.4522 11.2009 35.144 10.6515 33.7651 10.3912C32.3861 10.1309 30.9677 10.1656 29.6031 10.493L26.9596 11.2125" stroke="white" stroke-width="3.97516" stroke-linecap="round" stroke-linejoin="round"/>
</svg>
