<svg id="_.btn-qr" data-name=".btn-qr" xmlns="http://www.w3.org/2000/svg" width="164" height="164" viewBox="0 0 164 164">
  <g id="Group_154" data-name="Group 154">
    <path id="Path_832" data-name="Path 832" d="M1594.8,1556.78h-20.9a17.125,17.125,0,0,0-17.126,17.126v20.9a17.124,17.124,0,0,0,17.126,17.124h20.9a17.124,17.124,0,0,0,17.124-17.124v-20.9A17.124,17.124,0,0,0,1594.8,1556.78Zm-2.321,46.176h-16.255a10.479,10.479,0,0,1-10.481-10.476v-16.255a10.482,10.482,0,0,1,10.481-10.481h16.255a10.479,10.479,0,0,1,10.476,10.481v16.255A10.475,10.475,0,0,1,1592.48,1602.956Z" transform="translate(-1556.78 -1556.78)" fill="#fff"/>
    <path id="Rectangle_228" data-name="Rectangle 228" d="M10.76,0h0A10.76,10.76,0,0,1,21.52,10.76v0A10.76,10.76,0,0,1,10.76,21.52h0A10.76,10.76,0,0,1,0,10.76v0A10.76,10.76,0,0,1,10.76,0Z" transform="translate(16.813 16.813)" fill="#fff"/>
    <path id="Path_833" data-name="Path 833" d="M2808.91,1573.9v20.9a17.123,17.123,0,0,0,17.121,17.127h20.9a17.129,17.129,0,0,0,17.121-17.127v-20.9a17.126,17.126,0,0,0-17.121-17.125h-20.9A17.12,17.12,0,0,0,2808.91,1573.9Zm35.7,29.052H2828.35a10.483,10.483,0,0,1-10.479-10.48v-16.253a10.484,10.484,0,0,1,10.479-10.478h16.261a10.477,10.477,0,0,1,10.478,10.478v16.253A10.477,10.477,0,0,1,2844.611,1602.955Z" transform="translate(-2700.052 -1556.778)" fill="#fff"/>
    <path id="Rectangle_229" data-name="Rectangle 229" d="M10.76,0h0A10.76,10.76,0,0,1,21.52,10.76v0A10.76,10.76,0,0,1,10.76,21.52h0A10.76,10.76,0,0,1,0,10.76v0A10.76,10.76,0,0,1,10.76,0Z" transform="translate(125.669 16.813)" fill="#fff"/>
    <path id="Path_834" data-name="Path 834" d="M1573.905,2864.052h20.9a17.124,17.124,0,0,0,17.125-17.121v-20.9a17.118,17.118,0,0,0-17.125-17.125h-20.9a17.121,17.121,0,0,0-17.125,17.125v20.9A17.126,17.126,0,0,0,1573.905,2864.052Zm2.32-46.18h16.255a10.477,10.477,0,0,1,10.479,10.476v16.261a10.485,10.485,0,0,1-10.479,10.478h-16.255a10.484,10.484,0,0,1-10.477-10.478v-16.261A10.476,10.476,0,0,1,1576.225,2817.872Z" transform="translate(-1556.78 -2700.052)" fill="#fff"/>
    <path id="Path_835" data-name="Path 835" d="M1757.013,3023.817h7.832a6.838,6.838,0,0,0,6.843-6.836v-7.837a6.849,6.849,0,0,0-6.843-6.849h-7.832a6.849,6.849,0,0,0-6.847,6.849v7.837A6.839,6.839,0,0,0,1757.013,3023.817Z" transform="translate(-1733.353 -2876.62)" fill="#fff"/>
    <rect id="Rectangle_230" data-name="Rectangle 230" width="9.149" height="9.149" transform="translate(36.609 82.081)" fill="#fff"/>
    <path id="Path_836" data-name="Path 836" d="M1584.241,2323.493v-1.01h9.146v-7.841h9.149V2305.5h-18.3v8.843h-9.147V2305.5h-9.152v16.987h-.013v-8.144h-9.148v9.154h.017v8.14h-.017v9.146h9.148v-9.146h.013v-9.015h9.152v9.015h-9.152v9.146h27.445v-9.146h-9.146Z" transform="translate(-1556.78 -2240.406)" fill="#fff"/>
    <rect id="Rectangle_231" data-name="Rectangle 231" width="9.149" height="9.148" transform="translate(100.648 109.527)" fill="#fff"/>
    <rect id="Rectangle_232" data-name="Rectangle 232" width="9.148" height="9.149" transform="translate(128.095 82.953)" fill="#fff"/>
    <path id="Path_837" data-name="Path 837" d="M2610.808,1675.822v-9.142h-9.15v18.293h9.15Z" transform="translate(-2510.817 -1657.126)" fill="#fff"/>
    <path id="Path_838" data-name="Path 838" d="M2309.271,1790.206v-18.3h-9.144v9.146h-9.152v9.149h18.3Z" transform="translate(-2227.148 -1753.207)" fill="#fff"/>
    <path id="Path_839" data-name="Path 839" d="M2673.307,2300.481h-27.449v9.152h18.3v9.148h8.458v9.155H2655v8.266h-9.146v-8.266H2636.7V2354.5h-9.144v9.154h18.3v8.71h-27.446v18.3h-9.148v9.144H2636.7v-9.144h-8.71v-9.163h18v-8.7H2655v-18.3h-9.146v-9.142H2655v9.142h17.61v8.722h-8.458v18.284H2655v9.163h9.152v9.144h17.609v-27.448h-8.458v-8.71h8.458v-18.28h-8.458v-.016h-9.017v-8.279h17.476v-27.447h-8.458Z" transform="translate(-2517.766 -2235.824)" fill="#fff"/>
    <rect id="Rectangle_233" data-name="Rectangle 233" width="9.149" height="9.149" transform="translate(82.35 145.685)" fill="#fff"/>
    <path id="Path_840" data-name="Path 840" d="M2110.543,2196.424v-.127h9.153v-8.719h9.146v-8.712h9.148v-9.582h-9.148v-9.148h9.148v-8.71h9.152v-8.715h9.146v-9.156h9.15v-9.15h-18.3v-8.711h-9.152v-9.144h-27.447v-8.923H2101.4v18.067h-9.148v26.146h-9.142v9.142h18.29V2141.4h9.146v18.736h-.012v-9.017h-9.144v9.152h.01v9.013h-.01v9.144h9.144v-9.144h.012v-9.013h9.153v9.013h-9.153v17.991H2101.4V2214.6h18.3v-9.165h-9.153Zm9.153-54.155v-9.144h9.146v-8.279h-18.3v7.4H2101.4v-7.4h9.146v-9.152h18.3v9.152h9.148v17.422h-9.148v8.85H2119.7Z" transform="translate(-2037.35 -2050.604)" fill="#fff"/>
    <path id="Path_841" data-name="Path 841" d="M2935.679,3232.7h-9.142v9.153h9.007v9.131h9.155v-9.148h-9.02Z" transform="translate(-2807.455 -3087.002)" fill="#fff"/>
    <rect id="Rectangle_234" data-name="Rectangle 234" width="9.148" height="9.149" transform="translate(90.839 37.001)" fill="#fff"/>
    <rect id="Rectangle_235" data-name="Rectangle 235" width="9.149" height="9.148" transform="translate(63.828 9.554)" fill="#fff"/>
    <path id="Path_842" data-name="Path 842" d="M2405.359,1570.422h17.859v-9.146h-17.992v.015h-9.019v9.15h9.152Z" transform="translate(-2323.231 -1560.885)" fill="#fff"/>
  </g>
</svg>
