<svg id="Group_1028" data-name="Group 1028" xmlns="http://www.w3.org/2000/svg" width="16" height="18.462" viewBox="0 0 16 18.462">
  <path id="Path_17555" data-name="Path 17555" d="M59.519,85.4H50.23a1.524,1.524,0,0,0-1.58,1.459V99.173a1.524,1.524,0,0,0,1.58,1.459h9.289a1.524,1.524,0,0,0,1.58-1.459V86.859A1.529,1.529,0,0,0,59.519,85.4Zm.471,13.77a.458.458,0,0,1-.475.439H50.225a.458.458,0,0,1-.475-.439V86.859a.458.458,0,0,1,.475-.439h9.289a.458.458,0,0,1,.475.439Z" transform="translate(-48.65 -82.171)" fill="#9c88b9"/>
  <path id="Path_17556" data-name="Path 17556" d="M146.319,0H137.03a1.524,1.524,0,0,0-1.58,1.459.554.554,0,0,0,1.1,0,.458.458,0,0,1,.475-.439h9.289a.458.458,0,0,1,.475.439V13.773a.458.458,0,0,1-.475.439.512.512,0,1,0,0,1.021,1.524,1.524,0,0,0,1.58-1.459V1.459A1.524,1.524,0,0,0,146.319,0Z" transform="translate(-131.898)" fill="#9c88b9"/>
</svg>
