<svg xmlns="http://www.w3.org/2000/svg" width="26" height="31.834" viewBox="0 0 26 31.834">
  <g id="delete" transform="translate(0)">
    <path id="Path_17613" data-name="Path 17613" d="M25.919,7.115l-.7-2.107a1.96,1.96,0,0,0-1.862-1.342H17.447V1.744A1.745,1.745,0,0,0,15.7,0h-5.41A1.745,1.745,0,0,0,8.552,1.744V3.667H2.645A1.96,1.96,0,0,0,.783,5.009L.08,7.115a1.577,1.577,0,0,0,1.5,2.076h.735l1.617,20a2.893,2.893,0,0,0,2.867,2.646H19.532A2.893,2.893,0,0,0,22.4,29.187l1.617-20h.407a1.577,1.577,0,0,0,1.5-2.076Zm-15.5-5.25h5.164v1.8H10.417ZM20.54,29.037a1.017,1.017,0,0,1-1.007.931H6.795a1.017,1.017,0,0,1-1.007-.931L4.182,9.192H22.145ZM1.976,7.326,2.553,5.6a.1.1,0,0,1,.092-.067H23.354a.1.1,0,0,1,.092.067l.576,1.728Zm0,0" transform="translate(0)" fill="#bbade3"/>
    <path id="Path_17614" data-name="Path 17614" d="M269.18,184.252h.049a.932.932,0,0,0,.93-.884l.876-16.812a.933.933,0,1,0-1.863-.1l-.876,16.812A.933.933,0,0,0,269.18,184.252Zm0,0" transform="translate(-251.615 -155.281)" fill="#bbade3"/>
    <path id="Path_17615" data-name="Path 17615" d="M106.712,183.374a.933.933,0,0,0,.93.882h.052a.933.933,0,0,0,.88-.982l-.917-16.812a.933.933,0,0,0-1.862.1Zm0,0" transform="translate(-99.217 -155.284)" fill="#bbade3"/>
    <path id="Path_17616" data-name="Path 17616" d="M195.187,184.255a.933.933,0,0,0,.933-.933V166.511a.933.933,0,1,0-1.865,0v16.812A.933.933,0,0,0,195.187,184.255Zm0,0" transform="translate(-182.177 -155.283)" fill="#bbade3"/>
  </g>
</svg>
