<svg xmlns="http://www.w3.org/2000/svg" width="32" height="32" viewBox="0 0 32 32">
  <g id="edit" transform="translate(0 -0.004)">
    <g id="Group_2390" data-name="Group 2390" transform="translate(0 2.289)">
      <g id="Group_2389" data-name="Group 2389">
        <path id="Path_18624" data-name="Path 18624" d="M26.285,47.851a1.143,1.143,0,0,0-1.143,1.143V60.422A1.143,1.143,0,0,1,24,61.565H3.429a1.143,1.143,0,0,1-1.143-1.143V37.566a1.143,1.143,0,0,1,1.143-1.143H17.143a1.143,1.143,0,1,0,0-2.286H3.429A3.429,3.429,0,0,0,0,37.566V60.422a3.429,3.429,0,0,0,3.429,3.429H24a3.429,3.429,0,0,0,3.429-3.429V48.994A1.143,1.143,0,0,0,26.285,47.851Z" transform="translate(0 -34.137)" fill="#9c88b9"/>
      </g>
    </g>
    <g id="Group_2392" data-name="Group 2392" transform="translate(6.858 0.004)">
      <g id="Group_2391" data-name="Group 2391" transform="translate(0 0)">
        <path id="Path_18625" data-name="Path 18625" d="M126.27,1.285a4.374,4.374,0,0,0-6.188,0L105.029,16.338a1.155,1.155,0,0,0-.275.447l-2.286,6.857a1.143,1.143,0,0,0,1.083,1.5,1.161,1.161,0,0,0,.361-.058l6.857-2.286a1.143,1.143,0,0,0,.447-.277L126.269,7.472A4.375,4.375,0,0,0,126.27,1.285Zm-1.616,4.572L109.8,20.714,105.358,22.2l1.478-4.433L121.7,2.907a2.088,2.088,0,1,1,2.955,2.951Z" transform="translate(-102.409 -0.004)" fill="#9c88b9"/>
      </g>
    </g>
  </g>
</svg>
