<svg id="calendar" xmlns="http://www.w3.org/2000/svg" width="19" height="19" viewBox="0 0 19 19">
  <g id="Group_1037" data-name="Group 1037">
    <g id="Group_1036" data-name="Group 1036">
      <path id="Path_17533" data-name="Path 17533" d="M16.773,1.484h-.891V0H14.4V1.484H4.6V0H3.117V1.484H2.227A2.229,2.229,0,0,0,0,3.711V16.773A2.229,2.229,0,0,0,2.227,19H16.773A2.229,2.229,0,0,0,19,16.773V3.711A2.229,2.229,0,0,0,16.773,1.484Zm.742,15.289a.743.743,0,0,1-.742.742H2.227a.743.743,0,0,1-.742-.742v-9.8H17.516Zm0-11.281H1.484V3.711a.743.743,0,0,1,.742-.742h.891V4.453H4.6V2.969h9.8V4.453h1.484V2.969h.891a.743.743,0,0,1,.742.742Z" fill="#fff"/>
    </g>
  </g>
  <g id="Group_1039" data-name="Group 1039" transform="translate(2.82 8.535)">
    <g id="Group_1038" data-name="Group 1038">
      <rect id="Rectangle_549" data-name="Rectangle 549" width="1.484" height="1.484" fill="#fff"/>
    </g>
  </g>
  <g id="Group_1041" data-name="Group 1041" transform="translate(5.789 8.535)">
    <g id="Group_1040" data-name="Group 1040">
      <rect id="Rectangle_550" data-name="Rectangle 550" width="1.484" height="1.484" fill="#fff"/>
    </g>
  </g>
  <g id="Group_1043" data-name="Group 1043" transform="translate(8.758 8.535)">
    <g id="Group_1042" data-name="Group 1042">
      <rect id="Rectangle_551" data-name="Rectangle 551" width="1.484" height="1.484" fill="#fff"/>
    </g>
  </g>
  <g id="Group_1045" data-name="Group 1045" transform="translate(11.727 8.535)">
    <g id="Group_1044" data-name="Group 1044">
      <rect id="Rectangle_552" data-name="Rectangle 552" width="1.484" height="1.484" fill="#fff"/>
    </g>
  </g>
  <g id="Group_1047" data-name="Group 1047" transform="translate(14.695 8.535)">
    <g id="Group_1046" data-name="Group 1046">
      <rect id="Rectangle_553" data-name="Rectangle 553" width="1.484" height="1.484" fill="#fff"/>
    </g>
  </g>
  <g id="Group_1049" data-name="Group 1049" transform="translate(2.82 11.504)">
    <g id="Group_1048" data-name="Group 1048">
      <rect id="Rectangle_554" data-name="Rectangle 554" width="1.484" height="1.484" fill="#fff"/>
    </g>
  </g>
  <g id="Group_1051" data-name="Group 1051" transform="translate(5.789 11.504)">
    <g id="Group_1050" data-name="Group 1050">
      <rect id="Rectangle_555" data-name="Rectangle 555" width="1.484" height="1.484" fill="#fff"/>
    </g>
  </g>
  <g id="Group_1053" data-name="Group 1053" transform="translate(8.758 11.504)">
    <g id="Group_1052" data-name="Group 1052">
      <rect id="Rectangle_556" data-name="Rectangle 556" width="1.484" height="1.484" fill="#fff"/>
    </g>
  </g>
  <g id="Group_1055" data-name="Group 1055" transform="translate(11.727 11.504)">
    <g id="Group_1054" data-name="Group 1054">
      <rect id="Rectangle_557" data-name="Rectangle 557" width="1.484" height="1.484" fill="#fff"/>
    </g>
  </g>
  <g id="Group_1057" data-name="Group 1057" transform="translate(2.82 14.473)">
    <g id="Group_1056" data-name="Group 1056">
      <rect id="Rectangle_558" data-name="Rectangle 558" width="1.484" height="1.484" fill="#fff"/>
    </g>
  </g>
  <g id="Group_1059" data-name="Group 1059" transform="translate(5.789 14.473)">
    <g id="Group_1058" data-name="Group 1058">
      <rect id="Rectangle_559" data-name="Rectangle 559" width="1.484" height="1.484" fill="#fff"/>
    </g>
  </g>
  <g id="Group_1061" data-name="Group 1061" transform="translate(8.758 14.473)">
    <g id="Group_1060" data-name="Group 1060">
      <rect id="Rectangle_560" data-name="Rectangle 560" width="1.484" height="1.484" fill="#fff"/>
    </g>
  </g>
  <g id="Group_1063" data-name="Group 1063" transform="translate(11.727 14.473)">
    <g id="Group_1062" data-name="Group 1062">
      <rect id="Rectangle_561" data-name="Rectangle 561" width="1.484" height="1.484" fill="#fff"/>
    </g>
  </g>
  <g id="Group_1065" data-name="Group 1065" transform="translate(14.695 11.504)">
    <g id="Group_1064" data-name="Group 1064">
      <rect id="Rectangle_562" data-name="Rectangle 562" width="1.484" height="1.484" fill="#fff"/>
    </g>
  </g>
</svg>
