<svg xmlns="http://www.w3.org/2000/svg" width="40" height="20" viewBox="0 0 40 20">
  <g id="Group_2396" data-name="Group 2396" transform="translate(-1598 -490)">
    <path id="Path_18629" data-name="Path 18629" d="M36.179,10.125h-3l-5.571,9.429V10.125H24.75v20h2.857V23.983l1.285-2.143,4.286,8.286h3L30.607,19.268Z" transform="translate(1601.821 479.875)" fill="#bbade3"/>
    <path id="Path_18630" data-name="Path 18630" d="M19.214,30.125H13.5v-20h5.714a5.731,5.731,0,0,1,5.714,5.714v8.571a5.731,5.731,0,0,1-5.714,5.714Zm-2.857-2.857h2.857a2.866,2.866,0,0,0,2.857-2.857V15.839a2.866,2.866,0,0,0-2.857-2.857H16.357Z" transform="translate(1598.785 479.875)" fill="#bbade3"/>
    <path id="Path_18631" data-name="Path 18631" d="M10.821,30.125H2.25V27.268h8.571V21.554H5.107A2.866,2.866,0,0,1,2.25,18.7V12.982a2.866,2.866,0,0,1,2.857-2.857h8.571v2.857H5.107V18.7h5.714a2.866,2.866,0,0,1,2.857,2.857v5.714A2.866,2.866,0,0,1,10.821,30.125Z" transform="translate(1595.75 479.875)" fill="#bbade3"/>
  </g>
</svg>
