<?xml version="1.0" standalone="no"?>
<!DOCTYPE svg PUBLIC "-//W3C//DTD SVG 1.1//EN" "http://www.w3.org/Graphics/SVG/1.1/DTD/svg11.dtd" >
<svg xmlns="http://www.w3.org/2000/svg" xmlns:xlink="http://www.w3.org/1999/xlink" version="1.1">
<metadata>
Created by FontForge 20200427 at Mon May  2 14:59:32 2011
 By www
Copyright (c) 2011 Linotype Corp. All rights reserved. This font software may not be reproduced, modified, disclosed or transferred without the express written approval of Linotype Corp.
</metadata>
<defs>
<font id="HelveticaNeueWGL-Bd" horiz-adv-x="1518" >
  <font-face 
    font-family="Helvetica Neue WGL"
    font-weight="700"
    font-stretch="normal"
    units-per-em="2048"
    panose-1="2 11 8 4 2 2 2 2 2 4"
    ascent="1638"
    descent="-410"
    x-height="1059"
    cap-height="1462"
    bbox="-340 -458 2222 1993"
    underline-thickness="102"
    underline-position="-205"
    unicode-range="U+000D-FEFF"
  />
<missing-glyph horiz-adv-x="1049" 
d="M1049 1470v-1470h-1049v1470h1049zM946 102v1264h-844v-1264h844zM530 1247q110 0 182 -74t72 -194q0 -82 -33 -135.5t-98 -112.5q-67 -60 -82.5 -94.5t-15.5 -157.5h-94l-4 40q0 63 8.5 110t47 97.5t72.5 81.5t64.5 70.5t30.5 92.5q0 72 -46.5 123t-109.5 51
q-67 0 -111.5 -48t-56.5 -146l-102 16q14 137 85.5 208.5t190.5 71.5zM455 377h114v-137h-114v137z" />
    <glyph glyph-name=".notdef" horiz-adv-x="1049" 
d="M1049 1470v-1470h-1049v1470h1049zM946 102v1264h-844v-1264h844zM530 1247q110 0 182 -74t72 -194q0 -82 -33 -135.5t-98 -112.5q-67 -60 -82.5 -94.5t-15.5 -157.5h-94l-4 40q0 63 8.5 110t47 97.5t72.5 81.5t64.5 70.5t30.5 92.5q0 72 -46.5 123t-109.5 51
q-67 0 -111.5 -48t-56.5 -146l-102 16q14 137 85.5 208.5t190.5 71.5zM455 377h114v-137h-114v137z" />
    <glyph glyph-name="uni0000" horiz-adv-x="0" 
 />
    <glyph glyph-name="uni0000" horiz-adv-x="0" 
 />
    <glyph glyph-name="nonmarkingreturn" unicode="&#xd;" horiz-adv-x="569" 
 />
    <glyph glyph-name="space" unicode=" " horiz-adv-x="569" 
 />
    <glyph glyph-name="exclam" unicode="!" horiz-adv-x="569" 
d="M436 1462v-393l-80 -631h-145l-78 631v393h303zM446 315v-315h-321v315h321z" />
    <glyph glyph-name="quotedbl" unicode="&#x22;" horiz-adv-x="948" 
d="M393 1462v-657h-219v657h219zM774 1462v-657h-219v657h219z" />
    <glyph glyph-name="numbersign" unicode="#" horiz-adv-x="1139" 
d="M580 1434l-58 -406h199l55 406h199l-55 -406h151v-184h-178l-35 -254h152v-184h-179l-55 -406h-198l55 406h-197l-56 -400l-2 -6h-198l58 406h-170v184h194l37 254h-170v184h195l57 406h199zM498 844l-37 -254h198l35 254h-196z" />
    <glyph glyph-name="dollar" unicode="$" horiz-adv-x="1139" 
d="M508 1655h121v-158q208 -23 328 -133.5t133 -302.5h-291q-5 86 -53 140.5t-117 54.5v-361q217 -53 314 -113.5t147.5 -145.5t50.5 -238q0 -125 -98 -248q-75 -85 -175.5 -129.5t-238.5 -55.5v-174h-121v174q-233 19 -359.5 144.5t-150.5 365.5h291v-7q0 -104 59.5 -173.5
t159.5 -89.5v428q-29 10 -70 20q-199 46 -302 142.5t-103 263.5q0 189 130.5 305t344.5 133v158zM324 1087q0 -68 44 -105t140 -58v333h-3q-75 0 -128 -46t-53 -124zM629 205q96 10 158.5 63.5t62.5 137.5q0 77 -48 118t-173 74v-393z" />
    <glyph glyph-name="percent" unicode="%" horiz-adv-x="2048" 
d="M1542 1479l-844 -1524h-178l848 1524h174zM502 1462q166 0 251 -107t85 -305q0 -185 -91 -285.5t-255 -100.5q-171 0 -254.5 99.5t-83.5 293.5q0 187 91.5 296t256.5 109zM362 1051q0 -135 33.5 -184.5t98.5 -49.5t100 54.5t35 178.5q0 134 -32.5 196.5t-95.5 62.5
q-70 0 -104.5 -63t-34.5 -195zM1559 770q167 0 251 -103.5t84 -298.5q0 -184 -90.5 -290.5t-255.5 -106.5q-166 0 -252 105t-86 298q0 183 92 289.5t257 106.5zM1419 373q0 -140 33 -194t98 -54q70 0 103 62t33 185q0 121 -31 182.5t-98 61.5q-72 0 -105 -59t-33 -184z" />
    <glyph glyph-name="ampersand" unicode="&#x26;" horiz-adv-x="1403" 
d="M636 1479q176 0 288 -94.5t112 -256.5q0 -113 -65 -203.5t-195 -160.5l189 -232q18 35 32 79t21 96h252q-14 -114 -50.5 -203t-91.5 -158l297 -346h-356l-119 145q-87 -87 -188 -130.5t-223 -43.5q-205 0 -339 119.5t-134 318.5q0 130 82 238.5t245 186.5
q-84 100 -111.5 169.5t-27.5 141.5q0 143 112.5 238.5t269.5 95.5zM518 1155q0 -46 21 -90t94 -129q83 51 116 97t33 111q0 58 -39.5 99t-94.5 41q-56 0 -93 -38t-37 -91zM342 403q0 -77 63.5 -134.5t145.5 -57.5q64 0 122 28t124 101l-250 305q-99 -42 -152 -104t-53 -138z
" />
    <glyph glyph-name="quotesingle" unicode="'" horiz-adv-x="569" 
d="M395 1462v-657h-219v657h219z" />
    <glyph glyph-name="parenleft" unicode="(" horiz-adv-x="606" 
d="M621 1497q-109 -203 -166.5 -440.5t-57.5 -487.5q0 -251 53.5 -485t167.5 -457h-241q-133 219 -202 456.5t-69 465.5q0 238 70 496.5t201 451.5h244z" />
    <glyph glyph-name="parenright" unicode=")" horiz-adv-x="606" 
d="M229 1497q133 -218 202 -455t69 -469q0 -234 -69.5 -494t-200.5 -451h-244q112 213 167.5 446t55.5 479q0 255 -55 491.5t-166 452.5h241z" />
    <glyph glyph-name="asterisk" unicode="*" horiz-adv-x="834" 
d="M496 1462v-256l237 90l55 -157l-241 -80l151 -201l-135 -100l-151 211l-144 -211l-137 100l152 201l-238 80l55 157l232 -90v256h164z" />
    <glyph glyph-name="plus" unicode="+" horiz-adv-x="1229" 
d="M725 1034v-407h408v-219h-408v-408h-219v408h-408v219h408v407h219z" />
    <glyph glyph-name="comma" unicode="," horiz-adv-x="569" 
d="M446 315v-321q0 -118 -82.5 -212.5t-236.5 -121.5v147q67 16 106.5 68.5t39.5 110.5v14h-148v315h321z" />
    <glyph glyph-name="hyphen" unicode="-" horiz-adv-x="834" 
d="M725 684v-250h-616v250h616z" />
    <glyph glyph-name="period" unicode="." horiz-adv-x="569" 
d="M444 315v-315h-321v315h321z" />
    <glyph glyph-name="slash" unicode="/" horiz-adv-x="760" 
d="M782 1497l-571 -1532h-234l572 1532h233z" />
    <glyph glyph-name="zero" unicode="0" horiz-adv-x="1139" 
d="M567 1462q257 0 393 -187.5t136 -551.5q0 -369 -135 -560.5t-394 -191.5q-256 0 -390 190.5t-134 561.5q0 362 133.5 550.5t390.5 188.5zM334 721q0 -222 30.5 -322.5t81.5 -144t121 -43.5q115 0 176.5 112.5t61.5 398.5q0 275 -61.5 388t-177.5 113q-110 0 -171 -109
t-61 -393z" />
    <glyph glyph-name="one" unicode="1" horiz-adv-x="1139" 
d="M803 1434v-1434h-291v930h-360v219h19q176 0 277.5 72.5t122.5 212.5h232z" />
    <glyph glyph-name="two" unicode="2" horiz-adv-x="1139" 
d="M596 1462q210 0 350.5 -125.5t140.5 -322.5q0 -138 -66 -248.5t-277 -244.5q-147 -93 -217 -154t-109 -117h678v-250h-1053q0 142 50.5 251.5t145 196t360.5 263.5q102 67 150 134.5t48 145.5q0 97 -58.5 159t-156.5 62q-108 0 -166.5 -88t-61.5 -241h-278v27
q0 249 141.5 400.5t378.5 151.5z" />
    <glyph glyph-name="three" unicode="3" horiz-adv-x="1139" 
d="M565 1462q195 0 338.5 -113t143.5 -284q0 -104 -51 -183t-150 -110v-4q120 -28 187 -117t67 -209q0 -210 -154 -340.5t-379 -130.5q-242 0 -387 137t-145 369v17h276q7 -135 73 -209t179 -74q104 0 169 64.5t65 160.5q0 107 -63.5 160t-237.5 53h-31v205l49 -2
q123 0 189.5 47t66.5 133t-57.5 138.5t-145.5 52.5q-98 0 -158.5 -64.5t-62.5 -191.5h-276q8 226 143 360.5t352 134.5z" />
    <glyph glyph-name="four" unicode="4" horiz-adv-x="1139" 
d="M915 1434v-863h191v-239h-191v-332h-276v332h-606v266l622 836h260zM633 1069l-371 -498h377v498h-6z" />
    <glyph glyph-name="five" unicode="5" horiz-adv-x="1139" 
d="M1024 1434v-240h-592l-57 -326l4 -4q54 54 120 82.5t160 28.5q200 0 321.5 -137t121.5 -351q0 -213 -153.5 -364.5t-372.5 -151.5q-232 0 -382.5 121t-156.5 334h291q11 -98 75.5 -156.5t159.5 -58.5q107 0 177.5 81t70.5 195q0 119 -68.5 194t-180.5 75
q-77 0 -127 -28.5t-91 -86.5h-262l141 793h801z" />
    <glyph glyph-name="six" unicode="6" horiz-adv-x="1139" 
d="M606 1462q192 0 316 -106t149 -291h-276q-18 83 -71 130.5t-122 47.5q-118 0 -190.5 -117t-83.5 -319l4 -4q59 85 137.5 122.5t184.5 37.5q118 0 228.5 -64.5t162 -174t51.5 -228.5q0 -224 -142.5 -374.5t-359.5 -150.5q-270 0 -410.5 193.5t-140.5 547.5
q0 323 149 536.5t414 213.5zM354 477q0 -108 64.5 -187t167.5 -79q94 0 156.5 77t62.5 185q0 111 -58 190.5t-163 79.5t-167.5 -73.5t-62.5 -192.5z" />
    <glyph glyph-name="seven" unicode="7" horiz-adv-x="1139" 
d="M1059 1434v-250q-211 -191 -336 -522.5t-133 -661.5h-311q25 318 150.5 617t330.5 546h-680v271h979z" />
    <glyph glyph-name="eight" unicode="8" horiz-adv-x="1139" 
d="M572 1462q223 0 351 -120.5t128 -265.5q0 -104 -52.5 -183.5t-156.5 -116.5v-4q133 -32 200.5 -125t67.5 -225q0 -206 -154.5 -328.5t-382.5 -122.5q-236 0 -390 120t-154 329q0 136 71 228.5t199 123.5v4q-102 30 -156.5 108t-54.5 187q0 175 142 283t342 108zM352 1044
q0 -82 61 -135t158 -53t156 51t59 137q0 90 -55 144.5t-161 54.5q-97 0 -157.5 -56.5t-60.5 -142.5zM319 434q0 -104 73.5 -174t180.5 -70q106 0 176 68.5t70 173.5q0 99 -71 164.5t-177 65.5q-105 0 -178.5 -60.5t-73.5 -167.5z" />
    <glyph glyph-name="nine" unicode="9" horiz-adv-x="1139" 
d="M546 1462q270 0 410 -193.5t140 -546.5q0 -324 -150 -537.5t-414 -213.5q-187 0 -313 105t-151 293h276q17 -81 70 -130t123 -49q116 0 187 110.5t87 326.5l-4 4q-58 -82 -136.5 -121t-186.5 -39q-118 0 -228 64.5t-161.5 172t-51.5 231.5q0 223 141 373t362 150z
M334 961q0 -117 59 -194t160 -77q104 0 167.5 73t63.5 193q0 113 -65 190t-167 77q-93 0 -155.5 -76t-62.5 -186z" />
    <glyph glyph-name="colon" unicode=":" horiz-adv-x="569" 
d="M446 1040v-315h-321v315h321zM446 315v-315h-321v315h321z" />
    <glyph glyph-name="semicolon" unicode=";" horiz-adv-x="569" 
d="M446 1040v-315h-321v315h321zM446 315v-321q0 -118 -82.5 -212.5t-236.5 -121.5v147q67 16 106.5 68.5t39.5 110.5v14h-148v315h321z" />
    <glyph glyph-name="less" unicode="&#x3c;" horiz-adv-x="1229" 
d="M1135 817l-752 -299l752 -299v-236l-1041 414v242l1041 414v-236z" />
    <glyph glyph-name="equal" unicode="=" horiz-adv-x="1229" 
d="M1133 846v-219h-1035v219h1035zM1133 408v-220h-1035v220h1035z" />
    <glyph glyph-name="greater" unicode="&#x3e;" horiz-adv-x="1229" 
d="M94 1053l1041 -414v-242l-1041 -413v235l752 299l-752 299v236z" />
    <glyph glyph-name="question" unicode="?" horiz-adv-x="1139" 
d="M564 1497q240 0 374.5 -116.5t134.5 -289.5q-5 -93 -20 -139.5t-45 -89.5t-84 -89l-119 -87q-44 -38 -67 -70.5t-38 -98.5v-79h-276v92q7 103 51.5 182t135.5 148t116 113t25 100q0 90 -44.5 137t-129.5 47q-101 0 -156 -71t-55 -195h-301q6 227 142 366.5t356 139.5z
M717 315v-315h-322v315h322z" />
    <glyph glyph-name="at" unicode="@" horiz-adv-x="1638" 
d="M852 1497q293 0 503 -178.5t210 -446.5q0 -167 -73.5 -301.5t-195.5 -213t-214 -78.5q-63 0 -102.5 31.5t-45.5 83.5h-4q-38 -59 -96.5 -88.5t-124.5 -29.5q-126 0 -224 103t-98 249q0 208 129.5 364.5t316.5 156.5q76 0 141 -35t99 -108l33 110h168l-125 -512
q-16 -57 -18.5 -74t-2.5 -30q0 -22 9.5 -34.5t26.5 -12.5q91 0 166 110.5t75 265.5q0 230 -153 367t-402 137q-257 0 -418.5 -170.5t-161.5 -435.5q0 -264 169 -431t435 -167q127 0 244 44t197 124h172q-111 -166 -275 -249t-350 -83q-328 0 -558 221t-230 545
q0 322 230 544t548 222zM596 653q0 -80 44 -131t116 -51q103 0 177.5 98t74.5 211q0 70 -44 122t-116 52q-104 0 -178 -96t-74 -205z" />
    <glyph glyph-name="A" unicode="A" horiz-adv-x="1403" 
d="M870 1462l547 -1461h-334l-110 325h-547l-115 -326h-325l555 1462h329zM700 1102l-190 -537h379l-184 537h-5z" />
    <glyph glyph-name="B" unicode="B" horiz-adv-x="1442" 
d="M840 1462q224 0 340 -88.5t116 -272.5q0 -113 -52 -187t-146 -119q133 -40 200.5 -135t67.5 -236q0 -202 -146 -313t-361 -111h-718v1462h699zM794 870q86 0 138.5 44t52.5 130t-54 127t-159 41h-309v-342h331zM815 250q107 0 168 47t61 145q0 103 -57.5 156t-166.5 53
h-357v-401h352z" />
    <glyph glyph-name="C" unicode="C" 
d="M797 1497q249 0 424.5 -140.5t205.5 -385.5h-311q-21 115 -114 185.5t-206 70.5q-188 0 -292.5 -137.5t-104.5 -364.5q0 -217 103.5 -353t294.5 -136q139 0 225 85.5t106 241.5h312q-28 -279 -202.5 -438.5t-440.5 -159.5q-211 0 -375.5 96.5t-254 272.5t-89.5 391
q0 337 197 554.5t522 217.5z" />
    <glyph glyph-name="D" unicode="D" 
d="M782 1462q292 0 473 -190.5t181 -532.5t-177 -540.5t-477 -198.5h-641v1462h641zM757 270q154 0 255.5 110.5t101.5 329.5q0 253 -106 367.5t-307 114.5h-238v-922h294z" />
    <glyph glyph-name="E" unicode="E" horiz-adv-x="1327" 
d="M1235 1462v-270h-772v-313h708v-250h-708v-359h788v-270h-1110v1462h1094z" />
    <glyph glyph-name="F" unicode="F" horiz-adv-x="1214" 
d="M1169 1462v-270h-706v-338h612v-250h-612v-604h-322v1462h1028z" />
    <glyph glyph-name="G" unicode="G" horiz-adv-x="1554" 
d="M796 1497q238 0 414 -137.5t203 -378.5h-307q-31 123 -112 184.5t-197 61.5q-191 0 -294.5 -138.5t-103.5 -363.5q0 -213 102.5 -351t295.5 -138q154 0 243.5 78.5t104.5 236.5h-324v240h615v-791h-205l-33 165q-79 -99 -179 -149.5t-223 -50.5q-209 0 -374 96.5
t-254.5 272.5t-89.5 391q0 338 197 555t521 217z" />
    <glyph glyph-name="H" unicode="H" 
d="M463 1462v-561h592v561h321v-1462h-321v631h-592v-631h-322v1462h322z" />
    <glyph glyph-name="I" unicode="I" horiz-adv-x="604" 
d="M463 1462v-1462h-322v1462h322z" />
    <glyph glyph-name="J" unicode="J" horiz-adv-x="1139" 
d="M997 1462v-1011q0 -235 -122.5 -360.5t-363.5 -125.5q-213 0 -347.5 120.5t-134.5 324.5v135h290v-55q0 -146 47 -200t140 -54q84 0 127 45.5t43 181.5v999h321z" />
    <glyph glyph-name="K" unicode="K" horiz-adv-x="1479" 
d="M463 1462v-606l571 606h402l-572 -577l627 -885h-404l-440 657l-184 -186v-471h-322v1462h322z" />
    <glyph glyph-name="L" unicode="L" horiz-adv-x="1214" 
d="M463 1462v-1192h713v-270h-1035v1462h322z" />
    <glyph glyph-name="M" unicode="M" horiz-adv-x="1858" 
d="M594 1462l342 -1005h4l323 1001l2 4h451v-1462h-301v1036h-4l-358 -1036h-248l-359 1026h-4v-1026h-301v1462h453z" />
    <glyph glyph-name="N" unicode="N" 
d="M461 1462l610 -981h4v981h301v-1462h-321l-609 979h-4v-979h-301v1462h320z" />
    <glyph glyph-name="O" unicode="O" horiz-adv-x="1593" 
d="M797 1497q326 0 522.5 -218.5t196.5 -553.5q0 -327 -197.5 -543.5t-521.5 -216.5q-211 0 -375.5 97t-254 272.5t-89.5 390.5q0 338 197.5 555t521.5 217zM399 725q0 -216 103.5 -352.5t294.5 -136.5q189 0 293 134.5t104 354.5q0 231 -105.5 366.5t-293.5 135.5
q-187 0 -291.5 -137t-104.5 -365z" />
    <glyph glyph-name="P" unicode="P" horiz-adv-x="1366" 
d="M811 1462q229 0 362.5 -128.5t133.5 -340.5q0 -211 -133.5 -340t-362.5 -129h-348v-524h-322v1462h670zM722 774q138 0 205.5 52t67.5 167q0 112 -65 165.5t-207 53.5h-260v-438h259z" />
    <glyph glyph-name="Q" unicode="Q" horiz-adv-x="1593" 
d="M797 1497q326 0 522.5 -218t196.5 -554q0 -157 -48 -293.5t-143 -245.5l182 -166l-149 -157l-207 188q-71 -41 -159.5 -63.5t-194.5 -22.5q-330 0 -524.5 219.5t-194.5 540.5q0 338 197.5 555t521.5 217zM399 725q0 -214 103.5 -355t331.5 -135q35 0 59 5.5t33 15.5
l-138 125l150 160l166 -152q46 62 68 148t22 188q0 232 -105 367t-294 135q-187 0 -291.5 -137t-104.5 -365z" />
    <glyph glyph-name="R" unicode="R" horiz-adv-x="1479" 
d="M938 1462q177 0 298.5 -114t121.5 -290q0 -138 -57.5 -228.5t-174.5 -137.5v-4q103 -27 158 -123t60 -294q4 -198 57 -271h-322q-28 71 -38 230q-15 216 -72.5 278.5t-176.5 62.5h-329v-571h-322v1462h797zM822 801q101 0 157.5 49t56.5 160q0 104 -54.5 153t-159.5 49
h-359v-411h359z" />
    <glyph glyph-name="S" unicode="S" horiz-adv-x="1329" 
d="M645 1497q265 0 425 -123t160 -348h-311q-7 110 -75 165.5t-212 55.5q-98 0 -160.5 -43t-62.5 -123q0 -55 26 -82t106.5 -56.5t351.5 -93.5q182 -44 284 -149t102 -266q0 -212 -159 -340.5t-448 -128.5q-276 0 -450 136t-174 376v8h311q2 -136 91 -203t233 -67
q130 0 207.5 47.5t77.5 134.5q0 71 -59.5 116.5t-190.5 78.5q-168 38 -305 80.5t-226.5 138t-89.5 244.5q0 197 157.5 319.5t390.5 122.5z" />
    <glyph glyph-name="T" unicode="T" horiz-adv-x="1251" 
d="M1225 1462v-270h-439v-1192h-321v1192h-438v270h1198z" />
    <glyph glyph-name="U" unicode="U" 
d="M457 1462v-918q0 -158 72.5 -233t228.5 -75q168 0 235.5 73.5t67.5 233.5v919h321v-919q0 -272 -158.5 -425t-465.5 -153q-309 0 -466 150.5t-157 427.5v919h322z" />
    <glyph glyph-name="V" unicode="V" horiz-adv-x="1290" 
d="M315 1462l326 -1028h4l330 1028h332l-486 -1462h-362l-475 1462h331z" />
    <glyph glyph-name="W" unicode="W" horiz-adv-x="1933" 
d="M328 1462l231 -995h4l254 995h301l250 -1007h4l240 1007h315l-393 -1462h-320l-247 995h-4l-244 -995h-326l-387 1462h322z" />
    <glyph glyph-name="X" unicode="X" horiz-adv-x="1366" 
d="M401 1462l287 -467l297 467h352l-469 -698l510 -764h-383l-319 506l-326 -506h-362l512 766l-471 696h372z" />
    <glyph glyph-name="Y" unicode="Y" horiz-adv-x="1366" 
d="M344 1462l342 -577l340 577h358l-542 -901v-561h-322v569l-538 893h362z" />
    <glyph glyph-name="Z" unicode="Z" horiz-adv-x="1327" 
d="M1260 1462v-254l-785 -938h805v-270h-1233v254l784 938h-722v270h1151z" />
    <glyph glyph-name="bracketleft" unicode="[" horiz-adv-x="682" 
d="M680 1497v-229h-250v-1411h250v-230h-541v1870h541z" />
    <glyph glyph-name="backslash" unicode="\" horiz-adv-x="760" 
d="M211 1497l571 -1532h-234l-572 1532h235z" />
    <glyph glyph-name="bracketright" unicode="]" horiz-adv-x="682" 
d="M543 1497v-1870h-541v230h250v1411h-250v229h541z" />
    <glyph glyph-name="asciicircum" unicode="^" horiz-adv-x="1229" 
d="M752 1434l352 -788h-240l-250 562l-249 -563h-240l352 789h275z" />
    <glyph glyph-name="underscore" unicode="_" horiz-adv-x="1024" 
d="M1024 -154v-102h-1024v102h1024z" />
    <glyph glyph-name="grave" unicode="`" horiz-adv-x="530" 
d="M222 1497l197 -291h-203l-315 291h321z" />
    <glyph glyph-name="a" unicode="a" horiz-adv-x="1176" 
d="M597 1087q235 0 349.5 -77t114.5 -217v-568q0 -64 8.5 -128t28.5 -97h-295q-8 24 -13.5 49.5t-7.5 51.5q-61 -63 -151.5 -96.5t-204.5 -33.5q-164 0 -262 82.5t-98 235.5q0 148 92 226.5t335 105.5q169 16 223 41.5t54 88.5q0 71 -41.5 106.5t-145.5 35.5
q-90 0 -138 -38.5t-56 -121.5h-291q12 174 143.5 264t355.5 90zM356 301q0 -63 43 -99t136 -36q116 0 175.5 61t59.5 178v113q-26 -21 -68.5 -31.5t-153.5 -26.5q-99 -13 -145.5 -51.5t-46.5 -107.5z" />
    <glyph glyph-name="b" unicode="b" horiz-adv-x="1251" 
d="M401 1462v-532h5q47 72 135 114.5t198 42.5q186 0 312.5 -150.5t126.5 -406.5q0 -254 -126.5 -406.5t-313.5 -152.5q-128 0 -216 42.5t-131 121.5h-4v-135h-276v1462h290zM391 528q0 -152 67 -245t181 -93t181 93t67 245q0 153 -65.5 246.5t-184.5 93.5
q-111 0 -178.5 -91.5t-67.5 -248.5z" />
    <glyph glyph-name="c" unicode="c" horiz-adv-x="1176" 
d="M618 1087q205 0 345.5 -106t152.5 -295h-285q-13 91 -67 136.5t-148 45.5q-117 0 -182 -96t-65 -248t64 -243t177 -91q97 0 157 55.5t75 160.5h280q-29 -210 -164 -322.5t-346 -112.5q-236 0 -385 151.5t-149 391.5q0 257 146.5 415t393.5 158z" />
    <glyph glyph-name="d" unicode="d" horiz-adv-x="1251" 
d="M1143 1462v-1462h-277v135h-4q-47 -81 -129.5 -122.5t-191.5 -41.5q-217 0 -346 159.5t-129 408.5q0 236 127 392t342 156q99 0 181 -40t132 -117h4v532h291zM356 531q0 -148 69 -244.5t187 -96.5q121 0 185.5 89.5t64.5 252.5q0 155 -63 245.5t-188 90.5
q-121 0 -188 -90.5t-67 -246.5z" />
    <glyph glyph-name="e" unicode="e" horiz-adv-x="1176" 
d="M600 1087q235 0 375.5 -161.5t140.5 -412.5l-2 -54h-764q6 -137 71.5 -203t187.5 -66q79 0 146 40.5t85 97.5h256q-59 -180 -182 -268.5t-314 -88.5q-245 0 -393 155t-148 402q0 237 151.5 398t389.5 161zM350 643h473q-21 117 -75.5 171t-157.5 54q-106 0 -168 -60
t-72 -165z" />
    <glyph glyph-name="f" unicode="f" horiz-adv-x="682" 
d="M528 1462q30 0 80 -3t74 -5v-217q-29 3 -55.5 4.5t-49.5 1.5q-61 0 -86.5 -26.5t-25.5 -108.5v-49h201v-195h-201v-864h-291v864h-174v195h174v73q0 165 95.5 247.5t258.5 82.5z" />
    <glyph glyph-name="g" unicode="g" horiz-adv-x="1251" 
d="M532 1087q116 0 192 -43t124 -126h4v141h276v-1000q0 -213 -135.5 -336.5t-411.5 -123.5q-187 0 -321 89.5t-147 250.5h288q20 -77 76 -111.5t141 -34.5q112 0 173 67.5t61 187.5v147h-4q-43 -78 -126.5 -121t-191.5 -43q-214 0 -333 142t-119 390q0 224 124.5 374
t329.5 150zM369 567q0 -149 61.5 -233t173.5 -84q115 0 181.5 84t66.5 210q0 155 -63 239.5t-186 84.5q-108 0 -171 -82t-63 -219z" />
    <glyph glyph-name="h" unicode="h" horiz-adv-x="1214" 
d="M401 1462v-551h7q46 79 130.5 127.5t180.5 48.5q202 0 293.5 -103t91.5 -322v-662h-291v607q0 124 -42.5 187.5t-143.5 63.5q-121 0 -173.5 -72t-52.5 -221v-565h-290v1462h290z" />
    <glyph glyph-name="i" unicode="i" horiz-adv-x="528" 
d="M410 1462v-239h-291v239h291zM410 1059v-1059h-291v1059h291z" />
    <glyph glyph-name="j" unicode="j" horiz-adv-x="569" 
d="M428 1462v-239h-291v239h291zM428 1059v-1121q0 -166 -83 -238.5t-288 -72.5q-25 0 -48 2t-48 6v240q13 -5 29.5 -6.5t33.5 -1.5q64 0 88.5 24t24.5 66v1102h291z" />
    <glyph glyph-name="k" unicode="k" horiz-adv-x="1176" 
d="M428 1462v-784l367 381h344l-400 -389l445 -670h-353l-290 473l-113 -108v-365h-291v1462h291z" />
    <glyph glyph-name="l" unicode="l" horiz-adv-x="528" 
d="M410 1462v-1462h-291v1462h291z" />
    <glyph glyph-name="m" unicode="m" horiz-adv-x="1855" 
d="M721 1087q118 0 195 -45.5t114 -130.5q60 85 142 130.5t179 45.5q192 0 289 -98t97 -271v-718h-291v612q0 145 -42.5 195.5t-135.5 50.5q-98 0 -146.5 -66t-48.5 -193v-599h-291v652q0 105 -40 155.5t-135 50.5q-83 0 -140 -64t-57 -173v-621h-291v1059h274v-144h4
q62 87 143.5 129.5t180.5 42.5z" />
    <glyph glyph-name="n" unicode="n" horiz-adv-x="1214" 
d="M718 1087q203 0 294.5 -102.5t91.5 -322.5v-662h-291v607q0 124 -42.5 187.5t-143.5 63.5q-121 0 -173.5 -72t-52.5 -221v-565h-290v1059h276v-148h6q53 85 138 130.5t187 45.5z" />
    <glyph glyph-name="o" unicode="o" horiz-adv-x="1251" 
d="M625 1087q249 0 399 -153.5t150 -405.5q0 -253 -151.5 -405t-397.5 -152t-396.5 153t-150.5 404t148 405t399 154zM369 528q0 -167 68.5 -252.5t187.5 -85.5q124 0 191 88.5t67 249.5q0 158 -65 249t-195 91q-117 0 -185.5 -84.5t-68.5 -255.5z" />
    <glyph glyph-name="p" unicode="p" horiz-adv-x="1251" 
d="M707 1087q225 0 353 -157.5t128 -411.5q0 -235 -126 -391t-339 -156q-97 0 -181 41.5t-136 118.5h-5v-504h-290v1432h276v-135h4q52 83 132.5 123t183.5 40zM391 526q0 -152 65 -244t189 -92q121 0 186.5 88t65.5 248q0 152 -65 247t-191 95q-120 0 -185 -90t-65 -252z
" />
    <glyph glyph-name="q" unicode="q" horiz-adv-x="1251" 
d="M541 1087q108 0 192 -41.5t129 -121.5h4v135h277v-1432h-291v506h-4q-48 -80 -137.5 -121t-196.5 -41q-185 0 -316.5 144t-131.5 406q0 248 128.5 407t346.5 159zM356 528q0 -161 67 -249.5t185 -88.5q122 0 188 88t66 246q0 150 -64 247t-186 97q-123 0 -189.5 -93.5
t-66.5 -246.5z" />
    <glyph glyph-name="r" unicode="r" horiz-adv-x="797" 
d="M728 1087q19 0 35 -2.5t30 -7.5v-270q-25 5 -48.5 7.5t-55.5 2.5q-147 0 -217.5 -90t-70.5 -241v-486h-290v1059h276v-197h4q46 104 137.5 164.5t199.5 60.5z" />
    <glyph glyph-name="s" unicode="s" horiz-adv-x="1100" 
d="M545 1087q216 0 333.5 -85.5t133.5 -251.5h-277q-6 75 -56 109t-143 34q-84 0 -122.5 -25t-38.5 -73q0 -49 50.5 -80.5t203.5 -60.5q244 -47 327.5 -121t83.5 -194q0 -180 -131.5 -274t-351.5 -94t-354.5 93.5t-143.5 279.5h277q0 -84 63.5 -131t159.5 -47q85 0 138 36.5
t53 98.5q0 55 -69 90t-253 73q-182 36 -263 103t-81 181q0 168 119 253.5t342 85.5z" />
    <glyph glyph-name="t" unicode="t" horiz-adv-x="721" 
d="M479 1376v-317h213v-195h-213v-531q0 -65 24.5 -90.5t98.5 -25.5q25 0 48 2t42 6v-227q-36 -6 -80.5 -8t-87.5 -2q-189 0 -262.5 64.5t-73.5 180.5v631h-176v195h176v317h291z" />
    <glyph glyph-name="u" unicode="u" horiz-adv-x="1214" 
d="M401 1059v-607q0 -120 42 -185.5t145 -65.5q120 0 172.5 72.5t52.5 220.5v565h291v-1059h-277v147h-6q-55 -88 -142 -132t-183 -44q-197 0 -291 100.5t-94 324.5v663h290z" />
    <glyph glyph-name="v" unicode="v" horiz-adv-x="1065" 
d="M315 1059l224 -723h4l223 723h289l-359 -1059h-323l-363 1059h305z" />
    <glyph glyph-name="w" unicode="w" horiz-adv-x="1667" 
d="M319 1059l195 -719h4l176 719h283l180 -717h4l195 717h299l-335 -1059h-298l-188 711h-5l-180 -711h-301l-336 1059h307z" />
    <glyph glyph-name="x" unicode="x" horiz-adv-x="1100" 
d="M365 1059l186 -277l184 277h322l-348 -496l391 -563h-332l-221 334l-221 -334h-326l381 557l-348 502h332z" />
    <glyph glyph-name="y" unicode="y" horiz-adv-x="1063" 
d="M299 1059l240 -725h4l231 725h301l-450 -1212q-40 -106 -123 -163t-215 -57q-63 0 -106.5 3t-89.5 8v239q53 -6 87 -8t65 -2q62 0 96 38t34 95q0 15 -2 29.5t-11 36.5l-373 993h312z" />
    <glyph glyph-name="z" unicode="z" horiz-adv-x="1063" 
d="M979 1059v-219l-551 -621h590v-219h-973v219l551 621h-510v219h893z" />
    <glyph glyph-name="braceleft" unicode="{" horiz-adv-x="682" 
d="M682 1497v-229h-111q-56 0 -83 -37t-27 -107v-307q0 -224 -202 -252v-6q84 -9 143 -70t59 -149v-344q0 -139 113 -139h108v-230h-264q-46 0 -109 34.5t-101 99t-38 137.5v409q0 66 -52 114t-136 52v178q89 6 138.5 58t49.5 122v396q0 113 81.5 191.5t166.5 78.5h264z" />
    <glyph glyph-name="bar" unicode="|" horiz-adv-x="457" 
d="M338 1610v-2048h-219v2048h219z" />
    <glyph glyph-name="braceright" unicode="}" horiz-adv-x="682" 
d="M264 1497q85 0 166.5 -78.5t81.5 -191.5v-396q0 -70 49.5 -122t138.5 -58v-178q-84 -4 -136 -52t-52 -114v-409q0 -74 -38.5 -138t-101 -98.5t-108.5 -34.5h-264v230h108q60 0 86.5 37t26.5 106v327q0 107 61.5 166t140.5 66v6q-105 15 -153.5 80t-48.5 155v323
q0 145 -110 145h-111v229h264z" />
    <glyph glyph-name="asciitilde" unicode="~" horiz-adv-x="1229" 
d="M1010 705l82 -191q-74 -105 -131.5 -140.5t-124.5 -35.5q-93 0 -226 70q-133 69 -218 69q-53 0 -95 -34.5t-78 -112.5l-82 190q50 94 113.5 135t142.5 41q43 0 98 -15.5t134 -52.5q25 -11 91.5 -41t112.5 -30q42 0 82.5 29t98.5 119z" />
    <glyph glyph-name="uni00A0" unicode="&#xa0;" horiz-adv-x="569" 
 />
    <glyph glyph-name="exclamdown" unicode="&#xa1;" horiz-adv-x="569" 
d="M446 1087v-315h-321v315h321zM358 649l78 -631v-393h-303v393l80 631h145z" />
    <glyph glyph-name="cent" unicode="&#xa2;" horiz-adv-x="1139" 
d="M531 1262h122v-175q184 -2 316.5 -114.5t142.5 -288.5h-285v2q-6 70 -55 122.5t-119 59.5v-678q78 17 128 82.5t50 143.5h285q-18 -194 -141.5 -309.5t-321.5 -135.5v-207h-121v207q-223 16 -356 170t-133 371q0 236 126 394t362 181v175zM334 541q0 -138 50.5 -227.5
t147.5 -123.5v676q-97 -27 -147.5 -112.5t-50.5 -212.5z" />
    <glyph glyph-name="sterling" unicode="&#xa3;" horiz-adv-x="1139" 
d="M605 1497q235 0 366 -131t133 -381h-277q-6 139 -61.5 205.5t-161.5 66.5q-91 0 -146 -51.5t-55 -137.5q0 -63 17 -116t66 -144h274v-175h-215q10 -33 13 -58.5t3 -65.5q0 -89 -44 -158.5t-124 -131.5l4 -4q42 25 71 36t69 11q38 0 96.5 -10t96.5 -20q29 -8 63.5 -12.5
t64.5 -4.5q65 0 104.5 25t75.5 63l123 -207q-59 -60 -142 -95.5t-179 -35.5q-135 0 -227 39t-197 39q-82 0 -140 -23.5t-96 -54.5l-127 191q113 70 172.5 160t59.5 180q0 28 -8.5 57.5t-30.5 79.5h-203v174h131q-39 49 -65.5 127.5t-26.5 155.5q0 177 142 292t381 115z" />
    <glyph glyph-name="currency" unicode="&#xa4;" horiz-adv-x="1139" 
d="M973 1249l125 -125l-115 -112q47 -54 69.5 -131t22.5 -162q0 -97 -26.5 -174.5t-67.5 -124.5l113 -115l-113 -112l-117 118q-47 -45 -123 -73.5t-170 -28.5q-87 0 -166 24.5t-134 75.5l-115 -119l-115 115l117 119q-50 59 -74.5 133.5t-24.5 157.5q0 84 24 163.5
t75 131.5l-117 118l117 117l116 -115q51 44 134 69.5t165 25.5q75 0 151.5 -24t129.5 -68zM313 715q0 -125 71.5 -206t186.5 -81t182.5 81.5t67.5 209.5q0 123 -68 205t-182 82t-186 -82.5t-72 -208.5z" />
    <glyph glyph-name="yen" unicode="&#xa5;" horiz-adv-x="1139" 
d="M315 1462l271 -637l264 637h332l-318 -637h195v-194h-293l-31 -60v-94h324v-194h-324v-283h-311v283h-322v194h322v94l-29 60h-293v194h195l-315 637h333z" />
    <glyph glyph-name="brokenbar" unicode="&#xa6;" horiz-adv-x="457" 
d="M338 1354v-512h-219v512h219zM338 330v-512h-219v512h219z" />
    <glyph glyph-name="section" unicode="&#xa7;" horiz-adv-x="1139" 
d="M580 1497q185 0 307 -103.5t125 -291.5h-254q0 78 -48.5 127t-125.5 49q-62 0 -109 -38t-47 -92q0 -55 57 -104.5t216 -119.5q251 -112 334 -204t83 -208q0 -105 -59.5 -185t-153.5 -114q57 -42 85 -103t28 -139q0 -153 -130 -248.5t-307 -95.5q-218 0 -338.5 103
t-120.5 295h253q4 -88 55 -133.5t144 -45.5q66 0 109.5 34.5t43.5 108.5q0 56 -58 106t-253 136q-222 98 -309 193t-87 215q0 104 56.5 182t163.5 115q-48 52 -68 99t-20 108q0 157 126.5 255.5t301.5 98.5zM274 662q0 -26 14 -53t53 -49l351 -191q26 -14 45.5 -18.5
t32.5 -4.5q36 0 65 37t29 76q0 36 -20 68t-73 62l-358 202q-15 8 -33 8q-35 0 -70.5 -44t-35.5 -93z" />
    <glyph glyph-name="dieresis" unicode="&#xa8;" horiz-adv-x="530" 
d="M193 1464v-239h-277v239h277zM614 1464v-239h-276v239h276z" />
    <glyph glyph-name="copyright" unicode="&#xa9;" horiz-adv-x="1638" 
d="M819 1497q330 0 558.5 -218t228.5 -548t-228.5 -548t-558.5 -218q-324 0 -555 216.5t-231 549.5t230.5 549.5t555.5 216.5zM242 731q0 -256 167 -429t410 -173q244 0 411 173.5t167 428.5q0 252 -165 427t-415 175q-241 0 -408 -172.5t-167 -429.5zM844 1194
q150 0 250.5 -85t119.5 -232h-159q-19 74 -76 113.5t-135 39.5q-112 0 -176 -78.5t-64 -211.5q0 -125 70 -210.5t174 -85.5q81 0 137.5 41t69.5 119h166q-28 -155 -131 -239t-242 -84q-194 0 -317 128.5t-123 325.5q0 208 121 333.5t315 125.5z" />
    <glyph glyph-name="ordfeminine" unicode="&#xaa;" horiz-adv-x="705" 
d="M360 1462q161 0 234.5 -48t73.5 -129v-354q0 -37 5.5 -78t18.5 -67h-207q-5 18 -8.5 32.5t-5.5 30.5q-41 -41 -96.5 -61t-124.5 -20q-112 0 -171 55t-59 150q0 94 63.5 143t240.5 64q91 7 120 22t29 47q0 41 -24.5 60.5t-96.5 19.5q-45 0 -72 -24.5t-30 -65.5h-209
q16 110 94 166.5t225 56.5zM229 977q0 -35 25.5 -55.5t68.5 -20.5q72 0 110 35.5t38 124.5v35q-24 -19 -63 -25q-114 -18 -146.5 -38.5t-32.5 -55.5z" />
    <glyph glyph-name="guillemotleft" unicode="&#xab;" horiz-adv-x="909" 
d="M408 948v-246l-185 -145l185 -147v-246l-322 256v276zM823 948v-246l-184 -145l184 -147v-246l-321 256v276z" />
    <glyph glyph-name="logicalnot" unicode="&#xac;" horiz-adv-x="1229" 
d="M1114 831v-628h-219v409h-813v219h1032z" />
    <glyph glyph-name="uni00AD" unicode="&#xad;" horiz-adv-x="834" 
d="M725 684v-250h-616v250h616z" />
    <glyph glyph-name="registered" unicode="&#xae;" horiz-adv-x="1638" 
d="M819 1497q331 0 559 -217.5t228 -546.5q0 -331 -230 -549.5t-557 -218.5q-325 0 -555.5 217t-230.5 551q0 333 230.5 548.5t555.5 215.5zM242 733q0 -257 166 -430.5t411 -173.5q243 0 410.5 174.5t167.5 429.5q0 252 -165 426t-415 174q-242 0 -408.5 -172.5
t-166.5 -427.5zM848 1163q162 0 244 -61t82 -193q0 -100 -55 -159t-170 -70l229 -375h-179l-208 367h-107v-367h-170v858h334zM845 805q91 0 125 29.5t34 89.5q0 51 -45 78.5t-125 27.5h-150v-225h161z" />
    <glyph glyph-name="macron" unicode="&#xaf;" horiz-adv-x="530" 
d="M627 1421v-153h-723v153h723z" />
    <glyph glyph-name="degree" unicode="&#xb0;" horiz-adv-x="819" 
d="M410 1462q125 0 214 -88t89 -215q0 -126 -88.5 -214.5t-214.5 -88.5q-130 0 -217 91t-87 212q0 123 88 213t216 90zM240 1159q0 -70 51 -125t119 -55q66 0 118 54.5t52 125.5q0 73 -51.5 126.5t-119.5 53.5q-67 0 -118 -54t-51 -126z" />
    <glyph glyph-name="plusminus" unicode="&#xb1;" horiz-adv-x="1229" 
d="M725 1036v-268h408v-219h-408v-268h-219v268h-408v219h408v268h219zM1133 219v-219h-1035v219h1035z" />
    <glyph glyph-name="twosuperior" unicode="&#xb2;" horiz-adv-x="799" 
d="M420 1698q145 0 228 -69.5t83 -190.5q0 -82 -42 -141.5t-124 -111.5t-167 -103q-85 -52 -95 -105h422v-164h-657v6q0 138 44.5 222.5t151.5 150.5l158 98q53 33 77.5 66t24.5 81q0 45 -28.5 74t-77.5 29q-64 0 -95.5 -38t-35.5 -118h-205q0 146 91.5 230t246.5 84z" />
    <glyph glyph-name="threesuperior" unicode="&#xb3;" horiz-adv-x="799" 
d="M406 1698q136 0 217.5 -63.5t81.5 -168.5q0 -62 -35.5 -109.5t-99.5 -70.5q79 -15 124 -70.5t45 -146.5q0 -119 -98 -196.5t-250 -77.5q-155 0 -245.5 75t-90.5 209h197q8 -59 43 -91t102 -32t108.5 33.5t41.5 88.5q0 62 -36.5 92.5t-133.5 29.5h-45v141h55q58 0 93.5 27
t35.5 74q0 48 -32.5 74t-86.5 26q-64 0 -95.5 -33.5t-31.5 -101.5h-194q7 141 95.5 216t234.5 75z" />
    <glyph glyph-name="acute" unicode="&#xb4;" horiz-adv-x="530" 
d="M629 1497l-316 -291h-202l196 291h322z" />
    <glyph glyph-name="uni00B5" unicode="&#xb5;" horiz-adv-x="1214" 
d="M401 1059v-607q0 -120 42 -185.5t145 -65.5q120 0 172.5 72.5t52.5 220.5v565h291v-1059h-277v147h-6q-64 -95 -129 -135.5t-137 -40.5q-41 0 -79.5 11.5t-74.5 37.5v-393h-290v1432h290z" />
    <glyph glyph-name="paragraph" unicode="&#xb6;" horiz-adv-x="1270" 
d="M1096 1462v-1802h-209v1638h-225v-1638h-209v1071q-218 2 -333.5 98.5t-115.5 260.5q0 190 126 281t361 91h605z" />
    <glyph glyph-name="periodcentered" unicode="&#xb7;" horiz-adv-x="569" 
d="M287 762q68 0 120 -52t52 -122q0 -65 -51.5 -118.5t-118.5 -53.5q-70 0 -123 49.5t-53 122.5q0 71 51.5 122.5t122.5 51.5z" />
    <glyph glyph-name="cedilla" unicode="&#xb8;" horiz-adv-x="530" 
d="M236 0h100l-80 -106l4 -5q20 9 44 12t39 3q78 0 126.5 -41.5t48.5 -116.5q0 -89 -67 -139.5t-191 -50.5q-75 0 -134 13.5t-101 31.5l43 98q37 -16 80 -26.5t81 -10.5q45 0 69 19.5t24 50.5t-24.5 49t-61.5 18q-19 0 -37 -3t-41 -13l-43 49z" />
    <glyph glyph-name="onesuperior" unicode="&#xb9;" horiz-adv-x="799" 
d="M551 1679v-866h-209v549h-225v147h20q127 0 178.5 43.5t63.5 126.5h172z" />
    <glyph glyph-name="ordmasculine" unicode="&#xba;" horiz-adv-x="752" 
d="M375 1462q163 0 257.5 -95t94.5 -253q0 -159 -95.5 -252.5t-256.5 -93.5t-255.5 93t-94.5 253q0 161 94.5 254.5t255.5 93.5zM244 1114q0 -82 35 -137t96 -55q62 0 97.5 56.5t35.5 135.5q0 80 -35 137.5t-99 57.5q-59 0 -94.5 -55t-35.5 -140z" />
    <glyph glyph-name="guillemotright" unicode="&#xbb;" horiz-adv-x="909" 
d="M408 696v-276l-322 -256v246l184 147l-184 145v246zM502 948l321 -252v-276l-321 -256v246l184 147l-184 145v246z" />
    <glyph glyph-name="onequarter" unicode="&#xbc;" horiz-adv-x="1708" 
d="M1329 1479l-844 -1524h-178l848 1524h174zM506 1440v-867h-209v549h-225v148h27q88 0 129 18t68.5 53t37.5 99h172zM1501 866v-540h117v-156h-117v-170h-196v170h-385v172l395 524h186zM1305 641l-232 -315h232v315z" />
    <glyph glyph-name="onehalf" unicode="&#xbd;" horiz-adv-x="1708" 
d="M1288 1479l-844 -1524h-178l848 1524h174zM506 1440v-867h-209v549h-225v148h27q88 0 129 18t68.5 53t37.5 99h172zM1315 885q145 0 228 -69.5t83 -190.5q0 -86 -46 -147t-149 -125l-130 -80q-50 -30 -74 -56.5t-29 -52.5h422v-164h-657v6q0 144 47.5 227.5t162.5 154.5
l145 90q52 32 76.5 64.5t24.5 81.5q0 43 -28.5 73t-77.5 30q-63 0 -95 -38t-36 -118h-205q0 144 92 229t246 85z" />
    <glyph glyph-name="threequarters" unicode="&#xbe;" horiz-adv-x="1708" 
d="M1474 1479l-844 -1524h-178l847 1524h175zM426 1458q136 0 217.5 -63t81.5 -168q0 -64 -36 -111t-99 -69q84 -17 127 -72t43 -146q0 -120 -98.5 -197t-249.5 -77q-158 0 -247 76t-89 209h196q9 -63 45.5 -93t100.5 -30q68 0 108.5 32.5t40.5 88.5q0 63 -36.5 93.5
t-132.5 29.5h-46v141h55q64 0 97 28.5t33 71.5q0 45 -31.5 73t-87.5 28q-62 0 -94.5 -33t-32.5 -103h-195q7 139 94.5 215t235.5 76zM1563 866v-540h116v-156h-116v-170h-197v170h-385v172l395 524h187zM1135 326h231v315z" />
    <glyph glyph-name="questiondown" unicode="&#xbf;" horiz-adv-x="1139" 
d="M743 1087v-315h-321v315h321zM715 657v-92q-10 -105 -52 -182t-134 -146q-93 -70 -117.5 -114t-24.5 -95q0 -98 46 -144t128 -46q96 0 150.5 70t56.5 196h301q-9 -233 -145.5 -369t-349.5 -136q-240 0 -374 117.5t-134 278.5q0 116 41 198.5t142 154.5
q128 91 158.5 140.5t30.5 110.5v58h277z" />
    <glyph glyph-name="Agrave" unicode="&#xc0;" horiz-adv-x="1403" 
d="M870 1462l547 -1461h-334l-110 325h-547l-115 -326h-325l555 1462h329zM700 1102l-190 -537h379l-184 537h-5zM644 1886l197 -291h-203l-315 291h321z" />
    <glyph glyph-name="Aacute" unicode="&#xc1;" horiz-adv-x="1403" 
d="M870 1462l547 -1461h-334l-110 325h-547l-115 -326h-325l555 1462h329zM700 1102l-190 -537h379l-184 537h-5zM1082 1886l-316 -291h-202l196 291h322z" />
    <glyph glyph-name="Acircumflex" unicode="&#xc2;" horiz-adv-x="1403" 
d="M870 1462l547 -1461h-334l-110 325h-547l-115 -326h-325l555 1462h329zM700 1102l-190 -537h379l-184 537h-5zM839 1886l226 -291h-236l-126 165h-2l-130 -165h-225l227 291h266z" />
    <glyph glyph-name="Atilde" unicode="&#xc3;" horiz-adv-x="1403" 
d="M870 1462l547 -1461h-334l-110 325h-547l-115 -326h-325l555 1462h329zM700 1102l-190 -537h379l-184 537h-5zM567 1866q63 0 156 -36q92 -36 137 -36q35 0 56.5 16t31.5 56h131q-24 -121 -81 -177.5t-148 -56.5q-71 0 -162 35t-139 35q-33 0 -56 -20t-37 -66h-129
q17 115 84 182.5t156 67.5z" />
    <glyph glyph-name="Adieresis" unicode="&#xc4;" horiz-adv-x="1403" 
d="M870 1462l547 -1461h-334l-110 325h-547l-115 -326h-325l555 1462h329zM700 1102l-190 -537h379l-184 537h-5zM631 1853v-239h-277v239h277zM1052 1853v-239h-276v239h276z" />
    <glyph glyph-name="Aring" unicode="&#xc5;" horiz-adv-x="1403" 
d="M870 1462l547 -1461h-334l-110 325h-547l-115 -326h-325l555 1462h329zM700 1102l-190 -537h379l-184 537h-5zM704 1993q102 0 171 -68.5t69 -165.5q0 -96 -69 -164.5t-171 -68.5q-100 0 -169.5 66t-69.5 167q0 98 70.5 166t168.5 68zM579 1759q0 -57 36 -93t89 -36
q58 0 91.5 36.5t33.5 92.5q0 57 -35 93t-91 36q-53 0 -88.5 -35.5t-35.5 -93.5z" />
    <glyph glyph-name="AE" unicode="&#xc6;" horiz-adv-x="2009" 
d="M1917 1462v-270h-680v-313h639v-250h-639v-359h696v-270h-1007v326h-459l-148 -326h-342l699 1462h1241zM856 1192l-283 -627h353v627h-70z" />
    <glyph glyph-name="Ccedilla" unicode="&#xc7;" 
d="M797 1497q249 0 424.5 -140.5t205.5 -385.5h-311q-21 115 -114 185.5t-206 70.5q-188 0 -292.5 -137.5t-104.5 -364.5q0 -217 103.5 -353t294.5 -136q139 0 225 85.5t106 241.5h312q-27 -276 -198.5 -435t-442.5 -163l-54 -71l5 -5q20 9 43.5 12t38.5 3q80 0 128 -42.5
t48 -115.5q0 -90 -68 -140t-189 -50q-60 0 -114.5 9.5t-122.5 35.5l43 98q36 -15 79 -26t83 -11q43 0 67.5 18.5t24.5 51.5q0 31 -24 49t-62 18q-20 0 -38.5 -4t-39.5 -12l-43 49l97 139q-292 36 -457.5 245.5t-165.5 508.5q0 338 197 555t522 217z" />
    <glyph glyph-name="Egrave" unicode="&#xc8;" horiz-adv-x="1327" 
d="M1235 1462v-270h-772v-313h708v-250h-708v-359h788v-270h-1110v1462h1094zM601 1886l197 -291h-203l-315 291h321z" />
    <glyph glyph-name="Eacute" unicode="&#xc9;" horiz-adv-x="1327" 
d="M1235 1462v-270h-772v-313h708v-250h-708v-359h788v-270h-1110v1462h1094zM1077 1886l-316 -291h-202l196 291h322z" />
    <glyph glyph-name="Ecircumflex" unicode="&#xca;" horiz-adv-x="1327" 
d="M1235 1462v-270h-772v-313h708v-250h-708v-359h788v-270h-1110v1462h1094zM815 1886l226 -291h-236l-126 165h-2l-130 -165h-225l227 291h266z" />
    <glyph glyph-name="Edieresis" unicode="&#xcb;" horiz-adv-x="1327" 
d="M1235 1462v-270h-772v-313h708v-250h-708v-359h788v-270h-1110v1462h1094zM607 1853v-239h-277v239h277zM1028 1853v-239h-276v239h276z" />
    <glyph glyph-name="Igrave" unicode="&#xcc;" horiz-adv-x="604" 
d="M463 1462v-1462h-322v1462h322zM247 1886l197 -291h-203l-315 291h321z" />
    <glyph glyph-name="Iacute" unicode="&#xcd;" horiz-adv-x="604" 
d="M463 1462v-1462h-322v1462h322zM672 1886l-316 -291h-202l196 291h322z" />
    <glyph glyph-name="Icircumflex" unicode="&#xce;" horiz-adv-x="604" 
d="M463 1462v-1462h-322v1462h322zM436 1886l226 -291h-236l-126 165h-2l-130 -165h-225l227 291h266z" />
    <glyph glyph-name="Idieresis" unicode="&#xcf;" horiz-adv-x="604" 
d="M463 1462v-1462h-322v1462h322zM228 1853v-239h-277v239h277zM649 1853v-239h-276v239h276z" />
    <glyph glyph-name="Eth" unicode="&#xd0;" 
d="M784 1462q290 0 471 -190.5t181 -532.5t-175 -540.5t-485 -198.5h-635v655h-149v201h149v606h643zM791 856v-203h-328v-383h297q154 0 254 110.5t100 329.5q0 253 -106 367.5t-307 114.5h-238v-336h328z" />
    <glyph glyph-name="Ntilde" unicode="&#xd1;" 
d="M461 1462l610 -981h4v981h301v-1462h-321l-609 979h-4v-979h-301v1462h320zM612 1866q63 0 156 -36q92 -36 137 -36q35 0 56.5 16t31.5 56h131q-24 -121 -81 -177.5t-148 -56.5q-71 0 -162 35t-139 35q-33 0 -56 -20t-37 -66h-129q17 115 84 182.5t156 67.5z" />
    <glyph glyph-name="Ograve" unicode="&#xd2;" horiz-adv-x="1593" 
d="M797 1497q326 0 522.5 -218.5t196.5 -553.5q0 -327 -197.5 -543.5t-521.5 -216.5q-211 0 -375.5 97t-254 272.5t-89.5 390.5q0 338 197.5 555t521.5 217zM399 725q0 -216 103.5 -352.5t294.5 -136.5q189 0 293 134.5t104 354.5q0 231 -105.5 366.5t-293.5 135.5
q-187 0 -291.5 -137t-104.5 -365zM718 1886l197 -291h-203l-315 291h321z" />
    <glyph glyph-name="Oacute" unicode="&#xd3;" horiz-adv-x="1593" 
d="M797 1497q326 0 522.5 -218.5t196.5 -553.5q0 -327 -197.5 -543.5t-521.5 -216.5q-211 0 -375.5 97t-254 272.5t-89.5 390.5q0 338 197.5 555t521.5 217zM399 725q0 -216 103.5 -352.5t294.5 -136.5q189 0 293 134.5t104 354.5q0 231 -105.5 366.5t-293.5 135.5
q-187 0 -291.5 -137t-104.5 -365zM1196 1886l-316 -291h-202l196 291h322z" />
    <glyph glyph-name="Ocircumflex" unicode="&#xd4;" horiz-adv-x="1593" 
d="M797 1497q326 0 522.5 -218.5t196.5 -553.5q0 -327 -197.5 -543.5t-521.5 -216.5q-211 0 -375.5 97t-254 272.5t-89.5 390.5q0 338 197.5 555t521.5 217zM399 725q0 -216 103.5 -352.5t294.5 -136.5q189 0 293 134.5t104 354.5q0 231 -105.5 366.5t-293.5 135.5
q-187 0 -291.5 -137t-104.5 -365zM934 1886l226 -291h-236l-126 165h-2l-130 -165h-225l227 291h266z" />
    <glyph glyph-name="Otilde" unicode="&#xd5;" horiz-adv-x="1593" 
d="M797 1497q326 0 522.5 -218.5t196.5 -553.5q0 -327 -197.5 -543.5t-521.5 -216.5q-211 0 -375.5 97t-254 272.5t-89.5 390.5q0 338 197.5 555t521.5 217zM399 725q0 -216 103.5 -352.5t294.5 -136.5q189 0 293 134.5t104 354.5q0 231 -105.5 366.5t-293.5 135.5
q-187 0 -291.5 -137t-104.5 -365zM661 1866q63 0 156 -36q92 -36 137 -36q35 0 56.5 16t31.5 56h131q-24 -121 -81 -177.5t-148 -56.5q-71 0 -162 35t-139 35q-33 0 -56 -20t-37 -66h-129q17 115 84 182.5t156 67.5z" />
    <glyph glyph-name="Odieresis" unicode="&#xd6;" horiz-adv-x="1593" 
d="M797 1497q326 0 522.5 -218.5t196.5 -553.5q0 -327 -197.5 -543.5t-521.5 -216.5q-211 0 -375.5 97t-254 272.5t-89.5 390.5q0 338 197.5 555t521.5 217zM399 725q0 -216 103.5 -352.5t294.5 -136.5q189 0 293 134.5t104 354.5q0 231 -105.5 366.5t-293.5 135.5
q-187 0 -291.5 -137t-104.5 -365zM725 1853v-239h-277v239h277zM1146 1853v-239h-276v239h276z" />
    <glyph glyph-name="multiply" unicode="&#xd7;" horiz-adv-x="1229" 
d="M290 1001l325 -327l328 327l156 -155l-330 -328l330 -328l-156 -155l-328 330l-329 -330l-156 155l330 328l-326 328z" />
    <glyph glyph-name="Oslash" unicode="&#xd8;" horiz-adv-x="1593" 
d="M1524 1432l-171 -190h-2q83 -106 124 -239t41 -278q0 -327 -197.5 -543.5t-521.5 -216.5q-128 0 -244 38t-212 118l-171 -189l-100 88l176 195q-84 99 -126 230.5t-42 279.5q0 338 197.5 555t521.5 217q135 0 252.5 -39.5t207.5 -118.5l164 183zM399 725q0 -77 16 -151
t42 -125l605 672q-53 55 -120 80.5t-147 25.5q-187 0 -291.5 -137t-104.5 -365zM535 336q46 -48 111 -74t151 -26q189 0 293 134.5t104 354.5q0 82 -14 149.5t-41 129.5z" />
    <glyph glyph-name="Ugrave" unicode="&#xd9;" 
d="M457 1462v-918q0 -158 72.5 -233t228.5 -75q168 0 235.5 73.5t67.5 233.5v919h321v-919q0 -272 -158.5 -425t-465.5 -153q-309 0 -466 150.5t-157 427.5v919h322zM679 1886l197 -291h-203l-315 291h321z" />
    <glyph glyph-name="Uacute" unicode="&#xda;" 
d="M457 1462v-918q0 -158 72.5 -233t228.5 -75q168 0 235.5 73.5t67.5 233.5v919h321v-919q0 -272 -158.5 -425t-465.5 -153q-309 0 -466 150.5t-157 427.5v919h322zM1157 1886l-316 -291h-202l196 291h322z" />
    <glyph glyph-name="Ucircumflex" unicode="&#xdb;" 
d="M457 1462v-918q0 -158 72.5 -233t228.5 -75q168 0 235.5 73.5t67.5 233.5v919h321v-919q0 -272 -158.5 -425t-465.5 -153q-309 0 -466 150.5t-157 427.5v919h322zM895 1886l226 -291h-236l-126 165h-2l-130 -165h-225l227 291h266z" />
    <glyph glyph-name="Udieresis" unicode="&#xdc;" 
d="M457 1462v-918q0 -158 72.5 -233t228.5 -75q168 0 235.5 73.5t67.5 233.5v919h321v-919q0 -272 -158.5 -425t-465.5 -153q-309 0 -466 150.5t-157 427.5v919h322zM687 1853v-239h-277v239h277zM1108 1853v-239h-276v239h276z" />
    <glyph glyph-name="Yacute" unicode="&#xdd;" horiz-adv-x="1366" 
d="M344 1462l342 -577l340 577h358l-542 -901v-561h-322v569l-538 893h362zM1088 1886l-316 -291h-202l196 291h322z" />
    <glyph glyph-name="Thorn" unicode="&#xde;" horiz-adv-x="1366" 
d="M463 1462v-198h348q229 0 362.5 -129.5t133.5 -339.5q0 -211 -132.5 -340t-363.5 -129h-348v-326h-322v1462h322zM722 575q138 0 205.5 52.5t67.5 167.5t-68 167t-205 52h-259v-439h259z" />
    <glyph glyph-name="germandbls" unicode="&#xdf;" horiz-adv-x="1251" 
d="M595 1497q214 0 340 -107t126 -285q0 -98 -52.5 -178.5t-138.5 -107.5v-4q127 -26 197 -128t70 -238q0 -195 -128.5 -336.5t-318.5 -141.5q-40 0 -81 3t-85 10v237q20 -6 40.5 -8t42.5 -2q102 0 170.5 71.5t68.5 177.5q0 119 -65.5 184t-184.5 65q-52 -1 -72 -4v192
q12 -2 23.5 -3t22.5 -1q91 0 152.5 47.5t61.5 134.5q0 89 -48 135.5t-147 46.5q-89 0 -136 -54.5t-47 -139.5v-1063h-291v1016q0 237 119.5 359t360.5 122z" />
    <glyph glyph-name="agrave" unicode="&#xe0;" horiz-adv-x="1176" 
d="M597 1087q235 0 349.5 -77t114.5 -217v-568q0 -64 8.5 -128t28.5 -97h-295q-8 24 -13.5 49.5t-7.5 51.5q-61 -63 -151.5 -96.5t-204.5 -33.5q-164 0 -262 82.5t-98 235.5q0 148 92 226.5t335 105.5q169 16 223 41.5t54 88.5q0 71 -41.5 106.5t-145.5 35.5
q-90 0 -138 -38.5t-56 -121.5h-291q12 174 143.5 264t355.5 90zM356 301q0 -63 43 -99t136 -36q116 0 175.5 61t59.5 178v113q-26 -21 -68.5 -31.5t-153.5 -26.5q-99 -13 -145.5 -51.5t-46.5 -107.5zM531 1497l197 -291h-203l-315 291h321z" />
    <glyph glyph-name="aacute" unicode="&#xe1;" horiz-adv-x="1176" 
d="M597 1087q235 0 349.5 -77t114.5 -217v-568q0 -64 8.5 -128t28.5 -97h-295q-8 24 -13.5 49.5t-7.5 51.5q-61 -63 -151.5 -96.5t-204.5 -33.5q-164 0 -262 82.5t-98 235.5q0 148 92 226.5t335 105.5q169 16 223 41.5t54 88.5q0 71 -41.5 106.5t-145.5 35.5
q-90 0 -138 -38.5t-56 -121.5h-291q12 174 143.5 264t355.5 90zM356 301q0 -63 43 -99t136 -36q116 0 175.5 61t59.5 178v113q-26 -21 -68.5 -31.5t-153.5 -26.5q-99 -13 -145.5 -51.5t-46.5 -107.5zM994 1497l-316 -291h-202l196 291h322z" />
    <glyph glyph-name="acircumflex" unicode="&#xe2;" horiz-adv-x="1176" 
d="M597 1087q235 0 349.5 -77t114.5 -217v-568q0 -64 8.5 -128t28.5 -97h-295q-8 24 -13.5 49.5t-7.5 51.5q-61 -63 -151.5 -96.5t-204.5 -33.5q-164 0 -262 82.5t-98 235.5q0 148 92 226.5t335 105.5q169 16 223 41.5t54 88.5q0 71 -41.5 106.5t-145.5 35.5
q-90 0 -138 -38.5t-56 -121.5h-291q12 174 143.5 264t355.5 90zM356 301q0 -63 43 -99t136 -36q116 0 175.5 61t59.5 178v113q-26 -21 -68.5 -31.5t-153.5 -26.5q-99 -13 -145.5 -51.5t-46.5 -107.5zM739 1497l226 -291h-236l-126 165h-2l-130 -165h-225l227 291h266z" />
    <glyph glyph-name="atilde" unicode="&#xe3;" horiz-adv-x="1176" 
d="M597 1087q235 0 349.5 -77t114.5 -217v-568q0 -64 8.5 -128t28.5 -97h-295q-8 24 -13.5 49.5t-7.5 51.5q-61 -63 -151.5 -96.5t-204.5 -33.5q-164 0 -262 82.5t-98 235.5q0 148 92 226.5t335 105.5q169 16 223 41.5t54 88.5q0 71 -41.5 106.5t-145.5 35.5
q-90 0 -138 -38.5t-56 -121.5h-291q12 174 143.5 264t355.5 90zM356 301q0 -63 43 -99t136 -36q116 0 175.5 61t59.5 178v113q-26 -21 -68.5 -31.5t-153.5 -26.5q-99 -13 -145.5 -51.5t-46.5 -107.5zM467 1477q64 0 154 -36t139 -36q36 0 57.5 17t30.5 55h131
q-23 -120 -80 -177t-149 -57q-72 0 -163 35t-138 35q-33 0 -56 -20t-37 -66h-129q19 119 86 184.5t154 65.5z" />
    <glyph glyph-name="adieresis" unicode="&#xe4;" horiz-adv-x="1176" 
d="M597 1087q235 0 349.5 -77t114.5 -217v-568q0 -64 8.5 -128t28.5 -97h-295q-8 24 -13.5 49.5t-7.5 51.5q-61 -63 -151.5 -96.5t-204.5 -33.5q-164 0 -262 82.5t-98 235.5q0 148 92 226.5t335 105.5q169 16 223 41.5t54 88.5q0 71 -41.5 106.5t-145.5 35.5
q-90 0 -138 -38.5t-56 -121.5h-291q12 174 143.5 264t355.5 90zM356 301q0 -63 43 -99t136 -36q116 0 175.5 61t59.5 178v113q-26 -21 -68.5 -31.5t-153.5 -26.5q-99 -13 -145.5 -51.5t-46.5 -107.5zM531 1464v-239h-277v239h277zM952 1464v-239h-276v239h276z" />
    <glyph glyph-name="aring" unicode="&#xe5;" horiz-adv-x="1176" 
d="M597 1087q235 0 349.5 -77t114.5 -217v-568q0 -64 8.5 -128t28.5 -97h-295q-8 24 -13.5 49.5t-7.5 51.5q-61 -63 -151.5 -96.5t-204.5 -33.5q-164 0 -262 82.5t-98 235.5q0 148 92 226.5t335 105.5q169 16 223 41.5t54 88.5q0 71 -41.5 106.5t-145.5 35.5
q-90 0 -138 -38.5t-56 -121.5h-291q12 174 143.5 264t355.5 90zM356 301q0 -63 43 -99t136 -36q116 0 175.5 61t59.5 178v113q-26 -21 -68.5 -31.5t-153.5 -26.5q-99 -13 -145.5 -51.5t-46.5 -107.5zM606 1647q109 0 179.5 -70t70.5 -176q0 -107 -74 -176.5t-178 -69.5
q-109 0 -179.5 71t-70.5 175q0 103 72.5 174.5t179.5 71.5zM475 1401q0 -59 34.5 -98t94.5 -39q59 0 95 37.5t36 99.5q0 59 -34.5 98t-95.5 39q-59 0 -94.5 -39t-35.5 -98z" />
    <glyph glyph-name="ae" unicode="&#xe6;" horiz-adv-x="1858" 
d="M605 1087q119 0 211 -36.5t140 -106.5q64 74 146 108.5t208 34.5q230 0 358 -165t130 -463h-756v-11q0 -115 72.5 -198.5t180.5 -83.5q92 0 143 40.5t67 125.5h283q-47 -167 -179.5 -264t-308.5 -97q-124 0 -227.5 45t-167.5 136q-67 -88 -183 -134.5t-249 -46.5
q-180 0 -287.5 81t-107.5 235q0 106 44 171.5t123.5 102.5t249.5 59q170 21 231.5 46t61.5 92t-46.5 101t-141.5 34q-98 0 -148.5 -41.5t-54.5 -122.5h-291q8 175 140.5 266.5t358.5 91.5zM1507 643q-2 113 -65 181.5t-164 68.5q-96 0 -164.5 -68t-71.5 -182h465zM369 303
q0 -66 46 -101.5t133 -35.5q99 0 169.5 59t70.5 155v136q-5 -8 -45.5 -25t-135.5 -28q-139 -17 -188.5 -54t-49.5 -106z" />
    <glyph glyph-name="ccedilla" unicode="&#xe7;" horiz-adv-x="1176" 
d="M618 1087q205 0 345.5 -106t152.5 -295h-285q-13 91 -67 136.5t-148 45.5q-117 0 -182 -96t-65 -248t64 -243t177 -91q97 0 157 55.5t75 160.5h280q-26 -192 -149 -308.5t-334 -126.5l-57 -77l4 -5q20 8 43 11.5t40 3.5q80 0 127.5 -42t47.5 -116q0 -90 -67 -140
t-190 -50q-60 0 -114.5 9.5t-122.5 35.5l43 98q36 -15 79.5 -26t82.5 -11q43 0 67.5 18.5t24.5 51.5q0 30 -23.5 48.5t-62.5 18.5q-20 0 -38.5 -4t-39.5 -12l-43 48l102 144q-216 26 -340 174t-124 365q0 259 147 416t393 157z" />
    <glyph glyph-name="egrave" unicode="&#xe8;" horiz-adv-x="1176" 
d="M600 1087q235 0 375.5 -161.5t140.5 -412.5l-2 -54h-764q6 -137 71.5 -203t187.5 -66q79 0 146 40.5t85 97.5h256q-59 -180 -182 -268.5t-314 -88.5q-245 0 -393 155t-148 402q0 237 151.5 398t389.5 161zM350 643h473q-21 117 -75.5 171t-157.5 54q-106 0 -168 -60
t-72 -165zM529 1497l197 -291h-203l-315 291h321z" />
    <glyph glyph-name="eacute" unicode="&#xe9;" horiz-adv-x="1176" 
d="M600 1087q235 0 375.5 -161.5t140.5 -412.5l-2 -54h-764q6 -137 71.5 -203t187.5 -66q79 0 146 40.5t85 97.5h256q-59 -180 -182 -268.5t-314 -88.5q-245 0 -393 155t-148 402q0 237 151.5 398t389.5 161zM350 643h473q-21 117 -75.5 171t-157.5 54q-106 0 -168 -60
t-72 -165zM991 1497l-316 -291h-202l196 291h322z" />
    <glyph glyph-name="ecircumflex" unicode="&#xea;" horiz-adv-x="1176" 
d="M600 1087q235 0 375.5 -161.5t140.5 -412.5l-2 -54h-764q6 -137 71.5 -203t187.5 -66q79 0 146 40.5t85 97.5h256q-59 -180 -182 -268.5t-314 -88.5q-245 0 -393 155t-148 402q0 237 151.5 398t389.5 161zM350 643h473q-21 117 -75.5 171t-157.5 54q-106 0 -168 -60
t-72 -165zM737 1497l226 -291h-236l-126 165h-2l-130 -165h-225l227 291h266z" />
    <glyph glyph-name="edieresis" unicode="&#xeb;" horiz-adv-x="1176" 
d="M600 1087q235 0 375.5 -161.5t140.5 -412.5l-2 -54h-764q6 -137 71.5 -203t187.5 -66q79 0 146 40.5t85 97.5h256q-59 -180 -182 -268.5t-314 -88.5q-245 0 -393 155t-148 402q0 237 151.5 398t389.5 161zM350 643h473q-21 117 -75.5 171t-157.5 54q-106 0 -168 -60
t-72 -165zM529 1464v-239h-277v239h277zM950 1464v-239h-276v239h276z" />
    <glyph glyph-name="igrave" unicode="&#xec;" horiz-adv-x="528" 
d="M410 1059v-1059h-291v1059h291zM216 1497l197 -291h-203l-315 291h321z" />
    <glyph glyph-name="iacute" unicode="&#xed;" horiz-adv-x="528" 
d="M410 1059v-1059h-291v1059h291zM635 1497l-316 -291h-202l196 291h322z" />
    <glyph glyph-name="icircumflex" unicode="&#xee;" horiz-adv-x="528" 
d="M410 1059v-1059h-291v1059h291zM401 1497l226 -291h-236l-126 165h-2l-130 -165h-225l227 291h266z" />
    <glyph glyph-name="idieresis" unicode="&#xef;" horiz-adv-x="528" 
d="M410 1059v-1059h-291v1059h291zM193 1464v-239h-277v239h277zM614 1464v-239h-276v239h276z" />
    <glyph glyph-name="eth" unicode="&#xf0;" horiz-adv-x="1251" 
d="M506 1522q79 -28 131 -52t94 -51l217 103l94 -121l-182 -84q161 -146 237.5 -331t76.5 -429q0 -259 -153 -422.5t-396 -163.5t-395 152t-152 389q0 226 128.5 375t352.5 149q93 0 163.5 -27.5t123.5 -74.5h4q-39 98 -91.5 169t-107.5 111l-237 -113h-3l-94 120l190 88
q-33 17 -80 38t-73 31zM369 527q0 -166 68.5 -251.5t187.5 -85.5q124 0 191 88.5t67 248.5q0 138 -69 226.5t-193 88.5q-116 0 -184 -85t-68 -230z" />
    <glyph glyph-name="ntilde" unicode="&#xf1;" horiz-adv-x="1214" 
d="M718 1087q203 0 294.5 -102.5t91.5 -322.5v-662h-291v607q0 124 -42.5 187.5t-143.5 63.5q-121 0 -173.5 -72t-52.5 -221v-565h-290v1059h276v-148h6q53 85 138 130.5t187 45.5zM469 1477q64 0 154 -36t139 -36q36 0 57.5 17t30.5 55h131q-23 -120 -80 -177t-149 -57
q-72 0 -163 35t-138 35q-33 0 -56 -20t-37 -66h-129q19 119 86 184.5t154 65.5z" />
    <glyph glyph-name="ograve" unicode="&#xf2;" horiz-adv-x="1251" 
d="M625 1087q249 0 399 -153.5t150 -405.5q0 -253 -151.5 -405t-397.5 -152t-396.5 153t-150.5 404t148 405t399 154zM369 528q0 -167 68.5 -252.5t187.5 -85.5q124 0 191 88.5t67 249.5q0 158 -65 249t-195 91q-117 0 -185.5 -84.5t-68.5 -255.5zM556 1497l197 -291h-203
l-315 291h321z" />
    <glyph glyph-name="oacute" unicode="&#xf3;" horiz-adv-x="1251" 
d="M625 1087q249 0 399 -153.5t150 -405.5q0 -253 -151.5 -405t-397.5 -152t-396.5 153t-150.5 404t148 405t399 154zM369 528q0 -167 68.5 -252.5t187.5 -85.5q124 0 191 88.5t67 249.5q0 158 -65 249t-195 91q-117 0 -185.5 -84.5t-68.5 -255.5zM1018 1497l-316 -291h-202
l196 291h322z" />
    <glyph glyph-name="ocircumflex" unicode="&#xf4;" horiz-adv-x="1251" 
d="M625 1087q249 0 399 -153.5t150 -405.5q0 -253 -151.5 -405t-397.5 -152t-396.5 153t-150.5 404t148 405t399 154zM369 528q0 -167 68.5 -252.5t187.5 -85.5q124 0 191 88.5t67 249.5q0 158 -65 249t-195 91q-117 0 -185.5 -84.5t-68.5 -255.5zM764 1497l226 -291h-236
l-126 165h-2l-130 -165h-225l227 291h266z" />
    <glyph glyph-name="otilde" unicode="&#xf5;" horiz-adv-x="1251" 
d="M625 1087q249 0 399 -153.5t150 -405.5q0 -253 -151.5 -405t-397.5 -152t-396.5 153t-150.5 404t148 405t399 154zM369 528q0 -167 68.5 -252.5t187.5 -85.5q124 0 191 88.5t67 249.5q0 158 -65 249t-195 91q-117 0 -185.5 -84.5t-68.5 -255.5zM491 1477q64 0 154 -36
t139 -36q36 0 57.5 17t30.5 55h131q-23 -120 -80 -177t-149 -57q-72 0 -163 35t-138 35q-33 0 -56 -20t-37 -66h-129q19 119 86 184.5t154 65.5z" />
    <glyph glyph-name="odieresis" unicode="&#xf6;" horiz-adv-x="1251" 
d="M625 1087q249 0 399 -153.5t150 -405.5q0 -253 -151.5 -405t-397.5 -152t-396.5 153t-150.5 404t148 405t399 154zM369 528q0 -167 68.5 -252.5t187.5 -85.5q124 0 191 88.5t67 249.5q0 158 -65 249t-195 91q-117 0 -185.5 -84.5t-68.5 -255.5zM555 1464v-239h-277v239
h277zM976 1464v-239h-276v239h276z" />
    <glyph glyph-name="divide" unicode="&#xf7;" horiz-adv-x="1229" 
d="M616 1116q70 0 121 -51.5t51 -122.5q0 -68 -52 -120t-118 -52q-72 0 -124 51.5t-52 120.5q0 70 51.5 122t122.5 52zM1133 627v-219h-1035v219h1035zM616 264q70 0 121 -50t51 -122q0 -67 -52.5 -120.5t-117.5 -53.5q-70 0 -123 52.5t-53 121.5t52 120.5t122 51.5z" />
    <glyph glyph-name="oslash" unicode="&#xf8;" horiz-adv-x="1251" 
d="M1067 1114l76 -65l-111 -125q70 -74 106 -175t36 -221q0 -253 -151.5 -405t-397.5 -152q-100 0 -184.5 26t-153.5 77l-121 -137l-76 65l123 139q-68 74 -101.5 170.5t-33.5 216.5q0 252 148 405.5t399 153.5q96 0 180 -24.5t153 -73.5zM369 528q0 -52 7 -94.5t23 -81.5
l396 451q-31 32 -73.5 48.5t-98.5 16.5q-117 0 -185.5 -84.5t-68.5 -255.5zM451 260q31 -35 75 -52.5t99 -17.5q124 0 191 88.5t67 249.5q0 47 -7 92t-26 95z" />
    <glyph glyph-name="ugrave" unicode="&#xf9;" horiz-adv-x="1214" 
d="M401 1059v-607q0 -120 42 -185.5t145 -65.5q120 0 172.5 72.5t52.5 220.5v565h291v-1059h-277v147h-6q-55 -88 -142 -132t-183 -44q-197 0 -291 100.5t-94 324.5v663h290zM539 1497l197 -291h-203l-315 291h321z" />
    <glyph glyph-name="uacute" unicode="&#xfa;" horiz-adv-x="1214" 
d="M401 1059v-607q0 -120 42 -185.5t145 -65.5q120 0 172.5 72.5t52.5 220.5v565h291v-1059h-277v147h-6q-55 -88 -142 -132t-183 -44q-197 0 -291 100.5t-94 324.5v663h290zM1002 1497l-316 -291h-202l196 291h322z" />
    <glyph glyph-name="ucircumflex" unicode="&#xfb;" horiz-adv-x="1214" 
d="M401 1059v-607q0 -120 42 -185.5t145 -65.5q120 0 172.5 72.5t52.5 220.5v565h291v-1059h-277v147h-6q-55 -88 -142 -132t-183 -44q-197 0 -291 100.5t-94 324.5v663h290zM747 1497l226 -291h-236l-126 165h-2l-130 -165h-225l227 291h266z" />
    <glyph glyph-name="udieresis" unicode="&#xfc;" horiz-adv-x="1214" 
d="M401 1059v-607q0 -120 42 -185.5t145 -65.5q120 0 172.5 72.5t52.5 220.5v565h291v-1059h-277v147h-6q-55 -88 -142 -132t-183 -44q-197 0 -291 100.5t-94 324.5v663h290zM539 1464v-239h-277v239h277zM960 1464v-239h-276v239h276z" />
    <glyph glyph-name="yacute" unicode="&#xfd;" horiz-adv-x="1063" 
d="M299 1059l240 -725h4l231 725h301l-450 -1212q-40 -106 -123 -163t-215 -57q-63 0 -106.5 3t-89.5 8v239q53 -6 87 -8t65 -2q62 0 96 38t34 95q0 15 -2 29.5t-11 36.5l-373 993h312zM932 1497l-316 -291h-202l196 291h322z" />
    <glyph glyph-name="thorn" unicode="&#xfe;" horiz-adv-x="1251" 
d="M401 1462v-538h5q49 80 127.5 121.5t174.5 41.5q224 0 352 -157.5t128 -411.5q0 -235 -126 -391t-339 -156q-97 0 -181 41.5t-136 118.5h-5v-504h-290v1835h290zM391 526q0 -152 65 -244t189 -92q121 0 186.5 88t65.5 248q0 152 -65 247t-191 95q-120 0 -185 -90
t-65 -252z" />
    <glyph glyph-name="ydieresis" unicode="&#xff;" horiz-adv-x="1063" 
d="M299 1059l240 -725h4l231 725h301l-450 -1212q-40 -106 -123 -163t-215 -57q-63 0 -106.5 3t-89.5 8v239q53 -6 87 -8t65 -2q62 0 96 38t34 95q0 15 -2 29.5t-11 36.5l-373 993h312zM469 1464v-239h-277v239h277zM890 1464v-239h-276v239h276z" />
    <glyph glyph-name="Amacron" unicode="&#x100;" horiz-adv-x="1403" 
d="M870 1462l547 -1461h-334l-110 325h-547l-115 -326h-325l555 1462h329zM700 1102l-190 -537h379l-184 537h-5zM1065 1810v-153h-723v153h723z" />
    <glyph glyph-name="amacron" unicode="&#x101;" horiz-adv-x="1176" 
d="M597 1087q235 0 349.5 -77t114.5 -217v-568q0 -64 8.5 -128t28.5 -97h-295q-8 24 -13.5 49.5t-7.5 51.5q-61 -63 -151.5 -96.5t-204.5 -33.5q-164 0 -262 82.5t-98 235.5q0 148 92 226.5t335 105.5q169 16 223 41.5t54 88.5q0 71 -41.5 106.5t-145.5 35.5
q-90 0 -138 -38.5t-56 -121.5h-291q12 174 143.5 264t355.5 90zM356 301q0 -63 43 -99t136 -36q116 0 175.5 61t59.5 178v113q-26 -21 -68.5 -31.5t-153.5 -26.5q-99 -13 -145.5 -51.5t-46.5 -107.5zM965 1421v-153h-723v153h723z" />
    <glyph glyph-name="Abreve" unicode="&#x102;" horiz-adv-x="1403" 
d="M870 1462l547 -1461h-334l-110 325h-547l-115 -326h-325l555 1462h329zM700 1102l-190 -537h379l-184 537h-5zM495 1886q11 -67 69.5 -102t134.5 -35q94 0 150.5 33.5t73.5 103.5h129q-17 -141 -108.5 -216t-255.5 -75q-150 0 -232 75.5t-94 215.5h133z" />
    <glyph glyph-name="abreve" unicode="&#x103;" horiz-adv-x="1176" 
d="M597 1087q235 0 349.5 -77t114.5 -217v-568q0 -64 8.5 -128t28.5 -97h-295q-8 24 -13.5 49.5t-7.5 51.5q-61 -63 -151.5 -96.5t-204.5 -33.5q-164 0 -262 82.5t-98 235.5q0 148 92 226.5t335 105.5q169 16 223 41.5t54 88.5q0 71 -41.5 106.5t-145.5 35.5
q-90 0 -138 -38.5t-56 -121.5h-291q12 174 143.5 264t355.5 90zM356 301q0 -63 43 -99t136 -36q116 0 175.5 61t59.5 178v113q-26 -21 -68.5 -31.5t-153.5 -26.5q-99 -13 -145.5 -51.5t-46.5 -107.5zM395 1497q11 -65 67.5 -101t136.5 -36q93 0 149.5 33.5t74.5 103.5h129
q-17 -141 -109.5 -216t-254.5 -75q-147 0 -230.5 74.5t-95.5 216.5h133z" />
    <glyph glyph-name="Aogonek" unicode="&#x104;" horiz-adv-x="1403" 
d="M870 1462l547 -1461h-170q-77 -83 -113 -135.5t-36 -108.5q0 -36 22 -57.5t54 -21.5q28 0 56 16t56 50l92 -53q-44 -70 -105 -102.5t-149 -32.5q-100 0 -161.5 46t-61.5 124q0 68 51.5 133.5t163.5 140.5h-33l-110 326h-547l-115 -326h-325l555 1462h329zM700 1102
l-190 -537h379l-184 537h-5z" />
    <glyph glyph-name="aogonek" unicode="&#x105;" horiz-adv-x="1176" 
d="M597 1087q235 0 349.5 -77t114.5 -217v-568q0 -64 8.5 -128t28.5 -97h-135q-69 -67 -104.5 -124.5t-35.5 -116.5q0 -36 22.5 -58.5t55.5 -22.5q27 0 54.5 15t57.5 50l93 -52q-47 -71 -106.5 -103t-147.5 -32q-101 0 -162 47t-61 125q0 69 45 132t145 140
q-19 38 -26.5 59.5t-10.5 42.5q-61 -64 -151.5 -97.5t-204.5 -33.5q-164 0 -262 82.5t-98 235.5q0 148 92 226.5t339 104.5q165 17 219 42.5t54 88.5q0 71 -41.5 106.5t-145.5 35.5q-90 0 -138 -38.5t-56 -120.5h-291q12 173 143.5 263t355.5 90zM356 301q0 -63 43 -99
t136 -36q116 0 175.5 61t59.5 178v113q-26 -21 -68.5 -31.5t-153.5 -25.5q-99 -14 -145.5 -52.5t-46.5 -107.5z" />
    <glyph glyph-name="Cacute" unicode="&#x106;" 
d="M797 1497q249 0 424.5 -140.5t205.5 -385.5h-311q-21 115 -114 185.5t-206 70.5q-188 0 -292.5 -137.5t-104.5 -364.5q0 -217 103.5 -353t294.5 -136q139 0 225 85.5t106 241.5h312q-28 -279 -202.5 -438.5t-440.5 -159.5q-211 0 -375.5 96.5t-254 272.5t-89.5 391
q0 337 197 554.5t522 217.5zM1186 1886l-316 -291h-202l196 291h322z" />
    <glyph glyph-name="cacute" unicode="&#x107;" horiz-adv-x="1176" 
d="M618 1087q205 0 345.5 -106t152.5 -295h-285q-13 91 -67 136.5t-148 45.5q-117 0 -182 -96t-65 -248t64 -243t177 -91q97 0 157 55.5t75 160.5h280q-29 -210 -164 -322.5t-346 -112.5q-236 0 -385 151.5t-149 391.5q0 257 146.5 415t393.5 158zM1014 1497l-316 -291h-202
l196 291h322z" />
    <glyph glyph-name="Ccircumflex" unicode="&#x108;" 
d="M797 1497q249 0 424.5 -140.5t205.5 -385.5h-311q-21 115 -114 185.5t-206 70.5q-188 0 -292.5 -137.5t-104.5 -364.5q0 -217 103.5 -353t294.5 -136q139 0 225 85.5t106 241.5h312q-28 -279 -202.5 -438.5t-440.5 -159.5q-211 0 -375.5 96.5t-254 272.5t-89.5 391
q0 337 197 554.5t522 217.5zM923 1886l226 -291h-236l-126 165h-2l-130 -165h-225l227 291h266z" />
    <glyph glyph-name="ccircumflex" unicode="&#x109;" horiz-adv-x="1176" 
d="M618 1087q205 0 345.5 -106t152.5 -295h-285q-13 91 -67 136.5t-148 45.5q-117 0 -182 -96t-65 -248t64 -243t177 -91q97 0 157 55.5t75 160.5h280q-29 -210 -164 -322.5t-346 -112.5q-236 0 -385 151.5t-149 391.5q0 257 146.5 415t393.5 158zM759 1497l226 -291h-236
l-126 165h-2l-130 -165h-225l227 291h266z" />
    <glyph glyph-name="Cdotaccent" unicode="&#x10a;" 
d="M797 1497q249 0 424.5 -140.5t205.5 -385.5h-311q-21 115 -114 185.5t-206 70.5q-188 0 -292.5 -137.5t-104.5 -364.5q0 -217 103.5 -353t294.5 -136q139 0 225 85.5t106 241.5h312q-28 -279 -202.5 -438.5t-440.5 -159.5q-211 0 -375.5 96.5t-254 272.5t-89.5 391
q0 337 197 554.5t522 217.5zM923 1853v-239h-276v239h276z" />
    <glyph glyph-name="cdotaccent" unicode="&#x10b;" horiz-adv-x="1176" 
d="M618 1087q205 0 345.5 -106t152.5 -295h-285q-13 91 -67 136.5t-148 45.5q-117 0 -182 -96t-65 -248t64 -243t177 -91q97 0 157 55.5t75 160.5h280q-29 -210 -164 -322.5t-346 -112.5q-236 0 -385 151.5t-149 391.5q0 257 146.5 415t393.5 158zM761 1464v-239h-276v239
h276z" />
    <glyph glyph-name="Ccaron" unicode="&#x10c;" 
d="M797 1497q249 0 424.5 -140.5t205.5 -385.5h-311q-21 115 -114 185.5t-206 70.5q-188 0 -292.5 -137.5t-104.5 -364.5q0 -217 103.5 -353t294.5 -136q139 0 225 85.5t106 241.5h312q-28 -279 -202.5 -438.5t-440.5 -159.5q-211 0 -375.5 96.5t-254 272.5t-89.5 391
q0 337 197 554.5t522 217.5zM661 1886l126 -165h2l130 165h226l-228 -291h-266l-225 291h235z" />
    <glyph glyph-name="ccaron" unicode="&#x10d;" horiz-adv-x="1176" 
d="M618 1087q205 0 345.5 -106t152.5 -295h-285q-13 91 -67 136.5t-148 45.5q-117 0 -182 -96t-65 -248t64 -243t177 -91q97 0 157 55.5t75 160.5h280q-29 -210 -164 -322.5t-346 -112.5q-236 0 -385 151.5t-149 391.5q0 257 146.5 415t393.5 158zM501 1497l126 -165h2
l130 165h226l-228 -291h-266l-225 291h235z" />
    <glyph glyph-name="Dcaron" unicode="&#x10e;" 
d="M782 1462q292 0 473 -190.5t181 -532.5t-177 -540.5t-477 -198.5h-641v1462h641zM757 270q154 0 255.5 110.5t101.5 329.5q0 253 -106 367.5t-307 114.5h-238v-922h294zM557 1886l126 -165h2l130 165h226l-228 -291h-266l-225 291h235z" />
    <glyph glyph-name="dcaron" unicode="&#x10f;" horiz-adv-x="1251" 
d="M1143 1462v-1462h-277v135h-4q-47 -81 -129.5 -122.5t-191.5 -41.5q-217 0 -346 159.5t-129 408.5q0 236 127 392t342 156q99 0 181 -40t132 -117h4v532h291zM356 531q0 -148 69 -244.5t187 -96.5q121 0 185.5 89.5t64.5 252.5q0 155 -63 245.5t-188 90.5
q-121 0 -188 -90.5t-67 -246.5zM1606 1462l-166 -291h-201l64 291h303z" />
    <glyph glyph-name="Dcroat" unicode="&#x110;" 
d="M784 1462q290 0 471 -190.5t181 -532.5t-175 -540.5t-485 -198.5h-635v655h-149v201h149v606h643zM791 856v-203h-328v-383h297q154 0 254 110.5t100 329.5q0 253 -106 367.5t-307 114.5h-238v-336h328z" />
    <glyph glyph-name="dcroat" unicode="&#x111;" horiz-adv-x="1272" 
d="M1143 1462v-143h166v-156h-166v-1163h-277v135h-4q-47 -81 -129.5 -122.5t-191.5 -41.5q-217 0 -346 159.5t-129 408.5q0 236 127 392t342 156q99 0 181 -40t132 -117h4v233h-324v156h324v143h291zM356 531q0 -148 69 -244.5t187 -96.5q121 0 185.5 89.5t64.5 252.5
q0 155 -63 245.5t-188 90.5q-121 0 -188 -90.5t-67 -246.5z" />
    <glyph glyph-name="Emacron" unicode="&#x112;" horiz-adv-x="1327" 
d="M1235 1462v-270h-772v-313h708v-250h-708v-359h788v-270h-1110v1462h1094zM1041 1810v-153h-723v153h723z" />
    <glyph glyph-name="emacron" unicode="&#x113;" horiz-adv-x="1176" 
d="M600 1087q235 0 375.5 -161.5t140.5 -412.5l-2 -54h-764q6 -137 71.5 -203t187.5 -66q79 0 146 40.5t85 97.5h256q-59 -180 -182 -268.5t-314 -88.5q-245 0 -393 155t-148 402q0 237 151.5 398t389.5 161zM350 643h473q-21 117 -75.5 171t-157.5 54q-106 0 -168 -60
t-72 -165zM963 1421v-153h-723v153h723z" />
    <glyph glyph-name="Ebreve" unicode="&#x114;" horiz-adv-x="1327" 
d="M1235 1462v-270h-772v-313h708v-250h-708v-359h788v-270h-1110v1462h1094zM471 1886q11 -67 69.5 -102t134.5 -35q94 0 150.5 33.5t73.5 103.5h129q-17 -141 -108.5 -216t-255.5 -75q-150 0 -232 75.5t-94 215.5h133z" />
    <glyph glyph-name="ebreve" unicode="&#x115;" horiz-adv-x="1176" 
d="M600 1087q235 0 375.5 -161.5t140.5 -412.5l-2 -54h-764q6 -137 71.5 -203t187.5 -66q79 0 146 40.5t85 97.5h256q-59 -180 -182 -268.5t-314 -88.5q-245 0 -393 155t-148 402q0 237 151.5 398t389.5 161zM350 643h473q-21 117 -75.5 171t-157.5 54q-106 0 -168 -60
t-72 -165zM393 1497q11 -65 67.5 -101t136.5 -36q93 0 149.5 33.5t74.5 103.5h129q-17 -141 -109.5 -216t-254.5 -75q-147 0 -230.5 74.5t-95.5 216.5h133z" />
    <glyph glyph-name="Edotaccent" unicode="&#x116;" horiz-adv-x="1327" 
d="M1235 1462v-270h-772v-313h708v-250h-708v-359h788v-270h-1110v1462h1094zM815 1853v-239h-276v239h276z" />
    <glyph glyph-name="edotaccent" unicode="&#x117;" horiz-adv-x="1176" 
d="M600 1087q235 0 375.5 -161.5t140.5 -412.5l-2 -54h-764q6 -137 71.5 -203t187.5 -66q79 0 146 40.5t85 97.5h256q-59 -180 -182 -268.5t-314 -88.5q-245 0 -393 155t-148 402q0 237 151.5 398t389.5 161zM350 643h473q-21 117 -75.5 171t-157.5 54q-106 0 -168 -60
t-72 -165zM737 1464v-239h-276v239h276z" />
    <glyph glyph-name="Eogonek" unicode="&#x118;" horiz-adv-x="1327" 
d="M1235 1462v-270h-772v-313h708v-250h-708v-359h788v-270h-145q-79 -82 -114.5 -136.5t-35.5 -107.5q0 -33 22 -55.5t54 -22.5q29 0 58 16.5t55 49.5l92 -53q-47 -71 -106.5 -103t-147.5 -32q-103 0 -163 46.5t-60 123.5q0 66 49 130.5t166 143.5h-834v1462h1094z" />
    <glyph glyph-name="eogonek" unicode="&#x119;" horiz-adv-x="1176" 
d="M600 1087q235 0 375.5 -161.5t140.5 -412.5l-2 -54h-764q6 -137 71.5 -203t187.5 -66q79 0 146 40.5t85 97.5h256q-51 -154 -151 -243t-264 -110q-69 -71 -98.5 -118t-29.5 -100q0 -36 22 -57.5t54 -21.5q30 0 58 17t54 49l93 -53q-47 -73 -108 -104t-146 -31
q-104 0 -164 48t-60 122q0 63 43.5 123.5t135.5 125.5q-225 23 -350.5 175.5t-125.5 377.5q0 237 151.5 398t389.5 161zM350 643h473q-21 117 -75.5 171t-157.5 54q-106 0 -168 -60t-72 -165z" />
    <glyph glyph-name="Ecaron" unicode="&#x11a;" horiz-adv-x="1327" 
d="M1235 1462v-270h-772v-313h708v-250h-708v-359h788v-270h-1110v1462h1094zM557 1886l126 -165h2l130 165h226l-228 -291h-266l-225 291h235z" />
    <glyph glyph-name="ecaron" unicode="&#x11b;" horiz-adv-x="1176" 
d="M600 1087q235 0 375.5 -161.5t140.5 -412.5l-2 -54h-764q6 -137 71.5 -203t187.5 -66q79 0 146 40.5t85 97.5h256q-59 -180 -182 -268.5t-314 -88.5q-245 0 -393 155t-148 402q0 237 151.5 398t389.5 161zM350 643h473q-21 117 -75.5 171t-157.5 54q-106 0 -168 -60
t-72 -165zM479 1497l126 -165h2l130 165h226l-228 -291h-266l-225 291h235z" />
    <glyph glyph-name="Gcircumflex" unicode="&#x11c;" horiz-adv-x="1554" 
d="M796 1497q238 0 414 -137.5t203 -378.5h-307q-31 123 -112 184.5t-197 61.5q-191 0 -294.5 -138.5t-103.5 -363.5q0 -213 102.5 -351t295.5 -138q154 0 243.5 78.5t104.5 236.5h-324v240h615v-791h-205l-33 165q-79 -99 -179 -149.5t-223 -50.5q-209 0 -374 96.5
t-254.5 272.5t-89.5 391q0 338 197 555t521 217zM923 1886l226 -291h-236l-126 165h-2l-130 -165h-225l227 291h266z" />
    <glyph glyph-name="gcircumflex" unicode="&#x11d;" horiz-adv-x="1251" 
d="M532 1087q116 0 192 -43t124 -126h4v141h276v-1000q0 -213 -135.5 -336.5t-411.5 -123.5q-187 0 -321 89.5t-147 250.5h288q20 -77 76 -111.5t141 -34.5q112 0 173 67.5t61 187.5v147h-4q-43 -78 -126.5 -121t-191.5 -43q-214 0 -333 142t-119 390q0 224 124.5 374
t329.5 150zM369 567q0 -149 61.5 -233t173.5 -84q115 0 181.5 84t66.5 210q0 155 -63 239.5t-186 84.5q-108 0 -171 -82t-63 -219zM770 1497l226 -291h-236l-126 165h-2l-130 -165h-225l227 291h266z" />
    <glyph glyph-name="Gbreve" unicode="&#x11e;" horiz-adv-x="1554" 
d="M796 1497q238 0 414 -137.5t203 -378.5h-307q-31 123 -112 184.5t-197 61.5q-191 0 -294.5 -138.5t-103.5 -363.5q0 -213 102.5 -351t295.5 -138q154 0 243.5 78.5t104.5 236.5h-324v240h615v-791h-205l-33 165q-79 -99 -179 -149.5t-223 -50.5q-209 0 -374 96.5
t-254.5 272.5t-89.5 391q0 338 197 555t521 217zM579 1886q11 -67 69.5 -102t134.5 -35q94 0 150.5 33.5t73.5 103.5h129q-17 -141 -108.5 -216t-255.5 -75q-150 0 -232 75.5t-94 215.5h133z" />
    <glyph glyph-name="gbreve" unicode="&#x11f;" horiz-adv-x="1251" 
d="M532 1087q116 0 192 -43t124 -126h4v141h276v-1000q0 -213 -135.5 -336.5t-411.5 -123.5q-187 0 -321 89.5t-147 250.5h288q20 -77 76 -111.5t141 -34.5q112 0 173 67.5t61 187.5v147h-4q-43 -78 -126.5 -121t-191.5 -43q-214 0 -333 142t-119 390q0 224 124.5 374
t329.5 150zM369 567q0 -149 61.5 -233t173.5 -84q115 0 181.5 84t66.5 210q0 155 -63 239.5t-186 84.5q-108 0 -171 -82t-63 -219zM426 1497q11 -65 67.5 -101t136.5 -36q93 0 149.5 33.5t74.5 103.5h129q-17 -141 -109.5 -216t-254.5 -75q-147 0 -230.5 74.5t-95.5 216.5
h133z" />
    <glyph glyph-name="Gdotaccent" unicode="&#x120;" horiz-adv-x="1554" 
d="M796 1497q238 0 414 -137.5t203 -378.5h-307q-31 123 -112 184.5t-197 61.5q-191 0 -294.5 -138.5t-103.5 -363.5q0 -213 102.5 -351t295.5 -138q154 0 243.5 78.5t104.5 236.5h-324v240h615v-791h-205l-33 165q-79 -99 -179 -149.5t-223 -50.5q-209 0 -374 96.5
t-254.5 272.5t-89.5 391q0 338 197 555t521 217zM923 1853v-239h-276v239h276z" />
    <glyph glyph-name="gdotaccent" unicode="&#x121;" horiz-adv-x="1251" 
d="M532 1087q116 0 192 -43t124 -126h4v141h276v-1000q0 -213 -135.5 -336.5t-411.5 -123.5q-187 0 -321 89.5t-147 250.5h288q20 -77 76 -111.5t141 -34.5q112 0 173 67.5t61 187.5v147h-4q-43 -78 -126.5 -121t-191.5 -43q-214 0 -333 142t-119 390q0 224 124.5 374
t329.5 150zM369 567q0 -149 61.5 -233t173.5 -84q115 0 181.5 84t66.5 210q0 155 -63 239.5t-186 84.5q-108 0 -171 -82t-63 -219zM770 1464v-239h-276v239h276z" />
    <glyph glyph-name="Gcommaaccent" unicode="&#x122;" horiz-adv-x="1554" 
d="M796 1497q238 0 414 -137.5t203 -378.5h-307q-31 123 -112 184.5t-197 61.5q-191 0 -294.5 -138.5t-103.5 -363.5q0 -213 102.5 -351t295.5 -138q154 0 243.5 78.5t104.5 236.5h-324v240h615v-791h-205l-33 165q-79 -99 -179 -149.5t-223 -50.5q-209 0 -374 96.5
t-254.5 272.5t-89.5 391q0 338 197 555t521 217zM926 -102v-156q0 -91 -55.5 -138.5t-203.5 -47.5h-18v75q52 6 78.5 22t38.5 54h-137v191h297z" />
    <glyph glyph-name="gcommaaccent" unicode="&#x123;" horiz-adv-x="1251" 
d="M532 1087q116 0 192 -43t124 -126h4v141h276v-1000q0 -213 -135.5 -336.5t-411.5 -123.5q-187 0 -321 89.5t-147 250.5h288q20 -77 76 -111.5t141 -34.5q112 0 173 67.5t61 187.5v147h-4q-43 -78 -126.5 -121t-191.5 -43q-214 0 -333 142t-119 390q0 224 124.5 374
t329.5 150zM369 567q0 -149 61.5 -233t173.5 -84q115 0 181.5 84t66.5 210q0 155 -63 239.5t-186 84.5q-108 0 -171 -82t-63 -219zM758 1538q-53 -4 -80.5 -23t-36.5 -53h137v-190h-297v155q0 94 58 140.5t212 46.5h7v-76z" />
    <glyph glyph-name="Hcircumflex" unicode="&#x124;" 
d="M463 1462v-561h592v561h321v-1462h-321v631h-592v-631h-322v1462h322zM893 1886l226 -291h-236l-126 165h-2l-130 -165h-225l227 291h266z" />
    <glyph glyph-name="hcircumflex" unicode="&#x125;" horiz-adv-x="1214" 
d="M401 1462v-551h7q46 79 130.5 127.5t180.5 48.5q202 0 293.5 -103t91.5 -322v-662h-291v607q0 124 -42.5 187.5t-143.5 63.5q-121 0 -173.5 -72t-52.5 -221v-565h-290v1462h290zM718 1886l226 -291h-236l-126 165h-2l-130 -165h-225l227 291h266z" />
    <glyph glyph-name="Hbar" unicode="&#x126;" 
d="M463 1462v-223h592v223h321v-1462h-321v575h-592v-575h-322v1462h322zM1055 825v232h-592v-232h592z" />
    <glyph glyph-name="hbar" unicode="&#x127;" horiz-adv-x="1235" 
d="M422 1462v-143h323v-156h-323v-252h6q47 79 130.5 127.5t180.5 48.5q200 0 292.5 -101t92.5 -324v-662h-290v607q0 124 -42.5 187.5t-144.5 63.5q-120 0 -172.5 -72.5t-52.5 -220.5v-565h-291v1163h-166v156h166v143h291z" />
    <glyph glyph-name="Itilde" unicode="&#x128;" horiz-adv-x="604" 
d="M463 1462v-1462h-322v1462h322zM166 1866q63 0 156 -36q92 -36 137 -36q35 0 56.5 16t31.5 56h131q-24 -121 -81 -177.5t-148 -56.5q-71 0 -162 35t-139 35q-33 0 -56 -20t-37 -66h-129q17 115 84 182.5t156 67.5z" />
    <glyph glyph-name="itilde" unicode="&#x129;" horiz-adv-x="528" 
d="M410 1059v-1059h-291v1059h291zM129 1477q64 0 154 -36t139 -36q36 0 57.5 17t30.5 55h131q-23 -120 -80 -177t-149 -57q-72 0 -163 35t-138 35q-33 0 -56 -20t-37 -66h-129q19 119 86 184.5t154 65.5z" />
    <glyph glyph-name="Imacron" unicode="&#x12a;" horiz-adv-x="604" 
d="M463 1462v-1462h-322v1462h322zM662 1810v-153h-723v153h723z" />
    <glyph glyph-name="imacron" unicode="&#x12b;" horiz-adv-x="528" 
d="M410 1059v-1059h-291v1059h291zM627 1421v-153h-723v153h723z" />
    <glyph glyph-name="Ibreve" unicode="&#x12c;" horiz-adv-x="604" 
d="M463 1462v-1462h-322v1462h322zM92 1886q11 -67 69.5 -102t134.5 -35q94 0 150.5 33.5t73.5 103.5h129q-17 -141 -108.5 -216t-255.5 -75q-150 0 -232 75.5t-94 215.5h133z" />
    <glyph glyph-name="ibreve" unicode="&#x12d;" horiz-adv-x="528" 
d="M410 1059v-1059h-291v1059h291zM57 1497q11 -65 67.5 -101t136.5 -36q93 0 149.5 33.5t74.5 103.5h129q-17 -141 -109.5 -216t-254.5 -75q-147 0 -230.5 74.5t-95.5 216.5h133z" />
    <glyph glyph-name="Iogonek" unicode="&#x12e;" horiz-adv-x="604" 
d="M463 1462v-1462q-77 -64 -126.5 -123t-49.5 -124q0 -37 19 -56t46 -19q25 0 48 14t46 44l84 -53q-44 -63 -95 -95t-128 -32q-96 0 -152.5 46t-56.5 124q0 72 54.5 138.5t171.5 135.5h-183v1462h322z" />
    <glyph glyph-name="iogonek" unicode="&#x12f;" horiz-adv-x="528" 
d="M410 1462v-239h-291v239h291zM410 1059v-1059q-62 -55 -110 -118.5t-48 -129.5q0 -36 19.5 -55t45.5 -19q25 0 48 13.5t47 44.5l84 -53q-42 -61 -94 -94t-130 -33q-95 0 -152 46t-57 124q0 73 55 139t165 135h-164v1059h291z" />
    <glyph glyph-name="Idotaccent" unicode="&#x130;" horiz-adv-x="604" 
d="M463 1462v-1462h-322v1462h322zM440 1853v-239h-276v239h276z" />
    <glyph glyph-name="dotlessi" unicode="&#x131;" horiz-adv-x="528" 
d="M410 1059v-1059h-291v1059h291z" />
    <glyph glyph-name="IJ" unicode="&#x132;" horiz-adv-x="1731" 
d="M463 1462v-1462h-322v1462h322zM1589 1462v-1011q0 -235 -122.5 -360.5t-363.5 -125.5q-213 0 -347.5 120.5t-134.5 324.5v135h290v-55q0 -146 47 -200t140 -54q84 0 127 45.5t43 181.5v999h321z" />
    <glyph glyph-name="ij" unicode="&#x133;" horiz-adv-x="1073" 
d="M410 1462v-239h-291v239h291zM410 1059v-1059h-291v1059h291zM932 1462v-239h-291v239h291zM932 1059v-1121q0 -166 -83 -238.5t-288 -72.5q-25 0 -48 2t-48 6v240q13 -5 29.5 -6.5t33.5 -1.5q64 0 88.5 24t24.5 66v1102h291z" />
    <glyph glyph-name="Jcircumflex" unicode="&#x134;" horiz-adv-x="1139" 
d="M997 1462v-1011q0 -235 -122.5 -360.5t-363.5 -125.5q-213 0 -347.5 120.5t-134.5 324.5v135h290v-55q0 -146 47 -200t140 -54q84 0 127 45.5t43 181.5v999h321zM960 1886l226 -291h-236l-126 165h-2l-130 -165h-225l227 291h266z" />
    <glyph glyph-name="jcircumflex" unicode="&#x135;" horiz-adv-x="569" 
d="M428 1059v-1121q0 -166 -80 -238.5t-291 -72.5q-25 0 -48 2t-48 6v240q13 -5 29.5 -6.5t33.5 -1.5q64 0 88.5 24t24.5 66v1102h291zM411 1497l226 -291h-236l-126 165h-2l-130 -165h-225l227 291h266z" />
    <glyph glyph-name="Kcommaaccent" unicode="&#x136;" horiz-adv-x="1479" 
d="M463 1462v-606l571 606h402l-572 -577l627 -885h-404l-440 657l-184 -186v-471h-322v1462h322zM908 -102v-156q0 -91 -55.5 -138.5t-203.5 -47.5h-18v75q52 6 78.5 22t38.5 54h-137v191h297z" />
    <glyph glyph-name="kcommaaccent" unicode="&#x137;" horiz-adv-x="1176" 
d="M428 1462v-784l367 381h344l-400 -389l445 -670h-353l-290 473l-113 -108v-365h-291v1462h291zM779 -102v-156q0 -91 -55.5 -138.5t-203.5 -47.5h-18v75q52 6 78.5 22t38.5 54h-137v191h297z" />
    <glyph glyph-name="kgreenlandic" unicode="&#x138;" horiz-adv-x="1157" 
d="M401 1059v-418l367 418h344l-397 -414l444 -645h-352l-287 442l-119 -114v-328h-290v1059h290z" />
    <glyph glyph-name="Lacute" unicode="&#x139;" horiz-adv-x="1214" 
d="M463 1462v-1192h713v-270h-1035v1462h322zM713 1886l-316 -291h-202l196 291h322z" />
    <glyph glyph-name="lacute" unicode="&#x13a;" horiz-adv-x="528" 
d="M410 1462v-1462h-291v1462h291zM641 1886l-316 -291h-202l196 291h322z" />
    <glyph glyph-name="Lcommaaccent" unicode="&#x13b;" horiz-adv-x="1214" 
d="M463 1462v-1192h713v-270h-1035v1462h322zM801 -102v-156q0 -91 -55.5 -138.5t-203.5 -47.5h-18v75q52 6 78.5 22t38.5 54h-137v191h297z" />
    <glyph glyph-name="lcommaaccent" unicode="&#x13c;" horiz-adv-x="528" 
d="M410 1462v-1462h-291v1462h291zM414 -102v-156q0 -91 -55.5 -138.5t-203.5 -47.5h-18v75q52 6 78.5 22t38.5 54h-137v191h297z" />
    <glyph glyph-name="Lcaron" unicode="&#x13d;" horiz-adv-x="1214" 
d="M463 1462v-1192h713v-270h-1035v1462h322zM989 1462l-166 -291h-201l64 291h303z" />
    <glyph glyph-name="lcaron" unicode="&#x13e;" horiz-adv-x="528" 
d="M410 1462v-1462h-291v1462h291zM873 1462l-166 -291h-201l64 291h303z" />
    <glyph glyph-name="Ldot" unicode="&#x13f;" horiz-adv-x="1214" 
d="M463 1462v-1192h713v-270h-1035v1462h322zM972 923v-239h-276v239h276z" />
    <glyph glyph-name="ldot" unicode="&#x140;" horiz-adv-x="840" 
d="M410 1462v-1462h-291v1462h291zM811 923v-239h-276v239h276z" />
    <glyph glyph-name="Lslash" unicode="&#x141;" horiz-adv-x="1214" 
d="M463 1462v-569l432 303v-229l-432 -303v-394h713v-270h-1035v438l-164 -114v229l164 115v794h322z" />
    <glyph glyph-name="lslash" unicode="&#x142;" horiz-adv-x="528" 
d="M410 1462v-438l137 109v-209l-137 -109v-815h-291v586l-137 -109v209l137 109v667h291z" />
    <glyph glyph-name="Nacute" unicode="&#x143;" 
d="M461 1462l610 -981h4v981h301v-1462h-321l-609 979h-4v-979h-301v1462h320zM1147 1886l-316 -291h-202l196 291h322z" />
    <glyph glyph-name="nacute" unicode="&#x144;" horiz-adv-x="1214" 
d="M718 1087q203 0 294.5 -102.5t91.5 -322.5v-662h-291v607q0 124 -42.5 187.5t-143.5 63.5q-121 0 -173.5 -72t-52.5 -221v-565h-290v1059h276v-148h6q53 85 138 130.5t187 45.5zM996 1497l-316 -291h-202l196 291h322z" />
    <glyph glyph-name="Ncommaaccent" unicode="&#x145;" 
d="M461 1462l610 -981h4v981h301v-1462h-321l-609 979h-4v-979h-301v1462h320zM912 -102v-156q0 -91 -55.5 -138.5t-203.5 -47.5h-18v75q52 6 78.5 22t38.5 54h-137v191h297z" />
    <glyph glyph-name="ncommaaccent" unicode="&#x146;" horiz-adv-x="1214" 
d="M718 1087q203 0 294.5 -102.5t91.5 -322.5v-662h-291v607q0 124 -42.5 187.5t-143.5 63.5q-121 0 -173.5 -72t-52.5 -221v-565h-290v1059h276v-148h6q53 85 138 130.5t187 45.5zM750 -102v-156q0 -91 -55.5 -138.5t-203.5 -47.5h-18v75q52 6 78.5 22t38.5 54h-137v191
h297z" />
    <glyph glyph-name="Ncaron" unicode="&#x147;" 
d="M461 1462l610 -981h4v981h301v-1462h-321l-609 979h-4v-979h-301v1462h320zM626 1886l126 -165h2l130 165h226l-228 -291h-266l-225 291h235z" />
    <glyph glyph-name="ncaron" unicode="&#x148;" horiz-adv-x="1214" 
d="M718 1087q203 0 294.5 -102.5t91.5 -322.5v-662h-291v607q0 124 -42.5 187.5t-143.5 63.5q-121 0 -173.5 -72t-52.5 -221v-565h-290v1059h276v-148h6q53 85 138 130.5t187 45.5zM483 1497l126 -165h2l130 165h226l-228 -291h-266l-225 291h235z" />
    <glyph glyph-name="napostrophe" unicode="&#x149;" horiz-adv-x="1509" 
d="M1013 1087q203 0 294.5 -102.5t91.5 -322.5v-662h-291v607q0 124 -42.5 187.5t-143.5 63.5q-121 0 -173.5 -72t-52.5 -221v-565h-290v1059h276v-148h6q53 85 138 130.5t187 45.5zM334 1462v-322q0 -131 -82 -224.5t-209 -110.5v135q74 25 104.5 74.5t30.5 127.5v5h-135
v315h291z" />
    <glyph glyph-name="Eng" unicode="&#x14a;" 
d="M461 1462l610 -964h4v964h301v-1473q0 -186 -95 -274t-311 -88q-37 0 -76 3t-81 10v247q24 -4 61 -8t58 -4q69 0 108 34.5t39 90.5l-633 979h-4v-979h-301v1462h320z" />
    <glyph glyph-name="eng" unicode="&#x14b;" horiz-adv-x="1214" 
d="M718 1087q203 0 294.5 -103.5t91.5 -323.5v-688q0 -182 -92.5 -263.5t-299.5 -81.5q-27 0 -57 2t-63 6v240q27 -5 50 -6.5t41 -1.5q65 0 97.5 35.5t32.5 88.5v616q0 124 -42.5 187.5t-143.5 63.5q-121 0 -173.5 -72t-52.5 -221v-565h-290v1059h276v-148h6
q53 85 138 130.5t187 45.5z" />
    <glyph glyph-name="Omacron" unicode="&#x14c;" horiz-adv-x="1593" 
d="M797 1497q326 0 522.5 -218.5t196.5 -553.5q0 -327 -197.5 -543.5t-521.5 -216.5q-211 0 -375.5 97t-254 272.5t-89.5 390.5q0 338 197.5 555t521.5 217zM399 725q0 -216 103.5 -352.5t294.5 -136.5q189 0 293 134.5t104 354.5q0 231 -105.5 366.5t-293.5 135.5
q-187 0 -291.5 -137t-104.5 -365zM1159 1810v-153h-723v153h723z" />
    <glyph glyph-name="omacron" unicode="&#x14d;" horiz-adv-x="1251" 
d="M625 1087q249 0 399 -153.5t150 -405.5q0 -253 -151.5 -405t-397.5 -152t-396.5 153t-150.5 404t148 405t399 154zM369 528q0 -167 68.5 -252.5t187.5 -85.5q124 0 191 88.5t67 249.5q0 158 -65 249t-195 91q-117 0 -185.5 -84.5t-68.5 -255.5zM989 1421v-153h-723v153
h723z" />
    <glyph glyph-name="Obreve" unicode="&#x14e;" horiz-adv-x="1593" 
d="M797 1497q326 0 522.5 -218.5t196.5 -553.5q0 -327 -197.5 -543.5t-521.5 -216.5q-211 0 -375.5 97t-254 272.5t-89.5 390.5q0 338 197.5 555t521.5 217zM399 725q0 -216 103.5 -352.5t294.5 -136.5q189 0 293 134.5t104 354.5q0 231 -105.5 366.5t-293.5 135.5
q-187 0 -291.5 -137t-104.5 -365zM590 1886q11 -67 69.5 -102t134.5 -35q94 0 150.5 33.5t73.5 103.5h129q-17 -141 -108.5 -216t-255.5 -75q-150 0 -232 75.5t-94 215.5h133z" />
    <glyph glyph-name="obreve" unicode="&#x14f;" horiz-adv-x="1251" 
d="M625 1087q249 0 399 -153.5t150 -405.5q0 -253 -151.5 -405t-397.5 -152t-396.5 153t-150.5 404t148 405t399 154zM369 528q0 -167 68.5 -252.5t187.5 -85.5q124 0 191 88.5t67 249.5q0 158 -65 249t-195 91q-117 0 -185.5 -84.5t-68.5 -255.5zM420 1497
q11 -65 67.5 -101t136.5 -36q93 0 149.5 33.5t74.5 103.5h129q-17 -141 -109.5 -216t-254.5 -75q-147 0 -230.5 74.5t-95.5 216.5h133z" />
    <glyph glyph-name="Ohungarumlaut" unicode="&#x150;" horiz-adv-x="1593" 
d="M797 1497q326 0 522.5 -218.5t196.5 -553.5q0 -327 -197.5 -543.5t-521.5 -216.5q-211 0 -375.5 97t-254 272.5t-89.5 390.5q0 338 197.5 555t521.5 217zM399 725q0 -216 103.5 -352.5t294.5 -136.5q189 0 293 134.5t104 354.5q0 231 -105.5 366.5t-293.5 135.5
q-187 0 -291.5 -137t-104.5 -365zM966 1886l-305 -291h-203l187 291h321zM1390 1886l-305 -291h-203l187 291h321z" />
    <glyph glyph-name="ohungarumlaut" unicode="&#x151;" horiz-adv-x="1251" 
d="M625 1087q249 0 399 -153.5t150 -405.5q0 -253 -151.5 -405t-397.5 -152t-396.5 153t-150.5 404t148 405t399 154zM369 528q0 -167 68.5 -252.5t187.5 -85.5q124 0 191 88.5t67 249.5q0 158 -65 249t-195 91q-117 0 -185.5 -84.5t-68.5 -255.5zM796 1497l-305 -291h-203
l187 291h321zM1220 1497l-305 -291h-203l187 291h321z" />
    <glyph glyph-name="OE" unicode="&#x152;" horiz-adv-x="2238" 
d="M764 1497q111 0 201.5 -35t144.5 -104h4v104h1024v-270h-725v-313h664v-250h-664v-359h739v-270h-1038v111h-4q-64 -71 -158.5 -108.5t-194.5 -37.5q-304 0 -491.5 217.5t-187.5 540.5q0 325 191 549.5t495 224.5zM399 727q0 -212 100.5 -351.5t280.5 -139.5
q152 0 237 94.5t85 231.5v362q0 124 -86 213.5t-232 89.5q-180 0 -282.5 -137t-102.5 -363z" />
    <glyph glyph-name="oe" unicode="&#x153;" horiz-adv-x="1896" 
d="M598 1087q126 0 219 -43.5t146 -123.5q51 76 151.5 121.5t203.5 45.5q245 0 381 -163.5t138 -464.5h-756q0 -127 68 -198t184 -71q78 0 131 36.5t82 109.5h283q-51 -173 -183.5 -269t-312.5 -96q-124 0 -224.5 45.5t-158.5 135.5q-54 -90 -155.5 -135.5t-219.5 -45.5
q-226 0 -361.5 158t-135.5 406q0 238 144.5 395t375.5 157zM369 524q0 -149 59 -241.5t166 -92.5q114 0 173.5 87t59.5 255q0 166 -57.5 251t-170.5 85q-110 0 -170 -91t-60 -253zM1546 643q-4 106 -63 165.5t-173 59.5q-97 0 -158.5 -57.5t-70.5 -167.5h465z" />
    <glyph glyph-name="Racute" unicode="&#x154;" horiz-adv-x="1479" 
d="M938 1462q177 0 298.5 -114t121.5 -290q0 -138 -57.5 -228.5t-174.5 -137.5v-4q103 -27 158 -123t60 -294q4 -198 57 -271h-322q-28 71 -38 230q-15 216 -72.5 278.5t-176.5 62.5h-329v-571h-322v1462h797zM822 801q101 0 157.5 49t56.5 160q0 104 -54.5 153t-159.5 49
h-359v-411h359zM1090 1886l-316 -291h-202l196 291h322z" />
    <glyph glyph-name="racute" unicode="&#x155;" horiz-adv-x="797" 
d="M728 1087q19 0 35 -2.5t30 -7.5v-270q-25 5 -48.5 7.5t-55.5 2.5q-147 0 -217.5 -90t-70.5 -241v-486h-290v1059h276v-197h4q46 104 137.5 164.5t199.5 60.5zM840 1497l-316 -291h-202l196 291h322z" />
    <glyph glyph-name="Rcommaaccent" unicode="&#x156;" horiz-adv-x="1479" 
d="M938 1462q177 0 298.5 -114t121.5 -290q0 -138 -57.5 -228.5t-174.5 -137.5v-4q103 -27 158 -123t60 -294q4 -198 57 -271h-322q-28 71 -38 230q-15 216 -72.5 278.5t-176.5 62.5h-329v-571h-322v1462h797zM822 801q101 0 157.5 49t56.5 160q0 104 -54.5 153t-159.5 49
h-359v-411h359zM902 -102v-156q0 -91 -55.5 -138.5t-203.5 -47.5h-18v75q52 6 78.5 22t38.5 54h-137v191h297z" />
    <glyph glyph-name="rcommaaccent" unicode="&#x157;" horiz-adv-x="797" 
d="M728 1087q19 0 35 -2.5t30 -7.5v-270q-25 5 -48.5 7.5t-55.5 2.5q-147 0 -217.5 -90t-70.5 -241v-486h-290v1059h276v-197h4q46 104 137.5 164.5t199.5 60.5zM408 -102v-156q0 -91 -55.5 -138.5t-203.5 -47.5h-18v75q52 6 78.5 22t38.5 54h-137v191h297z" />
    <glyph glyph-name="Rcaron" unicode="&#x158;" horiz-adv-x="1479" 
d="M938 1462q177 0 298.5 -114t121.5 -290q0 -138 -57.5 -228.5t-174.5 -137.5v-4q103 -27 158 -123t60 -294q4 -198 57 -271h-322q-28 71 -38 230q-15 216 -72.5 278.5t-176.5 62.5h-329v-571h-322v1462h797zM822 801q101 0 157.5 49t56.5 160q0 104 -54.5 153t-159.5 49
h-359v-411h359zM569 1886l126 -165h2l130 165h226l-228 -291h-266l-225 291h235z" />
    <glyph glyph-name="rcaron" unicode="&#x159;" horiz-adv-x="797" 
d="M728 1087q19 0 35 -2.5t30 -7.5v-270q-25 5 -48.5 7.5t-55.5 2.5q-147 0 -217.5 -90t-70.5 -241v-486h-290v1059h276v-197h4q46 104 137.5 164.5t199.5 60.5zM327 1497l126 -165h2l130 165h226l-228 -291h-266l-225 291h235z" />
    <glyph glyph-name="Sacute" unicode="&#x15a;" horiz-adv-x="1329" 
d="M645 1497q265 0 425 -123t160 -348h-311q-7 110 -75 165.5t-212 55.5q-98 0 -160.5 -43t-62.5 -123q0 -55 26 -82t106.5 -56.5t351.5 -93.5q182 -44 284 -149t102 -266q0 -212 -159 -340.5t-448 -128.5q-276 0 -450 136t-174 376v8h311q2 -136 91 -203t233 -67
q130 0 207.5 47.5t77.5 134.5q0 71 -59.5 116.5t-190.5 78.5q-168 38 -305 80.5t-226.5 138t-89.5 244.5q0 197 157.5 319.5t390.5 122.5zM1069 1886l-316 -291h-202l196 291h322z" />
    <glyph glyph-name="sacute" unicode="&#x15b;" horiz-adv-x="1100" 
d="M545 1087q216 0 333.5 -85.5t133.5 -251.5h-277q-6 75 -56 109t-143 34q-84 0 -122.5 -25t-38.5 -73q0 -49 50.5 -80.5t203.5 -60.5q244 -47 327.5 -121t83.5 -194q0 -180 -131.5 -274t-351.5 -94t-354.5 93.5t-143.5 279.5h277q0 -84 63.5 -131t159.5 -47q85 0 138 36.5
t53 98.5q0 55 -69 90t-253 73q-182 36 -263 103t-81 181q0 168 119 253.5t342 85.5zM944 1497l-316 -291h-202l196 291h322z" />
    <glyph glyph-name="Scircumflex" unicode="&#x15c;" horiz-adv-x="1329" 
d="M645 1497q265 0 425 -123t160 -348h-311q-7 110 -75 165.5t-212 55.5q-98 0 -160.5 -43t-62.5 -123q0 -55 26 -82t106.5 -56.5t351.5 -93.5q182 -44 284 -149t102 -266q0 -212 -159 -340.5t-448 -128.5q-276 0 -450 136t-174 376v8h311q2 -136 91 -203t233 -67
q130 0 207.5 47.5t77.5 134.5q0 71 -59.5 116.5t-190.5 78.5q-168 38 -305 80.5t-226.5 138t-89.5 244.5q0 197 157.5 319.5t390.5 122.5zM807 1886l226 -291h-236l-126 165h-2l-130 -165h-225l227 291h266z" />
    <glyph glyph-name="scircumflex" unicode="&#x15d;" horiz-adv-x="1100" 
d="M545 1087q216 0 333.5 -85.5t133.5 -251.5h-277q-6 75 -56 109t-143 34q-84 0 -122.5 -25t-38.5 -73q0 -49 50.5 -80.5t203.5 -60.5q244 -47 327.5 -121t83.5 -194q0 -180 -131.5 -274t-351.5 -94t-354.5 93.5t-143.5 279.5h277q0 -84 63.5 -131t159.5 -47q85 0 138 36.5
t53 98.5q0 55 -69 90t-253 73q-182 36 -263 103t-81 181q0 168 119 253.5t342 85.5zM690 1497l226 -291h-236l-126 165h-2l-130 -165h-225l227 291h266z" />
    <glyph glyph-name="Scedilla" unicode="&#x15e;" horiz-adv-x="1329" 
d="M645 1497q266 0 425.5 -123t159.5 -348h-311q-7 110 -75 165.5t-212 55.5q-98 0 -160.5 -43t-62.5 -123q0 -55 26 -82t106.5 -56.5t351.5 -93.5q182 -44 284 -149t102 -266q0 -207 -155 -335t-443 -134l-53 -71l4 -5q19 8 43 11.5t40 3.5q77 0 126 -41.5t49 -116.5
q0 -90 -67 -140t-191 -50q-66 0 -120.5 10.5t-115.5 34.5l43 98q36 -15 79.5 -26t82.5 -11q43 0 67.5 18.5t24.5 51.5q0 30 -23.5 48.5t-62.5 18.5q-19 0 -37.5 -3.5t-40.5 -12.5l-43 48l98 138q-252 27 -394 159t-142 351v6h311q2 -136 91 -203t233 -67q130 0 207.5 47.5
t77.5 134.5q0 71 -59.5 116.5t-190.5 78.5q-156 38 -299 80.5t-232.5 138t-89.5 244.5q0 197 157.5 319.5t390.5 122.5z" />
    <glyph glyph-name="scedilla" unicode="&#x15f;" horiz-adv-x="1100" 
d="M545 1087q216 0 333.5 -85.5t133.5 -251.5h-277q-6 75 -56 109t-143 34q-84 0 -122.5 -25t-38.5 -73q0 -49 50.5 -80.5t203.5 -60.5q244 -48 327.5 -121.5t83.5 -192.5q0 -172 -122 -268t-347 -101l-57 -77l4 -5q20 9 44 12t39 3q78 0 126.5 -41.5t48.5 -116.5
q0 -89 -67.5 -139.5t-189.5 -50.5q-58 0 -113 9.5t-123 35.5l43 98q37 -16 80 -26.5t81 -10.5q45 0 69 19.5t24 50.5t-24.5 49t-61.5 18q-19 0 -37 -3t-41 -13l-43 49l101 143q-200 21 -304 114.5t-111 254.5h277q0 -84 63.5 -131t159.5 -47q85 0 138 36.5t53 98.5
q0 55 -69 90t-253 73q-182 36 -263 103t-81 181q0 168 119 253.5t342 85.5z" />
    <glyph glyph-name="Scaron" unicode="&#x160;" horiz-adv-x="1329" 
d="M645 1497q265 0 425 -123t160 -348h-311q-7 110 -75 165.5t-212 55.5q-98 0 -160.5 -43t-62.5 -123q0 -55 26 -82t106.5 -56.5t351.5 -93.5q182 -44 284 -149t102 -266q0 -212 -159 -340.5t-448 -128.5q-276 0 -450 136t-174 376v8h311q2 -136 91 -203t233 -67
q130 0 207.5 47.5t77.5 134.5q0 71 -59.5 116.5t-190.5 78.5q-168 38 -305 80.5t-226.5 138t-89.5 244.5q0 197 157.5 319.5t390.5 122.5zM549 1886l126 -165h2l130 165h226l-228 -291h-266l-225 291h235z" />
    <glyph glyph-name="scaron" unicode="&#x161;" horiz-adv-x="1100" 
d="M545 1087q216 0 333.5 -85.5t133.5 -251.5h-277q-6 75 -56 109t-143 34q-84 0 -122.5 -25t-38.5 -73q0 -49 50.5 -80.5t203.5 -60.5q244 -47 327.5 -121t83.5 -194q0 -180 -131.5 -274t-351.5 -94t-354.5 93.5t-143.5 279.5h277q0 -84 63.5 -131t159.5 -47q85 0 138 36.5
t53 98.5q0 55 -69 90t-253 73q-182 36 -263 103t-81 181q0 168 119 253.5t342 85.5zM432 1497l126 -165h2l130 165h226l-228 -291h-266l-225 291h235z" />
    <glyph glyph-name="Tcedilla" unicode="&#x162;" horiz-adv-x="1251" 
d="M1225 1462v-270h-439v-1192h-128l-80 -106l4 -5q20 9 44 12t39 3q78 0 126.5 -41.5t48.5 -116.5q0 -89 -67 -139.5t-191 -50.5q-75 0 -134 13.5t-101 31.5l43 98q37 -16 80 -26.5t81 -10.5q45 0 69 19.5t24 50.5t-24.5 49t-61.5 18q-19 0 -37 -3t-41 -13l-43 49l121 168
h-93v1192h-438v270h1198z" />
    <glyph glyph-name="tcedilla" unicode="&#x163;" horiz-adv-x="721" 
d="M378 0h3q-78 16 -120 52q-73 65 -73 181v631h-176v195h176v317h291v-317h213v-195h-213v-531q0 -65 24.5 -90.5t98.5 -25.5q25 0 48 2t42 6v-227q-36 -6 -80.5 -8t-87.5 -2q-29 0 -54 2l-72 -96l4 -5q20 9 44 12t39 3q78 0 126.5 -41.5t48.5 -116.5q0 -89 -67 -139.5
t-191 -50.5q-75 0 -134 13.5t-101 31.5l43 98q37 -16 80 -26.5t81 -10.5q45 0 69 19.5t24 50.5t-24.5 49t-61.5 18q-19 0 -37 -3t-41 -13l-43 49z" />
    <glyph glyph-name="Tcaron" unicode="&#x164;" horiz-adv-x="1251" 
d="M1225 1462v-270h-439v-1192h-321v1192h-438v270h1198zM501 1886l126 -165h2l130 165h226l-228 -291h-266l-225 291h235z" />
    <glyph glyph-name="tcaron" unicode="&#x165;" horiz-adv-x="721" 
d="M479 1376v-317h213v-195h-213v-531q0 -65 24.5 -90.5t98.5 -25.5q25 0 48 2t42 6v-227q-36 -6 -80.5 -8t-87.5 -2q-189 0 -262.5 64.5t-73.5 180.5v631h-176v195h176v317h291zM955 1462l-166 -291h-201l64 291h303z" />
    <glyph glyph-name="Tbar" unicode="&#x166;" horiz-adv-x="1251" 
d="M1225 1462v-270h-439v-246h301v-196h-301v-750h-321v750h-301v196h301v246h-438v270h1198z" />
    <glyph glyph-name="tbar" unicode="&#x167;" horiz-adv-x="721" 
d="M479 1376v-317h213v-195h-213v-166h189v-155h-189v-210q0 -65 24.5 -90.5t98.5 -25.5q25 0 48 2t42 6v-227q-36 -6 -80.5 -8t-87.5 -2q-189 0 -262.5 64.5t-73.5 180.5v310h-159v155h159v166h-176v195h176v317h291z" />
    <glyph glyph-name="Utilde" unicode="&#x168;" 
d="M457 1462v-918q0 -158 72.5 -233t228.5 -75q168 0 235.5 73.5t67.5 233.5v919h321v-919q0 -272 -158.5 -425t-465.5 -153q-309 0 -466 150.5t-157 427.5v919h322zM623 1866q63 0 156 -36q92 -36 137 -36q35 0 56.5 16t31.5 56h131q-24 -121 -81 -177.5t-148 -56.5
q-71 0 -162 35t-139 35q-33 0 -56 -20t-37 -66h-129q17 115 84 182.5t156 67.5z" />
    <glyph glyph-name="utilde" unicode="&#x169;" horiz-adv-x="1214" 
d="M401 1059v-607q0 -120 42 -185.5t145 -65.5q120 0 172.5 72.5t52.5 220.5v565h291v-1059h-277v147h-6q-55 -88 -142 -132t-183 -44q-197 0 -291 100.5t-94 324.5v663h290zM475 1477q64 0 154 -36t139 -36q36 0 57.5 17t30.5 55h131q-23 -120 -80 -177t-149 -57
q-72 0 -163 35t-138 35q-33 0 -56 -20t-37 -66h-129q19 119 86 184.5t154 65.5z" />
    <glyph glyph-name="Umacron" unicode="&#x16a;" 
d="M457 1462v-918q0 -158 72.5 -233t228.5 -75q168 0 235.5 73.5t67.5 233.5v919h321v-919q0 -272 -158.5 -425t-465.5 -153q-309 0 -466 150.5t-157 427.5v919h322zM1121 1810v-153h-723v153h723z" />
    <glyph glyph-name="umacron" unicode="&#x16b;" horiz-adv-x="1214" 
d="M401 1059v-607q0 -120 42 -185.5t145 -65.5q120 0 172.5 72.5t52.5 220.5v565h291v-1059h-277v147h-6q-55 -88 -142 -132t-183 -44q-197 0 -291 100.5t-94 324.5v663h290zM975 1421v-153h-723v153h723z" />
    <glyph glyph-name="Ubreve" unicode="&#x16c;" 
d="M457 1462v-918q0 -158 72.5 -233t228.5 -75q168 0 235.5 73.5t67.5 233.5v919h321v-919q0 -272 -158.5 -425t-465.5 -153q-309 0 -466 150.5t-157 427.5v919h322zM551 1886q11 -67 69.5 -102t134.5 -35q94 0 150.5 33.5t73.5 103.5h129q-17 -141 -108.5 -216t-255.5 -75
q-150 0 -232 75.5t-94 215.5h133z" />
    <glyph glyph-name="ubreve" unicode="&#x16d;" horiz-adv-x="1214" 
d="M401 1059v-607q0 -120 42 -185.5t145 -65.5q120 0 172.5 72.5t52.5 220.5v565h291v-1059h-277v147h-6q-55 -88 -142 -132t-183 -44q-197 0 -291 100.5t-94 324.5v663h290zM403 1497q11 -65 67.5 -101t136.5 -36q93 0 149.5 33.5t74.5 103.5h129q-17 -141 -109.5 -216
t-254.5 -75q-147 0 -230.5 74.5t-95.5 216.5h133z" />
    <glyph glyph-name="Uring" unicode="&#x16e;" 
d="M457 1462v-918q0 -158 72.5 -233t228.5 -75q168 0 235.5 73.5t67.5 233.5v919h321v-919q0 -272 -158.5 -425t-465.5 -153q-309 0 -466 150.5t-157 427.5v919h322zM758 1993q102 0 171 -68.5t69 -165.5q0 -96 -69 -164.5t-171 -68.5q-100 0 -169.5 66t-69.5 167
q0 98 70.5 166t168.5 68zM633 1759q0 -57 36 -93t89 -36q58 0 91.5 36.5t33.5 92.5q0 57 -35 93t-91 36q-53 0 -88.5 -35.5t-35.5 -93.5z" />
    <glyph glyph-name="uring" unicode="&#x16f;" horiz-adv-x="1214" 
d="M401 1059v-607q0 -120 42 -185.5t145 -65.5q120 0 172.5 72.5t52.5 220.5v565h291v-1059h-277v147h-6q-55 -88 -142 -132t-183 -44q-197 0 -291 100.5t-94 324.5v663h290zM612 1647q109 0 179.5 -70t70.5 -176q0 -107 -74 -176.5t-178 -69.5q-109 0 -179.5 71t-70.5 175
q0 103 72.5 174.5t179.5 71.5zM481 1401q0 -59 34.5 -98t94.5 -39q59 0 95 37.5t36 99.5q0 59 -34.5 98t-95.5 39q-59 0 -94.5 -39t-35.5 -98z" />
    <glyph glyph-name="Uhungarumlaut" unicode="&#x170;" 
d="M457 1462v-918q0 -158 72.5 -233t228.5 -75q168 0 235.5 73.5t67.5 233.5v919h321v-919q0 -272 -158.5 -425t-465.5 -153q-309 0 -466 150.5t-157 427.5v919h322zM928 1886l-305 -291h-203l187 291h321zM1352 1886l-305 -291h-203l187 291h321z" />
    <glyph glyph-name="uhungarumlaut" unicode="&#x171;" horiz-adv-x="1214" 
d="M401 1059v-607q0 -120 42 -185.5t145 -65.5q120 0 172.5 72.5t52.5 220.5v565h291v-1059h-277v147h-6q-55 -88 -142 -132t-183 -44q-197 0 -291 100.5t-94 324.5v663h290zM780 1497l-305 -291h-203l187 291h321zM1204 1497l-305 -291h-203l187 291h321z" />
    <glyph glyph-name="Uogonek" unicode="&#x172;" 
d="M457 1462v-918q0 -158 72.5 -233t228.5 -75q168 0 235.5 73.5t67.5 233.5v919h321v-933q0 -239 -135 -389.5t-411 -172.5q-46 -47 -82.5 -100.5t-36.5 -109.5q0 -36 22.5 -57.5t53.5 -21.5q28 0 56 16t56 50l92 -53q-44 -70 -105 -102.5t-149 -32.5q-101 0 -162 46.5
t-61 123.5q0 60 39 118t129 123q-280 19 -416.5 167.5t-136.5 405.5v922h322z" />
    <glyph glyph-name="uogonek" unicode="&#x173;" horiz-adv-x="1214" 
d="M401 1059v-607q0 -120 42 -185.5t145 -65.5q120 0 172.5 72.5t52.5 220.5v565h291v-1059h-133q-53 -52 -94 -112t-41 -129q0 -38 22.5 -59.5t54.5 -21.5q29 0 58 16.5t55 49.5l92 -53q-44 -70 -105 -102.5t-149 -32.5q-101 0 -162 47.5t-61 124.5q0 69 44 131.5
t142 140.5v147h-6q-55 -88 -142 -132t-183 -44q-197 0 -291 100.5t-94 324.5v663h290z" />
    <glyph glyph-name="Wcircumflex" unicode="&#x174;" horiz-adv-x="1933" 
d="M328 1462l231 -995h4l254 995h301l250 -1007h4l240 1007h315l-393 -1462h-320l-247 995h-4l-244 -995h-326l-387 1462h322zM1106 1886l226 -291h-236l-126 165h-2l-130 -165h-225l227 291h266z" />
    <glyph glyph-name="wcircumflex" unicode="&#x175;" horiz-adv-x="1667" 
d="M319 1059l195 -719h4l176 719h283l180 -717h4l195 717h299l-335 -1059h-298l-188 711h-5l-180 -711h-301l-336 1059h307zM972 1497l226 -291h-236l-126 165h-2l-130 -165h-225l227 291h266z" />
    <glyph glyph-name="Ycircumflex" unicode="&#x176;" horiz-adv-x="1366" 
d="M344 1462l342 -577l340 577h358l-542 -901v-561h-322v569l-538 893h362zM825 1886l226 -291h-236l-126 165h-2l-130 -165h-225l227 291h266z" />
    <glyph glyph-name="ycircumflex" unicode="&#x177;" horiz-adv-x="1063" 
d="M299 1059l240 -725h4l231 725h301l-450 -1212q-40 -106 -123 -163t-215 -57q-63 0 -106.5 3t-89.5 8v239q53 -6 87 -8t65 -2q62 0 96 38t34 95q0 15 -2 29.5t-11 36.5l-373 993h312zM680 1497l226 -291h-236l-126 165h-2l-130 -165h-225l227 291h266z" />
    <glyph glyph-name="Ydieresis" unicode="&#x178;" horiz-adv-x="1366" 
d="M344 1462l342 -577l340 577h358l-542 -901v-561h-322v569l-538 893h362zM617 1853v-239h-277v239h277zM1038 1853v-239h-276v239h276z" />
    <glyph glyph-name="Zacute" unicode="&#x179;" horiz-adv-x="1327" 
d="M1260 1462v-254l-785 -938h805v-270h-1233v254l784 938h-722v270h1151zM1080 1886l-316 -291h-202l196 291h322z" />
    <glyph glyph-name="zacute" unicode="&#x17a;" horiz-adv-x="1063" 
d="M979 1059v-219l-551 -621h590v-219h-973v219l551 621h-510v219h893zM924 1497l-316 -291h-202l196 291h322z" />
    <glyph glyph-name="Zdotaccent" unicode="&#x17b;" horiz-adv-x="1327" 
d="M1260 1462v-254l-785 -938h805v-270h-1233v254l784 938h-722v270h1151zM817 1853v-239h-276v239h276z" />
    <glyph glyph-name="zdotaccent" unicode="&#x17c;" horiz-adv-x="1063" 
d="M979 1059v-219l-551 -621h590v-219h-973v219l551 621h-510v219h893zM669 1464v-239h-276v239h276z" />
    <glyph glyph-name="Zcaron" unicode="&#x17d;" horiz-adv-x="1327" 
d="M1260 1462v-254l-785 -938h805v-270h-1233v254l784 938h-722v270h1151zM559 1886l126 -165h2l130 165h226l-228 -291h-266l-225 291h235z" />
    <glyph glyph-name="zcaron" unicode="&#x17e;" horiz-adv-x="1063" 
d="M979 1059v-219l-551 -621h590v-219h-973v219l551 621h-510v219h893zM411 1497l126 -165h2l130 165h226l-228 -291h-266l-225 291h235z" />
    <glyph glyph-name="longs" unicode="&#x17f;" horiz-adv-x="529" 
d="M119 1059v73q0 165 95.5 247.5t258.5 82.5q30 0 80 -3t74 -5v-217q-29 3 -55.5 4.5t-49.5 1.5q-61 0 -86.5 -26.5t-25.5 -108.5v-49v-1059h-291v1059z" />
    <glyph glyph-name="florin" unicode="&#x192;" horiz-adv-x="1139" 
d="M892 1497q43 0 81 -3.5t74 -10.5l-37 -219q-18 8 -33.5 11t-41.5 3q-79 0 -114.5 -27t-49.5 -105l-50 -261h200l-32 -188l-2 -7h-204l-112 -618q-34 -187 -80 -265.5t-126.5 -116.5t-243.5 -38q-37 0 -67.5 1.5t-63.5 4.5l38 219q26 -4 44 -5t50 -1q53 0 85 26t50 113
l129 680h-187l37 195h186l48 255q39 205 133 281t289 76z" />
    <glyph glyph-name="Aringacute" unicode="&#x1fa;" horiz-adv-x="1403" 
d="M1038 1993l-256 -236h-202l157 236h301zM705 1714q92 0 151 -56t59 -145q0 -32 -8.5 -59.5t-23.5 -50.5l534 -1403h-334l-110 326h-547l-115 -326h-325l541 1399q-18 23 -26.5 51.5t-8.5 62.5q0 89 60.5 145t152.5 56zM600 1513q0 -47 29.5 -77.5t75.5 -30.5
q45 0 73.5 31t28.5 77t-29 77.5t-74 31.5t-74.5 -30.5t-29.5 -78.5zM700 1122l-190 -557h379l-184 557h-5z" />
    <glyph glyph-name="aringacute" unicode="&#x1fb;" horiz-adv-x="1176" 
d="M948 1886l-262 -244h-201l162 244h301zM604 1585q98 0 159.5 -61.5t61.5 -153.5q0 -95 -65 -155t-156 -60q-95 0 -158 60t-63 155q0 91 63 153t158 62zM489 1370q0 -52 32.5 -85.5t82.5 -33.5q51 0 83 33.5t32 85.5q0 54 -32.5 86.5t-83.5 32.5t-82.5 -35t-31.5 -84z
M597 1087q235 0 349.5 -77t114.5 -217v-568q0 -64 8.5 -128t28.5 -97h-295q-8 24 -13.5 49.5t-7.5 51.5q-61 -63 -151.5 -96.5t-204.5 -33.5q-164 0 -262 82.5t-98 235.5q0 148 92 226.5t339 104.5q165 17 219 42.5t54 88.5q0 71 -41.5 106.5t-145.5 35.5q-90 0 -138 -38.5
t-56 -120.5h-291q12 173 143.5 263t355.5 90zM356 301q0 -63 43 -99t136 -36q116 0 175.5 61t59.5 178v113q-26 -21 -68.5 -31.5t-153.5 -25.5q-99 -14 -145.5 -52.5t-46.5 -107.5z" />
    <glyph glyph-name="AEacute" unicode="&#x1fc;" horiz-adv-x="2009" 
d="M1917 1462v-270h-680v-313h639v-250h-639v-359h696v-270h-1007v326h-459l-148 -326h-342l699 1462h1241zM856 1192l-283 -627h353v627h-70zM1592 1886l-316 -291h-202l196 291h322z" />
    <glyph glyph-name="aeacute" unicode="&#x1fd;" horiz-adv-x="1858" 
d="M605 1087q119 0 211 -36.5t140 -106.5q64 74 146 108.5t208 34.5q230 0 358 -165t130 -463h-756v-11q0 -115 72.5 -198.5t180.5 -83.5q92 0 143 40.5t67 125.5h283q-47 -167 -179.5 -264t-308.5 -97q-124 0 -227.5 45t-167.5 136q-67 -88 -183 -134.5t-249 -46.5
q-180 0 -287.5 81t-107.5 235q0 106 44 171.5t123.5 102.5t249.5 59q170 21 231.5 46t61.5 92t-46.5 101t-141.5 34q-98 0 -148.5 -41.5t-54.5 -122.5h-291q8 175 140.5 266.5t358.5 91.5zM1507 643q-2 113 -65 181.5t-164 68.5q-96 0 -164.5 -68t-71.5 -182h465zM369 303
q0 -66 46 -101.5t133 -35.5q99 0 169.5 59t70.5 155v136q-5 -8 -45.5 -25t-135.5 -28q-139 -17 -188.5 -54t-49.5 -106zM1352 1497l-316 -291h-202l196 291h322z" />
    <glyph glyph-name="Oslashacute" unicode="&#x1fe;" horiz-adv-x="1593" 
d="M1524 1432l-171 -190h-2q83 -106 124 -239t41 -278q0 -327 -197.5 -543.5t-521.5 -216.5q-128 0 -244 38t-212 118l-171 -189l-100 88l176 195q-84 99 -126 230.5t-42 279.5q0 338 197.5 555t521.5 217q135 0 252.5 -39.5t207.5 -118.5l164 183zM399 725q0 -77 16 -151
t42 -125l605 672q-53 55 -120 80.5t-147 25.5q-187 0 -291.5 -137t-104.5 -365zM535 336q46 -48 111 -74t151 -26q189 0 293 134.5t104 354.5q0 82 -14 149.5t-41 129.5zM1198 1886l-316 -291h-202l196 291h322z" />
    <glyph glyph-name="oslashacute" unicode="&#x1ff;" horiz-adv-x="1251" 
d="M1067 1114l76 -65l-111 -125q70 -74 106 -175t36 -221q0 -253 -151.5 -405t-397.5 -152q-100 0 -184.5 26t-153.5 77l-121 -137l-76 65l123 139q-68 74 -101.5 170.5t-33.5 216.5q0 252 148 405.5t399 153.5q96 0 180 -24.5t153 -73.5zM369 528q0 -52 7 -94.5t23 -81.5
l396 451q-31 32 -73.5 48.5t-98.5 16.5q-117 0 -185.5 -84.5t-68.5 -255.5zM451 260q31 -35 75 -52.5t99 -17.5q124 0 191 88.5t67 249.5q0 47 -7 92t-26 95zM1018 1497l-316 -291h-202l196 291h322z" />
    <glyph glyph-name="Scommaaccent" unicode="&#x218;" horiz-adv-x="1329" 
d="M645 1497q265 0 425 -123t160 -348h-311q-7 110 -75 165.5t-212 55.5q-98 0 -160.5 -43t-62.5 -123q0 -55 26 -82t106.5 -56.5t351.5 -93.5q182 -44 284 -149t102 -266q0 -212 -159 -340.5t-448 -128.5q-276 0 -450 136t-174 376v8h311q2 -136 91 -203t233 -67
q130 0 207.5 47.5t77.5 134.5q0 71 -59.5 116.5t-190.5 78.5q-168 38 -305 80.5t-226.5 138t-89.5 244.5q0 197 157.5 319.5t390.5 122.5zM802 -102v-156q0 -91 -55.5 -138.5t-203.5 -47.5h-18v75q52 6 78.5 22t38.5 54h-137v191h297z" />
    <glyph glyph-name="scommaaccent" unicode="&#x219;" horiz-adv-x="1100" 
d="M545 1087q216 0 333.5 -85.5t133.5 -251.5h-277q-6 75 -56 109t-143 34q-84 0 -122.5 -25t-38.5 -73q0 -49 50.5 -80.5t203.5 -60.5q244 -47 327.5 -121t83.5 -194q0 -180 -131.5 -274t-351.5 -94t-354.5 93.5t-143.5 279.5h277q0 -84 63.5 -131t159.5 -47q85 0 138 36.5
t53 98.5q0 55 -69 90t-253 73q-182 36 -263 103t-81 181q0 168 119 253.5t342 85.5zM691 -102v-156q0 -91 -55.5 -138.5t-203.5 -47.5h-18v75q52 6 78.5 22t38.5 54h-137v191h297z" />
    <glyph glyph-name="Tcommaaccent" unicode="&#x21a;" horiz-adv-x="1251" 
d="M1225 1462v-270h-439v-1192h-321v1192h-438v270h1198zM775 -102v-156q0 -91 -55.5 -138.5t-203.5 -47.5h-18v75q52 6 78.5 22t38.5 54h-137v191h297z" />
    <glyph glyph-name="tcommaaccent" unicode="&#x21b;" horiz-adv-x="721" 
d="M479 1376v-317h213v-195h-213v-531q0 -65 24.5 -90.5t98.5 -25.5q25 0 48 2t42 6v-227q-36 -6 -80.5 -8t-87.5 -2q-189 0 -262.5 64.5t-73.5 180.5v631h-176v195h176v317h291zM586 -102v-156q0 -91 -55.5 -138.5t-203.5 -47.5h-18v75q52 6 78.5 22t38.5 54h-137v191h297z
" />
    <glyph glyph-name="dotlessj" unicode="&#x237;" horiz-adv-x="569" 
d="M428 1059v-1121q0 -166 -80 -238.5t-291 -72.5q-25 0 -48 2t-48 6v240q13 -5 29.5 -6.5t33.5 -1.5q64 0 88.5 24t24.5 66v1102h291z" />
    <glyph glyph-name="circumflex" unicode="&#x2c6;" horiz-adv-x="530" 
d="M399 1497l226 -291h-236l-126 165h-2l-130 -165h-225l227 291h266z" />
    <glyph glyph-name="caron" unicode="&#x2c7;" horiz-adv-x="530" 
d="M141 1497l126 -165h2l130 165h226l-228 -291h-266l-225 291h235z" />
    <glyph glyph-name="uni02C9" unicode="&#x2c9;" horiz-adv-x="530" 
d="M627 1421v-153h-723v153h723z" />
    <glyph glyph-name="breve" unicode="&#x2d8;" horiz-adv-x="530" 
d="M53 1497q11 -65 67.5 -101t136.5 -36q93 0 149.5 33.5t74.5 103.5h129q-17 -141 -109.5 -216t-254.5 -75q-147 0 -230.5 74.5t-95.5 216.5h133z" />
    <glyph glyph-name="dotaccent" unicode="&#x2d9;" horiz-adv-x="530" 
d="M403 1464v-239h-276v239h276z" />
    <glyph glyph-name="ring" unicode="&#x2da;" horiz-adv-x="530" 
d="M266 1647q109 0 179.5 -70t70.5 -176q0 -107 -74 -176.5t-178 -69.5q-109 0 -179.5 71t-70.5 175q0 103 72.5 174.5t179.5 71.5zM135 1401q0 -59 34.5 -98t94.5 -39q59 0 95 37.5t36 99.5q0 59 -34.5 98t-95.5 39q-59 0 -94.5 -39t-35.5 -98z" />
    <glyph glyph-name="ogonek" unicode="&#x2db;" horiz-adv-x="530" 
d="M369 0q-56 -58 -103 -120t-47 -123q0 -37 22.5 -58t53.5 -21q27 0 54.5 15t58.5 51l92 -53q-47 -72 -107 -103.5t-147 -31.5q-102 0 -162.5 46.5t-60.5 123.5q0 68 51.5 134.5t163.5 139.5h131z" />
    <glyph glyph-name="tilde" unicode="&#x2dc;" horiz-adv-x="530" 
d="M129 1477q64 0 154 -36t139 -36q36 0 57.5 17t30.5 55h131q-23 -120 -80 -177t-149 -57q-72 0 -163 35t-138 35q-33 0 -56 -20t-37 -66h-129q19 119 86 184.5t154 65.5z" />
    <glyph glyph-name="hungarumlaut" unicode="&#x2dd;" horiz-adv-x="530" 
d="M393 1497l-305 -291h-203l187 291h321zM817 1497l-305 -291h-203l187 291h321z" />
    <glyph glyph-name="tonos" unicode="&#x384;" horiz-adv-x="494" 
d="M522 1497l-151 -291h-242l61 291h332z" />
    <glyph glyph-name="dieresistonos" unicode="&#x385;" horiz-adv-x="1049" 
d="M723 1497l-137 -291h-228l54 291h311zM313 1464v-239h-256v239h256zM991 1464v-239h-256v239h256z" />
    <glyph glyph-name="Alphatonos" unicode="&#x386;" horiz-adv-x="1479" 
d="M423 1463l-151 -291h-242l61 291h332zM946 1462l547 -1461h-334l-110 325h-547l-115 -326h-325l555 1462h329zM776 1102l-190 -537h379l-184 537h-5z" />
    <glyph glyph-name="anoteleia" unicode="&#x387;" horiz-adv-x="569" 
d="M446 1040v-315h-321v315h321z" />
    <glyph glyph-name="Epsilontonos" unicode="&#x388;" horiz-adv-x="1729" 
d="M423 1462l-151 -291h-242l61 291h332zM1636 1462v-270h-772v-313h708v-250h-708v-359h788v-270h-1110v1462h1094z" />
    <glyph glyph-name="Etatonos" unicode="&#x389;" horiz-adv-x="1919" 
d="M423 1462l-151 -291h-242l61 291h332zM864 1462v-561h592v561h321v-1462h-321v631h-592v-631h-322v1462h322z" />
    <glyph glyph-name="Iotatonos" unicode="&#x38a;" horiz-adv-x="1006" 
d="M423 1462l-151 -291h-242l61 291h332zM864 1462v-1462h-322v1462h322z" />
    <glyph glyph-name="Omicrontonos" unicode="&#x38c;" horiz-adv-x="1901" 
d="M423 1462l-151 -291h-242l61 291h332zM1104 1497q326 0 522.5 -218.5t196.5 -553.5q0 -327 -197.5 -543.5t-521.5 -216.5q-211 0 -375.5 97t-254 272.5t-89.5 390.5q0 338 197.5 555t521.5 217zM706 725q0 -216 103.5 -352.5t294.5 -136.5q189 0 293 134.5t104 354.5
q0 231 -105.5 366.5t-293.5 135.5q-187 0 -291.5 -137t-104.5 -365z" />
    <glyph glyph-name="Upsilontonos" unicode="&#x38e;" horiz-adv-x="1892" 
d="M423 1462l-151 -291h-242l61 291h332zM870 1462l342 -577l340 577h358l-542 -901v-561h-322v569l-538 893h362z" />
    <glyph glyph-name="Omegatonos" unicode="&#x38f;" horiz-adv-x="1903" 
d="M423 1463l-151 -291h-242l61 291h332zM1110 1497q317 0 515.5 -192t198.5 -500q0 -166 -73.5 -303t-212.5 -230v-10h288v-262h-624v242q161 110 231 237t70 307q0 211 -106.5 326t-286.5 115q-181 0 -287.5 -116t-106.5 -325q0 -166 65 -292.5t234 -251.5v-242h-626v262
h280v10q-130 82 -202 219t-72 314q0 295 203.5 493.5t511.5 198.5z" />
    <glyph glyph-name="iotadieresistonos" unicode="&#x390;" horiz-adv-x="573" 
d="M415 1059v-785q0 -41 16.5 -62.5t51.5 -21.5q14 0 36 4t30 7v-187q-50 -23 -95 -33t-94 -10q-118 0 -176.5 59.5t-58.5 165.5v863h290zM518 1497l-137 -291h-228l54 291h311zM108 1464v-239h-256v239h256zM786 1464v-239h-256v239h256z" />
    <glyph glyph-name="Alpha" unicode="&#x391;" horiz-adv-x="1403" 
d="M870 1462l547 -1461h-334l-110 325h-547l-115 -326h-325l555 1462h329zM700 1102l-190 -537h379l-184 537h-5z" />
    <glyph glyph-name="Beta" unicode="&#x392;" horiz-adv-x="1442" 
d="M840 1462q224 0 340 -88.5t116 -272.5q0 -113 -52 -187t-146 -119q133 -40 200.5 -135t67.5 -236q0 -202 -146 -313t-361 -111h-718v1462h699zM794 870q86 0 138.5 44t52.5 130t-54 127t-159 41h-309v-342h331zM815 250q107 0 168 47t61 145q0 103 -57.5 156t-166.5 53
h-357v-401h352z" />
    <glyph glyph-name="Gamma" unicode="&#x393;" horiz-adv-x="1169" 
d="M1143 1462v-270h-680v-1192h-322v1462h1002z" />
    <glyph glyph-name="Delta" unicode="&#x394;" horiz-adv-x="1395" 
d="M866 1462l543 -1462h-1423l551 1462h329zM696 1102l-290 -832h577l-283 832h-4z" />
    <glyph glyph-name="Epsilon" unicode="&#x395;" horiz-adv-x="1327" 
d="M1235 1462v-270h-772v-313h708v-250h-708v-359h788v-270h-1110v1462h1094z" />
    <glyph glyph-name="Zeta" unicode="&#x396;" horiz-adv-x="1327" 
d="M1260 1462v-254l-785 -938h805v-270h-1233v254l784 938h-722v270h1151z" />
    <glyph glyph-name="Eta" unicode="&#x397;" 
d="M463 1462v-561h592v561h321v-1462h-321v631h-592v-631h-322v1462h322z" />
    <glyph glyph-name="Theta" unicode="&#x398;" horiz-adv-x="1593" 
d="M797 1497q328 0 523.5 -218.5t195.5 -553.5q0 -327 -197.5 -543.5t-521.5 -216.5q-211 0 -375.5 97t-254 272.5t-89.5 390.5q0 338 196.5 555t522.5 217zM399 725q0 -216 103.5 -352.5t294.5 -136.5q189 0 293 134.5t104 354.5q0 231 -105.5 366.5t-293.5 135.5
q-187 0 -291.5 -137t-104.5 -365zM1036 872v-249h-473v249h473z" />
    <glyph glyph-name="Iota" unicode="&#x399;" horiz-adv-x="604" 
d="M463 1462v-1462h-322v1462h322z" />
    <glyph glyph-name="Kappa" unicode="&#x39a;" horiz-adv-x="1479" 
d="M463 1462v-606l571 606h402l-572 -577l627 -885h-404l-440 657l-184 -186v-471h-322v1462h322z" />
    <glyph glyph-name="Lambda" unicode="&#x39b;" horiz-adv-x="1362" 
d="M850 1462l526 -1462h-334l-358 1102h-4l-369 -1102h-325l534 1462h330z" />
    <glyph glyph-name="Mu" unicode="&#x39c;" horiz-adv-x="1858" 
d="M594 1462l342 -1005h4l323 1001l2 4h451v-1462h-301v1036h-4l-358 -1036h-248l-359 1026h-4v-1026h-301v1462h453z" />
    <glyph glyph-name="Nu" unicode="&#x39d;" 
d="M461 1462l610 -981h4v981h301v-1462h-321l-609 979h-4v-979h-301v1462h320z" />
    <glyph glyph-name="Xi" unicode="&#x39e;" horiz-adv-x="1276" 
d="M1174 1462v-270h-1072v270h1072zM1073 897v-270h-870v270h870zM1192 270v-270h-1108v270h1108z" />
    <glyph glyph-name="Omicron" unicode="&#x39f;" horiz-adv-x="1593" 
d="M797 1497q326 0 522.5 -218.5t196.5 -553.5q0 -327 -197.5 -543.5t-521.5 -216.5q-211 0 -375.5 97t-254 272.5t-89.5 390.5q0 338 197.5 555t521.5 217zM399 725q0 -216 103.5 -352.5t294.5 -136.5q189 0 293 134.5t104 354.5q0 231 -105.5 366.5t-293.5 135.5
q-187 0 -291.5 -137t-104.5 -365z" />
    <glyph glyph-name="Pi" unicode="&#x3a0;" horiz-adv-x="1542" 
d="M1401 1462v-1462h-322v1192h-616v-1192h-322v1462h1260z" />
    <glyph glyph-name="Rho" unicode="&#x3a1;" horiz-adv-x="1366" 
d="M811 1462q229 0 362.5 -128.5t133.5 -340.5q0 -211 -133.5 -340t-362.5 -129h-348v-524h-322v1462h670zM722 774q138 0 205.5 52t67.5 167q0 112 -65 165.5t-207 53.5h-260v-438h259z" />
    <glyph glyph-name="Sigma" unicode="&#x3a3;" horiz-adv-x="1327" 
d="M1227 1462v-268h-711l418 -428v-4l-455 -492h781v-270h-1184v266l461 492l-437 438v266h1127z" />
    <glyph glyph-name="Tau" unicode="&#x3a4;" horiz-adv-x="1251" 
d="M1225 1462v-270h-439v-1192h-321v1192h-438v270h1198z" />
    <glyph glyph-name="Upsilon" unicode="&#x3a5;" horiz-adv-x="1366" 
d="M344 1462l342 -577l340 577h358l-542 -901v-561h-322v569l-538 893h362z" />
    <glyph glyph-name="Phi" unicode="&#x3a6;" horiz-adv-x="1669" 
d="M997 1534v-143q293 -17 445.5 -179.5t152.5 -443.5q0 -279 -157 -439.5t-441 -174.5v-154h-321v154q-295 13 -447.5 169t-152.5 437q0 287 154 450t446 181v143h321zM395 760q0 -187 65 -276t216 -93v762q-137 -3 -209 -97.5t-72 -295.5zM997 393q149 6 213 98t64 277
q0 188 -63.5 283t-213.5 102v-760z" />
    <glyph glyph-name="Chi" unicode="&#x3a7;" horiz-adv-x="1366" 
d="M401 1462l287 -467l297 467h352l-469 -698l510 -764h-383l-319 506l-326 -506h-362l512 766l-471 696h372z" />
    <glyph glyph-name="Psi" unicode="&#x3a8;" horiz-adv-x="1722" 
d="M428 1462v-574q0 -171 61.5 -250.5t210.5 -82.5v907h322v-905q146 0 209 77.5t63 253.5v574h324v-577q0 -257 -148 -404t-448 -166v-315h-322v315q-317 15 -456.5 159t-139.5 410v578h324z" />
    <glyph glyph-name="Omega" unicode="&#x3a9;" horiz-adv-x="1585" 
d="M793 1497q317 0 515.5 -192t198.5 -500q0 -166 -73.5 -303t-212.5 -230v-10h288v-262h-624v242q161 110 231 237t70 307q0 211 -106.5 326t-286.5 115q-181 0 -287.5 -116t-106.5 -325q0 -166 65 -292.5t234 -251.5v-242h-626v262h280v10q-130 82 -202 219t-72 314
q0 295 203.5 493.5t511.5 198.5z" />
    <glyph glyph-name="Iotadieresis" unicode="&#x3aa;" horiz-adv-x="604" 
d="M463 1462v-1462h-322v1462h322zM228 1853v-239h-277v239h277zM649 1853v-239h-276v239h276z" />
    <glyph glyph-name="Upsilondieresis" unicode="&#x3ab;" horiz-adv-x="1346" 
d="M344 1462l342 -577l340 577h358l-542 -901v-561h-322v569l-538 893h362zM617 1853v-239h-277v239h277zM1038 1853v-239h-276v239h276z" />
    <glyph glyph-name="alphatonos" unicode="&#x3ac;" horiz-adv-x="1266" 
d="M534 1087q85 0 160.5 -40t122.5 -115h4v127h291v-784q0 -37 17 -61t50 -24q14 0 30 3t32 8v-187q-41 -21 -85.5 -32t-89.5 -11q-80 0 -146.5 41t-90.5 123h-4q-46 -83 -122 -123.5t-185 -40.5q-201 0 -326.5 164t-125.5 400q0 238 126.5 395t341.5 157zM356 526
q0 -139 66.5 -237.5t177.5 -98.5q109 0 170 92.5t61 247.5q0 145 -61 241.5t-166 96.5q-119 0 -183.5 -92t-64.5 -250zM893 1497l-151 -291h-242l61 291h332z" />
    <glyph glyph-name="epsilontonos" unicode="&#x3ad;" horiz-adv-x="1055" 
d="M543 1087q203 0 316 -87.5t136 -254.5h-282q-12 66 -58 97.5t-118 31.5q-80 0 -122 -32t-42 -97q0 -47 34 -74.5t90 -27.5h138v-184h-144q-67 0 -106 -32t-39 -99q0 -68 50.5 -106t140.5 -38q104 0 155 41.5t62 134.5h280q-29 -198 -158 -293.5t-362 -95.5
q-210 0 -335.5 88.5t-125.5 239.5q0 85 49 146.5t144 91.5v8q-78 26 -116 82.5t-38 134.5q0 144 125.5 234.5t325.5 90.5zM813 1497l-151 -291h-242l61 291h332z" />
    <glyph glyph-name="etatonos" unicode="&#x3ae;" horiz-adv-x="1214" 
d="M718 1087q203 0 294.5 -102.5t91.5 -322.5v-1033h-291v978q0 124 -42.5 187.5t-143.5 63.5q-121 0 -173.5 -72t-52.5 -221v-565h-290v1059h276v-148h6q53 85 138 130.5t187 45.5zM897 1497l-151 -291h-242l61 291h332z" />
    <glyph glyph-name="iotatonos" unicode="&#x3af;" horiz-adv-x="559" 
d="M401 1059v-785q0 -41 16.5 -62.5t51.5 -21.5q14 0 36 4t30 7v-187q-50 -23 -95 -33t-94 -10q-118 0 -176.5 59.5t-58.5 165.5v863h290zM522 1497l-151 -291h-242l61 291h332z" />
    <glyph glyph-name="upsilondieresistonos" unicode="&#x3b0;" horiz-adv-x="1163" 
d="M401 1059v-671q0 -91 43 -144.5t129 -53.5q114 0 170 89t56 278q0 116 -34 254t-97 248h301q62 -110 91.5 -245t29.5 -252q0 -274 -137 -432.5t-381 -158.5q-231 0 -346 99.5t-115 286.5v702h290zM766 1497l-137 -291h-228l54 291h311zM356 1464v-239h-256v239h256z
M1034 1464v-239h-256v239h256z" />
    <glyph glyph-name="alpha" unicode="&#x3b1;" horiz-adv-x="1266" 
d="M534 1087q85 0 160.5 -40t122.5 -115h4v127h291v-784q0 -37 17 -61t50 -24q14 0 30 3t32 8v-187q-41 -21 -85.5 -32t-89.5 -11q-80 0 -146.5 41t-90.5 123h-4q-46 -83 -122 -123.5t-185 -40.5q-201 0 -326.5 164t-125.5 400q0 238 126.5 395t341.5 157zM356 526
q0 -139 66.5 -237.5t177.5 -98.5q109 0 170 92.5t61 247.5q0 145 -61 241.5t-166 96.5q-119 0 -183.5 -92t-64.5 -250z" />
    <glyph glyph-name="beta" unicode="&#x3b2;" horiz-adv-x="1204" 
d="M582 1479q217 0 336.5 -94.5t119.5 -262.5q0 -99 -52.5 -171.5t-151.5 -90.5v-6q146 -24 226.5 -136.5t80.5 -265.5q0 -226 -115 -353.5t-309 -127.5q-103 0 -185 41.5t-129 114.5h-2v-500h-290v1387q0 231 116 348t355 117zM387 551q0 -172 62 -267.5t176 -95.5
q98 0 161.5 65.5t63.5 190.5q0 143 -46.5 209t-151.5 66h-111v184h26q78 0 110 18t52.5 57t20.5 113q0 77 -43 120.5t-127 43.5q-103 0 -148 -65t-45 -201v-438z" />
    <glyph glyph-name="gamma" unicode="&#x3b3;" horiz-adv-x="1040" 
d="M319 1059q66 -114 127 -335.5t80 -396.5h11q60 119 108 307.5t78 424.5h297q-43 -285 -139.5 -550t-253.5 -515l2 -367h-293v298q0 202 -100 550.5t-226 583.5h309z" />
    <glyph glyph-name="delta" unicode="&#x3b4;" horiz-adv-x="1212" 
d="M644 1479q90 0 189 -17t173 -51v-217q-87 39 -183.5 55.5t-177.5 16.5q-55 0 -81.5 -12t-26.5 -35q0 -38 94 -94q331 -197 419.5 -333t88.5 -286q0 -223 -140 -379t-378 -156q-248 0 -397.5 150t-149.5 389q0 176 93 297.5t269 173.5q-104 62 -151 122.5t-47 133.5
q0 120 103.5 181t302.5 61zM367 510q0 -161 68 -240.5t186 -79.5q105 0 166 83t61 232q0 124 -61.5 212.5t-178.5 154.5q-115 -25 -178 -113.5t-63 -248.5z" />
    <glyph glyph-name="epsilon" unicode="&#x3b5;" horiz-adv-x="1055" 
d="M543 1087q203 0 316 -87.5t136 -254.5h-282q-12 66 -58 97.5t-118 31.5q-80 0 -122 -32t-42 -97q0 -47 34 -74.5t90 -27.5h138v-184h-144q-67 0 -106 -32t-39 -99q0 -68 50.5 -106t140.5 -38q104 0 155 41.5t62 134.5h280q-29 -198 -158 -293.5t-362 -95.5
q-210 0 -335.5 88.5t-125.5 239.5q0 85 49 146.5t144 91.5v8q-78 26 -116 82.5t-38 134.5q0 144 125.5 234.5t325.5 90.5z" />
    <glyph glyph-name="zeta" unicode="&#x3b6;" horiz-adv-x="971" 
d="M971 1462v-190q-305 -122 -453.5 -296.5t-148.5 -438.5q0 -155 63 -228t193 -73h61q150 -7 213 -89q68 -88 68 -229q0 -46 -7 -108.5t-24 -124.5h-254q10 39 17.5 93.5t7.5 87.5q0 71 -22 103q-18 25 -60 31h-68q-149 0 -246.5 56t-165 175t-67.5 306q0 245 123.5 422
t369.5 282h-405v221h805z" />
    <glyph glyph-name="eta" unicode="&#x3b7;" horiz-adv-x="1214" 
d="M718 1087q203 0 294.5 -102.5t91.5 -322.5v-1033h-291v978q0 124 -42.5 187.5t-143.5 63.5q-121 0 -173.5 -72t-52.5 -221v-565h-290v1059h276v-148h6q53 85 138 130.5t187 45.5z" />
    <glyph glyph-name="theta" unicode="&#x3b8;" horiz-adv-x="1178" 
d="M588 1479q264 0 390 -183.5t126 -568.5t-128.5 -570.5t-387.5 -185.5q-258 0 -386 186.5t-128 569.5q0 380 128.5 566t385.5 186zM803 852v8q0 206 -51.5 303t-165.5 97q-111 0 -162 -93.5t-51 -298.5v-16h430zM588 193q125 0 170 94.5t48 345.5h-435q0 -236 45.5 -338
t171.5 -102z" />
    <glyph glyph-name="iota" unicode="&#x3b9;" horiz-adv-x="559" 
d="M401 1059v-785q0 -41 16.5 -62.5t51.5 -21.5q14 0 36 4t30 7v-187q-50 -23 -95 -33t-94 -10q-118 0 -176.5 59.5t-58.5 165.5v863h290z" />
    <glyph glyph-name="kappa" unicode="&#x3ba;" horiz-adv-x="1161" 
d="M401 1059v-424l377 424h344l-405 -424l452 -635h-352l-297 434l-119 -115v-319h-290v1059h290z" />
    <glyph glyph-name="lambda" unicode="&#x3bb;" horiz-adv-x="1128" 
d="M300 1479q131 -1 204 -55t139 -229l360 -945q14 -37 26 -48.5t35 -11.5q19 0 34.5 3t29.5 8v-187q-49 -26 -91 -34.5t-73 -8.5q-91 0 -145.5 38t-78.5 114l-173 551h-6l-239 -674h-312l424 979q-63 150 -89.5 212t-129.5 62q-25 0 -50.5 -3.5t-49.5 -10.5v217
q37 11 83.5 17t101.5 6z" />
    <glyph glyph-name="mu" unicode="&#x3bc;" horiz-adv-x="1214" 
d="M401 1059v-607q0 -120 42 -185.5t145 -65.5q120 0 172.5 72.5t52.5 220.5v565h291v-1059h-277v147h-6q-64 -95 -129 -135.5t-137 -40.5q-41 0 -79.5 11.5t-74.5 37.5v-393h-290v1432h290z" />
    <glyph glyph-name="nu" unicode="&#x3bd;" horiz-adv-x="1085" 
d="M315 1059l232 -746h6q76 156 132.5 352t80.5 394h289q-41 -258 -129 -520.5t-230 -538.5h-323l-363 1059h305z" />
    <glyph glyph-name="xi" unicode="&#x3be;" horiz-adv-x="952" 
d="M592 1479q80 0 167.5 -17.5t162.5 -50.5v-217q-99 35 -169 49t-128 14q-102 0 -159.5 -49.5t-57.5 -142.5q0 -112 67.5 -153.5t188.5 -41.5h190v-208h-197q-147 0 -219.5 -46t-72.5 -165q0 -108 60.5 -162t190.5 -53h57q127 -1 203 -78t76 -240q0 -58 -6.5 -115
t-23.5 -118h-254q9 35 16.5 85.5t7.5 95.5q0 81 -25 107.5t-96 26.5h-43q-162 5 -247 49q-95 49 -151 137.5t-56 223.5q0 145 74.5 239.5t220.5 128.5v4q-123 19 -187.5 94t-64.5 190q0 188 130.5 300.5t344.5 112.5z" />
    <glyph glyph-name="omicron" unicode="&#x3bf;" horiz-adv-x="1251" 
d="M625 1087q249 0 399 -153.5t150 -405.5q0 -253 -151.5 -405t-397.5 -152t-396.5 153t-150.5 404t148 405t399 154zM369 528q0 -167 68.5 -252.5t187.5 -85.5q124 0 191 88.5t67 249.5q0 158 -65 249t-195 91q-117 0 -185.5 -84.5t-68.5 -255.5z" />
    <glyph glyph-name="pi" unicode="&#x3c0;" horiz-adv-x="1417" 
d="M1376 1059v-219h-225v-562q0 -41 18.5 -63t65.5 -22q18 0 37 2t31 6v-189q-45 -22 -92.5 -31.5t-98.5 -9.5q-130 0 -191 59t-61 166v644h-325v-840h-291v840h-213v219h1345z" />
    <glyph glyph-name="rho" unicode="&#x3c1;" horiz-adv-x="1223" 
d="M625 1087q252 0 393 -160t141 -401t-121 -398t-341 -157q-80 0 -162 40.5t-129 117.5h-5v-502h-290v909q0 256 132.5 403.5t381.5 147.5zM391 530q0 -155 65.5 -247.5t174.5 -92.5q110 0 173.5 93t63.5 255q0 150 -65 240t-179 90q-101 0 -167 -90t-66 -248z" />
    <glyph glyph-name="sigma1" unicode="&#x3c2;" horiz-adv-x="1120" 
d="M612 1087q187 0 311.5 -93t161.5 -261h-282q-21 67 -69.5 101t-121.5 34q-115 0 -181 -89t-66 -242q0 -146 64.5 -224t194.5 -77h63q151 1 224.5 -81.5t73.5 -237.5q0 -61 -7.5 -121t-23.5 -111h-254q11 43 18 89.5t7 90.5q0 69 -21 102t-70 33h-109q-136 7 -224.5 59
t-157.5 166t-69 311q0 234 144 392.5t394 158.5z" />
    <glyph glyph-name="sigma" unicode="&#x3c3;" horiz-adv-x="1225" 
d="M1219 1059v-219h-265q79 -42 125.5 -129.5t46.5 -183.5q0 -240 -140 -398t-382 -158q-238 0 -384 154.5t-146 402.5q0 241 157.5 386t417.5 145h570zM365 528q0 -170 66 -254t173 -84q112 0 172 90t60 249q0 116 -26.5 191.5t-84.5 119.5h-54q-110 0 -170.5 -33t-98 -98
t-37.5 -181z" />
    <glyph glyph-name="tau" unicode="&#x3c4;" horiz-adv-x="1022" 
d="M1014 1059v-219h-377v-561q0 -40 21.5 -63t75.5 -23q21 0 42 2.5t39 7.5v-187q-45 -22 -93.5 -33.5t-114.5 -11.5q-137 0 -199 59.5t-62 165.5v644h-336v219h1004z" />
    <glyph glyph-name="upsilon" unicode="&#x3c5;" horiz-adv-x="1171" 
d="M401 1059v-671q0 -91 43 -144.5t129 -53.5q114 0 170 89t56 278q0 116 -34 254t-97 248h301q62 -110 91.5 -245t29.5 -252q0 -274 -137 -432.5t-381 -158.5q-231 0 -346 99.5t-115 286.5v702h290z" />
    <glyph glyph-name="phi" unicode="&#x3c6;" horiz-adv-x="1544" 
d="M920 1352v-265q260 -10 407.5 -160.5t147.5 -387.5q0 -247 -141.5 -401t-413.5 -167v-344h-291v344q-259 6 -407 156t-148 407q0 244 150.5 394.5t404.5 158.5v265h291zM920 195q134 0 199 85.5t65 257.5q0 161 -66 247.5t-198 86.5v-677zM365 534q0 -171 66.5 -257
t197.5 -86v677q-124 0 -194 -84.5t-70 -249.5z" />
    <glyph glyph-name="chi" unicode="&#x3c7;" horiz-adv-x="1100" 
d="M367 1059l186 -410l182 410h324l-361 -653l402 -777h-332l-225 512l-214 -510l-2 -2h-327l399 766l-364 664h332z" />
    <glyph glyph-name="psi" unicode="&#x3c8;" horiz-adv-x="1487" 
d="M883 1350v-1162q115 6 175 103.5t60 267.5q0 107 -26 242t-84 258h299q46 -92 74 -229t28 -266q0 -260 -138 -421.5t-388 -171.5v-344h-291v342q-248 9 -364.5 142t-116.5 375v573h290v-559q0 -140 42.5 -220.5t148.5 -91.5v1162h291z" />
    <glyph glyph-name="omega" unicode="&#x3c9;" horiz-adv-x="1556" 
d="M557 1059q-97 -129 -144.5 -270t-47.5 -292q0 -163 40.5 -236t116.5 -73q58 0 82.5 53.5t24.5 158.5v362h293v-364q0 -107 25.5 -158.5t82.5 -51.5q81 0 121.5 76t40.5 235q0 157 -47.5 293.5t-145.5 266.5h306q96 -131 137 -268t41 -303q0 -232 -112.5 -374.5
t-313.5 -142.5q-110 0 -181.5 47.5t-105.5 133.5q-49 -101 -113.5 -141t-171.5 -40q-197 0 -304 132.5t-107 382.5q0 176 46 314.5t132 258.5h305z" />
    <glyph glyph-name="iotadieresis" unicode="&#x3ca;" horiz-adv-x="573" 
d="M401 1059v-785q0 -41 16.5 -62.5t51.5 -21.5q14 0 36 4t30 7v-187q-50 -23 -95 -33t-94 -10q-118 0 -176.5 59.5t-58.5 165.5v863h290zM195 1464v-239h-277v239h277zM616 1464v-239h-276v239h276z" />
    <glyph glyph-name="upsilondieresis" unicode="&#x3cb;" horiz-adv-x="1178" 
d="M401 1059v-671q0 -91 43 -144.5t129 -53.5q114 0 170 89t56 278q0 116 -34 254t-97 248h301q62 -110 91.5 -245t29.5 -252q0 -274 -137 -432.5t-381 -158.5q-231 0 -346 99.5t-115 286.5v702h290zM484 1464v-239h-277v239h277zM905 1464v-239h-276v239h276z" />
    <glyph glyph-name="omicrontonos" unicode="&#x3cc;" horiz-adv-x="1251" 
d="M625 1087q249 0 399 -153.5t150 -405.5q0 -253 -151.5 -405t-397.5 -152t-396.5 153t-150.5 404t148 405t399 154zM369 528q0 -167 68.5 -252.5t187.5 -85.5q124 0 191 88.5t67 249.5q0 158 -65 249t-195 91q-117 0 -185.5 -84.5t-68.5 -255.5zM893 1497l-151 -291h-242
l61 291h332z" />
    <glyph glyph-name="upsilontonos" unicode="&#x3cd;" horiz-adv-x="1178" 
d="M401 1059v-671q0 -91 43 -144.5t129 -53.5q114 0 170 89t56 278q0 116 -34 254t-97 248h301q62 -110 91.5 -245t29.5 -252q0 -274 -137 -432.5t-381 -158.5q-231 0 -346 99.5t-115 286.5v702h290zM827 1497l-151 -291h-242l61 291h332z" />
    <glyph glyph-name="omegatonos" unicode="&#x3ce;" horiz-adv-x="1556" 
d="M557 1059q-97 -129 -144.5 -270t-47.5 -292q0 -163 40.5 -236t116.5 -73q58 0 82.5 53.5t24.5 158.5v362h293v-364q0 -107 25.5 -158.5t82.5 -51.5q81 0 121.5 76t40.5 235q0 157 -47.5 293.5t-145.5 266.5h306q96 -131 137 -268t41 -303q0 -232 -112.5 -374.5
t-313.5 -142.5q-110 0 -181.5 47.5t-105.5 133.5q-49 -101 -113.5 -141t-171.5 -40q-197 0 -304 132.5t-107 382.5q0 176 46 314.5t132 258.5h305zM1046 1497l-151 -291h-242l61 291h332z" />
    <glyph glyph-name="afii10023" unicode="&#x401;" horiz-adv-x="1327" 
d="M1235 1462v-270h-772v-313h708v-250h-708v-359h788v-270h-1110v1462h1094zM607 1853v-239h-277v239h277zM1028 1853v-239h-276v239h276z" />
    <glyph glyph-name="afii10051" unicode="&#x402;" horiz-adv-x="1606" 
d="M1204 1462v-270h-479v-444q62 76 152 117.5t204 41.5q220 0 345.5 -151t125.5 -416q0 -285 -153 -460.5t-418 -175.5h-35v259q143 0 213 92.5t70 283.5q0 159 -62.5 239.5t-185.5 80.5t-189.5 -89.5t-66.5 -227.5v-342h-322v1192h-376v270h1177z" />
    <glyph glyph-name="afii10052" unicode="&#x403;" horiz-adv-x="1169" 
d="M1143 1462v-270h-680v-1192h-322v1462h1002zM953 1886l-316 -291h-202l196 291h322z" />
    <glyph glyph-name="afii10053" unicode="&#x404;" 
d="M795 1497q253 0 426 -130.5t206 -356.5h-317q-27 105 -113 163t-209 58q-148 0 -247 -92t-133 -260h534v-250h-541q23 -194 127.5 -296t256.5 -102q143 0 228.5 71t108.5 204h320q-40 -261 -214 -401t-446 -140q-311 0 -507.5 211t-196.5 555q0 338 196.5 552t520.5 214z
" />
    <glyph glyph-name="afii10054" unicode="&#x405;" horiz-adv-x="1329" 
d="M645 1497q265 0 425 -123t160 -348h-311q-7 110 -75 165.5t-212 55.5q-98 0 -160.5 -43t-62.5 -123q0 -55 26 -82t106.5 -56.5t351.5 -93.5q182 -44 284 -149t102 -266q0 -212 -159 -340.5t-448 -128.5q-276 0 -450 136t-174 376v8h311q2 -136 91 -203t233 -67
q130 0 207.5 47.5t77.5 134.5q0 71 -59.5 116.5t-190.5 78.5q-168 38 -305 80.5t-226.5 138t-89.5 244.5q0 197 157.5 319.5t390.5 122.5z" />
    <glyph glyph-name="afii10055" unicode="&#x406;" horiz-adv-x="604" 
d="M463 1462v-1462h-322v1462h322z" />
    <glyph glyph-name="afii10056" unicode="&#x407;" horiz-adv-x="604" 
d="M463 1462v-1462h-322v1462h322zM228 1853v-239h-277v239h277zM649 1853v-239h-276v239h276z" />
    <glyph glyph-name="afii10057" unicode="&#x408;" horiz-adv-x="1139" 
d="M997 1462v-1011q0 -235 -122.5 -360.5t-363.5 -125.5q-213 0 -347.5 120.5t-134.5 324.5v135h290v-55q0 -146 47 -200t140 -54q84 0 127 45.5t43 181.5v999h321z" />
    <glyph glyph-name="afii10058" unicode="&#x409;" horiz-adv-x="2165" 
d="M1300 1462v-553h291q233 0 375.5 -117t142.5 -337q0 -222 -147.5 -338.5t-388.5 -116.5h-594v1190h-356l-16 -629q0 -314 -108 -455t-313 -141q-43 0 -83.5 6.5t-82.5 18.5v252q55 -11 77.5 -14t41.5 -3q82 0 114.5 69.5t37.5 214.5l24 953h985zM1562 274
q111 0 173.5 41.5t62.5 139.5q0 95 -64.5 139.5t-174.5 44.5h-259v-365h262z" />
    <glyph glyph-name="afii10059" unicode="&#x40a;" horiz-adv-x="2165" 
d="M463 1462v-553h516v553h321v-553h291q233 0 375.5 -117t142.5 -337q0 -222 -147.5 -338.5t-388.5 -116.5h-594v637h-516v-637h-322v1462h322zM1562 274q111 0 173.5 41.5t62.5 139.5q0 95 -64.5 139.5t-174.5 44.5h-259v-365h262z" />
    <glyph glyph-name="afii10060" unicode="&#x40b;" horiz-adv-x="1602" 
d="M1204 1462v-270h-479v-315q95 23 171.5 32t137.5 9q232 0 354.5 -119t122.5 -347v-452h-321v440q0 106 -51 158.5t-174 52.5q-59 0 -123.5 -10.5t-116.5 -22.5v-618h-322v1192h-376v270h1177z" />
    <glyph glyph-name="afii10061" unicode="&#x40c;" horiz-adv-x="1479" 
d="M463 1462v-606l571 606h402l-572 -577l627 -885h-404l-440 657l-184 -186v-471h-322v1462h322zM1071 1886l-316 -291h-202l196 291h322z" />
    <glyph glyph-name="afii10062" unicode="&#x40e;" horiz-adv-x="1343" 
d="M362 1462l334 -778l320 778h342l-502 -1092q-112 -244 -221 -324.5t-269 -80.5q-54 0 -103.5 6.5t-92.5 20.5v258q45 -12 88 -18.5t87 -6.5q75 0 121 39.5t46 105.5q0 17 -6.5 43.5t-18.5 50.5l-479 998h354zM483 1886q11 -67 69.5 -102t134.5 -35q94 0 150.5 33.5
t73.5 103.5h129q-17 -141 -108.5 -216t-255.5 -75q-150 0 -232 75.5t-94 215.5h133z" />
    <glyph glyph-name="afii10145" unicode="&#x40f;" 
d="M463 1462v-1192h592v1192h321v-1462h-461v-375h-313v375h-461v1462h322z" />
    <glyph glyph-name="afii10017" unicode="&#x410;" horiz-adv-x="1403" 
d="M870 1462l547 -1461h-334l-110 325h-547l-115 -326h-325l555 1462h329zM700 1102l-190 -537h379l-184 537h-5z" />
    <glyph glyph-name="afii10018" unicode="&#x411;" horiz-adv-x="1442" 
d="M1227 1462v-270h-764v-254h393q228 0 367 -122.5t139 -346.5q0 -227 -143 -348t-382 -121h-696v1462h1086zM811 262q119 0 179.5 51t60.5 156q0 101 -63.5 154t-179.5 53h-345v-414h348z" />
    <glyph glyph-name="afii10019" unicode="&#x412;" horiz-adv-x="1442" 
d="M840 1462q224 0 340 -88.5t116 -272.5q0 -113 -52 -187t-146 -119q133 -40 200.5 -135t67.5 -236q0 -202 -146 -313t-361 -111h-718v1462h699zM794 870q86 0 138.5 44t52.5 130t-54 127t-159 41h-309v-342h331zM815 250q107 0 168 47t61 145q0 103 -57.5 156t-166.5 53
h-357v-401h352z" />
    <glyph glyph-name="afii10020" unicode="&#x413;" horiz-adv-x="1169" 
d="M1143 1462v-270h-680v-1192h-322v1462h1002z" />
    <glyph glyph-name="afii10021" unicode="&#x414;" horiz-adv-x="1577" 
d="M1403 1462v-1192h158v-645h-314v375h-917v-375h-314v645h111q125 170 179 396.5t54 553.5v242h1043zM483 270h598v922h-403v-25q0 -311 -48.5 -521t-146.5 -376z" />
    <glyph glyph-name="afii10022" unicode="&#x415;" horiz-adv-x="1327" 
d="M1235 1462v-270h-772v-313h708v-250h-708v-359h788v-270h-1110v1462h1094z" />
    <glyph glyph-name="afii10024" unicode="&#x416;" horiz-adv-x="2169" 
d="M428 1462l498 -592v592h317v-600l506 600h385l-528 -598l581 -864h-397l-391 637l-156 -176v-461h-317v453l-158 180l-399 -633h-387l583 856l-530 606h393z" />
    <glyph glyph-name="afii10025" unicode="&#x417;" horiz-adv-x="1329" 
d="M670 1497q235 0 379.5 -114.5t144.5 -290.5q0 -114 -59 -190t-161 -107q135 -36 205 -126t70 -220q0 -218 -166.5 -351t-427.5 -133q-284 0 -446 133t-166 381h317q7 -136 88.5 -202t215.5 -66q119 0 191.5 63.5t72.5 171.5q0 104 -69.5 155.5t-204.5 51.5h-111v215h98
q124 0 188 47t64 144q0 85 -62.5 137.5t-166.5 52.5q-119 0 -184.5 -55.5t-76.5 -163.5h-303q8 227 162 347t408 120z" />
    <glyph glyph-name="afii10026" unicode="&#x418;" 
d="M463 1462v-985h6l561 985h346v-1462h-321v987h-6l-562 -987h-346v1462h322z" />
    <glyph glyph-name="afii10027" unicode="&#x419;" 
d="M463 1462v-985h6l561 985h346v-1462h-321v987h-6l-562 -987h-346v1462h322zM549 1886q11 -67 69.5 -102t134.5 -35q94 0 150.5 33.5t73.5 103.5h129q-17 -141 -108.5 -216t-255.5 -75q-150 0 -232 75.5t-94 215.5h133z" />
    <glyph glyph-name="afii10028" unicode="&#x41a;" horiz-adv-x="1479" 
d="M463 1462v-606l571 606h402l-572 -577l627 -885h-404l-440 657l-184 -186v-471h-322v1462h322z" />
    <glyph glyph-name="afii10029" unicode="&#x41b;" horiz-adv-x="1479" 
d="M1337 1462v-1462h-321v1190h-393l-16 -629q0 -314 -108 -455t-313 -141q-43 0 -83.5 6.5t-82.5 18.5v252q55 -11 77.5 -14t41.5 -3q82 0 114.5 69.5t37.5 214.5l24 953h1022z" />
    <glyph glyph-name="afii10030" unicode="&#x41c;" horiz-adv-x="1858" 
d="M594 1462l342 -1005h4l323 1001l2 4h451v-1462h-301v1036h-4l-358 -1036h-248l-359 1026h-4v-1026h-301v1462h453z" />
    <glyph glyph-name="afii10031" unicode="&#x41d;" 
d="M463 1462v-561h592v561h321v-1462h-321v631h-592v-631h-322v1462h322z" />
    <glyph glyph-name="afii10032" unicode="&#x41e;" horiz-adv-x="1593" 
d="M797 1497q326 0 522.5 -218.5t196.5 -553.5q0 -327 -197.5 -543.5t-521.5 -216.5q-211 0 -375.5 97t-254 272.5t-89.5 390.5q0 338 197.5 555t521.5 217zM399 725q0 -216 103.5 -352.5t294.5 -136.5q189 0 293 134.5t104 354.5q0 231 -105.5 366.5t-293.5 135.5
q-187 0 -291.5 -137t-104.5 -365z" />
    <glyph glyph-name="afii10033" unicode="&#x41f;" 
d="M1376 1462v-1462h-321v1192h-592v-1192h-322v1462h1235z" />
    <glyph glyph-name="afii10034" unicode="&#x420;" horiz-adv-x="1366" 
d="M811 1462q229 0 362.5 -128.5t133.5 -340.5q0 -211 -133.5 -340t-362.5 -129h-348v-524h-322v1462h670zM722 774q138 0 205.5 52t67.5 167q0 112 -65 165.5t-207 53.5h-260v-438h259z" />
    <glyph glyph-name="afii10035" unicode="&#x421;" 
d="M797 1497q249 0 424.5 -140.5t205.5 -385.5h-311q-21 115 -114 185.5t-206 70.5q-188 0 -292.5 -137.5t-104.5 -364.5q0 -217 103.5 -353t294.5 -136q139 0 225 85.5t106 241.5h312q-28 -279 -202.5 -438.5t-440.5 -159.5q-211 0 -375.5 96.5t-254 272.5t-89.5 391
q0 337 197 554.5t522 217.5z" />
    <glyph glyph-name="afii10036" unicode="&#x422;" horiz-adv-x="1251" 
d="M1225 1462v-270h-439v-1192h-321v1192h-438v270h1198z" />
    <glyph glyph-name="afii10037" unicode="&#x423;" horiz-adv-x="1343" 
d="M362 1462l334 -778l320 778h342l-502 -1092q-112 -244 -221 -324.5t-269 -80.5q-54 0 -103.5 6.5t-92.5 20.5v258q45 -12 88 -18.5t87 -6.5q75 0 121 39.5t46 105.5q0 17 -6.5 43.5t-18.5 50.5l-479 998h354z" />
    <glyph glyph-name="afii10038" unicode="&#x424;" horiz-adv-x="1737" 
d="M1026 1462v-147q307 -16 470 -167t163 -403q0 -257 -166.5 -413.5t-466.5 -171.5v-160h-315v160q-305 17 -469 170.5t-164 414.5q0 249 163.5 402t469.5 168v147h315zM387 746q0 -149 86.5 -244.5t237.5 -102.5v684q-158 -6 -241 -92t-83 -245zM1026 399q154 7 239 102.5
t85 243.5q0 157 -83.5 244t-240.5 94v-684z" />
    <glyph glyph-name="afii10039" unicode="&#x425;" horiz-adv-x="1366" 
d="M401 1462l287 -467l297 467h352l-469 -698l510 -764h-383l-319 506l-326 -506h-362l512 766l-471 696h372z" />
    <glyph glyph-name="afii10040" unicode="&#x426;" horiz-adv-x="1550" 
d="M463 1462v-1192h592v1192h321v-1192h158v-645h-313v375h-1080v1462h322z" />
    <glyph glyph-name="afii10041" unicode="&#x427;" horiz-adv-x="1372" 
d="M397 1462v-422q0 -108 53.5 -159.5t182.5 -51.5q40 0 104 6.5t172 26.5v600h322v-1462h-322v602q-110 -22 -185.5 -31.5t-139.5 -9.5q-248 0 -378 121.5t-130 337.5v442h321z" />
    <glyph glyph-name="afii10042" unicode="&#x428;" horiz-adv-x="2206" 
d="M463 1462v-1192h479v1192h322v-1192h479v1192h321v-1462h-1923v1462h322z" />
    <glyph glyph-name="afii10043" unicode="&#x429;" horiz-adv-x="2236" 
d="M463 1462v-1192h479v1192h322v-1192h479v1192h321v-1192h158v-645h-313v375h-1768v1462h322z" />
    <glyph glyph-name="afii10044" unicode="&#x42a;" horiz-adv-x="1657" 
d="M739 1462v-524h349q226 0 367.5 -120.5t141.5 -348.5q0 -230 -145 -349.5t-379 -119.5h-655v1192h-391v270h712zM1046 262q116 0 178 49.5t62 157.5q0 104 -64 155.5t-179 51.5h-304v-414h307z" />
    <glyph glyph-name="afii10045" unicode="&#x42b;" horiz-adv-x="1872" 
d="M463 1462v-524h272q232 0 371 -123t139 -346q0 -225 -142.5 -347t-381.5 -122h-580v1462h322zM1731 1462v-1462h-322v1462h322zM694 262q116 0 178 49.5t62 157.5q0 105 -65 156t-178 51h-228v-414h231z" />
    <glyph glyph-name="afii10046" unicode="&#x42c;" horiz-adv-x="1380" 
d="M463 1462v-524h347q231 0 371 -122.5t140 -346.5q0 -227 -143 -348t-382 -121h-655v1462h322zM770 262q118 0 179 51t61 156t-65 156t-178 51h-304v-414h307z" />
    <glyph glyph-name="afii10047" unicode="&#x42d;" 
d="M745 1497q323 0 509 -214.5t186 -551.5q0 -333 -194.5 -549.5t-504.5 -216.5q-278 0 -457 143t-208 398h319q22 -138 117 -206.5t231 -68.5q158 0 261 109t114 289h-549v250h539q-26 167 -124 259.5t-243 92.5q-121 0 -204.5 -54t-126.5 -167h-318q49 231 225.5 359
t427.5 128z" />
    <glyph glyph-name="afii10048" unicode="&#x42e;" horiz-adv-x="2085" 
d="M1350 1497q299 0 478 -210t179 -560q0 -221 -81.5 -396t-234 -270.5t-343.5 -95.5q-271 0 -451.5 179t-206.5 494h-227v-638h-322v1462h322v-573h233q48 291 222.5 449.5t431.5 158.5zM1004 729q0 -242 93 -372t253 -130q157 0 246.5 133.5t89.5 372.5q0 230 -90 366
t-252 136q-154 0 -247 -129.5t-93 -376.5z" />
    <glyph glyph-name="afii10049" unicode="&#x42f;" horiz-adv-x="1466" 
d="M1325 1462v-1462h-321v573h-201l-397 -573h-398l447 590q-163 38 -254.5 145.5t-91.5 276.5q0 209 142 329.5t355 120.5h719zM422 1010q0 -104 64.5 -154.5t170.5 -50.5h347v405h-346q-113 0 -174.5 -50t-61.5 -150z" />
    <glyph glyph-name="afii10065" unicode="&#x430;" horiz-adv-x="1176" 
d="M597 1087q235 0 349.5 -77t114.5 -217v-568q0 -64 8.5 -128t28.5 -97h-295q-8 24 -13.5 49.5t-7.5 51.5q-61 -63 -151.5 -96.5t-204.5 -33.5q-164 0 -262 82.5t-98 235.5q0 148 92 226.5t335 105.5q169 16 223 41.5t54 88.5q0 71 -41.5 106.5t-145.5 35.5
q-90 0 -138 -38.5t-56 -121.5h-291q12 174 143.5 264t355.5 90zM356 301q0 -63 43 -99t136 -36q116 0 175.5 61t59.5 178v113q-26 -21 -68.5 -31.5t-153.5 -26.5q-99 -13 -145.5 -51.5t-46.5 -107.5z" />
    <glyph glyph-name="afii10066" unicode="&#x431;" horiz-adv-x="1251" 
d="M1118 1462q-19 -129 -93 -190t-186 -79l-167 -27q-169 -26 -243.5 -101.5t-111.5 -233.5h7q67 107 162.5 161.5t226.5 54.5q215 0 338 -143.5t123 -386.5q0 -238 -149 -392t-392 -154q-250 0 -394.5 172.5t-144.5 490.5q0 343 119.5 519t348.5 215l144 24q76 13 102 28.5
t36 41.5h274zM383 516q0 -151 65.5 -238.5t184.5 -87.5q121 0 185.5 86.5t64.5 239.5q0 151 -58 237.5t-174 86.5q-126 0 -197 -87.5t-71 -236.5z" />
    <glyph glyph-name="afii10067" unicode="&#x432;" horiz-adv-x="1167" 
d="M727 1059q147 0 233.5 -70.5t86.5 -197.5q0 -72 -36 -128.5t-104 -87.5v-4q95 -32 144 -99.5t49 -156.5q0 -145 -100 -230t-251 -85h-634v1059h612zM617 633q73 0 111 29.5t38 91.5t-40 91t-119 29h-206v-241h216zM624 188q91 0 138 32t47 108q0 73 -50.5 107t-139.5 34
h-218v-281h223z" />
    <glyph glyph-name="afii10068" unicode="&#x433;" horiz-adv-x="932" 
d="M913 1059v-219h-507v-840h-291v1059h798z" />
    <glyph glyph-name="afii10069" unicode="&#x434;" horiz-adv-x="1274" 
d="M1124 1059v-840h133v-530h-278v311h-684v-311h-279v530h127q66 144 99.5 312.5t33.5 329.5v198h848zM430 219h404v621h-283v-21q0 -173 -32 -322t-89 -278z" />
    <glyph glyph-name="afii10070" unicode="&#x435;" horiz-adv-x="1176" 
d="M600 1087q235 0 375.5 -161.5t140.5 -412.5l-2 -54h-764q6 -137 71.5 -203t187.5 -66q79 0 146 40.5t85 97.5h256q-59 -180 -182 -268.5t-314 -88.5q-245 0 -393 155t-148 402q0 237 151.5 398t389.5 161zM350 643h473q-21 117 -75.5 171t-157.5 54q-106 0 -168 -60
t-72 -165z" />
    <glyph glyph-name="afii10072" unicode="&#x436;" horiz-adv-x="1683" 
d="M373 1059l325 -418v418h287v-422l332 422h332l-367 -410l414 -649h-342l-256 444l-113 -127v-317h-287v313l-112 131l-260 -444h-338l407 639l-362 420h340z" />
    <glyph glyph-name="afii10073" unicode="&#x437;" horiz-adv-x="1094" 
d="M553 1087q210 0 324 -80t114 -219q0 -81 -48.5 -137.5t-141.5 -79.5v-4q110 -21 166.5 -85t56.5 -169q0 -158 -133.5 -250t-368.5 -92q-230 0 -352.5 92t-128.5 281h276q7 -90 59 -132t159 -42q93 0 145.5 40t52.5 109q0 65 -49 102.5t-147 37.5h-101v184h90
q95 0 141 30.5t46 92.5q0 58 -45.5 91.5t-126.5 33.5q-90 0 -139.5 -37t-55.5 -102v-2h-270q5 161 127.5 249t349.5 88z" />
    <glyph glyph-name="afii10074" unicode="&#x438;" horiz-adv-x="1214" 
d="M393 1059v-701l383 701h324v-1059h-279v700l-383 -700h-323v1059h278z" />
    <glyph glyph-name="afii10075" unicode="&#x439;" horiz-adv-x="1214" 
d="M393 1059v-701l383 701h324v-1059h-279v700l-383 -700h-323v1059h278zM399 1497q11 -65 67.5 -101t136.5 -36q93 0 149.5 33.5t74.5 103.5h129q-17 -141 -109.5 -216t-254.5 -75q-147 0 -230.5 74.5t-95.5 216.5h133z" />
    <glyph glyph-name="afii10076" unicode="&#x43a;" horiz-adv-x="1161" 
d="M401 1059v-424l377 424h344l-405 -424l452 -635h-352l-297 434l-119 -115v-319h-290v1059h290z" />
    <glyph glyph-name="afii10077" unicode="&#x43b;" horiz-adv-x="1214" 
d="M1100 1059v-1059h-291v840h-283l-18 -495q-7 -167 -91 -270.5t-262 -103.5q-33 0 -67.5 5t-71.5 16v227q15 -3 37 -6.5t45 -3.5q70 0 99.5 49.5t31.5 131.5l19 669h852z" />
    <glyph glyph-name="afii10078" unicode="&#x43c;" horiz-adv-x="1479" 
d="M541 1059l196 -772h8l197 772h422v-1059h-274v788h-7l-206 -788h-275l-207 788h-6v-788h-274v1059h426z" />
    <glyph glyph-name="afii10079" unicode="&#x43d;" horiz-adv-x="1214" 
d="M406 1059v-385h403v385h291v-1059h-291v444h-403v-444h-291v1059h291z" />
    <glyph glyph-name="afii10080" unicode="&#x43e;" horiz-adv-x="1251" 
d="M625 1087q249 0 399 -153.5t150 -405.5q0 -253 -151.5 -405t-397.5 -152t-396.5 153t-150.5 404t148 405t399 154zM369 528q0 -167 68.5 -252.5t187.5 -85.5q124 0 191 88.5t67 249.5q0 158 -65 249t-195 91q-117 0 -185.5 -84.5t-68.5 -255.5z" />
    <glyph glyph-name="afii10081" unicode="&#x43f;" horiz-adv-x="1214" 
d="M1100 1059v-1059h-291v840h-403v-840h-291v1059h985z" />
    <glyph glyph-name="afii10082" unicode="&#x440;" horiz-adv-x="1251" 
d="M707 1087q225 0 353 -157.5t128 -411.5q0 -235 -126 -391t-339 -156q-97 0 -181 41.5t-136 118.5h-5v-504h-290v1432h276v-135h4q52 83 132.5 123t183.5 40zM391 526q0 -152 65 -244t189 -92q121 0 186.5 88t65.5 248q0 152 -65 247t-191 95q-120 0 -185 -90t-65 -252z
" />
    <glyph glyph-name="afii10083" unicode="&#x441;" horiz-adv-x="1176" 
d="M618 1087q205 0 345.5 -106t152.5 -295h-285q-13 91 -67 136.5t-148 45.5q-117 0 -182 -96t-65 -248t64 -243t177 -91q97 0 157 55.5t75 160.5h280q-29 -210 -164 -322.5t-346 -112.5q-236 0 -385 151.5t-149 391.5q0 257 146.5 415t393.5 158z" />
    <glyph glyph-name="afii10084" unicode="&#x442;" horiz-adv-x="1024" 
d="M1006 1059v-219h-349v-840h-288v840h-349v219h986z" />
    <glyph glyph-name="afii10085" unicode="&#x443;" horiz-adv-x="1063" 
d="M299 1059l240 -725h4l231 725h301l-450 -1212q-40 -106 -123 -163t-215 -57q-63 0 -106.5 3t-89.5 8v239q53 -6 87 -8t65 -2q62 0 96 38t34 95q0 15 -2 29.5t-11 36.5l-373 993h312z" />
    <glyph glyph-name="afii10086" unicode="&#x444;" horiz-adv-x="1733" 
d="M1010 1462v-483h6q54 57 114 82.5t134 25.5q180 0 287.5 -146t107.5 -396q0 -262 -109 -418t-314 -156q-65 0 -123.5 26.5t-96.5 72.5h-6v-443h-287v443h-6q-41 -44 -100.5 -71.5t-134.5 -27.5q-193 0 -300.5 149.5t-107.5 423.5q0 250 112 396.5t297 146.5
q79 0 137 -25.5t97 -82.5h6v483h287zM365 539q0 -177 51.5 -263t148.5 -86q54 0 100 29t58 78v455q-24 55 -70 85.5t-98 30.5q-97 0 -143.5 -84t-46.5 -245zM1010 297q0 -29 45 -68t112 -39q98 0 149.5 86t51.5 263q0 166 -48 247.5t-145 81.5q-53 0 -98 -31.5t-67 -84.5
v-455z" />
    <glyph glyph-name="afii10087" unicode="&#x445;" horiz-adv-x="1100" 
d="M365 1059l186 -277l184 277h322l-348 -496l391 -563h-332l-221 334l-221 -334h-326l381 557l-348 502h332z" />
    <glyph glyph-name="afii10088" unicode="&#x446;" horiz-adv-x="1237" 
d="M406 1059v-840h391v840h290v-840h134v-530h-279v311h-827v1059h291z" />
    <glyph glyph-name="afii10089" unicode="&#x447;" horiz-adv-x="1176" 
d="M367 1059v-312q0 -78 37 -118.5t125 -40.5q45 0 97.5 6.5t143.5 21.5v443h291v-1059h-291v408q-70 -16 -144.5 -27.5t-151.5 -11.5q-203 0 -300.5 96t-97.5 258v336h291z" />
    <glyph glyph-name="afii10090" unicode="&#x448;" horiz-adv-x="1729" 
d="M406 1059v-840h313v840h291v-840h313v840h291v-1059h-1499v1059h291z" />
    <glyph glyph-name="afii10091" unicode="&#x449;" horiz-adv-x="1763" 
d="M406 1059v-840h313v840h291v-840h313v840h291v-840h133v-530h-279v311h-1353v1059h291z" />
    <glyph glyph-name="afii10092" unicode="&#x44a;" horiz-adv-x="1331" 
d="M618 1059v-365h280q173 0 280.5 -90t107.5 -256q0 -167 -108.5 -257.5t-280.5 -90.5h-569v840h-308v219h598zM833 201q79 0 120.5 35.5t41.5 111.5q0 77 -44.5 113.5t-119.5 36.5h-213v-297h215z" />
    <glyph glyph-name="afii10093" unicode="&#x44b;" horiz-adv-x="1559" 
d="M406 1059v-365h226q173 0 280.5 -90t107.5 -256q0 -167 -109 -257.5t-280 -90.5h-516v1059h291zM1444 1059v-1059h-291v1059h291zM567 201q77 0 119.5 35t42.5 112q0 75 -45 112.5t-119 37.5h-159v-297h161z" />
    <glyph glyph-name="afii10094" unicode="&#x44c;" horiz-adv-x="1118" 
d="M406 1059v-365h279q173 0 280.5 -90t107.5 -256q0 -167 -108.5 -257.5t-280.5 -90.5h-569v1059h291zM620 201q79 0 120.5 35.5t41.5 111.5q0 77 -46 113.5t-118 36.5h-212v-297h214z" />
    <glyph glyph-name="afii10095" unicode="&#x44d;" horiz-adv-x="1176" 
d="M565 1087q249 0 391 -152t142 -414q0 -247 -152 -398.5t-397 -151.5q-202 0 -338 102.5t-162 288.5h283q13 -86 73.5 -129t149.5 -43q103 0 171 68t81 201h-350v184h342q-10 104 -72.5 164.5t-161.5 60.5q-82 0 -139 -39t-80 -116h-289q40 181 170.5 277.5t337.5 96.5z
" />
    <glyph glyph-name="afii10096" unicode="&#x44e;" horiz-adv-x="1712" 
d="M1120 1087q235 0 374.5 -152t139.5 -407q0 -257 -141 -407t-373 -150q-211 0 -348 125t-160 355h-202v-451h-291v1059h291v-408h208q35 206 166 321t336 115zM895 528q0 -165 59 -253.5t166 -88.5q105 0 164 87.5t59 256.5q0 163 -58.5 252.5t-166.5 89.5
q-105 0 -164 -85.5t-59 -258.5z" />
    <glyph glyph-name="afii10097" unicode="&#x44f;" horiz-adv-x="1169" 
d="M1055 1059v-1059h-291v391h-131l-303 -391h-346l350 416q-126 28 -197 109t-71 200q0 143 106 238.5t273 95.5h610zM350 723q0 -62 45 -92.5t114 -30.5h255v250h-256q-67 0 -112.5 -30.5t-45.5 -96.5z" />
    <glyph glyph-name="afii10071" unicode="&#x451;" horiz-adv-x="1176" 
d="M600 1087q235 0 375.5 -161.5t140.5 -412.5l-2 -54h-764q6 -137 71.5 -203t187.5 -66q79 0 146 40.5t85 97.5h256q-59 -180 -182 -268.5t-314 -88.5q-245 0 -393 155t-148 402q0 237 151.5 398t389.5 161zM350 643h473q-21 117 -75.5 171t-157.5 54q-106 0 -168 -60
t-72 -165zM529 1464v-239h-277v239h277zM950 1464v-239h-276v239h276z" />
    <glyph glyph-name="afii10099" unicode="&#x452;" horiz-adv-x="1214" 
d="M401 1462v-119h363v-198h-363v-285h7q53 87 137 131.5t193 44.5q187 0 276.5 -107t89.5 -319v-395q0 -271 -149.5 -436t-448.5 -168v242q159 8 233 107.5t74 266.5v342q-2 238 -179 238q-132 0 -182.5 -75t-50.5 -218v-514h-290v1145h-181v198h181v119h290z" />
    <glyph glyph-name="afii10100" unicode="&#x453;" horiz-adv-x="932" 
d="M913 1059v-219h-507v-840h-291v1059h798zM858 1497l-316 -291h-202l196 291h322z" />
    <glyph glyph-name="afii10101" unicode="&#x454;" horiz-adv-x="1176" 
d="M623 1087q207 0 340 -100t159 -274h-288q-21 78 -75.5 116.5t-135.5 38.5q-99 0 -163 -58t-83 -167h342v-184h-350q11 -133 77 -201t170 -68q86 0 142.5 42t81.5 130h282q-39 -192 -172.5 -291.5t-331.5 -99.5q-241 0 -390.5 150t-149.5 399q0 253 147.5 410t397.5 157z
" />
    <glyph glyph-name="afii10102" unicode="&#x455;" horiz-adv-x="1100" 
d="M545 1087q216 0 333.5 -85.5t133.5 -251.5h-277q-6 75 -56 109t-143 34q-84 0 -122.5 -25t-38.5 -73q0 -49 50.5 -80.5t203.5 -60.5q244 -47 327.5 -121t83.5 -194q0 -180 -131.5 -274t-351.5 -94t-354.5 93.5t-143.5 279.5h277q0 -84 63.5 -131t159.5 -47q85 0 138 36.5
t53 98.5q0 55 -69 90t-253 73q-182 36 -263 103t-81 181q0 168 119 253.5t342 85.5z" />
    <glyph glyph-name="afii10103" unicode="&#x456;" horiz-adv-x="528" 
d="M410 1462v-239h-291v239h291zM410 1059v-1059h-291v1059h291z" />
    <glyph glyph-name="afii10104" unicode="&#x457;" horiz-adv-x="528" 
d="M410 1059v-1059h-291v1059h291zM193 1464v-239h-277v239h277zM614 1464v-239h-276v239h276z" />
    <glyph glyph-name="afii10105" unicode="&#x458;" horiz-adv-x="569" 
d="M428 1462v-239h-291v239h291zM428 1059v-1121q0 -166 -83 -238.5t-288 -72.5q-25 0 -48 2t-48 6v240q13 -5 29.5 -6.5t33.5 -1.5q64 0 88.5 24t24.5 66v1102h291z" />
    <glyph glyph-name="afii10106" unicode="&#x459;" horiz-adv-x="1692" 
d="M1044 1059v-385h214q176 0 282.5 -89t106.5 -247q0 -162 -108 -250t-281 -88h-504v840h-240l-14 -407l-5 -104q-3 -63 -26 -137.5t-67.5 -123.5t-106.5 -73t-144 -24q-29 0 -70 6.5t-65 14.5v227q24 -6 40 -8t37 -2q65 0 94.5 46t29.5 164l19 640h808zM1205 207
q74 0 113.5 30t39.5 99q0 68 -41.5 100.5t-114.5 32.5h-158v-262h161z" />
    <glyph glyph-name="afii10107" unicode="&#x45a;" horiz-adv-x="1692" 
d="M406 1059v-385h348v385h290v-385h214q176 0 282.5 -89t106.5 -247q0 -163 -109.5 -250.5t-279.5 -87.5h-504v469h-348v-469h-291v1059h291zM1205 207q74 0 113.5 30t39.5 99q0 68 -41.5 100.5t-114.5 32.5h-158v-262h161z" />
    <glyph glyph-name="afii10108" unicode="&#x45b;" horiz-adv-x="1214" 
d="M401 1462v-119h363v-198h-363v-285h7q53 87 137 131.5t193 44.5q187 0 276.5 -107t89.5 -319v-610h-291v556q0 122 -42 186.5t-144 64.5q-124 0 -175 -75t-51 -218v-514h-290v1145h-181v198h181v119h290z" />
    <glyph glyph-name="afii10109" unicode="&#x45c;" horiz-adv-x="1161" 
d="M401 1059v-424l377 424h344l-405 -424l452 -635h-352l-297 434l-119 -115v-319h-290v1059h290zM936 1497l-316 -291h-202l196 291h322z" />
    <glyph glyph-name="afii10110" unicode="&#x45e;" horiz-adv-x="1063" 
d="M299 1059l240 -725h4l231 725h301l-450 -1212q-40 -106 -123 -163t-215 -57q-63 0 -106.5 3t-89.5 8v239q53 -6 87 -8t65 -2q62 0 96 38t34 95q0 15 -2 29.5t-11 36.5l-373 993h312zM334 1497q11 -65 67.5 -101t136.5 -36q93 0 149.5 33.5t74.5 103.5h129
q-17 -141 -109.5 -216t-254.5 -75q-147 0 -230.5 74.5t-95.5 216.5h133z" />
    <glyph glyph-name="afii10193" unicode="&#x45f;" horiz-adv-x="1214" 
d="M406 1059v-840h403v840h291v-1059h-350v-311h-283v311h-352v1059h291z" />
    <glyph glyph-name="afii10050" unicode="&#x490;" horiz-adv-x="1169" 
d="M1126 1784v-592h-663v-1192h-322v1462h676v322h309z" />
    <glyph glyph-name="afii10098" unicode="&#x491;" horiz-adv-x="932" 
d="M905 1348v-508h-499v-840h-291v1059h516v289h274z" />
    <glyph glyph-name="Wgrave" unicode="&#x1e80;" horiz-adv-x="1933" 
d="M328 1462l231 -995h4l254 995h301l250 -1007h4l240 1007h315l-393 -1462h-320l-247 995h-4l-244 -995h-326l-387 1462h322zM910 1886l197 -291h-203l-315 291h321z" />
    <glyph glyph-name="wgrave" unicode="&#x1e81;" horiz-adv-x="1667" 
d="M319 1059l195 -719h4l176 719h283l180 -717h4l195 717h299l-335 -1059h-298l-188 711h-5l-180 -711h-301l-336 1059h307zM775 1497l197 -291h-203l-315 291h321z" />
    <glyph glyph-name="Wacute" unicode="&#x1e82;" horiz-adv-x="1933" 
d="M328 1462l231 -995h4l254 995h301l250 -1007h4l240 1007h315l-393 -1462h-320l-247 995h-4l-244 -995h-326l-387 1462h322zM1348 1886l-316 -291h-202l196 291h322z" />
    <glyph glyph-name="wacute" unicode="&#x1e83;" horiz-adv-x="1667" 
d="M319 1059l195 -719h4l176 719h283l180 -717h4l195 717h299l-335 -1059h-298l-188 711h-5l-180 -711h-301l-336 1059h307zM1217 1497l-316 -291h-202l196 291h322z" />
    <glyph glyph-name="Wdieresis" unicode="&#x1e84;" horiz-adv-x="1933" 
d="M328 1462l231 -995h4l254 995h301l250 -1007h4l240 1007h315l-393 -1462h-320l-247 995h-4l-244 -995h-326l-387 1462h322zM898 1853v-239h-277v239h277zM1319 1853v-239h-276v239h276z" />
    <glyph glyph-name="wdieresis" unicode="&#x1e85;" horiz-adv-x="1667" 
d="M319 1059l195 -719h4l176 719h283l180 -717h4l195 717h299l-335 -1059h-298l-188 711h-5l-180 -711h-301l-336 1059h307zM764 1464v-239h-277v239h277zM1185 1464v-239h-276v239h276z" />
    <glyph glyph-name="Ygrave" unicode="&#x1ef2;" horiz-adv-x="1366" 
d="M344 1462l342 -577l340 577h358l-542 -901v-561h-322v569l-538 893h362zM609 1886l197 -291h-203l-315 291h321z" />
    <glyph glyph-name="ygrave" unicode="&#x1ef3;" horiz-adv-x="1063" 
d="M299 1059l240 -725h4l231 725h301l-450 -1212q-40 -106 -123 -163t-215 -57q-63 0 -106.5 3t-89.5 8v239q53 -6 87 -8t65 -2q62 0 96 38t34 95q0 15 -2 29.5t-11 36.5l-373 993h312zM470 1497l197 -291h-203l-315 291h321z" />
    <glyph glyph-name="endash" unicode="&#x2013;" horiz-adv-x="1024" 
d="M1024 684v-250h-1024v250h1024z" />
    <glyph glyph-name="emdash" unicode="&#x2014;" horiz-adv-x="2048" 
d="M1782 684v-250h-1516v250h1516z" />
    <glyph glyph-name="afii00208" unicode="&#x2015;" horiz-adv-x="2048" 
d="M1905 684v-250h-1762v250h1762z" />
    <glyph glyph-name="underscoredbl" unicode="&#x2017;" horiz-adv-x="1024" 
d="M1024 -154v-102h-1024v102h1024zM1024 -356v-102h-1024v102h1024z" />
    <glyph glyph-name="quoteleft" unicode="&#x2018;" horiz-adv-x="569" 
d="M429 1327q-71 -25 -103 -73.5t-32 -128.5v-5h135v-315h-291v322q0 131 82.5 225.5t208.5 109.5v-135z" />
    <glyph glyph-name="quoteright" unicode="&#x2019;" horiz-adv-x="569" 
d="M430 1462v-322q0 -131 -82 -224.5t-209 -110.5v135q74 25 104.5 74.5t30.5 127.5v5h-135v315h291z" />
    <glyph glyph-name="quotesinglbase" unicode="&#x201a;" horiz-adv-x="569" 
d="M430 315v-322q0 -129 -80 -222.5t-211 -112.5v135q71 24 103 72.5t32 129.5v5h-135v315h291z" />
    <glyph glyph-name="quotereversed" unicode="&#x201b;" horiz-adv-x="569" 
d="M429 805q-126 15 -208.5 109.5t-82.5 225.5v322h291v-315h-135v-5q0 -80 32 -128.5t103 -73.5v-135z" />
    <glyph glyph-name="quotedblleft" unicode="&#x201c;" horiz-adv-x="948" 
d="M399 1327q-70 -24 -102.5 -72t-32.5 -135h135v-315h-290v328q0 124 80.5 217t209.5 112v-135zM836 1327q-74 -24 -105 -75.5t-31 -131.5h136v-315h-291v327q0 124 80.5 218t210.5 112v-135z" />
    <glyph glyph-name="quotedblright" unicode="&#x201d;" horiz-adv-x="948" 
d="M401 1462v-332q0 -118 -79.5 -212t-210.5 -113v135q70 24 102.5 72t32.5 135h-135v315h290zM838 1462v-322q0 -128 -80 -222.5t-211 -112.5v135q70 24 102.5 72t32.5 135h-135v315h291z" />
    <glyph glyph-name="quotedblbase" unicode="&#x201e;" horiz-adv-x="948" 
d="M401 315v-332q0 -117 -78 -210.5t-212 -114.5v135q66 22 100.5 69.5t34.5 137.5h-135v315h290zM838 315v-322q0 -126 -78 -220.5t-213 -114.5v135q66 22 100.5 69.5t34.5 137.5h-135v315h291z" />
    <glyph glyph-name="dagger" unicode="&#x2020;" horiz-adv-x="1139" 
d="M707 1462v-403h383v-240h-383v-1159h-277v1159h-381v240h381v403h277z" />
    <glyph glyph-name="daggerdbl" unicode="&#x2021;" horiz-adv-x="1139" 
d="M707 1462v-403h383v-240h-383v-524h383v-240h-383v-395h-277v395h-381v240h381v524h-381v240h381v403h277z" />
    <glyph glyph-name="bullet" unicode="&#x2022;" horiz-adv-x="1026" 
d="M512 1096q151 0 259 -108t108 -257q0 -148 -106.5 -257t-260.5 -109t-259.5 109t-105.5 257t106 256.5t259 108.5z" />
    <glyph glyph-name="ellipsis" unicode="&#x2026;" horiz-adv-x="2048" 
d="M502 315v-315h-322v315h322zM1184 315v-315h-322v315h322zM1866 315v-315h-322v315h322z" />
    <glyph glyph-name="perthousand" unicode="&#x2030;" horiz-adv-x="2349" 
d="M1329 1479l-844 -1524h-178l848 1524h174zM1202 676q148 0 222.5 -92t74.5 -267q0 -163 -77 -254.5t-222 -91.5q-138 0 -218.5 94.5t-80.5 251.5q0 163 78 261t223 98zM1085 317q0 -103 28 -158t87 -55q56 0 85.5 38t29.5 175q0 90 -8 132t-32.5 68t-71.5 26
q-60 0 -89 -42t-29 -184zM1911 676q148 0 222.5 -92t74.5 -267q0 -163 -77 -254.5t-222 -91.5q-138 0 -218.5 94.5t-80.5 251.5q0 163 78 261t223 98zM1794 317q0 -103 28 -158t87 -55q56 0 85.5 38t29.5 175q0 90 -8 132t-32.5 68t-71.5 26q-60 0 -89 -42t-29 -184z
M442 1462q148 0 222.5 -92t74.5 -267q0 -163 -77 -254.5t-222 -91.5q-138 0 -218.5 94.5t-80.5 251.5q0 163 78 261t223 98zM325 1103q0 -103 28 -158t87 -55q56 0 85.5 38t29.5 175q0 90 -8 132t-32.5 68t-71.5 26q-60 0 -89 -42t-29 -184z" />
    <glyph glyph-name="minute" unicode="&#x2032;" horiz-adv-x="569" 
d="M395 1462v-657h-219v657h219z" />
    <glyph glyph-name="second" unicode="&#x2033;" horiz-adv-x="948" 
d="M393 1462v-657h-219v657h219zM774 1462v-657h-219v657h219z" />
    <glyph glyph-name="guilsinglleft" unicode="&#x2039;" horiz-adv-x="494" 
d="M408 948v-246l-185 -145l185 -147v-246l-322 256v276z" />
    <glyph glyph-name="guilsinglright" unicode="&#x203a;" horiz-adv-x="494" 
d="M408 696v-276l-322 -256v246l184 147l-184 145v246z" />
    <glyph glyph-name="exclamdbl" unicode="&#x203c;" horiz-adv-x="1138" 
d="M1005 1462v-393l-80 -631h-145l-78 631v393h303zM1015 315v-315h-321v315h321zM436 1462v-393l-80 -631h-145l-78 631v393h303zM446 315v-315h-321v315h321z" />
    <glyph glyph-name="fraction" unicode="&#x2044;" horiz-adv-x="342" 
d="M682 1479l-844 -1524h-178l848 1524h174z" />
    <glyph glyph-name="four.sups" unicode="&#x2074;" horiz-adv-x="799" 
d="M629 1679v-540h116v-156h-116v-170h-197v170h-385v172l395 524h187zM201 1139h231v315z" />
    <glyph glyph-name="five.sups" unicode="&#x2075;" horiz-adv-x="799" 
d="M686 1679v-157h-371l-32 -176q29 26 71 40.5t97 14.5q125 0 200.5 -78t75.5 -207q0 -141 -93 -231t-249 -90q-137 0 -224.5 68.5t-94.5 187.5h192q11 -45 46.5 -70t86.5 -25q63 0 102 41t39 115q0 73 -34.5 111.5t-100.5 38.5q-36 0 -67.5 -16.5t-53.5 -47.5h-190l76 481
h524z" />
    <glyph glyph-name="seven.sups" unicode="&#x2077;" horiz-adv-x="799" 
d="M705 1679v-157q-118 -105 -191 -294t-80 -415h-225q13 192 82.5 364t206.5 336h-408v166h615z" />
    <glyph glyph-name="eight.sups" unicode="&#x2078;" horiz-adv-x="799" 
d="M399 1698q145 0 225.5 -64t80.5 -168q0 -63 -38 -113.5t-105 -70.5q88 -23 133.5 -78.5t45.5 -138.5q0 -121 -96 -195.5t-245 -74.5q-161 0 -252 71t-91 197q0 77 47.5 135t133.5 78q-68 21 -106 68t-38 114q0 105 85 172.5t220 67.5zM279 1446q0 -49 34 -77t86 -28
q56 0 87.5 28t31.5 77t-30 78.5t-90 29.5q-54 0 -86.5 -27.5t-32.5 -80.5zM252 1073q0 -61 40.5 -95t108.5 -34t106 33t38 96q0 55 -38 93t-109 38q-65 0 -105.5 -33.5t-40.5 -97.5z" />
    <glyph glyph-name="n.sups" unicode="&#x207f;" horiz-adv-x="799" 
d="M496 1485q110 0 165.5 -68.5t55.5 -184.5v-419h-209v378q0 62 -22.5 98t-73.5 36q-58 0 -89.5 -43t-31.5 -107v-362h-209v653h199v-96q31 53 84.5 84t130.5 31z" />
    <glyph glyph-name="franc" unicode="&#x20a3;" horiz-adv-x="1214" 
d="M463 420h340v-147h-340v-273h-322v273h-137v147h137v1042h1028v-270h-706v-338h612v-250h-612v-184z" />
    <glyph glyph-name="lira" unicode="&#x20a4;" horiz-adv-x="1139" 
d="M82 1090q0 88 37 162.5t105.5 129t165 85t215.5 30.5q117 0 209.5 -33t156.5 -98t98 -160.5t35 -220.5h-277q-6 140 -61.5 206t-161.5 66q-45 0 -82 -13.5t-63.5 -38t-41 -59.5t-14.5 -78q0 -30 4 -57t11 -52.5t16.5 -52t21.5 -56.5h347v-148h-291q8 -23 15.5 -44.5
t13.5 -41.5h262v-147h-245q-9 -75 -51.5 -135t-113.5 -115l4 -4q21 12 38 21t33 15t32.5 8.5t36.5 2.5q42 0 84 -7.5t82.5 -16t79.5 -16t75 -7.5q33 0 58.5 6.5t46.5 18.5t39 28t36 35l123 -207q-60 -60 -142 -95.5t-179 -35.5q-136 0 -227 39q-92 39 -197 39
q-82 0 -140 -23.5t-96 -54.5l-127 191q105 65 163.5 146.5t66.5 166.5h-226v147h199q-8 21 -17.5 42.5t-20.5 43.5h-164v148h90q-29 60 -45.5 118.5t-16.5 121.5z" />
    <glyph glyph-name="peseta" unicode="&#x20a7;" horiz-adv-x="2003" 
d="M721 1462q228 0 362 -129q134 -128 134 -340q0 -211 -134 -340t-362 -129h-258v-524h-322v1462h580zM632 774q139 0 206 52t67 167q0 112 -65 165.5t-207 53.5h-170v-438h169zM1715 1021v-267h213v-195h-213v-226q0 -66 24 -91q25 -25 99 -25q50 0 90 8v-227
q-36 -6 -80.5 -8t-87.5 -2q-190 0 -263 64t-73 181v326h-176v195h176v267h291z" />
    <glyph glyph-name="Euro" unicode="&#x20ac;" horiz-adv-x="1139" 
d="M807 1479q87 0 180 -26t193 -77l-125 -256q-74 46 -140.5 69t-128.5 23q-107 0 -179 -70t-107 -210h499l-63 -148h-460v-86h435l-63 -147h-356q32 -161 108 -242.5t195 -81.5q75 0 154.5 32.5t160.5 96.5l-2 -309q-68 -41 -148 -61.5t-167 -20.5q-249 0 -403.5 155
t-199.5 431h-157l63 147h82v57q0 20 2 29h-149l63 148h105q49 251 210.5 399t397.5 148z" />
    <glyph glyph-name="afii61248" unicode="&#x2105;" horiz-adv-x="1708" 
d="M1364 1479l-844 -1524h-178l848 1524h174zM424 1462q141 0 218 -72.5t85 -209.5h-205q-8 65 -34.5 94t-71.5 29q-69 0 -97 -68t-28 -228q0 -147 30.5 -217.5t94.5 -70.5q48 0 77 35.5t35 107.5h201q-17 -146 -98.5 -224.5t-212.5 -78.5q-167 0 -252.5 111t-85.5 334
q0 230 86 344t258 114zM1307 874q173 0 256.5 -114t83.5 -332q0 -229 -88.5 -343t-251.5 -114q-170 0 -255 112.5t-85 336.5q0 225 86 339.5t254 114.5zM1171 420q0 -152 28.5 -221.5t107.5 -69.5q77 0 106 74.5t29 224.5q0 154 -28.5 221.5t-107.5 67.5q-78 0 -106.5 -75.5
t-28.5 -221.5z" />
    <glyph glyph-name="afii61289" unicode="&#x2113;" horiz-adv-x="1024" 
d="M612 1477q140 0 225 -84.5t85 -223.5q0 -151 -94.5 -302t-299.5 -324v-232q1 -60 34.5 -96.5t90.5 -36.5q39 0 84.5 19.5t96.5 58.5h4l96 -147q-86 -72 -172 -105t-180 -33q-110 0 -187.5 42.5t-113 108.5t-35.5 160v74l-113 -98h-4l-100 154l215 176v484q0 175 107 290
t261 115zM528 782q82 88 122 180t40 191q0 59 -22.5 97t-57.5 38q-34 0 -58 -45.5t-24 -108.5v-352z" />
    <glyph glyph-name="afii61352" unicode="&#x2116;" horiz-adv-x="2142" 
d="M457 1434l524 -953v953h291v-1434h-309l-529 954v-954h-293v1434h316zM1729 926q146 0 238.5 -89.5t92.5 -240.5t-91.5 -241.5t-242.5 -90.5t-243 91t-92 241q0 151 94.5 240.5t243.5 89.5zM1593 596q0 -86 34.5 -133t98.5 -47q63 0 98.5 48t35.5 132q0 83 -36 130.5
t-101 47.5q-56 0 -93 -45.5t-37 -132.5zM2046 201v-201h-616v201h616z" />
    <glyph glyph-name="trademark" unicode="&#x2122;" horiz-adv-x="2048" 
d="M815 1462v-164h-240v-680h-208v680h-240v164h688zM1202 1462l211 -555l211 555h277v-844h-197v599h-4l-217 -599h-142l-217 599h-4v-599h-196v844h278z" />
    <glyph glyph-name="uni2126" unicode="&#x2126;" horiz-adv-x="1585" 
d="M793 1497q317 0 515.5 -192t198.5 -500q0 -166 -73.5 -303t-212.5 -230v-10h288v-262h-624v242q161 110 231 237t70 307q0 211 -106.5 326t-286.5 115q-181 0 -287.5 -116t-106.5 -325q0 -166 65 -292.5t234 -251.5v-242h-626v262h280v10q-130 82 -202 219t-72 314
q0 295 203.5 493.5t511.5 198.5z" />
    <glyph glyph-name="estimated" unicode="&#x212e;" horiz-adv-x="1577" 
d="M786 1462q306 0 501.5 -205t199.5 -542h-1092v-488q82 -80 178.5 -119.5t212.5 -39.5q175 0 300 80.5t223 244.5l94 -57q-130 -201 -270.5 -283t-345.5 -82q-306 0 -501.5 212t-195.5 532q0 324 195 535.5t501 211.5zM395 815h787v391q-83 78 -182.5 120t-217.5 42
q-107 0 -204 -39.5t-183 -122.5v-391z" />
    <glyph glyph-name="oneeighth" unicode="&#x215b;" horiz-adv-x="1708" 
d="M1288 1479l-844 -1524h-178l848 1524h174zM506 1440v-867h-209v549h-225v148h27q88 0 129 18t68.5 53t37.5 99h172zM1315 885q140 0 222.5 -62.5t82.5 -169.5q0 -65 -37.5 -113.5t-104.5 -70.5q91 -24 135 -81.5t44 -135.5q0 -119 -95 -194.5t-246 -75.5
q-162 0 -252.5 70.5t-90.5 197.5q0 78 47.5 135.5t132.5 77.5q-72 23 -107.5 70t-35.5 112q0 105 85 172.5t220 67.5zM1194 633q0 -47 33 -76t88 -29q54 0 86.5 28t32.5 77q0 46 -29.5 77t-90.5 31q-55 0 -87.5 -28.5t-32.5 -79.5zM1167 260q0 -57 39 -93t111 -36
q69 0 106 33t37 96q0 60 -40 95.5t-107 35.5t-106.5 -36t-39.5 -95z" />
    <glyph glyph-name="threeeighths" unicode="&#x215c;" horiz-adv-x="1708" 
d="M1372 1479l-844 -1524h-178l848 1524h174zM395 1458q137 0 218 -62.5t81 -168.5q0 -62 -34.5 -109t-100.5 -71q84 -17 127 -72t43 -146q0 -120 -98.5 -197t-249.5 -77q-159 0 -246.5 75.5t-89.5 209.5h197q9 -65 45.5 -94t99.5 -29q70 0 110 33.5t40 88.5
q0 60 -35.5 91.5t-135.5 30.5h-44v141h54q64 0 97 28.5t33 71.5q0 47 -31.5 74t-87.5 27q-61 0 -94 -32.5t-33 -103.5h-194q7 140 94 215.5t235 75.5zM1325 885q140 0 222.5 -62.5t82.5 -169.5q0 -66 -38 -115t-104 -69q88 -22 133.5 -78.5t45.5 -138.5q0 -121 -96 -195.5
t-245 -74.5q-162 0 -252.5 70.5t-90.5 197.5q0 77 47 134.5t133 78.5q-72 23 -107.5 70t-35.5 112q0 105 85 172.5t220 67.5zM1204 633q0 -47 33.5 -76t87.5 -29q55 0 87 28t32 77q0 46 -29.5 77t-90.5 31q-55 0 -87.5 -28.5t-32.5 -79.5zM1178 260q0 -61 40.5 -95
t108.5 -34q67 0 105 32t38 97q0 57 -39 94t-107 37q-67 0 -106.5 -35t-39.5 -96z" />
    <glyph glyph-name="fiveeighths" unicode="&#x215d;" horiz-adv-x="1708" 
d="M1368 1479l-844 -1524h-178l848 1524h174zM686 1440v-158h-371l-32 -176q23 23 67 39t101 16q127 0 201.5 -78.5t74.5 -205.5q0 -142 -92.5 -232t-249.5 -90q-135 0 -223.5 68t-95.5 188h192q11 -43 44.5 -68.5t88.5 -25.5q63 0 102 40.5t39 114.5q0 73 -34.5 111.5
t-100.5 38.5q-34 0 -65.5 -14.5t-55.5 -49.5h-190l76 482h524zM1325 885q140 0 222.5 -62.5t82.5 -169.5q0 -66 -38 -115t-104 -69q88 -22 133.5 -78.5t45.5 -138.5q0 -121 -96 -195.5t-245 -74.5q-162 0 -252.5 70.5t-90.5 197.5q0 77 47 134.5t133 78.5q-72 23 -107.5 70
t-35.5 112q0 105 85 172.5t220 67.5zM1204 633q0 -47 33.5 -76t87.5 -29q55 0 87 28t32 77q0 46 -29.5 77t-90.5 31q-55 0 -87.5 -28.5t-32.5 -79.5zM1178 260q0 -61 40.5 -95t108.5 -34q67 0 105 32t38 97q0 57 -39 94t-107 37q-67 0 -106.5 -35t-39.5 -96z" />
    <glyph glyph-name="seveneighths" unicode="&#x215e;" horiz-adv-x="1708" 
d="M1268 1479l-844 -1524h-178l848 1524h174zM723 1440v-158q-127 -115 -197.5 -313.5t-72.5 -395.5h-226q14 197 83.5 366t205.5 335h-407v166h614zM1294 885q139 0 222 -61.5t83 -170.5q0 -66 -38 -115t-104 -69q88 -22 133.5 -78.5t45.5 -138.5q0 -121 -96 -195.5
t-245 -74.5q-161 0 -252 71t-91 197q0 78 47.5 135.5t133.5 77.5q-68 21 -106 68t-38 114q0 105 85 172.5t220 67.5zM1174 633q0 -49 33.5 -77t86.5 -28q56 0 87.5 28t31.5 77t-30 78.5t-90 29.5q-54 0 -86.5 -27.5t-32.5 -80.5zM1147 260q0 -61 40.5 -95t108.5 -34t106 33
t38 96q0 56 -39 93.5t-108 37.5q-67 0 -106.5 -35t-39.5 -96z" />
    <glyph glyph-name="partialdiff" unicode="&#x2202;" horiz-adv-x="1171" 
d="M518 1477q271 0 418 -199.5t147 -543.5q0 -378 -136.5 -569.5t-391.5 -191.5q-206 0 -337.5 133.5t-131.5 342.5q0 198 127.5 328t323.5 130q75 0 142 -24.5t132 -73.5v16q0 206 -73.5 325.5t-207.5 119.5q-64 0 -123.5 -26t-123.5 -83l-144 164q106 88 194.5 120
t184.5 32zM346 434q0 -115 58.5 -188.5t154.5 -73.5q107 0 176 98.5t74 252.5v73q-47 53 -107 83t-124 30q-103 0 -167.5 -76.5t-64.5 -198.5z" />
    <glyph glyph-name="uni2206" unicode="&#x2206;" horiz-adv-x="1395" 
d="M866 1462l543 -1462h-1423l551 1462h329zM696 1102l-290 -832h577l-283 832h-4z" />
    <glyph glyph-name="product" unicode="&#x220f;" horiz-adv-x="1534" 
d="M1419 1610v-2048h-270v1790h-764v-1790h-272v2048h1306z" />
    <glyph glyph-name="summation" unicode="&#x2211;" horiz-adv-x="1378" 
d="M1298 1610v-258h-856l539 -752l-575 -780h917v-258h-1268v225l604 811l-579 786v226h1218z" />
    <glyph glyph-name="minus" unicode="&#x2212;" horiz-adv-x="1229" 
d="M1133 627v-219h-1035v219h1035z" />
    <glyph glyph-name="radical" unicode="&#x221a;" horiz-adv-x="1167" 
d="M1188 1610l-446 -2042l-2 -6h-248l-302 620l-108 -53l-100 215l350 160l239 -522l332 1628h285z" />
    <glyph glyph-name="infinity" unicode="&#x221e;" horiz-adv-x="1737" 
d="M467 948q112 0 204 -56.5t197 -193.5q98 132 193 191t209 59q168 0 271.5 -111t103.5 -286q0 -181 -104.5 -295.5t-272.5 -114.5q-102 0 -197.5 54.5t-202.5 183.5q-110 -132 -198.5 -183t-194.5 -51q-171 0 -277 112.5t-106 291.5q0 175 101.5 287t273.5 112zM1006 541
q65 -80 129.5 -122t132.5 -42t110.5 47t42.5 121q0 77 -44.5 123.5t-115.5 46.5q-53 0 -112.5 -39t-142.5 -135zM315 545q0 -72 43 -119t115 -47q64 0 129.5 42t126.5 120q-72 84 -137.5 128t-123.5 44q-67 0 -110 -49t-43 -119z" />
    <glyph glyph-name="integral" unicode="&#x222b;" horiz-adv-x="1286" 
d="M820 1606q90 0 166.5 -47t76.5 -121q0 -57 -35 -94t-90 -37q-46 0 -74 28t-43 89q-16 61 -45 61q-18 0 -28.5 -18t-10.5 -56l13 -332v-1000q0 -268 -83 -391.5t-258 -123.5q-99 0 -175 51.5t-76 130.5q0 54 39.5 85.5t89.5 31.5q45 0 71.5 -27.5t40.5 -88.5
q13 -62 41 -62q18 0 28.5 13.5t10.5 48.5l-12 304v978q0 356 91.5 466.5t261.5 110.5z" />
    <glyph glyph-name="approxequal" unicode="&#x2248;" horiz-adv-x="1229" 
d="M400 891q41 0 91 -13.5t131 -48.5q82 -36 133 -51.5t89 -15.5q51 0 82.5 30t42.5 97h172q-16 -169 -96.5 -252.5t-216.5 -83.5q-93 0 -227 65q-134 64 -216 64q-51 0 -83 -28t-42 -95h-172q14 162 93 247t219 85zM400 453q82 0 228 -64q146 -65 216 -65q52 0 83 29t42 98
h172q-15 -166 -94.5 -251t-218.5 -85q-46 0 -97.5 14t-131.5 51q-81 37 -127 50.5t-87 13.5q-51 0 -83.5 -29t-41.5 -94h-172q13 159 92.5 245.5t219.5 86.5z" />
    <glyph glyph-name="notequal" unicode="&#x2260;" horiz-adv-x="1229" 
d="M1008 1032l-103 -188h228v-213h-353l-112 -228h465v-213h-584l-146 -274l-178 88l101 186h-228v213h355l110 228h-465v213h584l147 276z" />
    <glyph glyph-name="equivalence" unicode="&#x2261;" horiz-adv-x="1229" 
d="M1133 966v-219h-1035v219h1035zM1133 288v-220h-1035v220h1035zM1133 627v-219h-1035v219h1035z" />
    <glyph glyph-name="lessequal" unicode="&#x2264;" horiz-adv-x="1229" 
d="M1133 821l-729 -170l729 -170v-231l-1035 291v221l1035 291v-232zM1133 219v-219h-1035v219h1035z" />
    <glyph glyph-name="greaterequal" unicode="&#x2265;" horiz-adv-x="1229" 
d="M98 1053l1035 -291v-221l-1035 -291v229l729 170l-729 170v234zM1133 219v-219h-1035v219h1035z" />
    <glyph glyph-name="revlogicalnot" unicode="&#x2310;" horiz-adv-x="1229" 
d="M1114 831v-219h-813v-409h-219v628h1032z" />
    <glyph glyph-name="lozenge" unicode="&#x25ca;" horiz-adv-x="1214" 
d="M727 1530l381 -801l-381 -801h-244l-377 801l379 801h242zM377 729l229 -536l230 536l-230 535z" />
    <glyph glyph-name="fi" unicode="&#xfb01;" horiz-adv-x="1210" 
d="M528 1462q30 0 80 -3t74 -5v-217q-29 3 -55.5 4.5t-49.5 1.5q-61 0 -86.5 -26.5t-25.5 -108.5v-49h201v-195h-201v-864h-291v864h-174v195h174v73q0 165 95.5 247.5t258.5 82.5zM1092 1462v-239h-291v239h291zM1092 1059v-1059h-291v1059h291z" />
    <glyph glyph-name="fl" unicode="&#xfb02;" horiz-adv-x="1210" 
d="M528 1462q30 0 80 -3t74 -5v-217q-29 3 -55.5 4.5t-49.5 1.5q-61 0 -86.5 -26.5t-25.5 -108.5v-49h201v-195h-201v-864h-291v864h-174v195h174v73q0 165 95.5 247.5t258.5 82.5zM1092 1462v-1462h-291v1462h291z" />
    <glyph glyph-name="uniFEFF" unicode="&#xfeff;" horiz-adv-x="0" 
 />
    <glyph glyph-name="c.breve" horiz-adv-x="530" 
d="M53 1886q11 -67 69.5 -102t134.5 -35q94 0 150.5 33.5t73.5 103.5h129q-17 -141 -108.5 -216t-255.5 -75q-150 0 -232 75.5t-94 215.5h133z" />
    <glyph glyph-name="commaaccent" horiz-adv-x="569" 
d="M451 -102v-156q0 -91 -55.5 -138.5t-203.5 -47.5h-18v75q52 6 78.5 22t38.5 54h-137v191h297z" />
    <glyph glyph-name="caroncommaaccent" horiz-adv-x="569" 
d="M510 1499l-193 -350h-208l88 350h313z" />
    <glyph glyph-name="commaaccentrotate" horiz-adv-x="569" 
d="M418 1538q-53 -4 -80.5 -23t-36.5 -53h137v-190h-297v155q0 94 58 140.5t212 46.5h7v-76z" />
    <glyph glyph-name="cyrbreve" horiz-adv-x="530" 
d="M53 1886q11 -67 69.5 -102t134.5 -35q94 0 150.5 33.5t73.5 103.5h129q-17 -141 -108.5 -216t-255.5 -75q-150 0 -232 75.5t-94 215.5h133z" />
    <glyph glyph-name="Dotaccent" horiz-adv-x="530" 
d="M403 1853v-239h-276v239h276z" />
    <glyph glyph-name="Breve" horiz-adv-x="530" 
d="M53 1886q11 -67 69.5 -102t134.5 -35q94 0 150.5 33.5t73.5 103.5h129q-17 -141 -108.5 -216t-255.5 -75q-150 0 -232 75.5t-94 215.5h133z" />
    <glyph glyph-name="Ring" horiz-adv-x="530" 
d="M266 1993q102 0 171 -68.5t69 -165.5q0 -96 -69 -164.5t-171 -68.5q-100 0 -169.5 66t-69.5 167q0 98 70.5 166t168.5 68zM141 1759q0 -57 36 -93t89 -36q58 0 91.5 36.5t33.5 92.5q0 57 -35 93t-91 36q-53 0 -88.5 -35.5t-35.5 -93.5z" />
    <glyph glyph-name="Tilde" horiz-adv-x="530" 
d="M129 1866q63 0 156 -36q92 -36 137 -36q35 0 56.5 16t31.5 56h131q-24 -121 -81 -177.5t-148 -56.5q-71 0 -162 35t-139 35q-33 0 -56 -20t-37 -66h-129q17 115 84 182.5t156 67.5z" />
    <glyph glyph-name="Circumflex" horiz-adv-x="530" 
d="M399 1886l226 -291h-236l-126 165h-2l-130 -165h-225l227 291h266z" />
    <glyph glyph-name="Acute" horiz-adv-x="530" 
d="M631 1886l-316 -291h-202l196 291h322z" />
    <glyph glyph-name="Caron" horiz-adv-x="530" 
d="M141 1886l126 -165h2l130 165h226l-228 -291h-266l-225 291h235z" />
    <glyph glyph-name="Dieresis" horiz-adv-x="530" 
d="M193 1853v-239h-277v239h277zM614 1853v-239h-276v239h276z" />
    <glyph glyph-name="Grave" horiz-adv-x="530" 
d="M222 1886l197 -291h-203l-315 291h321z" />
    <glyph glyph-name="Hungarumlaut" horiz-adv-x="530" 
d="M393 1886l-305 -291h-203l187 291h321zM817 1886l-305 -291h-203l187 291h321z" />
    <glyph glyph-name="Macron" horiz-adv-x="530" 
d="M627 1810v-153h-723v153h723z" />
    <glyph glyph-name="grave.cap" horiz-adv-x="530" 
d="M222 1886l197 -291h-203l-315 291h321z" />
    <glyph glyph-name="acute.cap" horiz-adv-x="530" 
d="M631 1886l-316 -291h-202l196 291h322z" />
    <glyph glyph-name="circumflex.cap" horiz-adv-x="530" 
d="M399 1886l226 -291h-236l-126 165h-2l-130 -165h-225l227 291h266z" />
    <glyph glyph-name="caron.cap" horiz-adv-x="530" 
d="M141 1886l126 -165h2l130 165h226l-228 -291h-266l-225 291h235z" />
    <glyph glyph-name="caron.alt" horiz-adv-x="530" 
d="M545 1462l-166 -291h-201l64 291h303z" />
    <glyph glyph-name="tilde.cap" horiz-adv-x="530" 
d="M129 1866q63 0 156 -36q92 -36 137 -36q35 0 56.5 16t31.5 56h131q-24 -121 -81 -177.5t-148 -56.5q-71 0 -162 35t-139 35q-33 0 -56 -20t-37 -66h-129q17 115 84 182.5t156 67.5z" />
    <glyph glyph-name="dieresis.cap" horiz-adv-x="530" 
d="M193 1853v-239h-277v239h277zM614 1853v-239h-276v239h276z" />
    <glyph glyph-name="macron.cap" horiz-adv-x="530" 
d="M627 1810v-153h-723v153h723z" />
    <glyph glyph-name="breve.cap" horiz-adv-x="530" 
d="M53 1886q11 -67 69.5 -102t134.5 -35q94 0 150.5 33.5t73.5 103.5h129q-17 -141 -108.5 -216t-255.5 -75q-150 0 -232 75.5t-94 215.5h133z" />
    <glyph glyph-name="ring.cap" horiz-adv-x="530" 
d="M266 1993q102 0 171 -68.5t69 -165.5q0 -96 -69 -164.5t-171 -68.5q-100 0 -169.5 66t-69.5 167q0 98 70.5 166t168.5 68zM141 1759q0 -57 36 -93t89 -36q58 0 91.5 36.5t33.5 92.5q0 57 -35 93t-91 36q-53 0 -88.5 -35.5t-35.5 -93.5z" />
    <glyph glyph-name="hungarumlaut.cap" horiz-adv-x="530" 
d="M393 1886l-305 -291h-203l187 291h321zM817 1886l-305 -291h-203l187 291h321z" />
    <glyph glyph-name="dotaccent.cap" horiz-adv-x="530" 
d="M403 1853v-239h-276v239h276z" />
    <glyph glyph-name="commaaccent.alt" horiz-adv-x="569" 
d="M418 1538q-53 -4 -80.5 -23t-36.5 -53h137v-190h-297v155q0 94 58 140.5t212 46.5h7v-76z" />
    </font>
</defs>
</svg>
