<svg xmlns="http://www.w3.org/2000/svg" xmlns:xlink="http://www.w3.org/1999/xlink" width="49" height="49" viewBox="0 0 49 49">
  <defs>
    <linearGradient id="linear-gradient" x1="0.268" y1="0.087" x2="0.864" y2="0.902" gradientUnits="objectBoundingBox">
      <stop offset="0" stop-color="#b300a1" stop-opacity="0.4"/>
      <stop offset="1" stop-color="#571eb3" stop-opacity="0.502"/>
    </linearGradient>
  </defs>
  <g id="add" transform="translate(-0.968 -0.968)">
    <g id="Group_1043" data-name="Group 1043" transform="translate(0.968 0.968)">
      <circle id="Ellipse_508" data-name="Ellipse 508" cx="24.5" cy="24.5" r="24.5" fill="url(#linear-gradient)"/>
    </g>
    <g id="Group_1044" data-name="Group 1044" transform="translate(16.066 15.88)">
      <path id="Path_17585" data-name="Path 17585" d="M237.722,153.857a1.551,1.551,0,0,1-1.552-1.552V136.789a1.552,1.552,0,1,1,3.1,0v15.517A1.551,1.551,0,0,1,237.722,153.857Z" transform="translate(-228.412 -135.237)" fill="#fff"/>
      <path id="Path_17586" data-name="Path 17586" d="M154.09,237.488H138.574a1.552,1.552,0,0,1,0-3.1H154.09a1.552,1.552,0,1,1,0,3.1Z" transform="translate(-137.022 -226.627)" fill="#fff"/>
    </g>
  </g>
</svg>
