<svg id="copy" xmlns="http://www.w3.org/2000/svg" width="13" height="15" viewBox="0 0 13 15">
  <g id="Group_1028" data-name="Group 1028">
    <path id="Path_17555" data-name="Path 17555" d="M57.481,85.4H49.933a1.238,1.238,0,0,0-1.283,1.186V96.591a1.238,1.238,0,0,0,1.283,1.186h7.547a1.238,1.238,0,0,0,1.283-1.186V86.586A1.242,1.242,0,0,0,57.481,85.4Zm.382,11.188a.372.372,0,0,1-.386.356H49.93a.372.372,0,0,1-.386-.356v-10a.372.372,0,0,1,.386-.356h7.547a.372.372,0,0,1,.386.356Z" transform="translate(-48.65 -82.777)" fill="#7d2cff"/>
    <path id="Path_17556" data-name="Path 17556" d="M144.281,0h-7.547a1.238,1.238,0,0,0-1.283,1.186.45.45,0,0,0,.9,0,.372.372,0,0,1,.386-.356h7.547a.372.372,0,0,1,.386.356V11.191a.372.372,0,0,1-.386.356.416.416,0,1,0,0,.829,1.238,1.238,0,0,0,1.283-1.186V1.186A1.238,1.238,0,0,0,144.281,0Z" transform="translate(-132.564)" fill="#7d2cff"/>
  </g>
</svg>
