<svg width="8" height="8" viewBox="0 0 8 8" fill="none" xmlns="http://www.w3.org/2000/svg">
<path fill-rule="evenodd" clip-rule="evenodd" d="M1.08364 6.32767C0.92093 6.49042 0.920955 6.75421 1.08369 6.91692C1.24642 7.07963 1.51024 7.07963 1.67294 6.91688L4.00013 4.58929L6.3275 6.91667C6.49021 7.07938 6.75404 7.07938 6.91675 6.91667C7.07946 6.75396 7.07946 6.49013 6.91675 6.32742L4.58933 4L6.91658 1.67234C7.07925 1.50961 7.07925 1.24579 6.9165 1.08309C6.75379 0.920382 6.48996 0.920407 6.32725 1.08314L4.00004 3.41075L1.67266 1.08334C1.50994 0.920624 1.24612 0.920624 1.08341 1.08334C0.920685 1.24606 0.920685 1.50988 1.08341 1.6726L3.41088 4.00004L1.08364 6.32767Z" fill="black"/>
</svg>
