<svg width="13" height="13" viewBox="0 0 13 13" fill="none" xmlns="http://www.w3.org/2000/svg">
<path fill-rule="evenodd" clip-rule="evenodd" d="M0.95891 10.9226C0.649764 11.2318 0.649811 11.733 0.959005 12.0421C1.2682 12.3513 1.76945 12.3513 2.07859 12.0421L6.50024 7.61965L10.9222 12.0417C11.2314 12.3508 11.7327 12.3508 12.0418 12.0417C12.351 11.7325 12.351 11.2312 12.0418 10.9221L7.61973 6.5L12.0415 2.07745C12.3506 1.76826 12.3506 1.267 12.0413 0.957866C11.7322 0.64872 11.2309 0.648767 10.9218 0.957961L6.50008 5.38042L2.07805 0.958341C1.76889 0.649179 1.26763 0.649179 0.958466 0.958341C0.649297 1.26751 0.649297 1.76876 0.958466 2.07793L5.38066 6.50008L0.95891 10.9226Z" fill="#C60712"/>
</svg>
