<svg id="Group_2401" data-name="Group 2401" xmlns="http://www.w3.org/2000/svg" width="26" height="26" viewBox="0 0 26 26">
  <path id="Path_17588" data-name="Path 17588" d="M156.5,157.43a.925.925,0,0,1-.657-.272l-9.286-9.286a.928.928,0,0,1,1.313-1.313l9.286,9.286a.929.929,0,0,1-.656,1.585Zm0,0" transform="translate(-138.857 -138.859)" fill="#9c88b9"/>
  <g id="Group_2400" data-name="Group 2400">
    <path id="Path_17587" data-name="Path 17587" d="M13,26A13,13,0,1,1,26,13,13.015,13.015,0,0,1,13,26ZM13,1.857A11.143,11.143,0,1,0,24.143,13,11.156,11.156,0,0,0,13,1.857Zm0,0" fill="#9c88b9"/>
    <path id="Path_17589" data-name="Path 17589" d="M147.215,157.429a.929.929,0,0,1-.656-1.585l9.286-9.286a.928.928,0,1,1,1.313,1.313l-9.286,9.286A.925.925,0,0,1,147.215,157.429Zm0,0" transform="translate(-138.857 -138.857)" fill="#9c88b9"/>
  </g>
</svg>
