<svg xmlns="http://www.w3.org/2000/svg" width="18.651" height="18.643" viewBox="0 0 18.651 18.643">
  <path id="filter" d="M11,12.572a.728.728,0,0,1-.728-.728V9.332A.728.728,0,0,1,10.6,8.72L14.2,6.4a7.567,7.567,0,0,0,2.853-2.756,1.457,1.457,0,0,0-1.32-2.073H2.919A1.457,1.457,0,0,0,1.6,3.651,7.709,7.709,0,0,0,4.5,6.4l3.62,2.321a.728.728,0,0,1,.335.613v2.507a.728.728,0,0,1-1.456,0V9.735L3.709,7.628A8.892,8.892,0,0,1,.281,4.269,2.923,2.923,0,0,1,2.919.12H15.733a2.923,2.923,0,0,1,2.64,4.145,8.9,8.9,0,0,1-3.384,3.364l-3.261,2.1v2.115a.728.728,0,0,1-.728.728Zm3.414-9.109a1.987,1.987,0,0,0-2.744.191.62.62,0,0,1-.884-.018,2.1,2.1,0,0,0-2.94,0,.62.62,0,0,1-.884.018,1.912,1.912,0,0,0-2.641-.236.728.728,0,1,0,.834,1.194.873.873,0,0,1,.392-.159.836.836,0,0,1,.386.232,2.083,2.083,0,0,0,2.942-.018.639.639,0,0,1,.883,0,2.083,2.083,0,0,0,2.942.018.929.929,0,0,1,.416-.233.94.94,0,0,1,.442.188.728.728,0,0,0,.857-1.178ZM9.324,13.337a1.346,1.346,0,0,0-1.062.513c-1.17,1.478-1.3,2.163-1.3,2.549a2.367,2.367,0,0,0,4.733,0c0-.387-.135-1.071-1.3-2.549A1.346,1.346,0,0,0,9.324,13.337Zm0,3.969a.909.909,0,0,1-.91-.905s.023-.4.91-1.544c.887,1.142.91,1.54.91,1.543A.909.909,0,0,1,9.324,17.306Z" transform="translate(0 -0.119)" fill="#fff"/>
</svg>
