<svg width="20" height="18" viewBox="0 0 20 18" fill="none" xmlns="http://www.w3.org/2000/svg">
<path d="M1.78438 0C0.798612 0 0 0.839984 0 1.87496V16.1172C0 17.1522 0.800041 17.9921 1.78438 17.9921H2.4987C3.48446 17.9921 4.28307 17.1522 4.28307 16.1172V1.87346C4.28307 0.838484 3.48303 0 2.49727 0H1.7858H1.78438ZM7.49467 0C6.5089 0 5.70886 0.839984 5.70886 1.87496V16.1172C5.70886 17.1522 6.5089 17.9921 7.49467 17.9921H8.20899C8.68212 17.9914 9.13561 17.7935 9.4699 17.4419C9.80418 17.0904 9.99194 16.6139 9.99193 16.1172V1.87346C9.99156 1.37671 9.80344 0.90042 9.46889 0.549163C9.13433 0.197907 8.68069 0.000397242 8.20756 0H7.49324H7.49467ZM15.6751 4.16542C15.5038 3.71828 15.175 3.35763 14.757 3.15845C14.339 2.95928 13.864 2.93689 13.4307 3.09594L12.5992 3.40193C12.3717 3.4858 12.1627 3.61717 11.9849 3.78813C11.807 3.95909 11.664 4.16609 11.5644 4.39666C11.4648 4.62723 11.4107 4.87659 11.4054 5.1297C11.4001 5.38281 11.4436 5.63443 11.5334 5.86939L15.7294 16.8252C16.0851 17.7552 17.0723 18.2246 17.9738 17.8947L18.8052 17.5887C19.0329 17.5048 19.2421 17.3734 19.4201 17.2023C19.598 17.0313 19.7411 16.8241 19.8407 16.5934C19.9403 16.3626 19.9944 16.1131 19.9996 15.8598C20.0048 15.6065 19.961 15.3547 19.871 15.1197L15.6751 4.16542Z" fill="#00B594"/>
</svg>
