<svg xmlns="http://www.w3.org/2000/svg" width="29.392" height="29.392" viewBox="0 0 29.392 29.392">
  <g id="detailed" style="isolation: isolate">
    <path id="Path_17569" data-name="Path 17569" d="M259.094,250.957l-.706-.408a6.377,6.377,0,0,0,0-1.6l.706-.408a.861.861,0,0,0,.315-1.176l-1.722-2.983a.861.861,0,0,0-1.176-.315l-.709.409a6.514,6.514,0,0,0-1.382-.8v-.813a.861.861,0,0,0-.861-.861h-3.444a.861.861,0,0,0-.861.861v.813a6.513,6.513,0,0,0-1.382.8l-.709-.409a.861.861,0,0,0-1.176.315l-1.722,2.983a.861.861,0,0,0,.315,1.176l.706.408a6.371,6.371,0,0,0,0,1.6l-.706.408a.861.861,0,0,0-.315,1.176l1.722,2.983a.861.861,0,0,0,1.176.315l.709-.409a6.513,6.513,0,0,0,1.382.8v.813a.861.861,0,0,0,.861.861h3.444a.861.861,0,0,0,.861-.861v-.813a6.514,6.514,0,0,0,1.382-.8l.709.409a.861.861,0,0,0,1.176-.315l1.722-2.983a.861.861,0,0,0-.315-1.176Zm-2.5-2.266a4.774,4.774,0,0,1,0,2.118.861.861,0,0,0,.41.932l.48.277-.861,1.491-.484-.279a.861.861,0,0,0-1.013.111,4.835,4.835,0,0,1-1.829,1.064.861.861,0,0,0-.6.822v.551h-1.722v-.551a.861.861,0,0,0-.6-.822,4.835,4.835,0,0,1-1.829-1.064.861.861,0,0,0-1.013-.111l-.483.279-.861-1.491.48-.277a.861.861,0,0,0,.41-.932,4.775,4.775,0,0,1,0-2.118.861.861,0,0,0-.41-.932l-.48-.277.861-1.491.483.279a.861.861,0,0,0,1.013-.111,4.835,4.835,0,0,1,1.829-1.064.861.861,0,0,0,.6-.822v-.551H252.7v.551a.861.861,0,0,0,.6.822,4.836,4.836,0,0,1,1.829,1.064.861.861,0,0,0,1.013.111l.483-.279.861,1.491-.48.277A.861.861,0,0,0,256.6,248.691Z" transform="translate(-230.132 -228.108)" fill="#9c88b9"/>
    <path id="Path_17570" data-name="Path 17570" d="M326.234,322a3.157,3.157,0,1,0,3.157,3.157A3.161,3.161,0,0,0,326.234,322Zm0,4.593a1.435,1.435,0,1,1,1.435-1.435A1.437,1.437,0,0,1,326.234,326.593Z" transform="translate(-304.53 -303.515)" fill="#9c88b9"/>
    <path id="Path_17571" data-name="Path 17571" d="M2.583,12.055h8.254l3.192,3.192a.861.861,0,0,0,1.47-.609V12.055h2.009a2.586,2.586,0,0,0,2.583-2.583V2.583A2.586,2.586,0,0,0,17.509,0H2.583A2.586,2.586,0,0,0,0,2.583V9.472A2.586,2.586,0,0,0,2.583,12.055ZM1.722,2.583a.862.862,0,0,1,.861-.861H17.509a.862.862,0,0,1,.861.861V9.472a.862.862,0,0,1-.861.861h-2.87a.861.861,0,0,0-.861.861V12.56L11.8,10.585a.861.861,0,0,0-.609-.252H2.583a.862.862,0,0,1-.861-.861Z" fill="#9c88b9"/>
    <path id="Path_17572" data-name="Path 17572" d="M60.861,61.722H72.342a.861.861,0,1,0,0-1.722H60.861a.861.861,0,1,0,0,1.722Z" transform="translate(-56.556 -56.556)" fill="#9c88b9"/>
    <path id="Path_17573" data-name="Path 17573" d="M60.861,121.722H72.342a.861.861,0,1,0,0-1.722H60.861a.861.861,0,1,0,0,1.722Z" transform="translate(-56.556 -113.111)" fill="#9c88b9"/>
    <circle id="Ellipse_502" data-name="Ellipse 502" cx="0.861" cy="0.861" r="0.861" transform="translate(5.741 19.518)" fill="#9c88b9"/>
    <path id="Path_17574" data-name="Path 17574" d="M21.194,255.167h-.948a4.282,4.282,0,0,0-.628-1.512l.672-.672a.861.861,0,1,0-1.218-1.218l-.672.672a4.28,4.28,0,0,0-1.511-.628v-.948a.861.861,0,1,0-1.722,0v.948a4.28,4.28,0,0,0-1.511.628l-.672-.672a.861.861,0,1,0-1.218,1.218l.672.672a4.28,4.28,0,0,0-.628,1.512h-.948a.861.861,0,1,0,0,1.722h.948a4.282,4.282,0,0,0,.628,1.512l-.672.672a.861.861,0,1,0,1.218,1.218l.672-.672a4.279,4.279,0,0,0,1.511.628v.948a.861.861,0,1,0,1.722,0v-.948a4.281,4.281,0,0,0,1.511-.629l.672.672a.861.861,0,0,0,1.218-1.218l-.672-.672a4.279,4.279,0,0,0,.628-1.512h.948a.861.861,0,0,0,0-1.722Zm-5.167,3.444a2.583,2.583,0,1,1,2.583-2.583A2.586,2.586,0,0,1,16.028,258.611Z" transform="translate(-9.426 -235.648)" fill="#9c88b9"/>
  </g>
</svg>
