<svg xmlns="http://www.w3.org/2000/svg" width="19.43" height="19.445" viewBox="0 0 19.43 19.445">
  <g id="Search_Icon" data-name="Search Icon" transform="translate(0)" opacity="0.6">
    <path id="Path_436" data-name="Path 436" d="M8.2,16.015a8.007,8.007,0,1,1,8.007-8.007A8.016,8.016,0,0,1,8.2,16.015Zm0-14.5a6.489,6.489,0,1,0,6.489,6.489A6.5,6.5,0,0,0,8.2,1.518Zm11.2,17.7a.759.759,0,0,0,0-1.073l-3.4-3.4a.759.759,0,0,0-1.073,1.073l3.4,3.4a.759.759,0,0,0,1.073,0Z" transform="translate(-0.196)" fill="#fff"/>
  </g>
</svg>
