<svg id="Group_1024" data-name="Group 1024" xmlns="http://www.w3.org/2000/svg" width="25" height="19.626" viewBox="0 0 25 19.626">
  <g id="Group_1023" data-name="Group 1023" transform="translate(0 0)">
    <path id="Path_17533" data-name="Path 17533" d="M20.829,61.535A8.593,8.593,0,0,0,3.925,63a4.687,4.687,0,0,0,.781,9.311H8.612V70.753H4.706a3.125,3.125,0,0,1,0-6.249.781.781,0,0,0,.781-.781,7.03,7.03,0,0,1,13.928-1.367.781.781,0,0,0,.664.625,3.906,3.906,0,0,1-.531,7.773H16.424v1.562h3.125a5.468,5.468,0,0,0,1.281-10.78Z" transform="translate(0 -55.032)" fill="#bbade3"/>
    <path id="Path_17534" data-name="Path 17534" d="M184.16,249.238l-3.125,3.125,1.1,1.1,1.8-1.789v7.491H185.5v-7.491l1.789,1.789,1.1-1.1-3.125-3.125A.781.781,0,0,0,184.16,249.238Z" transform="translate(-172.196 -239.54)" fill="#bbade3"/>
  </g>
</svg>
